<?xml version="1.0" encoding="UTF-8"?>
<svg width="82px" height="49px" viewBox="0 0 82 49" version="1.1" xmlns="http://www.w3.org/2000/svg" xmlns:xlink="http://www.w3.org/1999/xlink">
    <!-- Generator: Sketch 48.2 (47327) - http://www.bohemiancoding.com/sketch -->
    <title>4 3</title>
    <desc>Created with Sketch.</desc>
    <defs></defs>
    <g id="Artboard-3-Copy-3" stroke="none" stroke-width="1" fill="none" fill-rule="evenodd" transform="translate(-915.000000, -87.000000)">
        <g id="Group-5" transform="translate(116.000000, 66.000000)" fill="#FFFFFF">
            <g id="Group-38-Copy" transform="translate(650.000000, 0.000000)">
                <g id="Group-4" transform="translate(41.000000, 21.000000)">
                    <g id="62%-copy" transform="translate(108.000000, 0.000000)">
                        <g id="Group-3">
                            <g id="4-3">
                                <polygon id="Line" fill-rule="nonzero" opacity="0.3" points="-1.11022302e-16 30.7 -1.11022302e-16 29.85 81.6402554 29.85 81.6402554 30.7"></polygon>
                                <path d="M20.7875,39.655 C21.0375013,39.1249974 21.4099975,38.7250013 21.905,38.455 C22.4000025,38.1849986 23.0124964,38.05 23.7425,38.05 L23.7425,39.085 L23.4875,39.07 C22.6574959,39.07 22.0075024,39.3249974 21.5375,39.835 C21.0674977,40.3450026 20.8325,41.0599954 20.8325,41.98 L20.8325,46 L19.7675,46 L19.7675,38.11 L20.7875,38.11 L20.7875,39.655 Z M28.5425,38.05 C29.5725052,38.05 30.3624973,38.3074974 30.9125,38.8225 C31.4625028,39.3375026 31.7375,40.0999949 31.7375,41.11 L31.7375,46 L30.7175,46 L30.7175,44.77 C30.4774988,45.180002 30.1250023,45.4999988 29.66,45.73 C29.1949977,45.9600012 28.6425032,46.075 28.0025,46.075 C27.1224956,46.075 26.4225026,45.8650021 25.9025,45.445 C25.3824974,45.0249979 25.1225,44.4700035 25.1225,43.78 C25.1225,43.1099966 25.3649976,42.570002 25.85,42.16 C26.3350024,41.7499979 27.1074947,41.545 28.1675,41.545 L30.6725,41.545 L30.6725,41.065 C30.6725,40.3849966 30.4825019,39.8675018 30.1025,39.5125 C29.7224981,39.1574982 29.1675037,38.98 28.4375,38.98 C27.9374975,38.98 27.4575023,39.0624992 26.9975,39.2275 C26.5374977,39.3925008 26.1425017,39.6199986 25.8125,39.91 L25.3325,39.115 C25.732502,38.7749983 26.2124972,38.5125009 26.7725,38.3275 C27.3325028,38.1424991 27.9224969,38.05 28.5425,38.05 Z M28.1675,45.235 C28.767503,45.235 29.2824979,45.0975014 29.7125,44.8225 C30.1425022,44.5474986 30.462499,44.1500026 30.6725,43.63 L30.6725,42.34 L28.1975,42.34 C26.8474933,42.34 26.1725,42.8099953 26.1725,43.75 C26.1725,44.2100023 26.3474983,44.5724987 26.6975,44.8375 C27.0475018,45.1025013 27.5374969,45.235 28.1675,45.235 Z M38.7875,45.52 C38.587499,45.7000009 38.3400015,45.8374995 38.045,45.9325 C37.7499985,46.0275005 37.4425016,46.075 37.1225,46.075 C36.3824963,46.075 35.812502,45.875002 35.4125,45.475 C35.012498,45.074998 34.8125,44.5100036 34.8125,43.78 L34.8125,39.01 L33.4025,39.01 L33.4025,38.11 L34.8125,38.11 L34.8125,36.385 L35.8775,36.385 L35.8775,38.11 L38.2775,38.11 L38.2775,39.01 L35.8775,39.01 L35.8775,43.72 C35.8775,44.1900023 35.9949988,44.5474988 36.23,44.7925 C36.4650012,45.0375012 36.8024978,45.16 37.2425,45.16 C37.4625011,45.16 37.674999,45.1250003 37.88,45.055 C38.085001,44.9849996 38.2624993,44.8850006 38.4125,44.755 L38.7875,45.52 Z M40.7225,38.11 L41.7875,38.11 L41.7875,46 L40.7225,46 L40.7225,38.11 Z M41.2625,36.385 C41.0424989,36.385 40.8575008,36.3100008 40.7075,36.16 C40.5574993,36.0099992 40.4825,35.830001 40.4825,35.62 C40.4825,35.419999 40.5574993,35.2450008 40.7075,35.095 C40.8575008,34.9449992 41.0424989,34.87 41.2625,34.87 C41.4825011,34.87 41.6674993,34.9424993 41.8175,35.0875 C41.9675008,35.2325007 42.0425,35.404999 42.0425,35.605 C42.0425,35.8250011 41.9675008,36.0099992 41.8175,36.16 C41.6674993,36.3100008 41.4825011,36.385 41.2625,36.385 Z M48.7775,38.05 C49.767505,38.05 50.5549971,38.3374971 51.14,38.9125 C51.7250029,39.4875029 52.0175,40.3249945 52.0175,41.425 L52.0175,46 L50.9525,46 L50.9525,41.53 C50.9525,40.7099959 50.7475021,40.0850022 50.3375,39.655 C49.927498,39.2249978 49.3425038,39.01 48.5825,39.01 C47.7324958,39.01 47.0600025,39.2624975 46.565,39.7675 C46.0699975,40.2725025 45.8225,40.9699955 45.8225,41.86 L45.8225,46 L44.7575,46 L44.7575,38.11 L45.7775,38.11 L45.7775,39.565 C46.0675015,39.0849976 46.4699974,38.7125013 46.985,38.4475 C47.5000026,38.1824987 48.0974966,38.05 48.7775,38.05 Z M62.2175,38.11 L62.2175,45.04 C62.2175,46.3800067 61.8900033,47.3724968 61.235,48.0175 C60.5799967,48.6625032 59.5925066,48.985 58.2725,48.985 C57.5424964,48.985 56.8500033,48.8775011 56.195,48.6625 C55.5399967,48.4474989 55.0075021,48.1500019 54.5975,47.77 L55.1375,46.96 C55.5175019,47.3000017 55.9799973,47.5649991 56.525,47.755 C57.0700027,47.945001 57.642497,48.04 58.2425,48.04 C59.242505,48.04 59.9774977,47.8075023 60.4475,47.3425 C60.9175024,46.8774977 61.1525,46.1550049 61.1525,45.175 L61.1525,44.17 C60.8224984,44.6700025 60.3900027,45.0499987 59.855,45.31 C59.3199973,45.5700013 58.7275033,45.7 58.0775,45.7 C57.3374963,45.7 56.665003,45.5375016 56.06,45.2125 C55.454997,44.8874984 54.9800017,44.4325029 54.635,43.8475 C54.2899983,43.2624971 54.1175,42.6000037 54.1175,41.86 C54.1175,41.1199963 54.2899983,40.4600029 54.635,39.88 C54.9800017,39.2999971 55.452497,38.8500016 56.0525,38.53 C56.652503,38.2099984 57.3274963,38.05 58.0775,38.05 C58.7475034,38.05 59.3524973,38.1849986 59.8925,38.455 C60.4325027,38.7250013 60.8674984,39.1149975 61.1975,39.625 L61.1975,38.11 L62.2175,38.11 Z M58.1825,44.755 C58.7525029,44.755 59.2674977,44.6325012 59.7275,44.3875 C60.1875023,44.1424988 60.5449987,43.8000022 60.8,43.36 C61.0550013,42.9199978 61.1825,42.4200028 61.1825,41.86 C61.1825,41.2999972 61.0550013,40.8025022 60.8,40.3675 C60.5449987,39.9324978 60.1900023,39.5925012 59.735,39.3475 C59.2799977,39.1024988 58.7625029,38.98 58.1825,38.98 C57.6124972,38.98 57.1000023,39.0999988 56.645,39.34 C56.1899977,39.5800012 55.8350013,39.9199978 55.58,40.36 C55.3249987,40.8000022 55.1975,41.2999972 55.1975,41.86 C55.1975,42.4200028 55.3249987,42.9199978 55.58,43.36 C55.8350013,43.8000022 56.1899977,44.1424988 56.645,44.3875 C57.1000023,44.6325012 57.6124972,44.755 58.1825,44.755 Z" id="rating"></path>
                                <path d="M37.8263006,18.7856999 L34.5555005,18.7856999 L34.5555005,23 L28.4856504,23 L28.4856504,18.7856999 L16.84915,18.7856999 L16.84915,14.7286498 L26.7244503,0.984999382 L33.1717005,0.984999382 L24.2084502,13.8480497 L28.6743504,13.8480497 L28.6743504,10.1054996 L34.5555005,10.1054996 L34.5555005,13.8480497 L37.8263006,13.8480497 L37.8263006,18.7856999 Z M42.4494507,23.28305 C41.4430457,23.28305 40.5939041,22.9475867 39.9020007,22.27665 C39.2100972,21.6057133 38.8641506,20.7565717 38.8641506,19.7291999 C38.8641506,18.6808613 39.2048556,17.8317198 39.8862757,17.1817498 C40.5676958,16.5317799 41.4220789,16.2067998 42.4494507,16.2067998 C43.4977893,16.2067998 44.3574141,16.5317799 45.0283508,17.1817498 C45.6992875,17.8317198 46.0347508,18.6808613 46.0347508,19.7291999 C46.0347508,20.7565717 45.6940459,21.6057133 45.0126258,22.27665 C44.3312057,22.9475867 43.4768226,23.28305 42.4494507,23.28305 Z M59.2752012,9.79099963 C61.0993104,10.1684015 62.4988214,10.9179524 63.4737763,12.0396747 C64.4487312,13.161397 64.9362014,14.5189751 64.9362014,16.1124498 C64.9362014,17.4123897 64.5850132,18.617961 63.8826263,19.7291999 C63.1802395,20.8404388 62.1109501,21.7367549 60.6747263,22.418175 C59.2385024,23.0995951 57.4615951,23.4403 55.3439511,23.4403 C53.79241,23.4403 52.256617,23.2516019 50.736526,22.8742 C49.216435,22.4967981 47.9007898,21.9621534 46.7895509,21.27025 L49.0539509,16.5841998 C49.9135886,17.1712694 50.8832872,17.6220483 51.963076,17.9365499 C53.0428648,18.2510514 54.1069125,18.4082999 55.1552511,18.4082999 C56.2245565,18.4082999 57.073698,18.2091185 57.7027012,17.8107499 C58.3317043,17.4123812 58.6462012,16.8462868 58.6462012,16.1124498 C58.6462012,14.6867093 57.5244957,13.9738497 55.2810511,13.9738497 L52.670701,13.9738497 L52.670701,10.0425996 L56.6019511,5.79684952 L47.9217509,5.79684952 L47.9217509,0.984999382 L63.8354513,0.984999382 L63.8354513,4.88479949 L59.2752012,9.79099963 Z" id="4.3"></path>
                            </g>
                        </g>
                    </g>
                </g>
            </g>
        </g>
    </g>
</svg>