<?xml version="1.0" encoding="UTF-8"?>
<svg width="82px" height="47px" viewBox="0 0 82 47" version="1.1" xmlns="http://www.w3.org/2000/svg" xmlns:xlink="http://www.w3.org/1999/xlink">
    <!-- Generator: Sketch 48.2 (47327) - http://www.bohemiancoding.com/sketch -->
    <title>62%</title>
    <desc>Created with Sketch.</desc>
    <defs></defs>
    <g id="Artboard-3-Copy-2" stroke="none" stroke-width="1" fill="none" fill-rule="evenodd" transform="translate(-256.000000, -88.000000)">
        <g id="Group-38" transform="translate(107.000000, 66.000000)">
            <g id="Group-4" transform="translate(57.000000, 15.000000)">
                <g id="62%" transform="translate(92.000000, 0.000000)">
                    <path d="M21.77,45.11 L22.835,45.11 L22.835,53 L21.77,53 L21.77,45.11 Z M22.31,43.385 C22.0899989,43.385 21.9050007,43.3100008 21.755,43.16 C21.6049992,43.0099992 21.53,42.830001 21.53,42.62 C21.53,42.419999 21.6049992,42.2450008 21.755,42.095 C21.9050007,41.9449993 22.0899989,41.87 22.31,41.87 C22.5300011,41.87 22.7149992,41.9424993 22.865,42.0875 C23.0150007,42.2325007 23.09,42.404999 23.09,42.605 C23.09,42.8250011 23.0150007,43.0099992 22.865,43.16 C22.7149992,43.3100008 22.5300011,43.385 22.31,43.385 Z M29.825,45.05 C30.815005,45.05 31.6024971,45.3374971 32.1875,45.9125 C32.7725029,46.4875029 33.065,47.3249945 33.065,48.425 L33.065,53 L32,53 L32,48.53 C32,47.7099959 31.7950021,47.0850022 31.385,46.655 C30.974998,46.2249979 30.3900038,46.01 29.63,46.01 C28.7799957,46.01 28.1075025,46.2624975 27.6125,46.7675 C27.1174975,47.2725025 26.87,47.9699956 26.87,48.86 L26.87,53 L25.805,53 L25.805,45.11 L26.825,45.11 L26.825,46.565 C27.1150015,46.0849976 27.5174974,45.7125013 28.0325,45.4475 C28.5475026,45.1824987 29.1449966,45.05 29.825,45.05 Z M43.16,41.87 L43.16,53 L42.14,53 L42.14,51.44 C41.8199984,51.9700026 41.3975026,52.3749986 40.8725,52.655 C40.3474974,52.9350014 39.7550033,53.075 39.095,53.075 C38.3549963,53.075 37.685003,52.9050017 37.085,52.565 C36.484997,52.2249983 36.0150017,51.7500031 35.675,51.14 C35.3349983,50.5299969 35.165,49.8350039 35.165,49.055 C35.165,48.2749961 35.3349983,47.5800031 35.675,46.97 C36.0150017,46.3599969 36.484997,45.8875017 37.085,45.5525 C37.685003,45.2174983 38.3549963,45.05 39.095,45.05 C39.7350032,45.05 40.3124974,45.1824987 40.8275,45.4475 C41.3425026,45.7125013 41.7649983,46.0999975 42.095,46.61 L42.095,41.87 L43.16,41.87 Z M39.185,52.13 C39.7350027,52.13 40.2324978,52.0025013 40.6775,51.7475 C41.1225022,51.4924987 41.4724987,51.1300023 41.7275,50.66 C41.9825013,50.1899977 42.11,49.655003 42.11,49.055 C42.11,48.454997 41.9825013,47.9200024 41.7275,47.45 C41.4724987,46.9799977 41.1225022,46.6175013 40.6775,46.3625 C40.2324978,46.1074987 39.7350027,45.98 39.185,45.98 C38.6249972,45.98 38.1225022,46.1074987 37.6775,46.3625 C37.2324978,46.6175013 36.8825013,46.9799977 36.6275,47.45 C36.3724987,47.9200024 36.245,48.454997 36.245,49.055 C36.245,49.655003 36.3724987,50.1899977 36.6275,50.66 C36.8825013,51.1300023 37.2324978,51.4924987 37.6775,51.7475 C38.1225022,52.0025013 38.6249972,52.13 39.185,52.13 Z M53,49.385 L46.4,49.385 C46.4600003,50.2050041 46.7749971,50.8674975 47.345,51.3725 C47.9150029,51.8775025 48.6349957,52.13 49.505,52.13 C49.9950025,52.13 50.444998,52.0425009 50.855,51.8675 C51.265002,51.6924991 51.6199985,51.4350017 51.92,51.095 L52.52,51.785 C52.1699982,52.2050021 51.7325026,52.5249989 51.2075,52.745 C50.6824974,52.9650011 50.1050032,53.075 49.475,53.075 C48.6649959,53.075 47.9475031,52.9025017 47.3225,52.5575 C46.6974969,52.2124983 46.2100017,51.7350031 45.86,51.125 C45.5099983,50.5149969 45.335,49.8250039 45.335,49.055 C45.335,48.2849961 45.5024983,47.5950031 45.8375,46.985 C46.1725017,46.3749969 46.6324971,45.9000017 47.2175,45.56 C47.8025029,45.2199983 48.4599963,45.05 49.19,45.05 C49.9200036,45.05 50.5749971,45.2199983 51.155,45.56 C51.7350029,45.9000017 52.1899983,46.372497 52.52,46.9775 C52.8500017,47.582503 53.015,48.2749961 53.015,49.055 L53,49.385 Z M49.19,45.965 C48.4299962,45.965 47.7925026,46.2074976 47.2775,46.6925 C46.7624974,47.1775024 46.4700003,47.8099961 46.4,48.59 L51.995,48.59 C51.9249997,47.8099961 51.6325026,47.1775024 51.1175,46.6925 C50.6024974,46.2074976 49.9600038,45.965 49.19,45.965 Z M60.215,53 L57.71,49.7 L55.19,53 L53.99,53 L57.11,48.95 L54.14,45.11 L55.34,45.11 L57.71,48.2 L60.08,45.11 L61.25,45.11 L58.28,48.95 L61.43,53 L60.215,53 Z" id="index" fill="#FFFFFF"></path>
                    <g id="Group-3">
                        <path d="M25.9643505,7.98499938 L25.9643505,11.8847995 L18.1962003,30 L11.4030001,30 L18.8252003,12.9226495 L13.0384002,12.9226495 L13.0384002,16.3192496 L7.72335002,16.3192496 L7.72335002,7.98499938 L25.9643505,7.98499938 Z M36.1856008,16.0047496 C39.2677163,16.0047496 41.5478186,16.6337433 43.025976,17.8917497 C44.5041334,19.149756 45.2432011,20.8270726 45.2432011,22.9237498 C45.2432011,24.28659 44.8920129,25.5393358 44.189626,26.6820249 C43.4872392,27.824714 42.4179498,28.7367549 40.981726,29.418175 C39.5455021,30.0995951 37.7685948,30.4403 35.6509508,30.4403 C34.0994097,30.4403 32.5636167,30.2516019 31.0435257,29.8742 C29.5234347,29.4967981 28.2182727,28.9621534 27.1280006,28.27025 L29.3609506,23.5841998 C30.2415551,24.1712694 31.2112537,24.6220483 32.2700757,24.9365499 C33.3288977,25.2510514 34.3929454,25.4082999 35.4622508,25.4082999 C36.5315562,25.4082999 37.3859393,25.2038769 38.0254259,24.7950249 C38.6649124,24.3861728 38.9846509,23.8148368 38.9846509,23.0809998 C38.9846509,22.3471628 38.670154,21.7915517 38.0411509,21.4141498 C37.4121477,21.0367479 36.3009255,20.8480497 34.7074508,20.8480497 L28.7319506,20.8480497 L29.8327006,7.98499938 L43.859401,7.98499938 L43.859401,12.7968495 L34.9905008,12.7968495 L34.7074508,16.0047496 L36.1856008,16.0047496 Z M52.2880013,19.9045497 C50.6316263,19.9045497 49.2792898,19.3594218 48.2309512,18.2691497 C47.1826126,17.1788775 46.6584511,15.690259 46.6584511,13.8032495 C46.6584511,12.56621 46.8995654,11.4864374 47.3818011,10.5638995 C47.8640369,9.64136148 48.5297219,8.93374354 49.3788762,8.4410244 C50.2280305,7.94830525 51.1977291,7.70194937 52.2880013,7.70194937 C53.965343,7.70194937 55.3281628,8.25231889 56.3765014,9.35307442 C57.42484,10.45383 57.9490014,11.9372068 57.9490014,13.8032495 C57.9490014,15.690259 57.42484,17.1788775 56.3765014,18.2691497 C55.3281628,19.3594218 53.965343,19.9045497 52.2880013,19.9045497 Z M65.3083016,7.98499938 L69.8371018,7.98499938 L54.8040013,30 L50.2752012,30 L65.3083016,7.98499938 Z M52.2880013,16.9167996 C52.8541041,16.9167996 53.304883,16.6652021 53.6403513,16.1619996 C53.9758197,15.6587971 54.1435513,14.8725549 54.1435513,13.8032495 C54.1435513,12.7339442 53.9758197,11.947702 53.6403513,11.4444995 C53.304883,10.9412969 52.8541041,10.6896995 52.2880013,10.6896995 C51.7428652,10.6896995 51.297328,10.9465386 50.9513762,11.4602245 C50.6054245,11.9739104 50.4324512,12.7549109 50.4324512,13.8032495 C50.4324512,14.8515882 50.6054245,15.6325887 50.9513762,16.1462746 C51.297328,16.6599605 51.7428652,16.9167996 52.2880013,16.9167996 Z M67.8243017,30.28305 C66.1469599,30.28305 64.7893818,29.7379221 63.7515266,28.64765 C62.7136714,27.5573778 62.1947515,26.0687593 62.1947515,24.1817498 C62.1947515,22.3157071 62.718913,20.8323302 63.7672516,19.7315747 C64.8155902,18.6308192 66.1679267,18.0804497 67.8243017,18.0804497 C69.5016435,18.0804497 70.8644632,18.6308192 71.9128018,19.7315747 C72.9611404,20.8323302 73.4853019,22.3157071 73.4853019,24.1817498 C73.4853019,26.0687593 72.9611404,27.5573778 71.9128018,28.64765 C70.8644632,29.7379221 69.5016435,30.28305 67.8243017,30.28305 Z M67.8243017,27.2952999 C68.3904046,27.2952999 68.8411834,27.0437024 69.1766517,26.5404999 C69.5121201,26.0372974 69.6798518,25.2510552 69.6798518,24.1817498 C69.6798518,23.1124445 69.5121201,22.3262023 69.1766517,21.8229998 C68.8411834,21.3197972 68.3904046,21.0681997 67.8243017,21.0681997 C67.2581989,21.0681997 66.80742,21.3197972 66.4719517,21.8229998 C66.1364833,22.3262023 65.9687517,23.1124445 65.9687517,24.1817498 C65.9687517,25.2510552 66.1364833,26.0372974 66.4719517,26.5404999 C66.80742,27.0437024 67.2581989,27.2952999 67.8243017,27.2952999 Z" id="75%" fill="#FFFFFF"></path>
                        <path d="M0.425000012,38.275 L81.2152554,38.275" id="Line" stroke="#FFFFFF" stroke-width="0.850000024" opacity="0.306725543" stroke-linecap="square"></path>
                    </g>
                </g>
            </g>
        </g>
    </g>
</svg>