<?xml version="1.0" encoding="UTF-8"?>
<svg width="82px" height="47px" viewBox="0 0 82 47" version="1.1" xmlns="http://www.w3.org/2000/svg" xmlns:xlink="http://www.w3.org/1999/xlink">
    <!-- Generator: Sketch 48.2 (47327) - http://www.bohemiancoding.com/sketch -->
    <title>62%</title>
    <desc>Created with Sketch.</desc>
    <defs></defs>
    <g id="Artboard-3-Copy-3" stroke="none" stroke-width="1" fill="none" fill-rule="evenodd" transform="translate(-256.000000, -88.000000)">
        <g id="Group-38" transform="translate(107.000000, 66.000000)">
            <g id="Group-4" transform="translate(57.000000, 15.000000)">
                <g id="62%" transform="translate(92.000000, 0.000000)">
                    <path d="M21.77,45.11 L22.835,45.11 L22.835,53 L21.77,53 L21.77,45.11 Z M22.31,43.385 C22.0899989,43.385 21.9050007,43.3100008 21.755,43.16 C21.6049992,43.0099992 21.53,42.830001 21.53,42.62 C21.53,42.419999 21.6049992,42.2450008 21.755,42.095 C21.9050007,41.9449993 22.0899989,41.87 22.31,41.87 C22.5300011,41.87 22.7149992,41.9424993 22.865,42.0875 C23.0150007,42.2325007 23.09,42.404999 23.09,42.605 C23.09,42.8250011 23.0150007,43.0099992 22.865,43.16 C22.7149992,43.3100008 22.5300011,43.385 22.31,43.385 Z M29.825,45.05 C30.815005,45.05 31.6024971,45.3374971 32.1875,45.9125 C32.7725029,46.4875029 33.065,47.3249945 33.065,48.425 L33.065,53 L32,53 L32,48.53 C32,47.7099959 31.7950021,47.0850022 31.385,46.655 C30.974998,46.2249979 30.3900038,46.01 29.63,46.01 C28.7799957,46.01 28.1075025,46.2624975 27.6125,46.7675 C27.1174975,47.2725025 26.87,47.9699956 26.87,48.86 L26.87,53 L25.805,53 L25.805,45.11 L26.825,45.11 L26.825,46.565 C27.1150015,46.0849976 27.5174974,45.7125013 28.0325,45.4475 C28.5475026,45.1824987 29.1449966,45.05 29.825,45.05 Z M43.16,41.87 L43.16,53 L42.14,53 L42.14,51.44 C41.8199984,51.9700026 41.3975026,52.3749986 40.8725,52.655 C40.3474974,52.9350014 39.7550033,53.075 39.095,53.075 C38.3549963,53.075 37.685003,52.9050017 37.085,52.565 C36.484997,52.2249983 36.0150017,51.7500031 35.675,51.14 C35.3349983,50.5299969 35.165,49.8350039 35.165,49.055 C35.165,48.2749961 35.3349983,47.5800031 35.675,46.97 C36.0150017,46.3599969 36.484997,45.8875017 37.085,45.5525 C37.685003,45.2174983 38.3549963,45.05 39.095,45.05 C39.7350032,45.05 40.3124974,45.1824987 40.8275,45.4475 C41.3425026,45.7125013 41.7649983,46.0999975 42.095,46.61 L42.095,41.87 L43.16,41.87 Z M39.185,52.13 C39.7350027,52.13 40.2324978,52.0025013 40.6775,51.7475 C41.1225022,51.4924987 41.4724987,51.1300023 41.7275,50.66 C41.9825013,50.1899977 42.11,49.655003 42.11,49.055 C42.11,48.454997 41.9825013,47.9200024 41.7275,47.45 C41.4724987,46.9799977 41.1225022,46.6175013 40.6775,46.3625 C40.2324978,46.1074987 39.7350027,45.98 39.185,45.98 C38.6249972,45.98 38.1225022,46.1074987 37.6775,46.3625 C37.2324978,46.6175013 36.8825013,46.9799977 36.6275,47.45 C36.3724987,47.9200024 36.245,48.454997 36.245,49.055 C36.245,49.655003 36.3724987,50.1899977 36.6275,50.66 C36.8825013,51.1300023 37.2324978,51.4924987 37.6775,51.7475 C38.1225022,52.0025013 38.6249972,52.13 39.185,52.13 Z M53,49.385 L46.4,49.385 C46.4600003,50.2050041 46.7749971,50.8674975 47.345,51.3725 C47.9150029,51.8775025 48.6349957,52.13 49.505,52.13 C49.9950025,52.13 50.444998,52.0425009 50.855,51.8675 C51.265002,51.6924991 51.6199985,51.4350017 51.92,51.095 L52.52,51.785 C52.1699982,52.2050021 51.7325026,52.5249989 51.2075,52.745 C50.6824974,52.9650011 50.1050032,53.075 49.475,53.075 C48.6649959,53.075 47.9475031,52.9025017 47.3225,52.5575 C46.6974969,52.2124983 46.2100017,51.7350031 45.86,51.125 C45.5099983,50.5149969 45.335,49.8250039 45.335,49.055 C45.335,48.2849961 45.5024983,47.5950031 45.8375,46.985 C46.1725017,46.3749969 46.6324971,45.9000017 47.2175,45.56 C47.8025029,45.2199983 48.4599963,45.05 49.19,45.05 C49.9200036,45.05 50.5749971,45.2199983 51.155,45.56 C51.7350029,45.9000017 52.1899983,46.372497 52.52,46.9775 C52.8500017,47.582503 53.015,48.2749961 53.015,49.055 L53,49.385 Z M49.19,45.965 C48.4299962,45.965 47.7925026,46.2074976 47.2775,46.6925 C46.7624974,47.1775024 46.4700003,47.8099961 46.4,48.59 L51.995,48.59 C51.9249997,47.8099961 51.6325026,47.1775024 51.1175,46.6925 C50.6024974,46.2074976 49.9600038,45.965 49.19,45.965 Z M60.215,53 L57.71,49.7 L55.19,53 L53.99,53 L57.11,48.95 L54.14,45.11 L55.34,45.11 L57.71,48.2 L60.08,45.11 L61.25,45.11 L58.28,48.95 L61.43,53 L60.215,53 Z" id="index" fill="#FFFFFF"></path>
                    <g id="Group-3">
                        <path d="M19.3284003,15.9732996 C20.7122073,15.9732996 21.980678,16.2615884 23.1338505,16.8381746 C24.2870229,17.4147609 25.2043054,18.2324527 25.8857255,19.2912747 C26.5671456,20.3500967 26.9078506,21.5609096 26.9078506,22.9237498 C26.9078506,24.4123906 26.5252127,25.7280358 25.7599255,26.8707249 C24.9946383,28.013414 23.9567987,28.8940052 22.6463754,29.512525 C21.3359522,30.1310448 19.8735418,30.4403 18.2591003,30.4403 C15.1140845,30.4403 12.6295593,29.5072926 10.8054501,27.6412499 C8.98134094,25.7752072 8.06930003,23.0915006 8.06930003,19.5900497 C8.06930003,17.0740371 8.55677017,14.9092503 9.53172507,13.0956245 C10.50668,11.2819987 11.8747413,9.90345415 13.6359502,8.95994941 C15.397159,8.01644467 17.4413887,7.54469937 19.7687004,7.54469937 C21.0267067,7.54469937 22.2217948,7.68098134 23.3540005,7.95354938 C24.4862062,8.22611742 25.4506632,8.62448011 26.2474005,9.14864942 L23.9830005,13.6145495 C22.9136951,12.8597457 21.5613586,12.4823495 19.9259504,12.4823495 C18.3324757,12.4823495 17.0430385,12.9226451 16.0576003,13.8032495 C15.072162,14.683854 14.5060676,15.9523247 14.3593002,17.6086997 C15.6173065,16.5184275 17.2736567,15.9732996 19.3284003,15.9732996 Z M17.8817003,26.0058499 C18.7623047,26.0058499 19.4804059,25.7542524 20.0360254,25.2510499 C20.5916448,24.7478473 20.8694504,24.0664375 20.8694504,23.2067998 C20.8694504,22.3681289 20.5916448,21.6972023 20.0360254,21.1939998 C19.4804059,20.6907972 18.7518215,20.4391997 17.8502503,20.4391997 C16.9486791,20.4391997 16.2148531,20.6960388 15.6487502,21.2097248 C15.0826474,21.7234107 14.7996002,22.3995789 14.7996002,23.2382498 C14.7996002,24.0559539 15.0774058,24.721639 15.6330252,25.2353249 C16.1886447,25.7490108 16.9381956,26.0058499 17.8817003,26.0058499 Z M45.4948011,25.0623499 L45.4948011,30 L28.3545506,30 L28.3545506,26.1001999 L36.5944508,18.3949497 C37.3911882,17.6401459 37.9258328,16.9954273 38.1984009,16.4607746 C38.4709689,15.9261219 38.6072509,15.3862356 38.6072509,14.8410996 C38.6072509,14.1282293 38.3661366,13.5726182 37.8839009,13.1742495 C37.4016651,12.7758809 36.6992888,12.5766995 35.7767508,12.5766995 C34.9590467,12.5766995 34.2094958,12.760156 33.5280757,13.1270745 C32.8466557,13.493993 32.2858029,14.0233961 31.8455007,14.7152996 L27.2223506,12.1363995 C28.0819882,10.710659 29.2875595,9.58895352 30.8391007,8.7712494 C32.3906418,7.95354529 34.2252068,7.54469937 36.3428508,7.54469937 C38.0201926,7.54469937 39.5035695,7.81726332 40.7930259,8.36239939 C42.0824824,8.90753547 43.0888724,9.68853601 43.812226,10.7054245 C44.5355797,11.7223129 44.8972511,12.9016761 44.8972511,14.2435496 C44.8972511,15.4386556 44.640412,16.5656027 44.126726,17.6244247 C43.6130401,18.6832466 42.622375,19.8835763 41.154701,21.2254498 L37.0033008,25.0623499 L45.4948011,25.0623499 Z M52.5710513,19.9045497 C50.9146763,19.9045497 49.5623398,19.3594218 48.5140012,18.2691497 C47.4656626,17.1788775 46.9415011,15.690259 46.9415011,13.8032495 C46.9415011,12.56621 47.1826154,11.4864374 47.6648511,10.5638995 C48.1470869,9.64136148 48.8127719,8.93374354 49.6619262,8.4410244 C50.5110805,7.94830525 51.4807791,7.70194937 52.5710513,7.70194937 C54.248393,7.70194937 55.6112128,8.25231889 56.6595514,9.35307442 C57.70789,10.45383 58.2320514,11.9372068 58.2320514,13.8032495 C58.2320514,15.690259 57.70789,17.1788775 56.6595514,18.2691497 C55.6112128,19.3594218 54.248393,19.9045497 52.5710513,19.9045497 Z M65.5913516,7.98499938 L70.1201518,7.98499938 L55.0870513,30 L50.5582512,30 L65.5913516,7.98499938 Z M52.5710513,16.9167996 C53.1371541,16.9167996 53.587933,16.6652021 53.9234013,16.1619996 C54.2588697,15.6587971 54.4266013,14.8725549 54.4266013,13.8032495 C54.4266013,12.7339442 54.2588697,11.947702 53.9234013,11.4444995 C53.587933,10.9412969 53.1371541,10.6896995 52.5710513,10.6896995 C52.0259152,10.6896995 51.580378,10.9465386 51.2344262,11.4602245 C50.8884745,11.9739104 50.7155012,12.7549109 50.7155012,13.8032495 C50.7155012,14.8515882 50.8884745,15.6325887 51.2344262,16.1462746 C51.580378,16.6599605 52.0259152,16.9167996 52.5710513,16.9167996 Z M68.1073517,30.28305 C66.4300099,30.28305 65.0724318,29.7379221 64.0345766,28.64765 C62.9967214,27.5573778 62.4778016,26.0687593 62.4778016,24.1817498 C62.4778016,22.3157071 63.001963,20.8323302 64.0503016,19.7315747 C65.0986402,18.6308192 66.4509767,18.0804497 68.1073517,18.0804497 C69.7846935,18.0804497 71.1475132,18.6308192 72.1958518,19.7315747 C73.2441904,20.8323302 73.7683519,22.3157071 73.7683519,24.1817498 C73.7683519,26.0687593 73.2441904,27.5573778 72.1958518,28.64765 C71.1475132,29.7379221 69.7846935,30.28305 68.1073517,30.28305 Z M68.1073517,27.2952999 C68.6734546,27.2952999 69.1242334,27.0437024 69.4597018,26.5404999 C69.7951701,26.0372974 69.9629018,25.2510552 69.9629018,24.1817498 C69.9629018,23.1124445 69.7951701,22.3262023 69.4597018,21.8229998 C69.1242334,21.3197972 68.6734546,21.0681997 68.1073517,21.0681997 C67.5412489,21.0681997 67.09047,21.3197972 66.7550017,21.8229998 C66.4195333,22.3262023 66.2518017,23.1124445 66.2518017,24.1817498 C66.2518017,25.2510552 66.4195333,26.0372974 66.7550017,26.5404999 C67.09047,27.0437024 67.5412489,27.2952999 68.1073517,27.2952999 Z" id="62%" fill="#FFFFFF"></path>
                        <path d="M0.425000012,38.275 L81.2152554,38.275" id="Line" stroke="#ffffff" stroke-width="0.850000024" opacity="0.306725543" stroke-linecap="square"></path>
                    </g>
                </g>
            </g>
        </g>
    </g>
</svg>