<?xml version="1.0" encoding="UTF-8"?>
<svg width="82px" height="48px" viewBox="0 0 82 48" version="1.1" xmlns="http://www.w3.org/2000/svg" xmlns:xlink="http://www.w3.org/1999/xlink">
    <!-- Generator: Sketch 48.2 (47327) - http://www.bohemiancoding.com/sketch -->
    <title>bbb</title>
    <desc>Created with Sketch.</desc>
    <defs>
        <polygon id="path-1" points="5.95000017 8.92500025 2.45267782 10.7636514 3.12060695 6.86932575 0.291213736 4.111349 4.20133899 3.54317454 5.95000017 0 7.69866134 3.54317454 11.6087866 4.111349 8.77939338 6.86932575 9.44732252 10.7636514"></polygon>
    </defs>
    <g id="Artboard-3-Copy-3" stroke="none" stroke-width="1" fill="none" fill-rule="evenodd" transform="translate(-581.000000, -85.000000)">
        <g id="Group-38" transform="translate(432.000000, 66.000000)">
            <g id="Group-4" transform="translate(44.000000, 12.000000)">
                <g id="bbb" transform="translate(105.000000, 0.000000)">
                    <path d="M23.3716007,18.5207497 C24.629607,18.9610519 25.6150305,19.6477034 26.3279007,20.5807247 C27.040771,21.5137461 27.3972008,22.6406932 27.3972008,23.9615998 C27.3972008,25.8905429 26.6214418,27.3791614 25.0699007,28.4275 C23.5183596,29.4758386 21.2749486,30 18.3396005,30 L6.45150018,30 L6.45150018,7.98499938 L17.7106005,7.98499938 C20.520148,7.98499938 22.6587266,8.50391921 24.1264007,9.54177443 C25.5940747,10.5796296 26.3279007,11.9791407 26.3279007,13.7403495 C26.3279007,14.7886881 26.0710616,15.7269371 25.5573757,16.5551246 C25.0436898,17.3833121 24.3151054,18.0385139 23.3716007,18.5207497 Z M12.6157004,12.4823495 L12.6157004,16.7280996 L16.8929005,16.7280996 C18.9895777,16.7280996 20.0379006,16.0152401 20.0379006,14.5894996 C20.0379006,13.1847258 18.9895777,12.4823495 16.8929005,12.4823495 L12.6157004,12.4823495 Z M17.8364005,25.5026499 C20.0169448,25.5026499 21.1072006,24.7583406 21.1072006,23.2696998 C21.1072006,21.781059 20.0169448,21.0367497 17.8364005,21.0367497 L12.6157004,21.0367497 L12.6157004,25.5026499 L17.8364005,25.5026499 Z M47.5566513,18.5207497 C48.8146577,18.9610519 49.8000812,19.6477034 50.5129514,20.5807247 C51.2258217,21.5137461 51.5822514,22.6406932 51.5822514,23.9615998 C51.5822514,25.8905429 50.8064925,27.3791614 49.2549514,28.4275 C47.7034102,29.4758386 45.4599993,30 42.5246512,30 L30.6365509,30 L30.6365509,7.98499938 L41.8956512,7.98499938 C44.7051986,7.98499938 46.8437773,8.50391921 48.3114514,9.54177443 C49.7791254,10.5796296 50.5129514,11.9791407 50.5129514,13.7403495 C50.5129514,14.7886881 50.2561123,15.7269371 49.7424264,16.5551246 C49.2287405,17.3833121 48.5001561,18.0385139 47.5566513,18.5207497 Z M36.800751,12.4823495 L36.800751,16.7280996 L41.0779512,16.7280996 C43.1746284,16.7280996 44.2229512,16.0152401 44.2229512,14.5894996 C44.2229512,13.1847258 43.1746284,12.4823495 41.0779512,12.4823495 L36.800751,12.4823495 Z M42.0214512,25.5026499 C44.2019955,25.5026499 45.2922513,24.7583406 45.2922513,23.2696998 C45.2922513,21.781059 44.2019955,21.0367497 42.0214512,21.0367497 L36.800751,21.0367497 L36.800751,25.5026499 L42.0214512,25.5026499 Z M71.741702,18.5207497 C72.9997083,18.9610519 73.9851318,19.6477034 74.6980021,20.5807247 C75.4108723,21.5137461 75.7673021,22.6406932 75.7673021,23.9615998 C75.7673021,25.8905429 74.9915432,27.3791614 73.4400021,28.4275 C71.8884609,29.4758386 69.64505,30 66.7097019,30 L54.8216015,30 L54.8216015,7.98499938 L66.0807019,7.98499938 C68.8902493,7.98499938 71.028828,8.50391921 72.496502,9.54177443 C73.9641761,10.5796296 74.6980021,11.9791407 74.6980021,13.7403495 C74.6980021,14.7886881 74.441163,15.7269371 73.9274771,16.5551246 C73.4137912,17.3833121 72.6852068,18.0385139 71.741702,18.5207497 Z M60.9858017,12.4823495 L60.9858017,16.7280996 L65.2630018,16.7280996 C67.359679,16.7280996 68.4080019,16.0152401 68.4080019,14.5894996 C68.4080019,13.1847258 67.359679,12.4823495 65.2630018,12.4823495 L60.9858017,12.4823495 Z M66.2065019,25.5026499 C68.3870462,25.5026499 69.4773019,24.7583406 69.4773019,23.2696998 C69.4773019,21.781059 68.3870462,21.0367497 66.2065019,21.0367497 L60.9858017,21.0367497 L60.9858017,25.5026499 L66.2065019,25.5026499 Z" id="BBB" fill="#FFFFFF"></path>
                    <path d="M0.425000012,37.8250011 L81.2152554,37.8250011" id="Line" stroke="#FFFFFF" stroke-width="0.850000024" opacity="0.306725543" stroke-linecap="square"></path>
                    <g id="Group-2" transform="translate(0.850000, 44.200001)">
                        <polygon id="Star" fill="#FFFFFF" points="5.95000017 8.92500025 2.45267782 10.7636514 3.12060695 6.86932575 0.291213736 4.111349 4.20133899 3.54317454 5.95000017 0 7.69866134 3.54317454 11.6087866 4.111349 8.77939338 6.86932575 9.44732252 10.7636514"></polygon>
                        <polygon id="Star-Copy" fill="#FFFFFF" points="22.9500006 8.92500025 19.4526783 10.7636514 20.1206074 6.86932575 17.2912142 4.111349 21.2013395 3.54317454 22.9500006 0 24.6986618 3.54317454 28.6087871 4.111349 25.7793939 6.86932575 26.447323 10.7636514"></polygon>
                        <polygon id="Star-Copy-2" fill="#FFFFFF" points="39.9500011 8.92500025 36.4526788 10.7636514 37.1206079 6.86932575 34.2912147 4.111349 38.2013399 3.54317454 39.9500011 0 41.6986623 3.54317454 45.6087876 4.111349 42.7793943 6.86932575 43.4473235 10.7636514"></polygon>
                        <g id="Group" transform="translate(51.000001, 0.000000)">
                            <mask id="mask-2" fill="white">
                                <use xlink:href="#path-1"></use>
                            </mask>
                            <path stroke="#FFFFFF" stroke-width="0.850000024" d="M8.88286681,9.9867448 L8.32273913,6.72094979 L10.6954781,4.40810092 L7.41643349,3.93162785 L5.95000017,0.960309398 L4.48356684,3.93162785 L1.20452225,4.40810092 L3.57726121,6.72094979 L3.01713352,9.9867448 L5.95000017,8.44484555 L8.88286681,9.9867448 Z"></path>
                            <rect id="Rectangle" fill="#FFFFFF" mask="url(#mask-2)" x="-0.850000024" y="-1.70000005" width="6.80000019" height="16.1500005"></rect>
                        </g>
                        <path d="M76.8828687,9.9867448 L76.322741,6.72094979 L78.69548,4.40810092 L75.4164354,3.93162785 L73.9500021,0.960309398 L72.4835688,3.93162785 L69.2045242,4.40810092 L71.5772631,6.72094979 L71.0171354,9.9867448 L73.9500021,8.44484555 L76.8828687,9.9867448 Z" id="Star-Copy-4" stroke="#FFFFFF" stroke-width="0.850000024"></path>
                    </g>
                </g>
            </g>
        </g>
    </g>
</svg>