<svg xmlns="http://www.w3.org/2000/svg" xmlns:xlink="http://www.w3.org/1999/xlink" width="16" height="18" viewBox="0 0 16 18"><defs><path id="c06ra" d="M770 1812h-12v-7.34h12zm-13-7.34h14v-3.15h-14z"/><path id="c06rb" d="M761 1796.26a2 2 0 0 0-1.87 1.36c-.3.81-.08 1.74.55 2.31 1.05.97 4.32 1.58 4.32 1.58 0-1.58-.85-3.75-1.45-4.46-.36-.52-.94-.81-1.55-.79zm3 5.25s3.28-.6 4.33-1.58c.62-.57.84-1.5.54-2.31a2 2 0 0 0-1.87-1.36c-.6-.02-1.19.27-1.55.79-.6.7-1.45 2.88-1.45 4.46z"/></defs><g><g transform="translate(-756 -1795)"><use fill="#fff" fill-opacity="0" stroke="#4c3092" stroke-linecap="round" stroke-miterlimit="50" stroke-width=".9" xlink:href="#c06ra"/></g><g transform="translate(-756 -1795)"><use fill="#fff" fill-opacity="0" stroke="#4c3092" stroke-linecap="round" stroke-miterlimit="50" stroke-width=".9" xlink:href="#c06rb"/></g></g></svg>