<svg xmlns="http://www.w3.org/2000/svg" xmlns:xlink="http://www.w3.org/1999/xlink" width="10" height="14" viewBox="0 0 10 14"><defs><path id="2g7ka" d="M229.92 531.81c0 .95-.45 1.7-1.17 2.23-.49.35-1.18.64-2.12.81v1.07c0 .23-.2.43-.47.43h-.47c-.26 0-.48-.2-.48-.43v-.9c-.32.02-.65.04-1.01.04h-.4v.86c0 .23-.22.43-.48.43h-.48c-.26 0-.47-.2-.47-.43v-.86h-1.9c-.26 0-.47-.2-.47-.44v-.43c0-.23.21-.43.47-.43h.95v-8.18h-.95c-.26 0-.47-.19-.47-.43v-.43c0-.24.21-.43.47-.43h1.9v-.86c0-.24.21-.43.47-.43h.48c.26 0 .47.2.47.43v.86h1.42v-.86c0-.24.21-.43.48-.43h.47c.26 0 .47.2.47.43v.97c.6.1 1.07.24 1.52.48.8.4 1.37 1.11 1.37 2.06 0 .94-.52 1.81-1.94 2.25v.03c1.42.33 2.34 1.23 2.34 2.6zm-6.13-3.21h1.03c1.37 0 2.07-.55 2.07-1.33 0-.8-.71-1.25-1.9-1.25-.57 0-.72.03-1.2.07zm3.37 3.16c0-1.06-1-1.44-2.3-1.44h-1.07v2.88c.48.03.65.03 1.1.03 1.18 0 2.27-.36 2.27-1.47z"/></defs><g><g transform="translate(-220 -523)"><use fill="#4c3092" xlink:href="#2g7ka"/></g></g></svg>