<svg xmlns="http://www.w3.org/2000/svg" xmlns:xlink="http://www.w3.org/1999/xlink" width="101" height="100" viewBox="0 0 101 100"><defs><path id="5ac5a" d="M306.09 1538.86H206.3l2.43-13.23a9.16 9.16 0 0 1 6.85-7.14l9.73-2.28 3.35-4.71a12.61 12.61 0 0 1-4.41-8.36c-1.07-.92-3.04-2.9-3.04-5.17.15-1.52.91-2.28 1.82-2.58v-.92-.9c-.15-2.14-.3-6.85 4.26-7.6.61-1.38 2.44-3.8 7.6-3.8.31 0 5.48.3 7.92 1.36 0 0 1.06.6 2.74-.6l1.21-.92.46 1.37c.15.3.46 1.37-.6 2.89 1.36.9 2.73 2.73 2.58 6.08l-.3 2.73c1.06.15 1.97.91 1.97 2.74 0 2.13-2.13 4.25-3.04 5.01-.15 3.5-1.98 6.39-4.41 8.51l3.34 4.56 10.8 2.59c1.37.3 2.44.91 3.5 1.67l7.6-1.82 2.9-4.1c-2.13-1.83-3.8-4.42-3.96-7.46-.91-.76-2.74-2.58-2.74-4.56 0-1.51.77-2.12 1.53-2.43v-.76-.76c0-1.82-.16-6.23 3.95-6.84.61-1.36 2.28-3.5 6.85-3.5.3 0 4.86.16 7.15 1.22.15 0 .9.46 2.43-.6l1.22-.92.45 1.37c0 .15.3 1.22-.6 2.59 1.21.76 2.43 2.43 2.28 5.47l-.3 2.28c.9.3 1.82.9 1.82 2.58 0 1.98-1.83 3.8-2.74 4.56-.15 3.04-1.83 5.62-3.96 7.6l2.9 3.95 9.58 2.28c3.2.76 5.63 3.2 6.23 6.39zm-27.84-24.02c3.2 0 8.37-3.95 8.37-8.82v-.6l.45-.3c.61-.46 2.13-1.98 2.13-3.05v-.45l-.3.15c-.46 0-.76-.15-1.07-.46-.15-.3-.3-.6-.3-1.06l.3-3.2c.3-3.49-1.67-3.64-1.82-3.64l-2.43-.15 1.67-1.67c-.91 0-1.67-.3-1.83-.3-1.52-.77-5.02-1.07-6.23-1.07-4.26 0-4.87 2.28-4.87 2.43l-.15.91h-.92c-2.43 0-2.73 1.52-2.58 4.56v.91c-.15.3 0 .61 0 1.07.15.45 0 .9-.3 1.21-.31.46-.77.61-1.22.61v.3c-.16.92 1.37 2.44 2.13 3.04l.45.3v.62c.15 4.56 4.72 8.5 8.52 8.66zm-4.87.76l-2.89 3.95 4.41 15.35.92-9.27-2.13-3.95a1.3 1.3 0 0 1 0-1.06c.15-.46.45-.61.91-.61h7.76c.3 0 .76.3.91.6.15.31.15.77 0 1.07l-2.13 3.95.91 9.27 4.11-15.5-2.89-3.95a10.65 10.65 0 0 1-5.02 1.52 9.44 9.44 0 0 1-4.87-1.37zm3.96 8.66h1.82l1.07-1.97h-3.96zm-41.83-11.85c3.8 0 9.58-4.4 9.58-9.88v-.6l.46-.31c1.06-.76 2.58-2.43 2.58-3.65 0-.46-.15-.6-.15-.6h-.46c-.45 0-.76-.16-1.06-.46-.15-.3-.3-.61-.3-1.07l.45-3.65c.15-3.8-1.98-4.25-2.28-4.25l-2.28-.3 1.67-1.68.15-.15h-.6c-.92 0-1.53-.3-1.68-.3-1.67-.76-5.63-1.22-7-1.22-5.02 0-5.62 2.74-5.62 2.89l-.16.91h-.9c-2.6.15-3.05 1.98-2.9 5.32v1.06c0 .3.15.76.15 1.22.15.46 0 .91-.3 1.22-.3.45-.91.6-1.37.6-.15 0-.15.16-.15.46 0 1.22 1.52 2.89 2.43 3.5l.46.3v.6c.15 5.33 5.47 9.73 9.28 10.04zm-5.02.15l-3.35 4.71 4.87 17.94 1.06-11.25-2.43-4.4a1.3 1.3 0 0 1 0-1.07c.15-.46.46-.61.91-.61h8.67c.3 0 .76.3.91.6.16.31.16.77 0 1.07l-2.43 4.41 1.07 11.25 4.86-18.09-3.34-4.56a10.2 10.2 0 0 1-5.48 1.82c-1.67 0-3.65-.6-5.32-1.82zm4.26 10.18h2.28l1.21-2.43h-4.86zm-25.86 13.84l.02-.16h-.02zm.02-.16h20.97L225 1518.5l-9.13 2.13a6.68 6.68 0 0 0-5.02 5.32zm28.73.16l-1.07-11.56h-1.52l-1.06 11.56zm4.26.15h21.9l-1.98-10.64a6.68 6.68 0 0 0-5.02-5.32l-10.04-2.43-4.86 18.24zm24.33-.3h6.24l-4.26-15.81-5.63 1.36a10.2 10.2 0 0 1 1.52 3.5l2.13 11.1zm13.54.15l-.91-10.04h-1.22l-.91 10.04zm3.96 0l.04-.16h-.04zm.04-.16h19.43l-1.83-9.27a5.68 5.68 0 0 0-4.4-4.56l-8.98-2.13z"/><path id="5ac5b" d="M235.04 1465.44h-6.08v-26.29h45.64v6.23h12.77v27.36h-5.02v7.6l-8.52-7.6h-27.07v-7.3h-1.52l-9.9 8.97zm39.86-17.78v17.78h-25.7v5.02h25.85l5.33 4.86v-4.86h5.02v-22.8zm-43.35 15.5h6.08v6.08l6.85-6.08h28.14v-21.58h-41.07z"/><path id="5ac5c" d="M238.24 1449.79v-2.28h27.69v2.28z"/><path id="5ac5d" d="M242.96 1457.08v-2.28h18.25v2.28z"/></defs><g><g transform="translate(-206 -1439)"><use fill="#4c3092" xlink:href="#5ac5a"/></g><g transform="translate(-206 -1439)"><use fill="#4c3092" xlink:href="#5ac5b"/></g><g transform="translate(-206 -1439)"><use fill="#4c3092" xlink:href="#5ac5c"/></g><g transform="translate(-206 -1439)"><use fill="#4c3092" xlink:href="#5ac5d"/></g></g></svg>