<svg xmlns="http://www.w3.org/2000/svg" xmlns:xlink="http://www.w3.org/1999/xlink" width="52" height="15" viewBox="0 0 52 15"><defs><path id="g61ra" d="M212.91 430.03c0-3.44-5.25-2.54-5.25-4.12 0-.43.41-.65 1.04-.65a8 8 0 0 1 3.21 1.02l.99-1.98a7.58 7.58 0 0 0-3.12-1.02v-1.99h-1.9v2c-1.82.29-2.95 1.34-2.95 2.85 0 3.38 5.25 2.4 5.25 4.02 0 .5-.49.78-1.25.78-1.04 0-2.6-.6-3.62-1.44l-1.01 1.95a7.52 7.52 0 0 0 3.59 1.46v2.1h1.89v-2.1c1.8-.22 3.13-1.2 3.13-2.88z"/><path id="g61rb" d="M184 429.68l4.48 2.45 4.48-2.45-4.48 5.72zm4.48 1.43l-4.48-2.86h8.96zm0-10.01l-4.48 7.15h8.96z"/><path id="g61rc" d="M235.72 429.91c0 .95-.45 1.7-1.17 2.23-.49.35-1.18.64-2.12.81v1.07c0 .23-.2.43-.47.43h-.47c-.27 0-.48-.2-.48-.43v-.9c-.32.02-.65.04-1.01.04h-.4v.86c0 .23-.22.43-.48.43h-.48c-.26 0-.47-.2-.47-.43v-.86h-1.9c-.26 0-.47-.2-.47-.44v-.43c0-.23.21-.43.47-.43h.95v-8.18h-.95c-.26 0-.47-.19-.47-.43v-.43c0-.24.21-.43.47-.43h1.9v-.86c0-.24.21-.43.47-.43h.48c.26 0 .47.2.47.43v.86h1.42v-.86c0-.24.21-.43.48-.43h.47c.26 0 .47.2.47.43v.97c.6.1 1.07.24 1.52.48.8.4 1.37 1.11 1.37 2.06 0 .94-.52 1.81-1.94 2.25v.03c1.42.33 2.34 1.23 2.34 2.6zm-6.13-3.21h1.03c1.37 0 2.07-.55 2.07-1.33 0-.8-.71-1.25-1.9-1.25-.57 0-.72.03-1.2.07zm3.37 3.16c0-1.06-1-1.44-2.3-1.44h-1.07v2.88c.48.03.65.03 1.1.03 1.18 0 2.27-.36 2.27-1.47z"/></defs><g><g transform="translate(-184 -421)"><use fill="#4c3092" xlink:href="#g61ra"/></g><g transform="translate(-184 -421)"><use fill="#4c3092" xlink:href="#g61rb"/></g><g transform="translate(-184 -421)"><use fill="#4c3092" xlink:href="#g61rc"/></g></g></svg>