<svg xmlns="http://www.w3.org/2000/svg" xmlns:xlink="http://www.w3.org/1999/xlink" width="21" height="19" viewBox="0 0 21 19"><defs><path id="vrmla" d="M154.04 1797.49c.28-1 1.01-2.25 2.85-2.25 0 0 5.07-1.55 5.07 3.4 0 4.16.98 4.61 2.02 5.62-1.33.3-2.69.45-4.05.45v.49c0 .48-.1 1.45 2.44 1.94 2.53.49 2.63 2.43 2.63 2.43h-6.65"/><path id="vrmlb" d="M157.43 1809.33c-2.53-.34-2.53-1.22-2.53-1.7v-.28a4.4 4.4 0 0 0 1.33-2.12c.76 0 .95-1.55.95-1.76 0-.21-.07-1.1-.41-1.19 1.26-4.25-2.54-6.07-5.83-3.88-1.4 0-1.84 1.94-1.33 3.88-.35 0-.41.92-.41 1.16 0 .24.19 1.76.95 1.76.25.88.95 1.6 1.55 2.12v.3c0 .5-.19 1.4-2.76 1.7-2.56.31-2.94 2.68-2.94 2.68h13.93s.03-2.34-2.5-2.67z"/></defs><g><g transform="translate(-145 -1794)"><use fill="#fff" fill-opacity="0" stroke="#4c3092" stroke-linecap="round" stroke-miterlimit="50" stroke-width=".9" xlink:href="#vrmla"/></g><g transform="translate(-145 -1794)"><use fill="#fff" fill-opacity="0" stroke="#4c3092" stroke-linecap="round" stroke-miterlimit="50" stroke-width=".9" xlink:href="#vrmlb"/></g></g></svg>