<?xml version="1.0" encoding="UTF-8"?>
<svg width="108px" height="22px" viewBox="0 0 108 22" version="1.1" xmlns="http://www.w3.org/2000/svg" xmlns:xlink="http://www.w3.org/1999/xlink">
    <!-- Generator: Sketch 48.1 (47250) - http://www.bohemiancoding.com/sketch -->
    <title>Equifax_Logo</title>
    <desc>Created with Sketch.</desc>
    <defs></defs>
    <g id="инспир–лендинг" stroke="none" stroke-width="1" fill="none" fill-rule="evenodd" transform="translate(-533.000000, -2138.000000)" opacity="0.5">
        <g id="Equifax_Logo" transform="translate(534.000000, 2139.000000)" fill="#B32541">
            <polygon id="Shape" stroke="#B32541" stroke-width="0.5" points="16.974867 3.33559459 17.6493085 0.176513514 3.65052128 0.176513514 1.79509574 8.86540541 0.220829787 15.8623784 14.6134681 15.8623784 15.3442553 12.5335946 7.36137234 12.5335946 8.09215957 9.14748649 14.8382819 9.14748649 15.5690691 5.98783784 8.82237766 5.98783784 9.38469681 3.33559459"></polygon>
            <path d="M28.7243777,9.14748649 L33.6156436,9.14748649 C33.7886649,8.12756757 34.110234,6.60591892 34.1779628,5.36691892 C34.2559362,3.91678378 33.6856489,2.84918919 32.4352287,2.15051351 C30.6435479,1.15386486 28.0038351,1.20721622 26.0260426,1.13513514 C23.314617,1.03637838 20.0881117,1.38713514 18.3800957,3.78681081 C17.4990532,5.02467568 17.0033245,6.94248649 16.8086755,8.442 C16.5679255,10.2718378 15.6476117,13.3423784 17.3118032,14.8452973 C18.549133,15.9651081 21.3174734,16.3374324 22.9270266,16.3152973 C24.5661755,16.292027 26.157516,16.1847568 27.7687766,15.8618108 L31.9850319,20.9954595 L38.5626862,20.9954595 L28.7243777,9.14748649 Z M27.9935904,9.26043243 C27.4557447,11.693027 26.72325,13.7396757 23.8894574,13.7175405 C21.0442819,13.6965405 21.9885,10.6441622 22.2594149,8.86597297 C22.6424521,6.33916216 23.6156968,3.68918919 26.532016,3.90032432 C29.4841915,4.11486486 28.4420798,7.23762162 27.9935904,9.26043243 Z" id="Shape"></path>
            <polygon id="Shape" points="54.9792181 1.92518919 53.4612979 8.86540541 51.9433777 15.8623784 57.6775532 15.8623784 60.7697394 1.92518919"></polygon>
            <polygon id="Shape" points="74.8248723 4.68981081 75.4993138 1.92518919 62.9621011 1.92518919 59.9262606 15.8623784 65.7173511 15.8623784 67.0098883 9.88078378 72.6882872 9.88078378 72.9131011 8.86540541 73.2506064 7.2852973 67.6285532 7.2852973 68.1908723 4.68981081"></polygon>
            <path d="M36.5387926,1.92518919 L42.3856596,1.92518919 L40.1932979,11.7997297 C39.9252287,13.0069459 41.0544202,13.6363784 42.0225426,13.7198108 C43.2678404,13.8282162 44.3850798,13.0478108 44.6907128,11.7435405 L46.995766,1.92575676 L52.7862872,1.92575676 L50.481234,12.3644595 C49.4943298,15.0859459 47.2080585,16.1546757 44.683883,16.4214324 C43.1187234,16.5877297 41.4619309,16.446973 39.9679149,16.2006486 L34.7960585,9.99372973 L36.5387926,1.92518919 Z" id="Shape"></path>
            <path d="M87.8111436,1.92518919 L95.1759309,1.92518919 L97.4246383,5.53662162 L101.078574,1.92518919 L106.700628,1.92518919 L99.3364096,8.41362162 L104.17133,15.8623784 L96.9750106,15.8623784 L94.6136117,11.630027 L90.5663936,15.8623784 L81.9648457,15.8623784 L81.6273404,12.8151081 L75.6677819,12.8151081 L73.5881117,15.8623784 L69.5403245,15.8623784 L79.3222872,1.92518919 L86.3495691,1.92518919 L87.6990213,13.2095676 L92.3649043,8.92159459 L87.8111436,1.92518919 Z M77.5795532,9.82459459 L80.727516,5.08483784 L81.2898351,9.82459459 L77.5795532,9.82459459 Z" id="Shape"></path>
        </g>
    </g>
</svg>