<svg xmlns="http://www.w3.org/2000/svg" xmlns:xlink="http://www.w3.org/1999/xlink" width="14" height="16" viewBox="0 0 14 16"><defs><path id="dktea" d="M245.98 1154.9l-8.47-4.83a.34.34 0 0 0-.34 0 .34.34 0 0 0-.17.3v1.18l6.17 6.14z"/><path id="dktec" d="M237.01 1151.55l.05 12.24 6.12-6.1z"/><path id="dktee" d="M250.83 1157.66l-4.85-2.76-2.81 2.8 3.17 3.16 4.49-2.61a.35.35 0 0 0 0-.6z"/><path id="dkteg" d="M237.06 1163.79l.01 1.87a.34.34 0 0 0 .51.3l8.77-5.1-3.18-3.16z"/><linearGradient id="dkteb" x1="237" x2="245.98" y1="1153.86" y2="1153.86" gradientUnits="userSpaceOnUse"><stop offset="0" stop-color="#63be6b"/><stop offset=".51" stop-color="#5bbc6a"/><stop offset="1" stop-color="#4ab96a"/></linearGradient><linearGradient id="dkted" x1="237.01" x2="243.18" y1="1157.67" y2="1157.67" gradientUnits="userSpaceOnUse"><stop offset="0" stop-color="#3ec6f2"/><stop offset="1" stop-color="#45afe3"/></linearGradient><linearGradient id="dktef" x1="243.17" x2="251" y1="1157.88" y2="1157.88" gradientUnits="userSpaceOnUse"><stop offset="0" stop-color="#faa51a"/><stop offset=".39" stop-color="#fab716"/><stop offset=".74" stop-color="#fac412"/><stop offset="1" stop-color="#fac80f"/></linearGradient><linearGradient id="dkteh" x1="237.06" x2="246.35" y1="1161.85" y2="1161.85" gradientUnits="userSpaceOnUse"><stop offset="0" stop-color="#ec3b50"/><stop offset="1" stop-color="#e7515b"/></linearGradient></defs><g><g transform="translate(-237 -1150)"><use fill="url(#dkteb)" xlink:href="#dktea"/></g><g transform="translate(-237 -1150)"><use fill="url(#dkted)" xlink:href="#dktec"/></g><g transform="translate(-237 -1150)"><use fill="url(#dktef)" xlink:href="#dktee"/></g><g transform="translate(-237 -1150)"><use fill="url(#dkteh)" xlink:href="#dkteg"/></g></g></svg>