<svg xmlns="http://www.w3.org/2000/svg" xmlns:xlink="http://www.w3.org/1999/xlink" width="14" height="14" viewBox="0 0 14 14"><defs><path id="a3h5a" d="M218 2069.67a2.33 2.33 0 1 1 0 4.66 2.33 2.33 0 0 1 0-4.66zm0 5.92a3.6 3.6 0 1 0 0-7.18 3.6 3.6 0 0 0 0 7.18zm3.74-6.49a.84.84 0 1 0 0-1.68.84.84 0 0 0 0 1.68zm-7.87 8.36a2.18 2.18 0 0 1-.8-.53c-.25-.24-.4-.47-.53-.8-.1-.25-.2-.62-.24-1.3-.03-.74-.04-.96-.04-2.83s0-2.09.04-2.83c.03-.68.15-1.05.24-1.3.13-.33.28-.56.53-.8.24-.25.47-.4.8-.53.25-.1.62-.2 1.3-.24.74-.03.96-.04 2.83-.04s2.1 0 2.83.04c.68.03 1.05.15 1.3.24.33.13.56.28.8.53.25.24.4.47.53.8.1.25.2.62.24 1.3.03.74.04.96.04 2.83s0 2.09-.04 2.83a3.88 3.88 0 0 1-.24 1.3c-.13.33-.28.56-.53.8-.24.25-.47.4-.8.53-.25.1-.62.2-1.3.24-.74.03-.96.04-2.83.04s-2.09 0-2.83-.04a3.87 3.87 0 0 1-1.3-.24zm-.45-12.1c-.47.19-.86.43-1.24.81-.4.4-.63.78-.81 1.24-.18.45-.3.96-.33 1.7-.03.75-.04.99-.04 2.89 0 1.9 0 2.14.04 2.89.04.74.15 1.25.33 1.7.18.46.42.85.8 1.24.4.38.78.62 1.25.8.44.18.95.3 1.7.33.74.03.98.04 2.88.04s2.14 0 2.89-.04a5.13 5.13 0 0 0 1.7-.33c.46-.18.85-.42 1.24-.8.38-.4.62-.78.8-1.24.18-.45.3-.96.33-1.7.03-.75.04-.99.04-2.89 0-1.9 0-2.14-.04-2.89a5.13 5.13 0 0 0-.33-1.7 3.44 3.44 0 0 0-.8-1.24 3.43 3.43 0 0 0-1.24-.8c-.45-.18-.96-.3-1.7-.33-.75-.03-.99-.04-2.89-.04-1.9 0-2.14 0-2.89.04-.74.04-1.25.15-1.7.33z"/></defs><g><g transform="translate(-211 -2065)"><use fill="#4c3092" xlink:href="#a3h5a"/></g></g></svg>