<svg xmlns="http://www.w3.org/2000/svg" xmlns:xlink="http://www.w3.org/1999/xlink" width="14" height="16" viewBox="0 0 14 16"><defs><path id="u8cza" d="M217.98 1153.68s1.36.22 2.55-1.12c1.12-1.26.9-2.56.9-2.56s-1.58 0-2.7 1.4c-1 1.22-.75 2.28-.75 2.28zm-2.85.21c-2 0-4.13 1.67-4.13 4.85 0 3.24 2.52 7.26 4.51 7.26.7 0 1.77-.65 2.85-.65 1.05 0 1.83.63 2.84.63 2.18 0 3.8-4.24 3.8-4.24s-2.31-.84-2.31-3.26c0-2.15 1.85-3.03 1.85-3.03s-.95-1.6-3.36-1.6c-1.4 0-2.48.74-3.06.74-.68 0-1.69-.7-2.99-.7z"/></defs><g><g transform="translate(-211 -1150)"><use fill="#999" xlink:href="#u8cza"/></g></g></svg>