<svg xmlns="http://www.w3.org/2000/svg" xmlns:xlink="http://www.w3.org/1999/xlink" width="490" height="177" viewBox="0 0 490 177"><defs><path id="avp2a" d="M675 324.1a7.7 7.7 0 0 1 7.7-7.7h39.6a7.7 7.7 0 0 1 0 15.4h-39.6a7.7 7.7 0 0 1-7.7-7.7z"/><path id="avp2b" d="M675 354.9a7.7 7.7 0 0 1 7.7-7.7h101.2a7.7 7.7 0 0 1 0 15.4H682.7a7.7 7.7 0 0 1-7.7-7.7z"/><path id="avp2c" d="M674.5 219.4a11 11 0 0 1 11-11h112.2a11 11 0 0 1 0 22H685.5a11 11 0 0 1-11-11z"/><mask id="avp2e" width="2" height="2" x="-1" y="-1"><path fill="#fff" d="M675 316.4h55v15.4h-55z"/><use xlink:href="#avp2a"/></mask><filter id="avp2d" width="97" height="63.4" x="654" y="306.4" filterUnits="userSpaceOnUse"><feOffset dy="6" in="SourceGraphic" result="FeOffset4470Out"/><feGaussianBlur in="FeOffset4470Out" result="FeGaussianBlur4471Out" stdDeviation="4.4 4.4"/></filter><mask id="avp2g" width="2" height="2" x="-1" y="-1"><path fill="#fff" d="M675 347.2h116.6v15.4H675z"/><use xlink:href="#avp2b"/></mask><filter id="avp2f" width="158.6" height="63.4" x="654" y="337.2" filterUnits="userSpaceOnUse"><feOffset dy="6" in="SourceGraphic" result="FeOffset4497Out"/><feGaussianBlur in="FeOffset4497Out" result="FeGaussianBlur4498Out" stdDeviation="4.4 4.4"/></filter><mask id="avp2i" width="2" height="2" x="-1" y="-1"><path fill="#fff" d="M674.5 208.4h134.2v22H674.5z"/><use xlink:href="#avp2c"/></mask><filter id="avp2h" width="178.2" height="72" x="652.5" y="198.4" filterUnits="userSpaceOnUse"><feOffset dy="6" in="SourceGraphic" result="FeOffset4534Out"/><feGaussianBlur in="FeOffset4534Out" result="FeGaussianBlur4535Out" stdDeviation="4.8 4.8"/></filter></defs><g><g transform="translate(-439 -203)"><g fill="#ad2083" font-family="'Montserrat','Montserrat-SemiBold'" font-size="13" style="line-height:20.9000004529953px;font-kerning:normal"><text dominant-baseline="text-before-edge" font-family="Helvetica, Arial, sans-serif" transform="translate(524.3 313.1)"><tspan>от $1.001 до $5.000</tspan></text></g></g><g transform="translate(-439 -203)"><g fill="#ad2083" font-family="'Montserrat','Montserrat-Bold'" font-size="14" font-style="none" font-weight="700" style="line-height:20.9000004529953px;font-kerning:normal"><text dominant-baseline="text-before-edge" font-family="Helvetica, Arial, sans-serif" transform="translate(750.9 312)"><tspan font-size="22">5</tspan><tspan>% бонус</tspan></text></g></g><g transform="translate(-439 -203)"><g filter="url(#avp2d)"><use fill="none" stroke-opacity=".1" stroke-width="0" mask="url(&quot;#avp2e&quot;)" xlink:href="#avp2a"/><use fill="#ad2083" fill-opacity=".1" xlink:href="#avp2a"/></g><use fill="#ad2083" xlink:href="#avp2a"/></g><g transform="translate(-439 -203)"><g fill="#ad2083" font-family="'Montserrat','Montserrat-SemiBold'" font-size="13" style="line-height:20.9000004529953px;font-kerning:normal"><text dominant-baseline="text-before-edge" font-family="Helvetica, Arial, sans-serif" transform="translate(521 342.8)"><tspan>от $5.001 и больше</tspan></text></g></g><g transform="translate(-439 -203)"><g fill="#ad2083" font-family="'Montserrat','Montserrat-Bold'" font-size="14" font-style="none" font-weight="700" style="line-height:20.9000004529953px;font-kerning:normal"><text dominant-baseline="text-before-edge" font-family="Helvetica, Arial, sans-serif" transform="translate(812.5 343.9)"><tspan font-size="22">10</tspan><tspan>% бонус</tspan></text></g></g><g transform="translate(-439 -203)"><g filter="url(#avp2f)"><use fill="none" stroke-opacity=".1" stroke-width="0" mask="url(&quot;#avp2g&quot;)" xlink:href="#avp2b"/><use fill="#ad2083" fill-opacity=".1" xlink:href="#avp2b"/></g><use fill="#ad2083" xlink:href="#avp2b"/></g><g transform="translate(-439 -203)"><g fill="#ad2083" font-family="'Montserrat','Montserrat-SemiBold'" font-size="11" style="font-kerning:normal"><text dominant-baseline="text-before-edge" font-family="Helvetica, Arial, sans-serif" transform="translate(601 282)"><tspan>+ бонус за сумму вложений</tspan></text></g></g><g transform="translate(-439 -203)"><g fill="#4c3092" font-family="'Montserrat','Montserrat-Medium'" font-size="13" style="line-height:20.9000004529953px;font-kerning:normal"><text dominant-baseline="text-before-edge" font-family="Helvetica, Arial, sans-serif" transform="translate(683.1 233.7)"><tspan>с 1 янв. по 15 янв.</tspan></text></g></g><g transform="translate(-439 -203)"><g fill="#4c3092" font-family="'Montserrat','Montserrat-Bold'" font-size="16" font-style="none" font-weight="700" style="line-height:30.139891501113166px;font-kerning:normal"><text dominant-baseline="text-before-edge" font-family="Helvetica, Arial, sans-serif" transform="translate(438 204)"><tspan>Бонус cегодня составит</tspan></text></g></g><g transform="translate(-439 -203)"><g fill="#4c3092" font-family="'Montserrat','Montserrat-Bold'" font-size="16" font-style="none" font-weight="700" style="line-height:24.035000022649754px;font-kerning:normal"><text dominant-baseline="text-before-edge" font-family="Helvetica, Arial, sans-serif" transform="translate(829.6 207.3)"><tspan font-size="25">10</tspan><tspan>% бонус</tspan></text></g></g><g transform="translate(-439 -203)"><g filter="url(#avp2h)"><use fill="none" stroke-opacity=".12" stroke-width="0" mask="url(&quot;#avp2i&quot;)" xlink:href="#avp2c"/><use fill="#4c3092" fill-opacity=".12" xlink:href="#avp2c"/></g><use fill="#4c3092" xlink:href="#avp2c"/></g></g></svg>