<svg xmlns="http://www.w3.org/2000/svg" xmlns:xlink="http://www.w3.org/1999/xlink" width="40" height="16" viewBox="0 0 40 16"><defs><path id="zhsea" d="M217.98 1153.68s1.36.22 2.55-1.12c1.12-1.26.9-2.56.9-2.56s-1.58 0-2.7 1.4c-1 1.22-.75 2.28-.75 2.28zm-2.85.21c-2 0-4.13 1.67-4.13 4.85 0 3.24 2.52 7.26 4.51 7.26.7 0 1.77-.65 2.85-.65 1.05 0 1.83.63 2.84.63 2.18 0 3.8-4.24 3.8-4.24s-2.31-.84-2.31-3.26c0-2.15 1.85-3.03 1.85-3.03s-.95-1.6-3.36-1.6c-1.4 0-2.48.74-3.06.74-.68 0-1.69-.7-2.99-.7z"/><path id="zhseb" d="M245.98 1154.9l-8.47-4.83a.34.34 0 0 0-.34 0 .34.34 0 0 0-.17.3v1.18l6.17 6.14z"/><path id="zhsed" d="M237.01 1151.55l.05 12.24 6.12-6.1z"/><path id="zhsef" d="M250.83 1157.66l-4.85-2.76-2.81 2.8 3.17 3.16 4.49-2.61a.35.35 0 0 0 0-.6z"/><path id="zhseh" d="M237.06 1163.79l.01 1.87a.34.34 0 0 0 .51.3l8.77-5.1-3.18-3.16z"/><linearGradient id="zhsec" x1="237" x2="245.98" y1="1153.86" y2="1153.86" gradientUnits="userSpaceOnUse"><stop offset="0" stop-color="#63be6b"/><stop offset=".51" stop-color="#5bbc6a"/><stop offset="1" stop-color="#4ab96a"/></linearGradient><linearGradient id="zhsee" x1="237.01" x2="243.18" y1="1157.67" y2="1157.67" gradientUnits="userSpaceOnUse"><stop offset="0" stop-color="#3ec6f2"/><stop offset="1" stop-color="#45afe3"/></linearGradient><linearGradient id="zhseg" x1="243.17" x2="251" y1="1157.88" y2="1157.88" gradientUnits="userSpaceOnUse"><stop offset="0" stop-color="#faa51a"/><stop offset=".39" stop-color="#fab716"/><stop offset=".74" stop-color="#fac412"/><stop offset="1" stop-color="#fac80f"/></linearGradient><linearGradient id="zhsei" x1="237.06" x2="246.35" y1="1161.85" y2="1161.85" gradientUnits="userSpaceOnUse"><stop offset="0" stop-color="#ec3b50"/><stop offset="1" stop-color="#e7515b"/></linearGradient></defs><g><g transform="translate(-211 -1150)"><use fill="#999" xlink:href="#zhsea"/></g><g transform="translate(-211 -1150)"><use fill="url(#zhsec)" xlink:href="#zhseb"/></g><g transform="translate(-211 -1150)"><use fill="url(#zhsee)" xlink:href="#zhsed"/></g><g transform="translate(-211 -1150)"><use fill="url(#zhseg)" xlink:href="#zhsef"/></g><g transform="translate(-211 -1150)"><use fill="url(#zhsei)" xlink:href="#zhseh"/></g></g></svg>