<svg xmlns="http://www.w3.org/2000/svg" xmlns:xlink="http://www.w3.org/1999/xlink" width="64" height="58" viewBox="0 0 64 58"><defs><path id="z58qa" d="M816.07 2656.33l-21.98-21.98 34.43-34.43 20.62 1.36 1.36 20.62z"/><path id="z58qb" d="M806.15 2634.84l2.56-2.56 9.07 9.07-2.57 2.56zm13.01-13.01l9.07 9.06-2.11 2.12-8.84-.83 4.84 4.83-2.52 2.51-9.06-9.07 2.1-2.1 8.84.82-4.83-4.83zm14.25 4.25c-.74.73-1.54 1.35-2.41 1.86-.87.51-1.68.83-2.4.96l-1.06-2.73a7.7 7.7 0 0 0 2.06-.77 7.6 7.6 0 0 0 1.83-1.33c.98-.99 1.23-1.72.74-2.22-.26-.25-.6-.3-1-.15s-1 .47-1.75.96c-.83.53-1.56.94-2.18 1.23-.63.3-1.3.42-2 .37a3.1 3.1 0 0 1-1.99-1c-.55-.56-.9-1.2-1.04-1.96a4.29 4.29 0 0 1 .3-2.4c.34-.86.95-1.73 1.82-2.6.6-.6 1.25-1.12 1.96-1.56a7.63 7.63 0 0 1 2.12-.94l1.11 2.7c-1.33.39-2.4 1-3.2 1.8-.52.52-.81.96-.9 1.35-.08.38 0 .7.24.94.25.24.56.28.96.12.4-.15.97-.47 1.71-.95.84-.55 1.57-.96 2.19-1.25a4.2 4.2 0 0 1 1.98-.37c.7.03 1.37.36 2 1a3.6 3.6 0 0 1 1.02 1.92c.14.75.04 1.55-.3 2.42a7.78 7.78 0 0 1-1.81 2.6zm.09-18.59a7.31 7.31 0 0 1 2.54-1.73 4.48 4.48 0 0 1 2.57-.23c.83.18 1.59.6 2.27 1.29.68.68 1.11 1.44 1.28 2.26.18.83.1 1.69-.24 2.56-.33.88-.9 1.73-1.73 2.55l-1.58 1.58 2.38 2.37-2.57 2.56-9.07-9.06zm4.52 4.83c.53-.52.8-1.04.85-1.53.04-.5-.16-.96-.58-1.38a1.75 1.75 0 0 0-1.38-.58c-.5.03-1.02.31-1.55.84l-1.42 1.42 2.65 2.66z"/></defs><g><g transform="translate(-791 -2599)"><use fill="#fff" fill-opacity="0" stroke="#4c3092" stroke-linecap="round" stroke-miterlimit="50" stroke-width="2.8" xlink:href="#z58qa"/></g><g transform="translate(-791 -2599)"><use fill="#4c3092" xlink:href="#z58qb"/></g></g></svg>