<svg xmlns="http://www.w3.org/2000/svg" xmlns:xlink="http://www.w3.org/1999/xlink" width="15" height="15" viewBox="0 0 15 15"><defs><path id="275ta" d="M648.22 3296.2c0-.58.48-1.05 1.08-1.05h12.48c.6 0 1.08.47 1.08 1.06v12.66c0 .59-.48 1.06-1.08 1.06H649.3c-.6 0-1.08-.47-1.08-1.06v-12.66z"/><path id="275tb" d="M652.66 3307.52v-6.67h-2.21v6.67zm-1.1-7.58c.77 0 1.25-.52 1.25-1.16-.02-.65-.48-1.15-1.24-1.15s-1.25.5-1.25 1.15c0 .64.48 1.16 1.22 1.16zm2.33 7.58zm2.2 0v-3.73c0-.2.02-.4.08-.54.16-.4.52-.8 1.13-.8.8 0 1.12.6 1.12 1.5v3.57h2.22v-3.83c0-2.05-1.1-3-2.55-3a2.2 2.2 0 0 0-2 1.1v-.94h-2.2c.02.62 0 6.63 0 6.67z"/></defs><g><g transform="translate(-648 -3295)"><use fill="#492d8d" xlink:href="#275ta"/></g><g transform="translate(-648 -3295)"><use fill="#fff" xlink:href="#275tb"/></g></g></svg>