<svg xmlns="http://www.w3.org/2000/svg" xmlns:xlink="http://www.w3.org/1999/xlink" width="20" height="9" viewBox="0 0 20 9"><defs><path id="moeba" d="M928.2 917.55c0-1.41 1.07-2.55 2.4-2.55h3c1.33 0 2.4 1.14 2.4 2.55v1.9c0 1.41-1.07 2.55-2.4 2.55h-3c-1.33 0-2.4-1.14-2.4-2.55zm1.2 1.9c0 .7.54 1.28 1.2 1.28h3c.66 0 1.2-.57 1.2-1.28v-1.9c0-.7-.54-1.28-1.2-1.28h-3c-.66 0-1.2.57-1.2 1.28zm-3.6 0c0 1.41-1.07 2.55-2.4 2.55h-3c-1.33 0-2.4-1.14-2.4-2.55v-1.9c0-1.41 1.07-2.55 2.4-2.55h3c1.33 0 2.4 1.14 2.4 2.55zm-1.2-1.9c0-.7-.54-1.28-1.2-1.28h-3c-.66 0-1.2.57-1.2 1.28v1.9c0 .7.54 1.28 1.2 1.28h3c.66 0 1.2-.57 1.2-1.28z"/></defs><g><g transform="translate(-917 -914)"><use fill="#fff" fill-opacity="0" stroke="#4c3092" stroke-linecap="round" stroke-miterlimit="50" stroke-width=".6" xlink:href="#moeba"/></g></g></svg>