<svg xmlns="http://www.w3.org/2000/svg" xmlns:xlink="http://www.w3.org/1999/xlink" width="59" height="17" viewBox="0 0 59 17"><defs><path id="urkja" d="M386.39 2445.8c0-.63.5-1.14 1.13-1.14h13.07c.63 0 1.14.5 1.14 1.13v13.57c0 .63-.51 1.14-1.14 1.14h-13.07c-.62 0-1.13-.51-1.13-1.14v-13.57z"/><path id="urkjb" d="M343.46 2457.93h6.4v-2.16h-4.08v-8.22h-2.32zm9.64 0v-7.15h-2.32v7.15zm.15-9.36c-.01-.7-.5-1.24-1.3-1.24-.78 0-1.3.53-1.3 1.24 0 .68.5 1.23 1.28 1.23h.01c.81 0 1.31-.55 1.31-1.23zm3.24 9.36v-4c0-.2.02-.42.08-.58.17-.42.55-.86 1.19-.86.84 0 1.17.65 1.17 1.61v3.83h2.32v-4.1c0-2.2-1.15-3.22-2.67-3.22a2.3 2.3 0 0 0-2.09 1.18v-1.01h-2.31c.03.67 0 7.15 0 7.15zm8.03-10.38h-2.32v10.38h2.32v-2.32l.57-.75 1.82 3.07h2.85l-3.05-4.44 2.67-3.02h-2.8s-1.9 2.7-2.06 3.02z"/><path id="urkjc" d="M375.95 2454.95l-4.8-.02c.08.98 1.02 1.43 2.1 1.43.8 0 1.44-.1 2.06-.32l.3 1.57c-.76.32-1.69.47-2.7.47-2.52 0-3.97-1.46-3.97-3.8 0-1.9 1.19-3.99 3.76-3.99 2.41 0 3.33 1.88 3.33 3.73 0 .4-.05.75-.08.93zm-2.07-1.6c0-.56-.25-1.52-1.3-1.52-.99 0-1.38.9-1.45 1.51zm7.86-5.8h2.32v8.16c0 .85.03 1.72.06 2.22h-2.06l-.09-1.08h-.04a2.6 2.6 0 0 1-2.33 1.25c-1.77 0-3.19-1.51-3.19-3.83-.01-2.5 1.56-3.96 3.34-3.96.93 0 1.63.33 1.96.83h.03v-3.59zm0 6.1c0-.14 0-.3-.03-.43a1.38 1.38 0 0 0-1.35-1.13c-1.07 0-1.6.95-1.6 2.12 0 1.25.62 2.04 1.58 2.04.67 0 1.22-.45 1.36-1.11.03-.15.04-.34.04-.52z"/><path id="urkjd" d="M391.04 2457.92v-7.15h-2.31v7.15zm-1.15-8.13c.8 0 1.3-.55 1.3-1.23 0-.7-.5-1.24-1.29-1.24-.8 0-1.31.53-1.31 1.24 0 .68.5 1.23 1.28 1.23zm2.44 8.13zm2.31 0v-4c0-.2.02-.42.08-.57.17-.43.55-.87 1.19-.87.83 0 1.17.65 1.17 1.61v3.83h2.32v-4.1c0-2.2-1.15-3.22-2.67-3.22a2.3 2.3 0 0 0-2.09 1.18v-1.01h-2.31c.03.67 0 7.1 0 7.15z"/></defs><g><g transform="translate(-343 -2444)"><use fill="#492d8d" xlink:href="#urkja"/></g><g transform="translate(-343 -2444)"><use fill="#492d8d" xlink:href="#urkjb"/></g><g transform="translate(-343 -2444)"><use fill="#492d8d" xlink:href="#urkjc"/></g><g transform="translate(-343 -2444)"><use fill="#fff" xlink:href="#urkjd"/></g></g></svg>