<svg xmlns="http://www.w3.org/2000/svg" xmlns:xlink="http://www.w3.org/1999/xlink" width="16" height="13" viewBox="0 0 16 13"><defs><path id="yta3a" d="M1185 47.91h-.63c-.24 0-.57.35-.57.57v8.06c0 .22.33.53.57.53h.63v1.9h-5.73v-1.9h1.2V48.6h-.06l-2.8 10.38h-2.17l-2.77-10.38h-.07v8.47h1.2v1.9h-4.8v-1.9h.61c.26 0 .59-.3.59-.53v-8.06c0-.22-.33-.57-.59-.57h-.61V46h6l1.97 7.51h.06l1.99-7.51h5.98v1.91"/></defs><g><g transform="translate(-1169 -46)"><use fill="#4c3092" xlink:href="#yta3a"/></g></g></svg>