<?xml version="1.0" encoding="UTF-8"?>
<svg width="155px" height="36px" viewBox="0 0 155 36" version="1.1" xmlns="http://www.w3.org/2000/svg" xmlns:xlink="http://www.w3.org/1999/xlink">
    <!-- Generator: Sketch 48.1 (47250) - http://www.bohemiancoding.com/sketch -->
    <title>orderbook-logo</title>
    <desc>Created with Sketch.</desc>
    <defs></defs>
    <g id="инспир–лендинг" stroke="none" stroke-width="1" fill="none" fill-rule="evenodd" transform="translate(-855.000000, -2120.000000)">
        <g id="orderbook-logo" transform="translate(855.000000, 2120.000000)" fill="#939393" fill-rule="nonzero">
            <path d="M20.1680552,23.0841124 C22.7940698,23.0841124 24.9314972,20.9466848 24.9314972,18.3206704 C24.9314972,15.6935327 22.7940698,13.5572283 20.1680552,13.5572283 C17.5420408,13.5572283 15.4046132,15.6935327 15.4046132,18.3206704 C15.4046132,20.9466848 17.5420408,23.0841124 20.1680552,23.0841124 Z M28.7413524,18.2105978 C28.6032002,17.9882065 28.3403741,17.8758877 28.0842871,17.930924 C27.8293234,17.9859602 27.6338886,18.1948732 27.5990698,18.4543298 C26.7375842,24.7194747 20.8037799,26.1021197 20.5533089,26.1571558 C20.3140698,26.2099457 20.1276205,26.396395 20.0770769,26.6356341 C20.0265335,26.8759964 20.1220045,27.1230978 20.3196857,27.266866 L22.2189972,28.649511 C22.2111349,28.6551268 22.2043958,28.6607428 22.1965335,28.6652355 L22.0752292,28.7539674 C21.9584175,28.840453 21.8472219,28.9224457 21.7124393,28.9988225 L21.1418596,29.3256704 C20.7577292,29.5480617 20.2983451,29.7333877 19.8861349,29.829982 C19.4087799,29.9625181 18.9067147,30.0636051 18.3327654,30.1467211 C16.8524031,30.2927355 15.2765698,30.1321197 13.4895769,29.657011 C11.2611712,28.971866 9.38769288,27.9935688 7.78377983,26.682808 L7.37830882,26.3200181 C7.14580882,26.1111051 6.79425085,26.1066124 6.55725809,26.3121558 C6.32026535,26.5165761 6.27196824,26.8647645 6.44493926,27.1253443 L6.76617113,27.6060688 C8.15892476,29.5042573 9.94367113,31.1081704 12.2439611,32.5211414 C14.9193958,34.0318298 17.6184175,34.7978443 20.2657726,34.7978443 C21.3350481,34.7978443 22.4065698,34.670924 23.4814611,34.4114674 C24.7270769,34.0419384 25.8850842,33.544366 27.0565698,32.8715761 C27.2239248,32.7603805 27.3912799,32.6480617 27.5563886,32.5357428 L30.9124755,34.9775544 C31.0203016,35.0561776 31.1483451,35.0966124 31.2775118,35.0966124 C31.3550118,35.0966124 31.4313886,35.082011 31.5055191,35.0539312 C31.7032002,34.975308 31.8469683,34.802337 31.8874031,34.593424 C31.9267147,34.3946197 32.8117871,29.6558877 31.2696495,24.0399457 C30.6934538,21.9395834 29.8432002,19.9773732 28.7413524,18.2105978 Z M15.9740698,25.7988587 C16.2346495,25.7898732 16.4626567,25.6191486 16.5435262,25.3698008 C16.6243958,25.120453 16.5412799,24.8475181 16.3346132,24.6869022 C11.3397944,20.8062863 13.1133089,14.9780617 13.1908089,14.7332065 C13.2649393,14.4995834 13.1953016,14.2446197 13.0133451,14.0806341 C12.8313886,13.9177718 12.5708089,13.8762138 12.3461712,13.9750544 L10.1986349,14.9286414 C10.1978861,14.9219022 10.1915214,14.8616244 10.1795407,14.747808 C10.1638161,14.6040399 10.1480914,14.4681341 10.1492146,14.3153805 L10.1379827,14.0031341 L10.1525842,13.6571921 C10.1525842,13.2135327 10.2222219,12.7226994 10.3435262,12.3172283 C10.4682001,11.8365037 10.6321856,11.3512863 10.8478379,10.8144023 C11.4678379,9.44748198 12.3764972,8.18726459 13.6939972,6.86527184 C15.4034901,5.27820662 17.1882364,4.14603271 19.1246132,3.41371387 L19.6412799,3.24411242 C19.9389248,3.14751822 20.1186349,2.84538054 20.0602292,2.53762691 C20.0018234,2.22987329 19.7243958,2.01983705 19.4110262,2.03331532 L18.8348306,2.07038054 C16.4929828,2.32646749 14.2117871,3.07001822 11.8384901,4.35382256 C8.09490302,6.56201097 5.65421462,9.50701097 4.57820012,13.1382791 C4.27493926,14.3996197 4.1255552,15.6519747 4.12330882,17.0042935 C4.1345407,17.2042211 4.14801896,17.4041486 4.1637436,17.6051994 L0.369613173,19.2877355 C0.175301579,19.3742211 0.039395782,19.5539312 0.00682331822,19.7639674 C-0.0246259571,19.9740037 0.0539972313,20.1851631 0.214613173,20.3244384 C0.367366796,20.4580978 4.02671462,23.5951631 9.66062766,25.0710327 C11.5352292,25.561866 13.4255552,25.8100907 15.2821857,25.8100907 C15.5113161,25.8100907 15.7415698,25.8067211 15.9740698,25.7988587 Z M32.4456278,7.40327908 C31.5021495,6.51034431 30.4912799,5.75556169 29.3231639,5.07827908 C29.1434538,4.98842401 28.9637436,4.89969212 28.7829103,4.81320662 L29.2198306,0.686612424 C29.2422944,0.474329815 29.1546857,0.26653996 28.9884538,0.135126917 C28.8210988,0.00259068408 28.5998306,-0.0344745333 28.3987799,0.032916771 C28.2078379,0.100308075 23.6611712,1.70197474 19.5682726,5.84653995 C18.0384901,7.39541676 16.7659175,9.11277184 15.7842509,10.9514313 C15.6618234,11.182808 15.6966422,11.4658515 15.8707364,11.6601631 C16.0470769,11.8544747 16.3256278,11.9184964 16.5671132,11.8196558 C17.7037799,11.3557791 18.8584175,11.1210327 19.9984538,11.1210327 C24.0172219,11.1210327 26.7353379,14.0390761 26.7611712,14.0682791 C26.9262799,14.2491124 27.1823668,14.3153805 27.4148668,14.2401268 C27.6473668,14.1648732 27.8135988,13.9582065 27.8394321,13.7155978 L28.0865335,11.3782428 C28.0955191,11.3827355 28.1045045,11.3872283 28.1123668,11.3905978 L28.2493958,11.4512501 C28.3830552,11.5096558 28.5088524,11.5646921 28.6425118,11.6421921 L28.9176929,11.7870834 L29.2119683,11.9735327 C29.5949755,12.1948008 29.9858451,12.500308 30.2756278,12.8080617 C30.6305552,13.1562501 30.9686349,13.5403805 31.3258089,13.996395 C32.2018958,15.2150544 32.8387436,16.6325181 33.3250842,18.4341124 C33.8462436,20.7074457 33.9360988,22.8190399 33.6025118,24.8632428 L33.4913161,25.3956341 C33.4261712,25.7022645 33.5991422,26.008895 33.8956639,26.1111051 C33.9630552,26.1346921 34.0315698,26.145924 34.0989611,26.145924 C34.3303379,26.145924 34.5482364,26.0167573 34.6560625,25.799982 L34.9110262,25.2821921 C35.8589972,23.1279167 36.3554465,20.7793298 36.4284538,18.0814312 C36.3857726,13.7346921 35.0536712,10.1505979 32.4456278,7.40327908 Z M111.160918,29.1493298 C111.06657,28.8303443 110.878997,28.5708877 110.600446,28.3720834 C110.320773,28.1721558 109.997295,28.0710688 109.628889,28.0710688 C109.22791,28.0710688 108.876352,28.1833877 108.574215,28.4080254 C108.385519,28.548424 108.209179,28.7955254 108.048563,29.1493298 L111.160918,29.1493298 Z M112.596352,30.2803805 L107.98454,30.2803805 C108.051932,30.6869747 108.229396,31.010453 108.518055,31.2508153 C108.807838,31.4900544 109.177367,31.6113587 109.625519,31.6113587 C110.162403,31.6113587 110.62291,31.4226631 111.008163,31.0475181 L112.217838,31.6158515 C111.916823,32.0437863 111.555156,32.3605254 111.135085,32.5660688 C110.713889,32.7704892 110.215193,32.8726994 109.635628,32.8726994 C108.7382,32.8726994 108.008128,32.5896558 107.443163,32.0235688 C106.879323,31.457482 106.59628,30.7487501 106.59628,29.8962501 C106.59628,29.0235327 106.8782,28.2990761 107.440918,27.7217573 C108.003635,27.1455617 108.708997,26.8569022 109.557005,26.8569022 C110.457802,26.8569022 111.191243,27.1455617 111.755085,27.7217573 C112.320048,28.2990761 112.601969,29.0594747 112.601969,30.0063225 L112.596352,30.2803805 Z M102.680845,27.0040399 L103.191896,27.0040399 C103.195265,26.2537501 103.20762,25.8100907 103.227838,25.6730617 C103.267149,25.3574457 103.398562,25.1092211 103.625446,24.923895 C103.851207,24.7408153 104.171316,24.6487138 104.584649,24.6487138 C104.883418,24.6487138 105.219251,24.7161051 105.594396,24.8531341 L105.594396,25.9471197 C105.387729,25.8875907 105.218128,25.8583877 105.084469,25.8583877 C104.91599,25.8583877 104.793562,25.8932065 104.716062,25.9628443 C104.659903,26.0156341 104.631823,26.1245834 104.631823,26.2885688 L104.62733,27.0040399 L105.537113,27.0040399 L105.537113,28.2182065 L104.62733,28.2182065 L104.62733,32.7255617 L103.191896,32.7255617 L103.191896,28.2182065 L102.680845,28.2182065 L102.680845,27.0040399 Z M98.2274031,28.1822645 C97.7837436,28.1822645 97.4153379,28.339511 97.1210625,28.6528805 C96.8279103,28.9662501 96.6818958,29.3694747 96.6818958,29.8591848 C96.6818958,30.3533877 96.8312799,30.7611051 97.1300481,31.0789674 C97.4276929,31.3990761 97.7960988,31.5585688 98.2330191,31.5585688 C98.6834175,31.5585688 99.0574393,31.4013225 99.3550842,31.087953 C99.6516059,30.7734602 99.7998668,30.3623732 99.7998668,29.8546921 C99.7998668,29.3559964 99.6516059,28.9527718 99.3550842,28.6450181 C99.0574393,28.3361414 98.6822944,28.1822645 98.2274031,28.1822645 Z M99.7369683,27.0040399 L101.172403,27.0040399 L101.172403,32.7255617 L99.7369683,32.7255617 L99.7369683,32.1201631 C99.4561712,32.387482 99.1753741,32.5795471 98.8934538,32.6963587 C98.6115335,32.8142935 98.3060262,32.8726994 97.9769321,32.8726994 C97.2389972,32.8726994 96.5999031,32.5862863 96.0596495,32.0134602 C95.5205191,31.4406341 95.2509538,30.7274095 95.2509538,29.8760327 C95.2509538,28.9920834 95.5115335,28.2676268 96.0338161,27.7037863 C96.5560988,27.1399457 97.1895769,26.8569022 97.9353741,26.8569022 C98.2790698,26.8569022 98.6003016,26.9220471 98.9013161,27.0512138 C99.2023306,27.1815037 99.4808814,27.3758153 99.7369683,27.6352718 L99.7369683,27.0040399 Z M93.7997944,27.8037501 L92.9113524,28.6921921 C92.5496857,28.333895 92.2228379,28.155308 91.9274393,28.155308 C91.7668234,28.155308 91.6399031,28.1901268 91.5489248,28.2586414 C91.4579465,28.3271558 91.4130191,28.4125181 91.4130191,28.5136051 C91.4130191,28.5911051 91.4422219,28.6607428 91.4995045,28.727011 C91.5579103,28.7910327 91.7005552,28.8797645 91.9274393,28.9920834 L92.4542147,29.2549095 C93.0079465,29.5289674 93.3887074,29.806395 93.5953741,30.0905617 C93.8020408,30.3747283 93.9053741,30.7083153 93.9053741,31.0901994 C93.9053741,31.5990037 93.7189248,32.0224457 93.3449031,32.3627718 C92.9720045,32.7030978 92.4710625,32.8726994 91.8443234,32.8726994 C91.0097944,32.8726994 90.3437436,32.5469747 89.8450481,31.8944022 L90.7289972,30.9318298 C90.8974755,31.1283877 91.0951567,31.2867573 91.3209175,31.4091848 C91.5466785,31.529366 91.7477292,31.5900181 91.9229465,31.5900181 C92.1116422,31.5900181 92.2643958,31.5439674 92.3800842,31.4529892 C92.4957726,31.362011 92.5541785,31.2564312 92.5541785,31.1373732 C92.5541785,30.9172283 92.3452654,30.700453 91.9274393,30.4904167 L91.4444683,30.2489312 C90.5189611,29.782808 90.0562074,29.1987501 90.0562074,28.4978805 C90.0562074,28.0452355 90.2303016,27.6588587 90.5796132,27.3387501 C90.9278016,27.0175181 91.3737074,26.8569022 91.9173306,26.8569022 C92.2891059,26.8569022 92.6384175,26.938895 92.9663886,27.1017573 C93.2943596,27.2646197 93.5729103,27.4982428 93.7997944,27.8037501 Z M86.9438524,32.7255617 L88.3792871,32.7255617 L88.3792871,27.0040399 L86.9438524,27.0040399 L86.9438524,32.7255617 Z M87.6615698,24.6487138 C87.9142871,24.6487138 88.1299393,24.7385688 88.3096495,24.9216486 C88.4893596,25.1036051 88.5803379,25.3248732 88.5803379,25.5843298 C88.5803379,25.8404167 88.4904828,26.0583153 88.3118958,26.2391486 C88.1344321,26.4188587 87.9210262,26.509837 87.6728016,26.509837 C87.4178379,26.509837 87.1999393,26.4177355 87.0191059,26.2335327 C86.8393958,26.0493298 86.7495408,25.8258153 86.7495408,25.5629892 C86.7495408,25.311395 86.8382726,25.0946197 87.0168596,24.9160327 C87.1954465,24.7374457 87.4099755,24.6487138 87.6615698,24.6487138 Z M82.3500118,28.1822645 C81.8984901,28.1822645 81.5233451,28.3361414 81.2245769,28.6450181 C80.9269321,28.9527718 80.7775481,29.3559964 80.7775481,29.8546921 C80.7775481,30.3623732 80.9269321,30.7734602 81.2245769,31.087953 C81.5233451,31.4013225 81.8984901,31.5585688 82.3500118,31.5585688 C82.7880552,31.5585688 83.1575842,31.3990761 83.4574755,31.0789674 C83.7573668,30.7611051 83.9067509,30.3533877 83.9067509,29.8591848 C83.9067509,29.3694747 83.7596132,28.9662501 83.4653379,28.6528805 C83.1710625,28.339511 82.7992871,28.1822645 82.3500118,28.1822645 Z M80.8404465,24.7958515 L80.8404465,27.6352718 C81.0999031,27.3758153 81.3807002,27.1815037 81.6828379,27.0512138 C81.9838524,26.9220471 82.3062074,26.8569022 82.6499031,26.8569022 C83.3968234,26.8569022 84.0314248,27.1399457 84.5537074,27.7037863 C85.0759901,28.2676268 85.3376929,28.9920834 85.3376929,29.8760327 C85.3376929,30.7274095 85.0670045,31.4406341 84.5278741,32.0134602 C83.9876205,32.5862863 83.3474031,32.8726994 82.6083451,32.8726994 C82.2781278,32.8726994 81.9714972,32.8142935 81.6873306,32.6963587 C81.4031639,32.5795471 81.1212436,32.387482 80.8404465,32.1201631 L80.8404465,32.7255617 L79.4162436,32.7255617 L79.4162436,24.7958515 L80.8404465,24.7958515 Z M68.6976567,27.0040399 L70.1330915,27.0040399 L70.1330915,27.6611051 C70.3790698,27.3915399 70.6508814,27.189366 70.9507726,27.0568298 C71.2506639,26.9231704 71.5786349,26.8569022 71.9324393,26.8569022 C72.2907364,26.8569022 72.6130915,26.944511 72.9006278,27.1197283 C73.1881639,27.2949457 73.4195408,27.5510327 73.5958814,27.8879892 C73.8238886,27.5510327 74.1035625,27.2949457 74.4349031,27.1197283 C74.7662436,26.944511 75.1290335,26.8569022 75.5221495,26.8569022 C75.9287436,26.8569022 76.2870408,26.9512501 76.5947944,27.1410688 C76.9036712,27.3297645 77.1260625,27.576866 77.2608451,27.8823732 C77.3956278,28.1867573 77.4641422,28.6832065 77.4641422,29.3705978 L77.4641422,32.7255617 L76.0174755,32.7255617 L76.0174755,29.8232428 C76.0174755,29.1740399 75.9366059,28.7348732 75.7759901,28.5057428 C75.6142509,28.2766124 75.3727654,28.160924 75.0504103,28.160924 C74.8044321,28.160924 74.5842871,28.2305617 74.3899755,28.3720834 C74.1956639,28.5113587 74.0507726,28.7056704 73.9564248,28.9527718 C73.8609538,29.1998732 73.8137799,29.5963587 73.8137799,30.1433515 L73.8137799,32.7255617 L72.3682364,32.7255617 L72.3682364,29.9535327 C72.3682364,29.442482 72.3300481,29.0718298 72.2547944,28.8426994 C72.1795408,28.6124457 72.0660988,28.4405978 71.9144683,28.3294022 C71.7639611,28.2170834 71.5808814,28.160924 71.3663524,28.160924 C71.1271132,28.160924 70.9103379,28.232808 70.7160262,28.3743298 C70.5205915,28.5158515 70.3745769,28.7146558 70.2779828,28.9707428 C70.1813886,29.2268298 70.1330915,29.6300544 70.1330915,30.1804167 L70.1330915,32.7255617 L68.6976567,32.7255617 L68.6976567,27.0040399 Z M63.5332364,27.0411051 L62.4954103,29.6963225 L64.5643234,29.6963225 L63.5332364,27.0411051 Z M62.7773306,24.9901631 L64.2711712,24.9901631 L67.2453741,32.7255617 L65.7155915,32.7255617 L65.1101929,31.1317573 L61.9540335,31.1317573 L61.3239248,32.7255617 L59.7941422,32.7255617 L62.7773306,24.9901631 Z M49.2878379,27.0040399 L50.7535988,27.0040399 L52.2407002,30.5937501 L53.8805552,27.0040399 L55.3519321,27.0040399 L51.7678379,34.8191848 L50.2852292,34.8191848 L51.4623306,32.2987501 L49.2878379,27.0040399 Z M45.4880915,28.1822645 C45.0354465,28.1822645 44.6614248,28.3361414 44.3626567,28.6450181 C44.0650118,28.9527718 43.9156278,29.3559964 43.9156278,29.8546921 C43.9156278,30.3623732 44.0650118,30.7734602 44.3626567,31.087953 C44.6614248,31.4013225 45.0354465,31.5585688 45.4880915,31.5585688 C45.9261349,31.5585688 46.2956639,31.3990761 46.5944321,31.0789674 C46.8954465,30.7611051 47.0448306,30.3533877 47.0448306,29.8591848 C47.0448306,29.3694747 46.8976929,28.9662501 46.6034175,28.6528805 C46.3080191,28.339511 45.9362436,28.1822645 45.4880915,28.1822645 Z M43.9785262,24.7958515 L43.9785262,27.6352718 C44.2379828,27.3758153 44.5187799,27.1815037 44.8197944,27.0512138 C45.1219321,26.9220471 45.4442871,26.8569022 45.7879828,26.8569022 C46.5349031,26.8569022 47.1695045,27.1399457 47.6917871,27.7037863 C48.2140698,28.2676268 48.4746495,28.9920834 48.4746495,29.8760327 C48.4746495,30.7274095 48.2050842,31.4406341 47.6648306,32.0134602 C47.1257002,32.5862863 46.4854828,32.8726994 45.7453016,32.8726994 C45.4162074,32.8726994 45.1095769,32.8142935 44.8254103,32.6963587 C44.5412436,32.5795471 44.2593234,32.387482 43.9785262,32.1201631 L43.9785262,32.7255617 L42.5532002,32.7255617 L42.5532002,24.7958515 L43.9785262,24.7958515 Z M143.154939,4.57733705 L146.026932,4.57733705 L146.026932,13.7122283 L150.254613,8.99483701 L153.860048,8.99483701 L148.931497,14.4782428 L154.449722,20.4378805 L150.885845,20.4378805 L146.026932,15.1633877 L146.026932,20.4378805 L143.154939,20.4378805 L143.154939,4.57733705 Z M135.000592,11.402953 C134.10878,11.402953 133.365229,11.712953 132.772186,12.3340761 C132.178019,12.9540761 131.881497,13.7481704 131.881497,14.7163587 C131.881497,15.7115037 132.174649,16.517953 132.762077,17.1345834 C133.347258,17.7512138 134.090809,18.0600907 134.989359,18.0600907 C135.889033,18.0600907 136.637077,17.7489674 137.23349,17.1244747 C137.831026,16.499982 138.128672,15.6980254 138.128672,14.7163587 C138.128672,13.7335688 137.835519,12.9372283 137.249215,12.3228443 C136.66291,11.7095834 135.913743,11.402953 135.000592,11.402953 Z M134.953418,8.69943846 C136.032802,8.69943846 137.04704,8.97012686 137.997258,9.50925731 C138.947476,10.0495109 139.689903,10.7818298 140.222295,11.707337 C140.754686,12.6328443 141.022005,13.632482 141.022005,14.7051268 C141.022005,15.784511 140.753562,16.7942573 140.216679,17.734366 C139.680918,18.6744747 138.949722,19.4079167 138.024215,19.9380617 C137.098707,20.4670834 136.077729,20.7321558 134.963526,20.7321558 C133.322548,20.7321558 131.921932,20.1480978 130.761679,18.9811051 C129.601425,17.8129892 129.020736,16.3955254 129.020736,14.7264674 C129.020736,12.9383515 129.676679,11.4490037 130.987439,10.2561776 C132.137585,9.21835151 133.459577,8.69943846 134.953418,8.69943846 Z M121.480773,11.402953 C120.588961,11.402953 119.846533,11.712953 119.252367,12.3340761 C118.659323,12.9540761 118.362802,13.7481704 118.362802,14.7163587 C118.362802,15.7115037 118.655953,16.517953 119.242258,17.1345834 C119.828563,17.7512138 120.57099,18.0600907 121.470664,18.0600907 C122.369215,18.0600907 123.117258,17.7489674 123.713672,17.1244747 C124.311207,16.499982 124.609976,15.6980254 124.609976,14.7163587 C124.609976,13.7335688 124.316823,12.9372283 123.730519,12.3228443 C123.143092,11.7095834 122.393925,11.402953 121.480773,11.402953 Z M121.433599,8.69943846 C122.512983,8.69943846 123.528345,8.97012686 124.478563,9.50925731 C125.42878,10.0495109 126.170085,10.7818298 126.702476,11.707337 C127.23599,12.6328443 127.502186,13.632482 127.502186,14.7051268 C127.502186,15.784511 127.233743,16.7942573 126.697983,17.734366 C126.161099,18.6744747 125.429903,19.4079167 124.504396,19.9380617 C123.578889,20.4670834 122.559033,20.7321558 121.443707,20.7321558 C119.803852,20.7321558 118.403236,20.1480978 117.241859,18.9811051 C116.081606,17.8129892 115.50204,16.3955254 115.50204,14.7264674 C115.50204,12.9383515 116.156859,11.4490037 117.468743,10.2561776 C118.618889,9.21835151 119.939758,8.69943846 121.433599,8.69943846 Z M107.932874,11.3501631 C107.027585,11.3501631 106.277295,11.6590399 105.682005,12.2756704 C105.085592,12.8923008 104.787946,13.6987501 104.787946,14.6950181 C104.787946,15.7115037 105.085592,16.5336776 105.682005,17.1615399 C106.277295,17.7882791 107.027585,18.1027718 107.932874,18.1027718 C108.808961,18.1027718 109.546896,17.7837863 110.146679,17.1458153 C110.745338,16.5078443 111.045229,15.6935327 111.045229,14.7051268 C111.045229,13.7234602 110.750953,12.9192573 110.162403,12.291395 C109.572729,11.6646558 108.830302,11.3501631 107.932874,11.3501631 Z M104.913743,4.57733705 L104.913743,10.2561776 C105.432656,9.73726455 105.993128,9.34864136 106.59628,9.08918484 C107.199432,8.82972832 107.844142,8.69943846 108.531533,8.69943846 C110.025374,8.69943846 111.294577,9.26440222 112.339142,10.3932065 C113.383707,11.522011 113.90599,12.9698008 113.90599,14.7365761 C113.90599,16.440453 113.365736,17.8657791 112.286352,19.0125544 C111.206969,20.1582065 109.926533,20.7321558 108.447295,20.7321558 C107.789106,20.7321558 107.174722,20.6142211 106.607512,20.3794747 C106.039179,20.1447283 105.475338,19.7605978 104.913743,19.2282065 L104.913743,20.4378805 L102.063091,20.4378805 L102.063091,4.57733705 L104.913743,4.57733705 Z M94.5703016,8.99483701 L97.0312074,8.99483701 L97.0312074,10.4347645 C97.2985262,9.86755441 97.6523306,9.43625005 98.0937436,9.14197469 C98.5351567,8.84657614 99.0192509,8.69943846 99.5449031,8.69943846 C99.9166785,8.69943846 100.306425,8.79827904 100.713019,8.99483701 L99.8189611,11.4658515 C99.4820045,11.2973732 99.2045769,11.2131341 98.9878016,11.2131341 C98.5463886,11.2131341 98.1723668,11.4871921 97.8679828,12.0341848 C97.5624755,12.5811776 97.4097219,13.6538225 97.4097219,15.2521197 L97.4209538,15.8092211 L97.4209538,20.4378805 L94.5703016,20.4378805 L94.5703016,8.99483701 Z M89.9315335,13.2854167 C89.7417147,12.6474457 89.3676929,12.1285327 88.8094683,11.7286776 C88.2512436,11.3288225 87.6031639,11.128895 86.8663524,11.128895 C86.0655191,11.128895 85.3624031,11.3535327 84.7592509,11.802808 C84.3796132,12.082482 84.0280552,12.5766848 83.7057002,13.2854167 L89.9315335,13.2854167 Z M92.8035262,15.546395 L83.5787799,15.546395 C83.7124393,16.3607065 84.0684901,17.0065399 84.6469321,17.4872645 C85.2253741,17.966866 85.9633089,18.2072283 86.8607364,18.2072283 C87.9333814,18.2072283 88.8555191,17.8320834 89.6271495,17.0817935 L92.0453741,18.2184602 C91.4422219,19.0732065 90.7200118,19.7066848 89.8787436,20.1166486 C89.0374755,20.5266124 88.0389611,20.7321558 86.8820769,20.7321558 C85.0872219,20.7321558 83.6248306,20.1649457 82.4960262,19.0327718 C81.3672219,17.9005978 80.8022582,16.4831341 80.8022582,14.7792573 C80.8022582,13.0326994 81.3649755,11.5837863 82.4904103,10.4302718 C83.6158451,9.27675731 85.0265698,8.69943846 86.7237074,8.69943846 C88.5264248,8.69943846 89.9910625,9.27675731 91.1198668,10.4302718 C92.2486712,11.5837863 92.8136349,13.1068298 92.8136349,14.9994022 L92.8035262,15.546395 Z M72.7400118,11.3501631 C71.8526929,11.3501631 71.1158814,11.6646558 70.5284538,12.291395 C69.9421495,12.9192573 69.6478741,13.7234602 69.6478741,14.7051268 C69.6478741,15.6935327 69.9466422,16.5078443 70.5441785,17.1458153 C71.1417147,17.7837863 71.8774031,18.1027718 72.7501205,18.1027718 C73.6520408,18.1027718 74.4000842,17.7882791 74.9931278,17.1615399 C75.5884175,16.5336776 75.8849393,15.7115037 75.8849393,14.6950181 C75.8849393,13.6987501 75.5884175,12.8923008 74.9931278,12.2756704 C74.4000842,11.6590399 73.6486712,11.3501631 72.7400118,11.3501631 Z M75.7591422,4.57733705 L78.6300118,4.57733705 L78.6300118,20.4378805 L75.7591422,20.4378805 L75.7591422,19.2282065 C75.1986712,19.7605978 74.6359538,20.1447283 74.0721132,20.3794747 C73.5082726,20.6142211 72.8983814,20.7321558 72.2390698,20.7321558 C70.7620769,20.7321558 69.4827654,20.1582065 68.4045045,19.0125544 C67.3262436,17.8657791 66.7871132,16.440453 66.7871132,14.7365761 C66.7871132,12.9698008 67.3093958,11.522011 68.3528379,10.3932065 C69.3962799,9.26440222 70.6632364,8.69943846 72.1559538,8.69943846 C72.8410988,8.69943846 73.4858089,8.82972832 74.0878379,9.08918484 C74.6898668,9.34864136 75.2469683,9.73726455 75.7591422,10.2561776 L75.7591422,4.57733705 Z M60.3153016,8.99483701 L62.7762074,8.99483701 L62.7762074,10.4347645 C63.0435262,9.86755441 63.3973306,9.43625005 63.8387436,9.14197469 C64.2801567,8.84657614 64.7642509,8.69943846 65.2899031,8.69943846 C65.6616785,8.69943846 66.0514248,8.79827904 66.4580191,8.99483701 L65.5639611,11.4658515 C65.2270045,11.2973732 64.9495769,11.2131341 64.7328016,11.2131341 C64.2913886,11.2131341 63.9173668,11.4871921 63.6129828,12.0341848 C63.3074755,12.5811776 63.1547219,13.6538225 63.1547219,15.2521197 L63.1659538,15.8092211 L63.1659538,20.4378805 L60.3153016,20.4378805 L60.3153016,8.99483701 Z M50.1998668,7.45831528 C48.7689248,7.45831528 47.5648668,7.95701092 46.5888161,8.95215585 C45.6138886,9.94730078 45.1253016,11.2131341 45.1253016,12.7485327 C45.1253016,14.4602718 45.7396857,15.8137138 46.9684538,16.8088587 C47.9220408,17.5872283 49.0171495,17.9758515 50.2526567,17.9758515 C51.6499031,17.9758515 52.8393596,17.4715399 53.8221495,16.4617935 C54.8049393,15.4520471 55.2957726,14.2075544 55.2957726,12.7283153 C55.2957726,11.2558153 54.8004465,10.0090761 53.8120408,8.98922107 C52.8225118,7.96936599 51.6184538,7.45831528 50.1998668,7.45831528 Z M50.2324393,4.57733705 C52.4204103,4.57733705 54.3028741,5.36918488 55.8787074,6.95400368 C57.4534175,8.53882252 58.2407726,10.4707065 58.2407726,12.7485327 C58.2407726,15.0061414 57.4635262,16.917808 55.9101567,18.4812863 C54.3556639,20.0447645 52.4698306,20.8265037 50.2526567,20.8265037 C47.9310262,20.8265037 46.0013886,20.023424 44.4648668,18.4183877 C42.9283451,16.8122283 42.1600842,14.9050544 42.1600842,12.696866 C42.1600842,11.2176268 42.5172582,9.85632252 43.2338524,8.61519933 C43.9493234,7.37519933 44.9332364,6.39128629 46.1855915,5.66570658 C47.4379465,4.94012691 48.7868958,4.57733705 50.2324393,4.57733705 Z" id="Shape"></path>
        </g>
    </g>
</svg>