<?xml version="1.0" encoding="UTF-8"?>
<svg width="22px" height="18px" viewBox="0 0 22 18" version="1.1" xmlns="http://www.w3.org/2000/svg" xmlns:xlink="http://www.w3.org/1999/xlink">
    <!-- Generator: Sketch 48.1 (47250) - http://www.bohemiancoding.com/sketch -->
    <title>whitepaper</title>
    <desc>Created with Sketch.</desc>
    <defs></defs>
    <g id="инспир–лендинг" stroke="none" stroke-width="1" fill="none" fill-rule="evenodd" transform="translate(-155.000000, -162.000000)" stroke-linecap="round">
        <g id="whitepaper" transform="translate(156.000000, 163.534000)" stroke="#AD2083" stroke-width="1.13399996">
            <path d="M18.3707994,15.8759995 L2.04119993,15.8759995 C0.913876339,15.8759995 1.51079144e-16,14.9067367 0,13.7110905 L0,0 L16.3295995,0 L16.3295995,2.88654536" id="Shape"></path>
            <path d="M20.4119993,2.88654536 L20.4119993,13.7110905 C20.4119993,14.9067367 19.498123,15.8759995 18.3707994,15.8759995 C17.2434758,15.8759995 16.3295995,14.9067367 16.3295995,13.7110905 L16.3295995,2.88654536 L20.4119993,2.88654536 Z" id="Shape"></path>
            <path d="M2.72159991,2.88654536 L13.6079996,2.88654536 L2.72159991,2.88654536 Z M2.72159991,5.77309072 L7.48439976,5.77309072 L7.48439976,11.5461814 L2.72159991,11.5461814 L2.72159991,5.77309072 Z M10.2059997,5.77309072 L13.6079996,5.77309072 L10.2059997,5.77309072 Z M10.2059997,8.65963609 L13.6079996,8.65963609 L10.2059997,8.65963609 Z M10.2059997,11.5461814 L13.6079996,11.5461814 L10.2059997,11.5461814 Z" id="Shape"></path>
        </g>
    </g>
</svg>