<?xml version="1.0" encoding="UTF-8"?>
<svg width="17px" height="17px" viewBox="0 0 17 17" version="1.1" xmlns="http://www.w3.org/2000/svg" xmlns:xlink="http://www.w3.org/1999/xlink">
    <!-- Generator: Sketch 48.1 (47250) - http://www.bohemiancoding.com/sketch -->
    <title>play</title>
    <desc>Created with Sketch.</desc>
    <defs></defs>
    <g id="инспир–лендинг" stroke="none" stroke-width="1" fill="none" fill-rule="evenodd" transform="translate(-1182.000000, -545.000000)">
        <g id="Group-5" transform="translate(1182.000000, 545.000000)" fill="#4C3092">
            <g id="Group-8">
                <g id="Group-7">
                    <path d="M8.5,17 C3.80557963,17 0,13.1944204 0,8.5 C0,3.80557963 3.80557963,0 8.5,0 C13.1944204,0 17,3.80557963 17,8.5 C17,13.1944204 13.1944204,17 8.5,17 Z M11.2294738,9.26026308 C11.3939721,9.17801394 11.5273562,9.04462983 11.6096054,8.88013154 C11.8195462,8.46024984 11.6493555,7.94967777 11.2294738,7.73973692 L7.1801315,5.71506575 C7.06210439,5.6560522 6.93195829,5.62532887 6.79999996,5.62532887 C6.33055795,5.62532887 5.95,6.00588681 5.95,6.47532883 L5.95,10.5246712 C5.95,10.6566295 5.98072333,10.7867756 6.03973688,10.9048027 C6.24967774,11.3246844 6.7602498,11.4948751 7.1801315,11.2849342 L11.2294738,9.26026308 Z" id="play"></path>
                </g>
            </g>
        </g>
    </g>
</svg>