<svg xmlns="http://www.w3.org/2000/svg" xmlns:xlink="http://www.w3.org/1999/xlink" width="17" height="14" viewBox="0 0 17 14"><defs><path id="72bha" d="M1212.02 52.15c0-.62.5-1.12 1.13-1.12.62 0 1.12.5 1.12 1.11 0 .62-.5 1.12-1.13 1.12-.62 0-1.12-.5-1.12-1.11z"/><path id="72bhb" d="M1224 51.24a2.5 2.5 0 0 1-1.13 2.1c-.26 2.59-3.37 4.66-7.19 4.66-3.8 0-6.9-2.02-7.2-4.61a2.46 2.46 0 0 1-1.22-2.15c0-1.38 1.1-2.52 2.4-2.52.48 0 .95.15 1.34.42 0 .02-.03.02-.05.05a8.9 8.9 0 0 1 4.18-1.22l1.28-3.63 2.72.65a1.94 1.94 0 0 1 2.43-.75 1.9 1.9 0 0 1-1.07 3.64 1.92 1.92 0 0 1-1.64-1.9l.02-.19-1.9-.44-.92 2.62c1.48.03 2.92.42 4.2 1.14.38-.26.83-.4 1.29-.39a2.5 2.5 0 0 1 2.46 2.52zm-3.24-6.3c-.58 0-1.05.46-1.05 1.03 0 .58.47 1.04 1.05 1.04.57 0 1.04-.46 1.04-1.04 0-.57-.47-1.03-1.04-1.03zm-11.04 4.64a1.66 1.66 0 1 0-1.2 2.77 4.44 4.44 0 0 1 1.75-2.67c-.18-.06-.36-.1-.55-.1zm12.32 3.4c0-2.34-2.85-4.2-6.36-4.2-3.53 0-6.38 1.89-6.38 4.2 0 2.33 2.88 4.2 6.38 4.2s6.36-1.87 6.36-4.2zm.76-.73c.24-.28.36-.65.34-1.01.02-.9-.7-1.64-1.6-1.66-.16 0-.32.02-.47.07a4.6 4.6 0 0 1 1.73 2.6z"/><path id="72bhc" d="M1216.86 52.15c0-.62.5-1.12 1.13-1.12.62 0 1.12.5 1.12 1.11 0 .62-.5 1.12-1.13 1.12-.62 0-1.12-.5-1.12-1.11z"/><path id="72bhd" d="M1217.8 54.63c-2.38 1.55-4.32.07-4.4.02a.45.45 0 0 0-.6.05.41.41 0 0 0 .06.6 4.68 4.68 0 0 0 5.4.03.42.42 0 0 0-.03-.74.43.43 0 0 0-.43.04z"/></defs><g><g transform="translate(-1207 -44)"><use fill="#4c3092" xlink:href="#72bha"/></g><g transform="translate(-1207 -44)"><use fill="#4c3092" xlink:href="#72bhb"/></g><g transform="translate(-1207 -44)"><use fill="#4c3092" xlink:href="#72bhc"/></g><g transform="translate(-1207 -44)"><use fill="#4c3092" xlink:href="#72bhd"/></g></g></svg>