<?xml version="1.0" encoding="UTF-8"?>
<svg width="23px" height="23px" viewBox="0 0 23 23" version="1.1" xmlns="http://www.w3.org/2000/svg" xmlns:xlink="http://www.w3.org/1999/xlink">
    <!-- Generator: Sketch 48.1 (47250) - http://www.bohemiancoding.com/sketch -->
    <title>coins</title>
    <desc>Created with Sketch.</desc>
    <defs></defs>
    <g id="инспир–лендинг" stroke="none" stroke-width="1" fill="none" fill-rule="evenodd" transform="translate(-895.000000, -1506.000000)" stroke-linecap="round">
        <g id="Group-15" transform="translate(892.000000, 1502.000000)" stroke="#4C3092" stroke-width="0.9">
            <g id="coins">
                <g transform="translate(4.000000, 5.000000)" id="Shape">
                    <path d="M10.5,17.5 L19.6,17.5 L19.6,21 L10.5,21 L10.5,17.5 Z M11.9,17.5 L11.9,14 L21,14 L21,17.5 L19.6,17.5 L11.9,17.5 Z M11.9,14 L10.5,14 L10.5,10.5 L19.6,10.5 L19.6,14 L11.9,14 Z"></path>
                    <path d="M8.4,17.5 L1.4,17.5 L1.4,21 L8.4,21 M8.4,14 L0,14 L0,17.5 L1.4,17.5 M8.4,10.5 L1.4,10.5 L1.4,14"></path>
                    <path d="M11.9,10.5 L11.9,7 L21,7 L21,10.5 L19.6,10.5 M11.9,7 L10.5,7 L10.5,3.5 L19.6,3.5 L19.6,7 M11.9,3.5 L11.9,0 L21,0 L21,3.5 L19.6,3.5"></path>
                    <path d="M4.2,10.5 L4.2,14 M2.8,14 L2.8,17.5 M4.2,17.5 L4.2,21"></path>
                    <path d="M13.3,10.5 L13.3,14 M14.7,14 L14.7,17.5 M14.7,7 L14.7,10.5 M13.3,3.5 L13.3,7 M14.7,0 L14.7,3.5 M13.3,17.5 L13.3,21"></path>
                </g>
            </g>
        </g>
    </g>
</svg>