<svg xmlns="http://www.w3.org/2000/svg" xmlns:xlink="http://www.w3.org/1999/xlink" width="104" height="17" viewBox="0 0 104 17"><defs><path id="7xt3a" d="M339.77 2152.81c-.84 0-1.65-.11-2.44-.34a5.74 5.74 0 0 1-1.9-.89l.84-1.86a6.14 6.14 0 0 0 3.52 1.11c.7 0 1.22-.1 1.55-.3.34-.21.5-.5.5-.84a.8.8 0 0 0-.3-.63c-.19-.16-.44-.3-.75-.4-.31-.1-.73-.21-1.26-.33-.81-.2-1.48-.39-2-.58-.51-.2-.96-.5-1.33-.93a2.5 2.5 0 0 1-.56-1.7c0-.62.17-1.18.5-1.68.34-.5.85-.9 1.52-1.2a6.2 6.2 0 0 1 2.48-.44c.68 0 1.35.08 2 .24.65.17 1.22.4 1.7.7l-.76 1.87a5.96 5.96 0 0 0-2.96-.83c-.69 0-1.2.1-1.53.33-.33.23-.5.52-.5.88 0 .37.2.64.58.82.38.18.96.35 1.74.52.82.2 1.48.39 2 .58.52.2.96.5 1.33.91.38.42.56.98.56 1.7 0 .6-.17 1.16-.51 1.66-.34.5-.85.9-1.53 1.2-.68.29-1.51.43-2.49.43zm14.57 0a6.14 6.14 0 0 1-2.95-.7 5.28 5.28 0 0 1-2.83-4.8 5.28 5.28 0 0 1 2.83-4.8c.88-.47 1.86-.71 2.96-.71.93 0 1.76.16 2.5.49.75.32 1.38.79 1.89 1.4l-1.58 1.46a3.41 3.41 0 0 0-2.69-1.25c-.66 0-1.25.14-1.77.43-.51.3-.92.7-1.2 1.21-.3.52-.44 1.1-.44 1.77 0 .66.14 1.24.43 1.76.3.52.7.92 1.21 1.21.52.29 1.11.43 1.77.43a3.4 3.4 0 0 0 2.69-1.26l1.58 1.46a4.94 4.94 0 0 1-1.89 1.42c-.75.32-1.59.48-2.51.48zm14.47 0c-1.11 0-2.11-.24-3-.71a5.31 5.31 0 0 1-2.84-4.8 5.37 5.37 0 0 1 2.84-4.79 6.24 6.24 0 0 1 3-.71c1.1 0 2.1.24 2.98.71a5.38 5.38 0 0 1 2.85 4.8 5.33 5.33 0 0 1-2.85 4.79 6.2 6.2 0 0 1-2.98.71zm0-2.1c.63 0 1.2-.14 1.7-.43.51-.29.91-.7 1.2-1.2.29-.53.43-1.11.43-1.77 0-.66-.14-1.25-.43-1.77a3.11 3.11 0 0 0-1.2-1.2 3.4 3.4 0 0 0-1.7-.44c-.63 0-1.2.14-1.71.43-.5.3-.9.7-1.2 1.21-.29.52-.43 1.1-.43 1.77 0 .66.14 1.24.43 1.76.3.52.7.92 1.2 1.21.5.29 1.08.43 1.7.43zm17.73 1.92l-2.06-2.97h-2.27v2.97h-2.47v-10.65h4.62c.94 0 1.76.16 2.46.47.7.32 1.23.76 1.6 1.34.38.58.57 1.27.57 2.06s-.19 1.47-.57 2.04a3.62 3.62 0 0 1-1.62 1.32l2.39 3.42zm-.05-6.78c0-.6-.2-1.06-.58-1.38-.38-.32-.95-.48-1.69-.48h-2.01v3.71h2.01c.74 0 1.3-.16 1.7-.49.38-.32.57-.78.57-1.36zm7.69-3.87h2.47v10.65h-2.47zm11.74 10.83c-.84 0-1.66-.11-2.44-.34a5.74 5.74 0 0 1-1.9-.89l.84-1.86a6.14 6.14 0 0 0 3.52 1.11c.7 0 1.22-.1 1.55-.3.34-.21.5-.5.5-.84a.8.8 0 0 0-.3-.63c-.19-.16-.44-.3-.75-.4-.31-.1-.73-.21-1.26-.33-.81-.2-1.48-.39-2-.58-.52-.2-.96-.5-1.33-.93a2.5 2.5 0 0 1-.56-1.7c0-.62.17-1.18.5-1.68.34-.5.85-.9 1.52-1.2a6.2 6.2 0 0 1 2.48-.44c.68 0 1.34.08 2 .24.64.17 1.21.4 1.7.7l-.76 1.87a5.96 5.96 0 0 0-2.96-.83c-.69 0-1.2.1-1.53.33-.33.23-.5.52-.5.88 0 .37.2.64.58.82.38.18.96.35 1.74.52.82.2 1.48.39 2 .58.52.2.96.5 1.33.91.37.42.56.98.56 1.7 0 .6-.17 1.16-.51 1.66-.34.5-.85.9-1.53 1.2-.68.29-1.51.43-2.49.43zm11.67-8.82h-3.42v-2h9.3v2h-3.41v8.64h-2.47zm17.47 6.36h-4.95l-.95 2.28h-2.53l4.76-10.65h2.44l4.77 10.65H436zm-.78-1.87l-1.69-4.08-1.69 4.08z"/><path id="7xt3b" d="M336.35 2156.66h7.17"/><path id="7xt3c" d="M350.69 2156.66h7.17"/><path id="7xt3d" d="M365.03 2156.65h8.07"/><path id="7xt3e" d="M381.17 2156.65h14.34"/><path id="7xt3f" d="M402.69 2156.65h34.97"/></defs><g><g opacity=".5" transform="translate(-335 -2141)"><use fill="#272727" xlink:href="#7xt3a"/></g><g opacity=".5" transform="translate(-335 -2141)"><use fill="#fff" fill-opacity="0" stroke="#e4030b" stroke-linecap="square" stroke-miterlimit="50" stroke-width="1.8" xlink:href="#7xt3b"/></g><g opacity=".5" transform="translate(-335 -2141)"><use fill="#fff" fill-opacity="0" stroke="#ef7300" stroke-linecap="square" stroke-miterlimit="50" stroke-width="1.8" xlink:href="#7xt3c"/></g><g opacity=".5" transform="translate(-335 -2141)"><use fill="#fff" fill-opacity="0" stroke="#fbd200" stroke-linecap="square" stroke-miterlimit="50" stroke-width="1.8" xlink:href="#7xt3d"/></g><g opacity=".5" transform="translate(-335 -2141)"><use fill="#fff" fill-opacity="0" stroke="#447ec1" stroke-linecap="square" stroke-miterlimit="50" stroke-width="1.8" xlink:href="#7xt3e"/></g><g opacity=".5" transform="translate(-335 -2141)"><use fill="#fff" fill-opacity="0" stroke="#36a533" stroke-linecap="square" stroke-miterlimit="50" stroke-width="1.8" xlink:href="#7xt3f"/></g></g></svg>