<?xml version="1.0" encoding="UTF-8"?>
<svg width="438px" height="251px" viewBox="0 0 438 251" version="1.1" xmlns="http://www.w3.org/2000/svg" xmlns:xlink="http://www.w3.org/1999/xlink">
    <!-- Generator: Sketch 48.1 (47250) - http://www.bohemiancoding.com/sketch -->
    <title>30 000 000</title>
    <desc>Created with Sketch.</desc>
    <defs>
        <linearGradient x1="31.3807887%" y1="75.0197856%" x2="55.6203738%" y2="75.0197828%" id="linearGradient-1">
            <stop stop-color="#FBFBFD" offset="0%"></stop>
            <stop stop-color="#F6F5FB" offset="100%"></stop>
        </linearGradient>
        <linearGradient x1="42.274343%" y1="50%" x2="50%" y2="100%" id="linearGradient-2">
            <stop stop-color="#FBFBFE" offset="0%"></stop>
            <stop stop-color="#F5F5FC" offset="100%"></stop>
        </linearGradient>
        <linearGradient x1="43.1097287%" y1="90.4860316%" x2="55.9490623%" y2="-12.4054261%" id="linearGradient-3">
            <stop stop-color="#FBFBFE" offset="0%"></stop>
            <stop stop-color="#F5F5FC" offset="100%"></stop>
        </linearGradient>
        <linearGradient x1="39.5371209%" y1="100%" x2="54.8222138%" y2="31.9943028%" id="linearGradient-4">
            <stop stop-color="#FBFBFE" offset="0%"></stop>
            <stop stop-color="#F5F5FC" offset="100%"></stop>
        </linearGradient>
        <linearGradient x1="46.6146445%" y1="100%" x2="54.6262961%" y2="-46.0963666%" id="linearGradient-5">
            <stop stop-color="#FBFBFE" offset="0%"></stop>
            <stop stop-color="#F5F5FC" offset="100%"></stop>
        </linearGradient>
        <polyline id="path-6" points="0.312786278 0.298566413 11.603608 6.96585608 11.603608 15.5733073 0.312786278 15.5733073 0.312786278 0.298566413"></polyline>
        <polyline id="path-8" points="0.0418558264 0.367081242 2.66725797 1.81860135 2.66725797 6.70409033 0.0418558264 5.25257022 0.0418558264 0.367081242"></polyline>
        <polyline id="path-10" points="13.2904416 7.66788594 13.0618704 7.80063269 0.0338487449 0.240569627 0.262419984 0.107822873 13.2904416 7.66788594"></polyline>
        <polyline id="path-12" points="0.0176765217 0.223382043 0.0176765217 7.40977065 7.51772072 11.6479234 7.51772072 4.46153475 0.0176765217 0.223382043"></polyline>
        <polyline id="path-14" points="0.29699156 0.690012206 1.10543248 0.164091242 1.9138734 0.690012206 0.29699156 0.690012206"></polyline>
        <polyline id="path-16" points="0.23590358 0.776080867 1.0443445 0.250159902 1.85278542 0.776080867 0.23590358 0.776080867"></polyline>
        <polyline id="path-18" points="1.30147724 0.230090126 1.30147724 43.4443255 0.0736521739 43.8815501 0.0736521739 0.666780897 1.30147724 0.230090126"></polyline>
        <polyline id="path-20" points="1.89925128 0.0824220189 1.55319437 0.20716767 1.55319437 26.8161786 0.566201087 27.1741223 0.393172635 27.2362405 0.393172635 32.1838058 0.7384172 32.0585509 0.7384172 27.3609861 1.89925128 26.9409243 1.89925128 0.0824220189"></polyline>
        <polyline id="path-22" points="0.353855371 19.4284092 1.56651676 19.0520135 1.56651676 0.592901724 0.353855371 0.215981883 0.353855371 19.4284092"></polyline>
        <polyline id="path-24" points="0.0495019781 0.815579799 0.996893682 0.290390296 1.94428539 0.815579799 0.0495019781 0.815579799"></polyline>
        <polygon id="path-26" points="0.0415631993 0.208710406 8.71308663 0.208710406 8.71308663 0.483740006 0.0415631993 0.483740006"></polygon>
        <polyline id="path-28" points="0.0217862536 15.4564733 5.18014285 18.3198948 19.461792 2.9720186 14.3034355 0.108070908 0.0217862536 15.4564733"></polyline>
        <linearGradient x1="34.7560901%" y1="70.7465293%" x2="58.7606246%" y2="13.0353367%" id="linearGradient-30">
            <stop stop-color="#FBFBFD" offset="0%"></stop>
            <stop stop-color="#F6F5FB" offset="100%"></stop>
        </linearGradient>
    </defs>
    <g id="майлстоун-4" stroke="none" stroke-width="1" fill="none" fill-rule="evenodd" transform="translate(-543.000000, -284.000000)">
        <g id="30-000-000" transform="translate(543.000000, 285.000000)">
            <polygon id="Path-213" fill="url(#linearGradient-1)" fill-rule="nonzero" points="263.945312 68 220 90.5641021 267.460937 112 295 98.4615381 263.945312 84.9230773"></polygon>
            <polygon id="Path-22" fill="url(#linearGradient-2)" fill-rule="nonzero" points="195 116.289474 135.196079 123.105263 121.470588 127 95 109.960526 135.196079 90 175.392157 105.578947"></polygon>
            <path d="M73.1939569,155.861361 L62.4993887,153 L62.4993887,155.861361 L21.6655791,173.029526 C1.67684143,180.937014 -4.48063775,187.295595 3.19314163,192.105266 C14.7038106,199.319773 38.9464053,196.982091 56.665987,194.966627 C68.4790416,193.622983 71.71982,187.264404 66.3883228,175.890887 L107.222132,163.491656 C109.490676,166.4325 111.111066,168.022145 112.083299,168.260591 C113.055533,168.499039 114.027766,167.545252 115,165.39923 L109.166599,159.676509 L60.5549212,167.306804 L73.1939569,155.861361 Z" id="Path-23" fill="url(#linearGradient-3)" fill-rule="nonzero"></path>
            <path d="M410.594202,206.923505 L402.777032,206.923505 L408.639909,209.808762 L396.914157,221.349789 L386.165549,214.617523 L394.959864,207.885257 L391.05128,207.885257 L383.234111,212.694018 L379.325526,211.732267 L386.165549,205.961753 L383.234111,205 L375.416942,210.770514 L371.508357,210.770514 L369.554066,211.732267 L370.531212,213.655771 L369.554066,216.541028 L379.325526,220.388038 C376.719804,223.593879 370.856927,227.120304 361.736896,230.967313 C348.056851,236.737827 329.415822,246.310938 340.239682,249.240607 C348.491243,251.474039 346.031208,248.837075 364.668335,240.584836 C367.146031,239.48775 374.452119,239.002172 381.279819,236.737827 C390.462094,233.692609 399.602002,228.766664 402.777032,227.491149 C418.30654,221.252431 429.380862,215.678886 436,210.770514 L417.711848,217.37053 L406.685617,221.349789 L410.594202,206.923505 Z" id="Path-24" fill="url(#linearGradient-4)" fill-rule="nonzero"></path>
            <path d="M235,172.941176 L167.495758,201.088235 L147.92931,204 L154.777567,188.470589 L167.495758,188.470589 L171.409047,182.647058 L149.885955,184.588235 C137.246698,183.399723 131.70287,181.458546 133.254474,178.764706 C134.806079,176.070865 142.958765,173.482629 157.712534,171 L140.102731,176.823529 L161.625823,172.941176 L143.037698,178.764706 L152.820922,180.705882 L176.300658,174.882353 L161.625823,180.705882 L182.170592,178.764706 L191.953816,172.941176 L197.82375,172.941176 L189.018849,178.764706 L204.672007,176.823529 L235,172.941176 Z" id="Path-25" fill="url(#linearGradient-5)" fill-rule="nonzero"></path>
            <g id="Group-5" transform="translate(260.000000, 21.000000)" fill-rule="nonzero" stroke="#D9D2EA">
                <g id="Page-1">
                    <polyline id="Path-73" stroke-width="1.08084027" fill="#F5F5FC" points="53.1565762 31.4711461 19.8382353 15.3189189 19.8382353 15.3189189 19.8382353 20.9826828 53.1565762 37.7642242"></polyline>
                    <path d="M1.04411765,30.5675676 L19.6438722,20.3530508" id="Fill-1" stroke-width="1.08084027" fill="#FFFFFF"></path>
                    <polygon id="Fill-3" stroke-width="1.08084027" fill="#FFFFFF" points="71 17.9189189 33.0610916 0 13.8583751 9.71096596 52.2058824 28.4594595"></polygon>
                    <polygon id="Fill-4" stroke-width="1.08084027" fill="#F5F5FC" points="51.6819076 27.9904312 51.6819076 31.9890642 13.666348 13.641051 13.666348 9.94517161"></polygon>
                    <polyline id="Fill-5" stroke-width="1.08084027" fill="#FFFFFF" points="51.9787931 31.9088632 51.9962503 31.920859 53.1949652 31.2462325 67.0145201 23.4603227 70.6054282 21.4387283 70.6054282 17.7428488 67.3467852 19.5759364 67.3467852 19.5759364 51.9962503 28.2249797 51.9787931 28.2129838"></polyline>
                    <polyline id="Fill-9" stroke-width="1.08084027" fill="#F5F5FC" points="4.06522247 35.416464 4.06522247 63.4068954 4.06522247 63.4068954 35.1910803 77.2996318 35.1910803 50.2685297"></polyline>
                    <polygon id="Fill-7" stroke-width="1.08084027" fill="#FFFFFF" points="35.1968992 53.1364635 35.1910803 77.2996318 35.2958222 77.2533619 66.4327361 62.2644288 66.4327361 23.9917983 52.2058824 31.6216216 52.2058824 40.0540541 35.2958222 49.591661"></polygon>
                    <polyline id="Fill-10" stroke-width="1.08084027" fill="#FFFFFF" points="35.1966664 47.2067193 52.2638081 37.3929312 52.2638081 40.5575637 35.1966664 50.2685297"></polyline>
                    <polygon id="Fill-6" stroke-width="1.08084027" fill="#F5F5FC" points="0.474663721 33.9939218 35.3886935 50.2685297 35.3886935 46.8411298 0.474663721 30.8465977"></polygon>
                    <path d="M52.2638081,31.9890642 L52.2638081,37.7013973" id="Path-208" stroke-width="0.735403684" fill="#FFFFFF"></path>
                </g>
            </g>
            <g id="Modern-Isometric-buildings-model-vector-material-02" transform="translate(104.000000, 0.000000)">
                <polygon id="Fill-320" stroke="#D9D2EA" stroke-width="1.04999995" fill="#F5F5FC" fill-rule="nonzero" points="69.2113811 61.7365007 68.845828 118.009154 13.6473145 86.5064043 14.0128676 30.2337504"></polygon>
                <g id="Group-323" transform="translate(52.639642, 53.640525)">
                    <g id="Fill-321-Clipped">
                        <mask id="mask-7" fill="white">
                            <use xlink:href="#path-6"></use>
                        </mask>
                        <g id="path-6"></g>
                        <polyline id="Fill-321" mask="url(#mask-7)" points="0.312786278 0.298566413 11.603608 6.96585608 11.603608 15.5733073 0.312786278 15.5733073 0.312786278 0.298566413"></polyline>
                    </g>
                </g>
                <polygon id="Fill-324" stroke="#D9D2EA" stroke-width="1.04999995" fill="#FFFFFF" fill-rule="nonzero" points="68.2365729 61.614645 68.2365729 118.009154 120.876215 87.6030189 120.876215 31.2090327"></polygon>
                <polyline id="Fill-325" stroke="#D9D2EA" stroke-width="1.04999995" fill="#FFFFFF" fill-rule="nonzero" points="13.6473145 30.737295 68.0715762 62.4180653 120.876215 31.6807704 66.4514285 0 13.6473145 30.737295"></polyline>
                <polygon id="Fill-386" stroke="#D9D2EA" stroke-width="1.04999995" fill="#FFFFFF" fill-rule="nonzero" points="37.042711 107.28105 48.7404092 107.28105 48.7404092 66.3191944 37.042711 66.3191944"></polygon>
                <g id="Group-390" transform="translate(9.748082, 50.714678)" fill="#F5F5FC" fill-rule="nonzero" stroke="#D9D2EA" stroke-width="1.04999995">
                    <g id="Clip-389">
                        <polyline id="path-8" points="0.0679400618 0.11115708 27.1979119 15.9416844 27.1979119 56.526273 0.0679400618 40.6957456 0.0679400618 0.11115708"></polyline>
                    </g>
                </g>
                <g id="Group-399" transform="translate(59.463299, 108.256332)">
                    <g id="Fill-397-Clipped">
                        <mask id="mask-9" fill="white">
                            <use xlink:href="#path-8"></use>
                        </mask>
                        <g id="path-10"></g>
                        <polyline id="Fill-397" mask="url(#mask-9)" points="0.0418558264 0.367081242 2.66725797 1.81860135 2.66725797 6.70409033 0.0418558264 5.25257022 0.0418558264 0.367081242"></polyline>
                    </g>
                </g>
                <g id="Group-408" transform="translate(48.740409, 74.121452)">
                    <g id="Fill-406-Clipped">
                        <mask id="mask-11" fill="white">
                            <use xlink:href="#path-10"></use>
                        </mask>
                        <g id="path-14"></g>
                        <polyline id="Fill-406" mask="url(#mask-11)" points="13.2904416 7.66788594 13.0618704 7.80063269 0.0338487449 0.240569627 0.262419984 0.107822873 13.2904416 7.66788594"></polyline>
                    </g>
                </g>
                <polyline id="Fill-418" stroke="#D9D2EA" stroke-width="1.04999995" points="51.6648338 79.9731462 51.6648338 107.831775 64.3373401 115.083308 64.3373401 87.2246783 51.6648338 79.9731462"></polyline>
                <g id="Group-421" transform="translate(50.690026, 79.973146)">
                    <g id="Fill-419-Clipped">
                        <mask id="mask-13" fill="white">
                            <use xlink:href="#path-12"></use>
                        </mask>
                        <g id="path-16"></g>
                        <polyline id="Fill-419" mask="url(#mask-13)" points="0.0176765217 0.223382043 0.0176765217 7.40977065 7.51772072 11.6479234 7.51772072 4.46153475 0.0176765217 0.223382043"></polyline>
                    </g>
                </g>
                <g id="Group-452" transform="translate(10.722890, 82.898993)">
                    <g id="Fill-450-Clipped">
                        <mask id="mask-15" fill="white">
                            <use xlink:href="#path-14"></use>
                        </mask>
                        <g id="path-20"></g>
                        <polyline id="Fill-450" mask="url(#mask-15)" points="0.29699156 0.690012206 1.10543248 0.164091242 1.9138734 0.690012206 0.29699156 0.690012206"></polyline>
                    </g>
                </g>
                <g id="Group-455" transform="translate(16.571739, 85.824840)">
                    <g id="Fill-453-Clipped">
                        <mask id="mask-17" fill="white">
                            <use xlink:href="#path-16"></use>
                        </mask>
                        <g id="path-22"></g>
                        <polyline id="Fill-453" mask="url(#mask-17)" points="0.23590358 0.776080867 1.0443445 0.250159902 1.85278542 0.776080867 0.23590358 0.776080867"></polyline>
                    </g>
                </g>
                <g id="Group-461" transform="translate(66.286957, 68.269759)">
                    <g id="Fill-459-Clipped">
                        <mask id="mask-19" fill="white">
                            <use xlink:href="#path-18"></use>
                        </mask>
                        <g id="path-24"></g>
                        <polyline id="Fill-459" mask="url(#mask-19)" points="1.30147724 0.230090126 1.30147724 43.4443255 0.0736521739 43.8815501 0.0736521739 0.666780897 1.30147724 0.230090126"></polyline>
                    </g>
                </g>
                <g id="Group-464" transform="translate(60.438107, 80.948428)">
                    <g id="Fill-462-Clipped">
                        <mask id="mask-21" fill="white">
                            <use xlink:href="#path-20"></use>
                        </mask>
                        <g id="path-26"></g>
                        <polyline id="Fill-462" mask="url(#mask-21)" points="1.89925128 0.0824220189 1.55319437 0.20716767 1.55319437 26.8161786 0.566201087 27.1741223 0.393172635 27.2362405 0.393172635 32.1838058 0.7384172 32.0585509 0.7384172 27.3609861 1.89925128 26.9409243 1.89925128 0.0824220189"></polyline>
                    </g>
                </g>
                <g id="Group-472" transform="translate(16.571739, 67.294477)">
                    <g id="Fill-470-Clipped">
                        <mask id="mask-23" fill="white">
                            <use xlink:href="#path-22"></use>
                        </mask>
                        <g id="path-28"></g>
                        <polyline id="Fill-470" mask="url(#mask-23)" points="0.353855371 19.4284092 1.56651676 19.0520135 1.56651676 0.592901724 0.353855371 0.215981883 0.353855371 19.4284092"></polyline>
                    </g>
                </g>
                <path d="M42.891675,77.3288021 C42.891675,78.8973561 43.9825824,80.803929 45.3283795,81.5879451 C46.6741766,82.3719613 47.765601,81.7360893 47.765601,80.1685786 L42.891675,77.3288021 Z M33.1433059,71.6508142 C33.1433059,73.2188466 34.2347303,75.1254194 35.5805275,75.9094356 C36.9263245,76.6934517 38.017232,76.0581014 38.017232,74.490069 L33.1433059,71.6508142 Z M23.3954539,65.9723047 C23.3954539,67.5408585 24.4868783,69.4474315 25.8321584,70.230926 C27.1779555,71.0154638 28.2693799,70.3795918 28.2693799,68.8120811 L23.3954539,65.9723047 Z M13.6476018,60.2937951 C13.6476018,61.862349 14.7385092,63.7689219 16.0843063,64.5529381 C17.4301035,65.3369542 18.5215279,64.7016038 18.5215279,63.1335715 L13.6476018,60.2937951 Z M3.89923274,54.6158072 C3.89923274,56.1843611 4.99065715,58.0904124 6.33645427,58.8744285 C7.68225138,59.6584446 8.77315877,59.0230942 8.77315877,57.4550619 L3.89923274,54.6158072 Z" id="Fill-485" stroke="#D9D2EA" stroke-width="1.04999995" fill="#FFFFFF" fill-rule="nonzero" transform="translate(25.832417, 68.269759) rotate(-1.000000) translate(-25.832417, -68.269759) "></path>
                <g id="Group-494" transform="translate(30.219053, 92.651816)">
                    <g id="Fill-492-Clipped">
                        <mask id="mask-25" fill="white">
                            <use xlink:href="#path-24"></use>
                        </mask>
                        <g id="path-30"></g>
                        <polyline id="Fill-492" mask="url(#mask-25)" points="0.0495019781 0.815579799 0.996893682 0.290390296 1.94428539 0.815579799 0.0495019781 0.815579799"></polyline>
                    </g>
                </g>
                <g id="Group-512" transform="translate(38.017519, 105.330485)">
                    <g id="Fill-510-Clipped">
                        <mask id="mask-27" fill="white">
                            <use xlink:href="#path-26"></use>
                        </mask>
                        <g id="path-32"></g>
                        <polygon id="Fill-510" mask="url(#mask-27)" points="0.0415631993 0.483740006 8.71308663 0.483740006 8.71308663 0.208710406 0.0415631993 0.208710406"></polygon>
                    </g>
                </g>
                <path d="M53.7928248,84.2622478 C53.6786822,84.2470838 53.5999632,84.1478288 53.616691,84.0412215 C53.6329269,83.9346144 53.7391975,83.8610922 53.8533401,83.876256 L65.1337736,85.4367653 C65.2479162,85.4523888 65.3266352,85.5516438 65.3099074,85.658251 C65.2936716,85.7643987 65.187401,85.8383805 65.0732584,85.8227569 L53.7928248,84.2622478" id="Fill-513" stroke="#D9D2EA" stroke-width="1.04999995" fill="#D9D2EA" fill-rule="nonzero"></path>
                <path d="M48.6737368,81.3418174 C48.6737368,82.872239 49.780117,84.7324622 51.1438315,85.4969095 C52.5080699,86.2623748 53.6144502,85.6419612 53.6144502,84.1125575 L48.6737368,81.3418174 Z M38.7923102,74.8260731 C38.7923102,76.3564947 39.8981663,78.2167179 41.2624048,78.9816742 C42.6266434,79.7466304 43.7324994,79.1267257 43.7324994,77.5968131 L38.7923102,74.8260731 Z M28.9103594,69.2861199 C28.9103594,70.8165415 30.0167397,72.6767647 31.3804541,73.4412121 C32.7446926,74.2061684 33.8510728,73.5862637 33.8510728,72.056351 L28.9103594,69.2861199 Z M19.0289328,63.7456579 C19.0289328,65.2760794 20.135313,67.1363026 21.4990275,67.9012589 C22.863266,68.6662152 23.9696462,68.0458016 23.9696462,66.5163979 L19.0289328,63.7456579 Z M9.1469821,58.2057047 C9.1469821,59.7356174 10.2533623,61.5958404 11.6176008,62.3607968 C12.9818394,63.1257531 14.0876954,62.5058484 14.0876954,60.9759357 L9.1469821,58.2057047 Z M0,52.6652426 C0,54.1956642 1.10638017,56.0558874 2.47009461,56.8203347 C3.83433315,57.5858 4.94071331,56.9653862 4.94071331,55.4359826 L0,52.6652426 Z" id="Fill-514" stroke="#D9D2EA" stroke-width="1.04999995" fill="#F5F5FC" fill-rule="nonzero"></path>
                <polygon id="Path-9" stroke="#D9D2EA" stroke-width="1.04999995" fill="#FFFFFF" fill-rule="nonzero" points="13.6473145 38.0360085 67.2617647 68.2697589 53.6144502 82.898993 0 52.6652426"></polygon>
                <polyline id="Fill-515" stroke="#D9D2EA" stroke-width="1.04999995" fill="#F5F5FC" fill-rule="nonzero" points="0 52.8304195 4.91445672 55.5910894 18.5213555 40.7966784 13.6063775 38.0360085 0 52.8304195"></polyline>
                <g id="Group-518" transform="translate(8.773273, 42.912419)" fill="#F5F5FC" fill-rule="nonzero" stroke="#D9D2EA" stroke-width="1.04999995">
                    <polygon id="Path" points="0.160895759 15.2909918 5.10149616 18.1013537 18.7807803 3.04064327 13.8401798 0.230281355"></polygon>
                    <polygon id="Path" points="10.0426207 20.9117156 23.7213807 5.85048886 28.6619811 8.66085078 14.983221 23.7220775"></polygon>
                    <polygon id="Path" points="19.9238215 26.5319231 24.8644218 29.342285 38.5437059 14.2815746 33.6031056 11.4712127"></polygon>
                    <polygon id="Path" points="29.8050223 32.152647 43.4843064 17.0919365 48.4249067 19.9017821 34.7456226 34.9630089"></polygon>
                </g>
                <g id="Group-521" transform="translate(48.740409, 65.343912)">
                    <g id="Fill-519-Clipped">
                        <mask id="mask-29" fill="white">
                            <use xlink:href="#path-28"></use>
                        </mask>
                        <g id="path-34"></g>
                        <polyline id="Fill-519" stroke="#D9D2EA" stroke-width="2.0999999" fill="#F5F5FC" fill-rule="nonzero" mask="url(#mask-29)" points="0.0217862536 15.4564733 5.18014285 18.3198948 19.461792 2.9720186 14.3034355 0.108070908 0.0217862536 15.4564733"></polyline>
                    </g>
                </g>
                <path d="M66.1563924,84.9248851 L66.4175207,85.0378435 C66.8817488,85.2388351 67.2617647,85.7824141 67.2617647,86.2464449 C67.2617647,86.7104758 66.8817488,86.9257861 66.4175207,86.7247945 L66.1563924,86.6118361 C65.6921643,86.4108445 65.3121483,85.8672655 65.3121483,85.4032346 C65.3121483,84.9392038 65.6921643,84.7238934 66.1563924,84.9248851" id="Fill-522" stroke="#D9D2EA" stroke-width="1.04999995" fill="#D9D2EA" fill-rule="nonzero"></path>
                <polyline id="Fill-523" stroke="#D9D2EA" stroke-width="1.04999995" fill="#F5F5FC" fill-rule="nonzero" points="16.5717391 22.4314922 60.4381074 48.1119448 60.4381074 66.3191944 16.5717391 40.6382176 16.5717391 22.4314922"></polyline>
                <path d="M17.0591432,65.7638253 L17.0591432,95.5776625" id="Path-10" stroke="#D9D2EA" stroke-width="1.04999995"></path>
                <path d="M26.8072251,71.1956057 L26.8072251,101.429356" id="Path-10" stroke="#D9D2EA" stroke-width="1.04999995"></path>
            </g>
            <g id="студент" transform="translate(71.000000, 89.000000)">
                <path d="M15.319149,0 C14.2400213,0.671711805 13.6017234,1.15801317 13.4042553,1.45890411 C13.2067872,1.75979505 13.2067872,2.24609641 13.4042553,2.91780822 L18.1914893,13.6164384 L15.319149,14.5890411 L15.319149,42.7945206 C15.9574469,51.8721461 15.319149,56.4109589 13.4042553,56.4109589 C10.5319149,56.4109589 2.87234042,55.4383562 2.87234042,55.4383562 C2.87234042,55.4383562 1.91489361,56.8903135 1.91489361,62.2465754 C1.91489361,62.9795371 2.23404255,64.6005417 2.87234042,67.109589 L0.957446808,65.1643836 L0,61.2739726 L0.957446808,56.4109589 L0,55.4383562 L0,53.4931507 L2.87234042,53.4931507 L2.87234042,51.5479452 L11.4893617,51.5479452 C10.3981194,47.3233767 9.7598215,44.0813675 9.57446808,41.8219178 C9.38911467,39.5624681 9.38911467,34.6994544 9.57446808,27.2328767 L3.82978724,37.9315068 L0.957446808,36.9589041 L8.61702127,17.5068493 L9.57446808,15.5616438 L14.3617022,13.6164384 L13.4042553,11.6712329 L12.4468085,9.72602739 C12.1631882,9.79820951 11.8440392,9.4740086 11.4893617,8.75342465 C11.1346842,8.03284071 10.8155352,7.06023797 10.5319149,5.83561644 L9.57446808,2.91780822 C9.58909454,2.2619774 10.2273924,1.61357557 11.4893617,0.972602739 C12.751331,0.331629906 14.0279267,0.00742899302 15.319149,0 Z" id="Path-19" fill="#F5F5FC" fill-rule="nonzero"></path>
                <path d="M2.82398738,53.4931507 L0,53.4931507 L0,55.7281738 L0.651689396,56.2248455 C0.116131347,60.6866269 0.260951214,63.6666576 1.08614899,65.1649376 C2.32394566,67.4123577 3.18498072,67.6679919 3.69290658,66.1582811 C4.03152382,65.1518073 3.74188408,62.3373339 2.82398738,57.7148608" id="Path-181" stroke="#D9D2EA" stroke-width="1.04999995"></path>
                <path d="M35.4200791,65.0444345 L38.7647813,60.9014324 C38.5977214,59.7555225 38.8366287,58.9787097 39.4815032,58.5709936 C40.1263777,58.1632777 40.8430996,58.3359028 41.6316689,59.0888689 C42.4256499,59.7263661 42.2663784,61.1073667 41.1538542,63.231871 C40.0413302,65.3563754 38.5282506,67.1689388 36.6146155,68.6695613 L37.5702448,69.4463741 L36.1368009,71 C34.9459787,70.6941056 34.0699854,70.1762304 33.5088207,69.4463741 C32.9476561,68.716518 32.629113,67.6807675 32.5531915,66.3391226" id="Path-182" stroke="#D9D2EA" stroke-width="1.04999995"></path>
                <path d="M30.1497052,51.5920345 C31.4754128,55.1100247 33.2340217,59.782088 35.4255319,65.6082246 L31.4970906,67.109589 L19.0682758,46.1695064 C17.9317189,53.1416159 16.795162,57.0578862 15.6586052,57.9183173 C14.5220483,58.7787485 10.2599601,58.7787485 2.87234042,57.9183173 L2.87234042,51.5920345 L11.396517,51.5920345 C10.3998088,46.9137772 9.79245919,43.3328708 9.57446808,40.8493151 C9.35647698,38.3657594 9.54178927,37.1384273 10.1304049,37.167319 L25.9746053,36.9589041 C27.4322976,43.1963342 28.8239976,48.0740443 30.1497052,51.5920345 Z" id="Path-179" stroke="#D9D2EA" stroke-width="1.04999995"></path>
                <path d="M17.7035357,13.6164384 C19.1397605,13.7751418 20.3360293,14.050875 21.2923418,14.4436382 C22.8970798,15.1027132 25.4308766,17.4094761 28.8937322,21.3639267 L32.4410477,14.9379446 L34.4680851,15.9265572 C33.2036846,21.5686695 31.7678664,24.7816606 30.1606306,25.5655305 C28.5533949,26.3494003 26.1885178,25.196019 23.0659995,22.1053862 L26.8917668,35.8031172 L9.57446808,37.9315068 L9.57446808,27.3474272" id="Path-178" stroke="#D9D2EA" stroke-width="1.04999995"></path>
                <path d="M14.3617022,12.6438356 L14.3617022,14.2044396 C15.4430144,15.2178187 16.1795119,15.6637056 16.5711947,15.5421001 C16.9628776,15.4204946 17.1838268,14.6773498 17.2340425,13.3126659" id="Path-176" stroke="#D9D2EA" stroke-width="1.04999995"></path>
                <path d="M1.39474648,36.9589041 C1.15016871,37.6065488 1.00920287,38.3941628 0.97184898,39.321746 C0.915818139,40.7131208 1.03103614,41.4534626 1.18329773,42.2096638 C1.33555933,42.9658652 1.6380712,44.2380653 1.81764399,44.5725058 C1.93735917,44.7954661 2.14880792,44.7954661 2.45199024,44.5725058 L3.0863365,40.765705 C3.3778358,41.1155195 3.58928455,41.3343011 3.72068276,41.4220499 C4.34766154,41.8407515 4.72844276,41.8074675 4.77792651,41.6845879 C4.87548576,41.4423259 4.17953389,40.9555373 3.93213151,40.3718979 C3.76719658,39.9828051 3.62623075,39.2827039 3.50923401,38.2715941" id="Path-183" stroke="#D9D2EA" stroke-width="1.04999995"></path>
                <path d="M14.3617022,13.6164384 C13.067777,13.9394647 10.6618851,14.9232265 9.20621931,15.7307922 C7.75055357,16.5383579 5.7923927,23.4407991 0.957446808,36.4778886 L3.62616732,37.9315068 L8.47838643,28.725258 L11.1471069,23.8798639" id="Path-177" stroke="#D9D2EA" stroke-width="1.04999995"></path>
                <path d="M36.3829787,14.5890412 L34.4847633,16.5342465 L32.5865481,15.7154883 C32.5420726,15.5149548 32.5420726,15.2420355 32.5865481,14.8967301 C32.6532613,14.378772 32.8238495,14.1598644 32.823825,13.8732823 C32.8237565,13.0704507 32.6423958,12.6712303 32.823825,12.6451449 C33.0700178,12.6097482 33.4654792,13.2920467 34.0102096,14.6920405 L36.3829787,14.5890412 Z" id="Path-185" stroke="#D9D2EA" stroke-width="1.04999995"></path>
                <path d="M17.7693955,3.57750312 C17.9280929,4.89914469 18.2743133,6.00745791 18.8080566,6.90244272 C19.3418,7.7974276 19.7745754,8.66824512 20.106383,9.51489533 L18.5483912,9.51489533 C18.5483912,11.0981999 18.5483912,12.2856784 18.5483912,13.0773307 C18.5483912,14.2648091 14.5780081,13.2458601 13.6147509,12.3648436 C12.9725796,11.7774992 12.6263592,10.7483513 12.5760899,9.27739964 C12.1772635,9.55881377 11.744488,9.2421529 11.2777635,8.32741687 C10.5776766,6.95531292 10.2958853,6.08513872 10.7584329,5.71496432 C11.066798,5.46818139 11.8457939,5.86400753 13.0954204,6.90244272 C13.7878611,7.81114385 14.1340816,7.81114385 14.1340816,6.90244272 C14.1340816,5.53939111 12.0567933,4.28995911 13.0954204,3.34000743 C13.7878385,2.70670631 15.3458302,2.78587154 17.7693955,3.57750312 Z" id="Path-174" stroke="#D9D2EA" stroke-width="1.04999995"></path>
                <path d="M18.3811434,3.08553697 L20.106383,1.25215066 L16.6559039,0.33545751 C14.0211413,-0.320252503 12.0083618,-0.0146881181 10.6175654,1.25215066 C9.22676898,2.51898944 9.22676898,4.04681137 10.6175654,5.83561644" id="Path-14" stroke="#D9D2EA" stroke-width="1.04999995"></path>
                <polygon id="Path-15" stroke="#D9D2EA" stroke-width="1.04999995" fill="#FFFFFF" fill-rule="nonzero" points="11.7765958 14.7001957 12.8776595 34.2078278 9.57446808 36.3753425 9.57446808 39.6266145 12.8776595 38.5428571 16.180851 51.5479452 31.5957447 50.4641878 20.5851064 14.7001957 19.4840425 14.7001957 20.5851064 21.2027397 15.0797873 21.2027397 13.9787234 13.6164384"></polygon>
                <path d="M26.8085107,13.130137 L45,13.130137" id="Path-16" stroke="#D9D2EA" stroke-width="1.04999995"></path>
            </g>
            <g id="Group-2" transform="translate(408.500000, 169.500000) scale(-1, 1) translate(-408.500000, -169.500000) translate(380.000000, 129.000000)">
                <path d="M20.2309996,12.1824002 C20.08842,14.2545013 20.2465506,15.4438568 20.7053914,15.7504669 C21.3936528,16.2103821 21.3150765,16.2356753 21.1642324,18.0500426 C21.0133883,19.8644099 20.2465506,21.0394911 19.7877097,21.7293638 C19.4818157,22.1892789 18.411187,22.1892789 16.5758235,21.7293638 L16.5758235,24.258897 C18.7170809,24.3355495 20.0936036,25.1787273 20.7053914,26.7884303 C21.3171793,28.3981333 22.0819142,31.3109291 22.9995958,35.526818 L28.5056866,43.5753328 C29.8949152,44.2641709 30.7361235,44.8007387 31.0293115,45.1850358 C31.3224994,45.5693331 31.4754463,46.3358583 31.4881524,47.4846116 L29.193948,45.8749085 L29.193948,46.7947388 L27.3585844,44.2652056 C24.0635048,41.0859715 21.9987207,38.8630483 21.1642324,37.5964361 C20.329744,36.3298238 19.7179562,34.4901632 19.3288688,32.0774543 C18.7414784,31.4556941 18.7414784,34.0618799 19.3288688,39.8960118 C19.9162592,45.7301435 20.7574675,51.4790827 21.8524938,57.1428295 L25.7526413,74.6196048 C26.5584742,71.3851926 27.2467355,69.5455321 27.8174252,69.100623 C28.6734599,68.4332596 29.6527888,70.9402837 29.193948,72.0900715 C28.888054,72.8565967 28.2762661,74.5429522 27.3585844,77.149138 C26.2879556,77.7623583 25.2938004,76.9191806 24.3761186,74.6196048 C22.9995958,71.1702412 20.5672945,66.2116438 19.7877097,63.8115991 C19.2679865,62.2115692 19.1150396,60.2186036 19.3288688,57.8327022 L17.7229258,57.8327022 C18.3347135,59.2124476 18.1817666,60.2855829 17.2640848,61.0521081 C16.346403,61.8186334 11.6050472,65.4979546 3.04001726,72.0900715 C2.87054738,76.7174429 2.64112693,79.4002811 2.35175593,80.1385865 C1.91769942,81.2460443 0.898606412,80.4444278 0.516392373,78.5288835 C0.261583013,77.2518539 0.414529977,75.4888458 0.975233262,73.2398594 C0.975233262,72.6266392 0.975233262,72.013419 0.975233262,71.4001987 C0.975233262,70.4803685 2.35175593,70.7103261 3.04001726,70.4803685 C3.72827859,70.250411 5.37383892,66.360417 8.31668747,63.3516838 C10.2785865,61.3458618 12.3433705,59.8128113 14.5110395,58.7525325 L12.9050964,47.4846116 C11.5285737,46.0955188 10.8403124,44.4858158 10.8403124,42.6555026 C10.8403124,40.8251894 11.5285737,38.9088763 12.9050964,36.9065633 L11.5285737,29.3179636 L7.85784659,37.5964361 L6.94016481,48.6343994 L8.54610792,50.0141448 L7.85784659,50.0141448 L9.23436927,52.3137205 C8.90578265,52.8112225 8.37046828,52.73457 7.62842614,52.083763 C6.88638402,51.432956 6.19812268,50.4364731 5.56364215,49.0943146 C5.55932813,43.5809946 5.71227509,39.5184108 6.02248304,36.9065633 C6.33269099,34.2947159 6.94447884,31.9184877 7.85784659,29.7778786 L12.4582035,24.5805637 L14.0663683,24.0415131 L14.0663683,15.4167037 L20.2309996,12.1824002 Z" id="Path-155" stroke="#C2B8DB" stroke-width="1.08084027" fill="#FFFFFF" fill-rule="nonzero"></path>
                <path d="M25.6270812,76.3582974 L20.6546924,62.461779 L19.6602146,55.5135198 L17.6712591,46.5800437 L16.6767812,36.6539592 L16.6767812,25.7352661 C15.6588895,26.5040149 14.9959043,26.5040149 14.6878258,25.7352661 C14.3797471,24.9665173 14.3797471,23.3121699 14.6878258,20.7722238 L17.6712591,21.7648322 L18.6657368,16.80179 L17.6712591,10.8461393 L14.6878258,8.86092237 L13.6933479,21.7648322 L13.6933479,23.7500491 L8.72095903,26.7278745 L5.73752571,36.6539592 L5.73752571,48.5652606 L8.72095903,52.5356944 L6.73200348,48.5652606 L7.72648126,37.6465676 L11.7043923,29.7056999 L12.6988702,36.6539592 L10.7099146,41.6170014 L11.7043923,45.5874353 L12.6988702,47.5726522 L14.6878258,58.4913452 L7.72648126,63.4543874 L2.75409238,70.4026466 L0.765136824,70.4026466 L0.765136824,73.380472 L0.765136824,78.3435143 L1.7596146,80.3287312 L2.75409238,72.3878635 L11.7043923,63.4543874 L16.6767812,59.4839536 L16.6767812,57.4987367 L18.6657368,57.4987367 L19.6602146,63.4543874 L25.6270812,76.3582974 Z" id="Path-224" fill="#F1F1FB" fill-rule="nonzero"></path>
                <path d="M20.2309996,12.1824002 C20.08842,14.2545013 20.2465506,15.4438568 20.7053914,15.7504669 C21.3936528,16.2103821 21.3150765,16.2356753 21.1642324,18.0500426 C21.0133883,19.8644099 20.2465506,21.0394911 19.7877097,21.7293638 C19.4818157,22.1892789 18.411187,22.1892789 16.5758235,21.7293638 L16.5758235,24.258897 C18.7170809,24.3355495 20.0936036,25.1787273 20.7053914,26.7884303 C21.3171793,28.3981333 22.0819142,31.3109291 22.9995958,35.526818 L28.5056866,43.5753328 C29.8949152,44.2641709 30.7361235,44.8007387 31.0293115,45.1850358 C31.3224994,45.5693331 31.4754463,46.3358583 31.4881524,47.4846116 L29.193948,45.8749085 L29.193948,46.7947388 L27.3585844,44.2652056 C24.0635048,41.0859715 21.9987207,38.8630483 21.1642324,37.5964361 C20.329744,36.3298238 19.7179562,34.4901632 19.3288688,32.0774543 C18.7414784,31.4556941 18.7414784,34.0618799 19.3288688,39.8960118 C19.9162592,45.7301435 20.7574675,51.4790827 21.8524938,57.1428295 L25.7526413,74.6196048 C26.5584742,71.3851926 27.2467355,69.5455321 27.8174252,69.100623 C28.6734599,68.4332596 29.6527888,70.9402837 29.193948,72.0900715 C28.888054,72.8565967 28.2762661,74.5429522 27.3585844,77.149138 C26.2879556,77.7623583 25.2938004,76.9191806 24.3761186,74.6196048 C22.9995958,71.1702412 20.5672945,66.2116438 19.7877097,63.8115991 C19.2679865,62.2115692 19.1150396,60.2186036 19.3288688,57.8327022 L17.7229258,57.8327022 C18.3347135,59.2124476 18.1817666,60.2855829 17.2640848,61.0521081 C16.346403,61.8186334 11.6050472,65.4979546 3.04001726,72.0900715 C2.87054738,76.7174429 2.64112693,79.4002811 2.35175593,80.1385865 C1.91769942,81.2460443 0.898606412,80.4444278 0.516392373,78.5288835 C0.261583013,77.2518539 0.414529977,75.4888458 0.975233262,73.2398594 C0.975233262,72.6266392 0.975233262,72.013419 0.975233262,71.4001987 C0.975233262,70.4803685 2.35175593,70.7103261 3.04001726,70.4803685 C3.72827859,70.250411 5.37383892,66.360417 8.31668747,63.3516838 C10.2785865,61.3458618 12.3433705,59.8128113 14.5110395,58.7525325 L12.9050964,47.4846116 C11.5285737,46.0955188 10.8403124,44.4858158 10.8403124,42.6555026 C10.8403124,40.8251894 11.5285737,38.9088763 12.9050964,36.9065633 L11.5285737,29.3179636 L7.85784659,37.5964361 L6.94016481,48.6343994 L8.54610792,50.0141448 L7.85784659,50.0141448 L9.23436927,52.3137205 C8.90578265,52.8112225 8.37046828,52.73457 7.62842614,52.083763 C6.88638402,51.432956 6.19812268,50.4364731 5.56364215,49.0943146 C5.55932813,43.5809946 5.71227509,39.5184108 6.02248304,36.9065633 C6.33269099,34.2947159 6.94447884,31.9184877 7.85784659,29.7778786 C8.30712219,27.1937408 10.2126206,25.1001523 12.7496367,24.4032243 L14.0663683,24.0415131 L14.0663683,15.4167037 L20.2309996,12.1824002 Z" id="Path-155" stroke="#D9D2EA" stroke-width="1.04999995"></path>
                <path d="M13.5254237,24.2463523 L14.2164636,30.8571428 L17.8187525,24.4727535 L19.3220339,25.0714285 L19.3220339,31.8214286 L19.3220339,40.5 L28.0169492,54.9642857 C26.3811669,56.338623 23.8048956,57.3029087 20.2881356,57.8571429 C16.7713756,58.411377 13.5510366,58.411377 10.6271186,57.8571429 L12.5593221,48.2142857 C11.4262345,46.0594653 10.7821667,44.1308938 10.6271186,42.4285714 C10.4720706,40.726249 11.1161384,38.7976776 12.5593221,36.6428571 L11.5932203,28.9285714 L12.5593221,24.2463523 L13.5254237,24.2463523 Z" id="Path-158" stroke="#D9D2EA" stroke-width="1.08084027" fill="#FFFFFF" fill-rule="nonzero"></path>
                <ellipse id="Oval-5" stroke="#D9D2EA" stroke-width="1.04999995" fill="#F1F1FB" fill-rule="nonzero" transform="translate(12.559322, 13.017857) rotate(30.000000) translate(-12.559322, -13.017857) " cx="12.559322" cy="13.0178572" rx="7.72881356" ry="10.125"></ellipse>
                <path d="M14.4915255,8.67857143 C10.6271186,8.03571429 8.37288136,9 7.72881356,11.5714286 C7.08474577,14.1428571 8.05084745,16.0714286 10.6271186,17.3571429" id="Path-11" stroke="#D9D2EA" stroke-width="1.04999995"></path>
                <path d="M29.9491526,47.25 L44.4406779,67.5 L40.5762712,69.4285714 L35.7457627,65.5714285 C35.68776,69.1558898 37.2979294,71.0844613 40.5762712,71.3571428 C41.8129015,71.4600017 41.3381763,73.1955957 42.5084745,73.2857143 C43.0204431,73.3251383 41.9577506,78.1366235 42.5084745,78.1071429 C43.3972035,78.0595686 45.3009849,78.9219117 46.3728814,78.1071429 C46.6760031,77.8767343 43.1881417,77.4358867 43.4745763,77.1428571 C44.2967121,76.3017921 44.1394818,74.1382393 45.4067797,73.2857143 C45.6703503,73.1084074 46.958486,72.7869789 49.2711864,72.3214286 C50.6508733,75.0039671 51.616975,76.2896814 52.1694915,76.1785715 C52.5112661,76.1098412 54.134373,75.8119195 54.1016949,75.2142857 C54.0783438,74.7872278 53.5377029,75.6955876 53.1355933,75.2142857 C51.7591631,73.5667791 52.0078762,71.4315943 52.1694915,71.3571428 C53.4777901,70.7544477 53.7998241,69.1473049 53.1355933,66.5357143 C54.7508153,66.2092426 55.716917,65.887814 56.0338983,65.5714285 C56.3508796,65.2550431 56.3508796,64.6121859 56.0338983,63.6428571 L53.1355933,63.6428571 L51.2033899,61.7142857 L49.2711864,62.6785714 L49.2711864,66.5357143 L44.4406779,67.5" id="Path-12" stroke="#D9D2EA" stroke-width="1.04999995"></path>
            </g>
            <g id="Group" transform="translate(154.000000, 128.000000)" stroke="#D9D2EA" stroke-width="1.04999995">
                <ellipse id="Oval-7" cx="68.2926829" cy="22.03125" rx="9.75609756" ry="5.38541667"></ellipse>
                <path d="M60.4878048,25.4583333 L58.5365854,42.1041667" id="Path-18"></path>
                <path d="M63.4146341,26.4375 L61.4634146,45.0416667" id="Path-18"></path>
                <path d="M76.3541283,24.5961779 L79.7434327,41.0079888" id="Path-18"></path>
                <path d="M73.3422691,26.5582373 L76.9016334,44.9209294" id="Path-18"></path>
                <ellipse id="Oval-6" fill="#FFFFFF" fill-rule="nonzero" cx="40.4878048" cy="11.2604167" rx="25.8536585" ry="11.2604167"></ellipse>
                <path d="M39.4466894,34.2708333 C33.1988424,34.5045195 28.2926829,36.8220672 28.2926829,39.6465576 C28.2926829,42.626194 33.7526251,45.0416667 40.4878048,45.0416667 C47.2229847,45.0416667 52.6829268,42.626194 52.6829268,39.6465576 C52.6829268,36.8383988 47.8333396,34.5313373 41.6371629,34.2750957" id="Oval-6"></path>
                <polyline id="Path-17" points="39.0243902 22.5208333 39.0243902 37.2083333 41.9512195 37.2083333 41.9512195 22.5208333"></polyline>
                <ellipse id="Oval-7" cx="9.75609756" cy="25.9479167" rx="9.75609756" ry="3.42708333"></ellipse>
                <path d="M1.95121952,27.4166667 L0,44.0625" id="Path-18"></path>
                <path d="M4.87804878,28.3958333 L2.92682926,47" id="Path-18"></path>
                <path d="M17.8175429,27.5336779 L21.2068474,43.9454888" id="Path-18"></path>
                <path d="M14.8056837,28.5165706 L18.3650481,46.8792627" id="Path-18"></path>
            </g>
            <g id="Group" transform="translate(194.000000, 102.000000)">
                <path d="M20.9655324,20.8245412 C20.9915868,20.2178819 21.560594,18.9490613 25.6636083,21.2117951 C31.8181298,24.6058957 34.6854989,25.773436 34.4039715,27.9815351 C34.2162867,29.4536013 25.0116668,35.6118485 19.4435814,39.9103287 L24.3776921,32.5545364 L29.8865195,27.8360928 L23.1298615,24.5239438" id="Path-169" stroke="#D9D2EA" stroke-width="1.08084027" fill="#F6F5FB" fill-rule="nonzero" transform="translate(26.933209, 29.914360) rotate(30.000000) translate(-26.933209, -29.914360) "></path>
                <path d="M14.0290532,66.0163095 C14.7630135,63.8101158 17.666036,63.3430619 17.666036,66.6552108 C17.666036,71.6234341 17.666036,77.4196946 17.3845086,80.1798186 C17.1029812,82.9399427 15.1767684,77.9371877 14.287707,74.3835581 C13.6949994,72.0144717 13.6011569,68.7943271 14.0061796,64.7231239 C13.5321218,67.0560435 13.5397464,67.4871054 14.0290532,66.0163095 Z" id="Path-167" stroke="#D9D2EA" stroke-width="1.08084027" fill="#F6F5FB" fill-rule="nonzero" transform="translate(15.661150, 72.621996) rotate(91.000000) translate(-15.661150, -72.621996) "></path>
                <path d="M22.9502611,13.2485955 C23.8597199,14.1345585 24.7981446,15.146604 25.7655353,16.2847319 C27.2166213,17.9919237 27.5302583,18.2352254 29.4253916,21.5289676 C30.6888138,23.7247956 32.3779783,28.4170065 34.4928851,35.6056002 C35.9943647,38.7337407 36.1976511,41.5530809 33.382377,44.7556636 C30.5671028,47.9582463 22.7577468,48.6526253 22.382377,50.6767162 L23.382377,71.4004005 L20.9795691,70.4135584 C20.9795691,70.4135584 18.7577468,51.3459486 18.382377,49.6898741 C18.0070071,48.0337998 23.9825282,49.7742369 27.1731723,36.7096497 C23.8033395,30.2688025 21.92649,26.4046289 21.5426239,25.1171288 C20.966825,23.1858787 21.7319274,20.0346868 21.8241513,18.7688436 C21.8856341,17.9249479 21.6041067,17.1889148 20.9795691,16.5607443" id="Path-164" fill="#FFFFFF" fill-rule="nonzero"></path>
                <path d="M21.8241513,15.6141645 C22.4508568,15.7570936 23.4504574,16.8086534 24.8229529,18.7688436 C26.1954485,20.7290336 28.0462636,26.3412859 30.3753982,35.6056002 C33.382377,41.7951373 20.071499,47.975407 20.382377,50.6767162 L22.382377,71.4004005 L20.705466,70.4135584 C20.705466,69.4267162 14.382377,51.6635584 16.382377,48.703032 C18.382377,45.7425057 22.382377,44.7556636 26.382377,39.821453 C26.9851315,39.0779235 26.5014475,37.6377669 27.1731723,36.7096497 C23.8033395,30.2688025 21.92649,26.4046289 21.5426239,25.1171288 C20.966825,23.1858787 21.7319274,20.0346868 21.8241513,18.7688436 C21.8856341,17.9249479 21.512739,17.2119974 20.705466,16.6299919 L21.8241513,15.6141645 Z" id="Path-164" fill="#F6F5FB" fill-rule="nonzero"></path>
                <path d="M22.676158,13.5825098 C23.5856167,14.4684729 24.5240415,15.4805185 25.4914321,16.6186462 C26.9425181,18.325838 27.2561551,18.5691398 29.1512885,21.862882 C30.4147108,24.05871 32.1038752,28.7509208 34.2187819,35.9395145 C35.7202616,39.0676552 35.5507483,43.9525374 31.9665626,45.8343637 C28.3823769,47.7161899 23.0515278,49.6394674 22.676158,51.6635584 C22.4259113,53.0129524 22.7591752,59.5918996 23.6759493,71.4004005 L20.382377,70.4135584 C17.7157103,60.0809254 16.382377,53.1730307 16.382377,49.6898741 C16.382377,46.5350453 21.724529,45.2571755 26.382377,39.821453 C26.705543,39.4443173 26.8777738,38.5183543 26.8990691,37.0435642 C23.4012809,30.1735502 21.5244315,26.3093765 21.2685209,25.4510432 C20.6927219,23.5197931 21.4578242,20.3686012 21.5500483,19.1027579 C21.6115309,18.2588623 21.3300035,17.5228292 20.705466,16.8946586" id="Path-164" stroke="#D9D2EA" stroke-width="1.08084027"></path>
                <path d="M16.4751306,7.17632252 C15.8507683,8.4060677 15.2877134,9.23410492 14.7859661,9.66043415 C14.2842186,10.0867634 13.4396364,10.45478 12.2522193,10.7644838 L14.7859661,11.8685335 C15.2033341,14.4040765 15.7663889,16.060151 16.4751306,16.8367567 C17.1838722,17.6133623 18.2161394,17.7053664 19.5719321,17.112769 C21.6364665,16.1927276 22.6687337,15.0886782 22.6687337,13.8006202 C22.6687337,11.8685335 28.8631254,5.24462225 24.9209531,3.31214885 C20.0411445,0.920041348 17.2258704,2.20809923 16.4751306,7.17632252 Z" id="Path-162" stroke="#D9D2EA" stroke-width="1.08084027" fill="#F6F5FB" fill-rule="nonzero"></path>
                <path d="M15.6305483,6.07227289 C17.3594654,6.54487525 18.4855751,7.09690007 19.0088773,7.72834732 C19.5321794,8.35979459 19.626022,9.27983593 19.2904047,10.4884714 C20.069692,9.75243829 20.6327468,9.38442175 20.9795691,9.38442175 C21.4998028,9.38442175 22.2236427,9.11764258 21.8241513,10.4884714 C21.5578239,11.4023572 20.9009266,12.3223986 19.8534595,13.2485955 L22.6687337,13.5246078 C25.1186304,11.4415092 26.62011,9.78543482 27.1731723,8.55638454 C28.0027658,6.71280912 28.0177546,3.31214885 24.6394256,1.93208683 C21.2610965,0.552024809 20.1349869,1.10404962 18.7273498,1.65607443 C17.3197128,2.20809923 16.2233576,2.8892788 15.6305483,2.76012405 C15.037739,2.63096929 14.9176442,2.02555532 14.7859661,1.38006202 C14.6981805,0.949733154 14.7920231,0.48971248 15.0674935,0 C13.9932508,0.74336888 13.5240384,1.8474185 13.6598564,3.31214885 C13.7956743,4.7768792 14.4525716,5.69692055 15.6305483,6.07227289 Z" id="Path-163" stroke="#D9D2EA" stroke-width="1.08084027" fill="#FFFFFF" fill-rule="nonzero"></path>
                <path d="M15.6305483,6.07227289 C17.3594654,6.54487525 18.4855751,7.09690007 19.0088773,7.72834732 C19.5321794,8.35979459 19.626022,9.27983593 19.2904047,10.4884714 C20.069692,9.75243829 20.6327468,9.38442175 20.9795691,9.38442175 C21.4998028,9.38442175 22.2236427,9.11764258 21.8241513,10.4884714 C21.5578239,11.4023572 20.9009266,12.3223986 19.8534595,13.2485955 L20.705466,13.2485955 C22.0779617,12.1167686 23.1073334,10.5350277 23.7935813,8.50337293 C24.8229529,5.45589083 25.1131667,2.76012405 21.7348378,1.38006202 C18.3565088,5.88355827e-15 20.1349869,1.10404962 18.7273498,1.65607443 C17.3197128,2.20809923 16.2233576,2.8892788 15.6305483,2.76012405 C15.037739,2.63096929 14.9176442,2.02555532 14.7859661,1.38006202 C14.6981805,0.949733154 14.7920231,0.48971248 15.0674935,0 C13.9932508,0.74336888 13.5240384,1.8474185 13.6598564,3.31214885 C13.7956743,4.7768792 14.4525716,5.69692055 15.6305483,6.07227289 Z" id="Path-163" fill="#F6F5FB" fill-rule="nonzero"></path>
                <path d="M15.6305483,6.07227289 C17.3594654,6.54487525 18.4855751,7.09690007 19.0088773,7.72834732 C19.5321794,8.35979459 19.626022,9.27983593 19.2904047,10.4884714 C20.069692,9.75243829 20.6327468,9.38442175 20.9795691,9.38442175 C21.4998028,9.38442175 22.2236427,9.11764258 21.8241513,10.4884714 C21.5578239,11.4023572 20.9009266,12.3223986 19.8534595,13.2485955 L22.6687337,13.5246078 C25.1186304,11.4415092 26.62011,9.78543482 27.1731723,8.55638454 C28.0027658,6.71280912 28.0177546,3.31214885 24.6394256,1.93208683 C21.2610965,0.552024809 20.1349869,1.10404962 18.7273498,1.65607443 C17.3197128,2.20809923 16.2233576,2.8892788 15.6305483,2.76012405 C15.037739,2.63096929 14.9176442,2.02555532 14.7859661,1.38006202 C14.6981805,0.949733154 14.7920231,0.48971248 15.0674935,0 C13.9932508,0.74336888 13.5240384,1.8474185 13.6598564,3.31214885 C13.7956743,4.7768792 14.4525716,5.69692055 15.6305483,6.07227289 Z" id="Path-163" stroke="#D9D2EA" stroke-width="1.08084027"></path>
                <path d="M7.38237696,38.834611 C6.38237696,39.4925057 5.38237696,39.821453 4.38237696,39.821453 C3.38237696,39.821453 2.38237696,39.4925057 1.38237696,38.834611 L0.382376961,30.9398741 C1.71571029,31.5977688 3.04904363,31.9267162 4.38237696,31.9267162 C5.7157103,31.9267162 7.04904363,31.5977688 8.38237697,30.9398741 L7.38237696,38.834611 Z" id="Path-20" stroke="#D9D2EA" stroke-width="1.04999995" fill="#FFFFFF" fill-rule="nonzero"></path>
                <path d="M5.0402544,16.8489692 C5.68447527,16.3978258 6.59369667,16.4624828 7.7679184,17.0429402 L21.4146489,22.4596686 L22.5535704,35.4514232 C24.0212584,36.9897485 24.4904708,38.2778064 23.9612075,39.3155968 C23.1673125,40.8722827 20.5593339,41.0543763 20.0198237,40.4196465 C19.6601501,39.9964934 20.03552,38.5244271 21.1459333,36.0034481 L19.1752413,24.5489332 L4.61039751,20.3140242 C3.74895377,19.3249901 3.86307641,17.8340701 4.86529764,16.9839611 C4.92146809,16.936316 5.0402544,16.8489692 5.0402544,16.8489692 Z" id="Path-170" stroke="#D9D2EA" stroke-width="1.08084027" fill="#F6F5FB" fill-rule="nonzero" transform="translate(14.101876, 28.657531) rotate(90.000000) translate(-14.101876, -28.657531) "></path>
                <path d="M0.382376961,30.9398741 C1.04904363,30.2819794 2.38237696,29.953032 4.38237696,29.953032 C6.38237696,29.953032 7.71571029,30.2819794 8.38237697,30.9398741" id="Path-21" stroke="#D9D2EA" stroke-width="1.04999995"></path>
            </g>
            <g id="Page-1" transform="translate(336.500000, 127.000000) rotate(2.000000) translate(-336.500000, -127.000000) translate(272.000000, 65.000000)">
                <polygon id="Fill-18" fill="url(#linearGradient-30)" fill-rule="nonzero" points="0.0669793655 94.7376851 41.1878624 116.817536 58.5986577 116.213526 65.1050467 119.83045 73.2394865 119.83045 79.4900389 123.307399 85.1835382 123.114211 89.0234242 121.482614 88.5960785 109.591779 75.6966121 115.735892 40.6312697 95.7254808 40.6312697 74.0926039"></polygon>
                <polygon id="Path-75" fill="#F5F5FC" fill-rule="nonzero" points="39.7322297 21.6131471 40.0205216 29.5781414 74.8399205 49.5076197 74.5094831 40.3782169"></polygon>
                <polygon id="Path-75" fill="#F5F5FC" fill-rule="nonzero" points="53.6029474 5.19640705 45.7797845 17.4220421 83.7227919 38.0741297 89.4820547 25.9180303"></polygon>
                <polygon id="Path-75" fill="#F5F5FC" fill-rule="nonzero" points="74.7726773 76.2555321 75.0609692 84.2205264 81.3968159 87.9944158 81.108524 80.0294216"></polygon>
                <polygon id="Fill-19" fill-opacity="0.332880435" fill="#E2E1F4" fill-rule="nonzero" points="121.298497 105.235234 92.3943941 120.062467 92.4121551 107.297689 109.364647 98.6051948"></polygon>
                <polygon id="Stroke-1" stroke="#D9D2EA" stroke-width="1.08084027" stroke-linecap="round" stroke-linejoin="round" points="76.9447586 89.7764396 76.9447586 89.9822835 76.8097974 89.8522769"></polygon>
                <path d="M76.8097974,89.7764396 L89.0548376,101.751817" id="Fill-3" stroke="#D9D2EA" stroke-width="1.08084027" fill="#FFFFFF" fill-rule="nonzero"></path>
                <path d="M111.87514,93.0213711 L112.014241,96.8918357 L92.3830124,107.296583 M89.0946649,109.03944 L76.0159169,115.971308" id="Fill-4" stroke="#D9D2EA" stroke-width="1.08084027" fill="#FFFFFF" fill-rule="nonzero"></path>
                <polyline id="Fill-5" stroke="#D9D2EA" stroke-width="1.08084027" fill="#FFFFFF" fill-rule="nonzero" points="88.8609601 101.465518 89.0548376 122.81044 90.7246159 123.848221 90.5879955 103.030372"></polyline>
                <polyline id="Fill-6" stroke="#D9D2EA" stroke-width="1.08084027" fill="#FFFFFF" fill-rule="nonzero" points="75.5603083 41.3078494 45.353777 24.0118284 38.9614915 20.3971526 45.3884863 16.7654797 83.2313109 37.8006526"></polyline>
                <polygon id="Fill-7" stroke="#D9D2EA" stroke-width="1.08084027" fill="#FFFFFF" fill-rule="nonzero" points="114.658103 20.0104113 114.96704 28.6065442 75.8516802 49.4152363 75.5603083 41.3078494 83.2742625 37.5931584 90.0935372 27.2859283 102.673699 20.9063997 108.193638 23.6061114"></polygon>
                <polygon id="Fill-8" stroke="#D9D2EA" stroke-width="1.08084027" fill="#F5F5FC" fill-rule="nonzero" points="75.6966121 49.6504573 75.6966121 90.2762261 75.6966121 115.735892 40.6312697 95.865757 40.6312697 29.745206"></polygon>
                <polyline id="Fill-10" stroke="#D9D2EA" stroke-width="1.08084027" points="41.1878624 30.2860279 38.9614915 28.6635619 38.9614915 20.5512331"></polyline>
                <polyline id="Fill-17" stroke="#D9D2EA" stroke-width="1.08084027" fill="#FFFFFF" fill-rule="nonzero" points="124.15903 86.5308492 124.15903 86.9338145 124.12018 104.969909 122.449853 106.278471"></polyline>
                <polyline id="Fill-16" stroke="#D9D2EA" stroke-width="1.08084027" fill="#FFFFFF" fill-rule="nonzero" points="122.469827 87.0720006 122.469827 106.000768 120.800048 104.974065 120.800048 88.0987033"></polyline>
                <polyline id="Fill-20" stroke="#D9D2EA" stroke-width="1.08084027" fill="#FFFFFF" fill-rule="nonzero" points="90.5879955 103.030372 90.7698844 123.587961 92.3943941 122.834916 92.2567564 102.973749"></polyline>
                <path d="M113.210962,71.929316 L128.884734,83.8729116 L91.1636739,103.55199 L76.7522871,89.9710462 M76.8097974,89.9151274 L81.6986326,87.5006027 M117.448864,75.6025204 L81.6986326,94.643837" id="Fill-11" stroke="#D9D2EA" stroke-width="1.08084027" fill="#FFFFFF" fill-rule="nonzero"></path>
                <path d="M118.554252,61.618367 L81.9846021,80.59393 L76.5779908,77.5029875 C76.3109403,77.3503156 76.2227338,77.0176838 76.3809759,76.7600339 C76.4323307,76.6764183 76.5060345,76.607656 76.5943752,76.5609423 L111.944847,57.8679459 L118.554252,61.618367 Z" id="Fill-15" stroke="#D9D2EA" stroke-width="1.08084027" fill="#FFFFFF" fill-rule="nonzero"></path>
                <polyline id="Fill-21" stroke="#D9D2EA" stroke-width="1.08084027" points="102.673699 20.9063997 64.6082856 0.0107940275 52.8763097 5.57128396 90.0554026 26.5002743"></polyline>
                <path d="M45.6406043,16.7448514 L52.0577178,5.94904118" id="Fill-22" stroke="#D9D2EA" stroke-width="1.08084027" fill="#FFFFFF" fill-rule="nonzero"></path>
                <path d="M108.207767,23.9419234 L108.231033,23.9530977 M114.658103,19.6074023 L76.8847162,0.676541883 L70.8436249,3.04613031" id="Fill-23" stroke="#D9D2EA" stroke-width="1.08084027" fill="#FFFFFF" fill-rule="nonzero"></path>
                <polyline id="Path-118" stroke="#D9D2EA" stroke-width="1.08084027" points="82.2565493 88.1608247 119.110845 68.4492446 119.110845 61.6536994"></polyline>
                <path d="M91.1636739,103.55199 L76.8097974,89.7764396" id="Path-128" stroke="#D9D2EA" stroke-width="1.08084027" fill="#FFFFFF" fill-rule="nonzero"></path>
                <polyline id="Path-206" stroke="#D9D2EA" stroke-width="1.08084027" points="81.9883318 80.8015485 82.2371246 87.6203322 75.8658117 84.0464802"></polyline>
                <polyline id="Path-74" stroke="#D9D2EA" stroke-width="1.08084027" fill="#FFFFFF" fill-rule="nonzero" points="75.6946093 49.5269624 110.336514 31.1756148 111.308439 58.0237318"></polyline>
            </g>
        </g>
    </g>
</svg>