<?xml version="1.0" encoding="UTF-8"?>
<svg width="604px" height="332px" viewBox="0 0 604 332" version="1.1" xmlns="http://www.w3.org/2000/svg" xmlns:xlink="http://www.w3.org/1999/xlink">
    <!-- Generator: Sketch 48.1 (47250) - http://www.bohemiancoding.com/sketch -->
    <title>12 000 000</title>
    <desc>Created with Sketch.</desc>
    <defs>
        <linearGradient x1="86.3588079%" y1="9.15733612%" x2="50%" y2="50%" id="linearGradient-1">
            <stop stop-color="#FFFFFF" stop-opacity="0" offset="0%"></stop>
            <stop stop-color="#FFFFFF" offset="100%"></stop>
        </linearGradient>
        <linearGradient x1="86.3588079%" y1="25.881826%" x2="50%" y2="50%" id="linearGradient-2">
            <stop stop-color="#FFFFFF" stop-opacity="0" offset="0%"></stop>
            <stop stop-color="#FFFFFF" offset="100%"></stop>
        </linearGradient>
        <linearGradient x1="100%" y1="22.2025647%" x2="15.898044%" y2="33.5957179%" id="linearGradient-3">
            <stop stop-color="#FFFFFF" stop-opacity="0.420261549" offset="0%"></stop>
            <stop stop-color="#FFFFFF" offset="100%"></stop>
        </linearGradient>
    </defs>
    <g id="майлстоун-3" stroke="none" stroke-width="1" fill="none" fill-rule="evenodd" transform="translate(-442.000000, -232.000000)">
        <g id="12-000-000" transform="translate(442.000000, 233.000000)">
            <g id="Group" transform="translate(33.955556, 0.000000)">
                <g id="телефон" transform="translate(342.436173, 199.891921)" stroke="#D5CEE6" stroke-width="1.17700008">
                    <polygon id="Path-256" points="0.138035757 65.6829929 26.9757051 76.8179697 47.9522742 65.6829929 47.9522742 12.1732433 26.9757051 22.9989152 0.138035757 13.101158"></polygon>
                    <path d="M0.138035757,65.6829929 L26.9757051,76.8179697 L26.9757051,22.9989152 C22.2581941,13.1729695 17.4120088,7.70933029 12.4371491,6.6079974 C7.46228948,5.5066645 3.36258502,7.67105139 0.138035757,13.101158 L0.138035757,65.6829929 Z" id="Path-256" fill="#F8F8FD" fill-rule="nonzero"></path>
                    <path d="M21.5051085,29.4810427 L3.63313364,23.0080222 L3.63313364,64.2322014 L21.3795632,71.4631945 M30.9666896,70.9324018 L44.4571763,63.8996561 L44.4571763,21.9479914 L30.932854,28.802532" id="Path-256"></path>
                    <path d="M26.8642421,22.9456273 C22.2210398,12.8916555 17.467285,7.42692628 12.6029778,6.55143952 C7.73867057,5.67595276 3.53767798,7.85760668 0,13.0964013" id="Path-258"></path>
                    <path d="M26.8642421,22.9456273 C28.6330811,12.9692676 32.1707591,7.09430024 37.477276,5.32072518 C42.783793,3.54715011 46.321471,5.76411894 48.09031,11.9716317" id="Path-259"></path>
                    <path d="M48.09031,11.9716317 L26.8642421,22.9456273 L0,12.9692676 C5.96983158,4.3230892 13.9848833,0 24.045155,0 C37.8642096,0 45.8792612,3.99054388 48.09031,11.9716317 Z" id="Path-260"></path>
                    <path d="M8.95474737,25.1071719 L8.95474737,66.5090647" id="Path-262"></path>
                    <path d="M15.5878936,27.2687165 L15.5878936,69.0031546" id="Path-262"></path>
                    <path d="M35.8189895,26.9361712 L35.6531608,68.338064" id="Path-263"></path>
                    <path d="M40.4621918,24.2758086 L40.4621918,65.8439741" id="Path-264"></path>
                    <path d="M3.64823041,34.2521684 L21.2260678,40.9030748" id="Path-265"></path>
                    <path d="M3.64823041,50.8794345 L21.2260678,57.5303409" id="Path-265"></path>
                    <path d="M30.8441298,56.8652503 L44.4420796,49.8817985" id="Path-266"></path>
                    <path d="M30.8441298,40.2379841 L44.4420796,33.2545324" id="Path-266"></path>
                    <path d="M30.6783012,28.9099886 L30.6783012,71.035972" id="Path-3"></path>
                    <path d="M21.5577252,29.7359883 L21.5577252,71.8619717" id="Path-3"></path>
                    <path d="M26.9471564,23.1279909 L26.7398706,76.8179697" id="Path-2"></path>
                </g>
                <g id="Group-13" transform="translate(216.406395, 47.907981)">
                    <g id="Group-10" transform="translate(102.778994, 74.209964) scale(-1, 1) translate(-102.778994, -74.209964) translate(34.467883, 0.000000)">
                        <g id="Group-9" transform="translate(0.320500, 1.832582)">
                            <polygon id="Path" fill="#F8F8FD" fill-rule="nonzero" transform="translate(8.672095, 96.048379) scale(-1, 1) translate(-8.672095, -96.048379) " points="0.795233886 141.065362 0.795233886 60.943393 3.28266371 51.0313969 4.94095026 61.7693927 10.7449532 46.9013985 16.5489561 48.5533979 14.8906696 60.943393 14.0615263 55.9873949 11.5740965 64.2473917 11.5740965 145.19536"></polygon>
                            <polygon id="Path" fill="#F8F8FD" fill-rule="nonzero" transform="translate(126.410440, 49.792398) scale(-1, 1) translate(-126.410440, -49.792398) " points="118.533579 94.8093801 118.533579 14.6874112 121.021009 4.77541512 122.679295 15.5134109 128.483298 0.64541675 134.287301 2.2974161 132.629015 14.6874112 131.799871 9.73141316 129.312441 17.9914099 129.312441 98.9393784"></polygon>
                            <path d="M134.41952,59.8807169 L134.41952,14.9552588 L132.409955,5.78199772 L130.846961,14.9552588 L130.846961,25.0693672 M119.72807,99.1957283 L121.960919,100.136576 L134.462042,94.6200139" id="Path-234" stroke="#D5CEE6" stroke-width="1.17700008"></path>
                            <path d="M134.41952,15.879593 L134.41952,94.5084081" id="Path-238" stroke="#D5CEE6" stroke-width="1.17700008"></path>
                            <path d="M130.846961,25.0693672 L130.846961,68.3483425" id="Path-240" stroke="#D5CEE6" stroke-width="1.17700008"></path>
                            <path d="M130.846961,67.8779189 L130.874872,95.501614" id="Path-241" stroke="#D5CEE6" stroke-width="1.17700008"></path>
                            <polyline id="Path" stroke="#D5CEE6" stroke-width="1.17700008" points="123.482048 99.2778921 123.482048 18.9280831 121.472484 9.75482207 119.909489 18.9280831 119.909489 29.0421915"></polyline>
                            <path d="M119.909489,29.0421915 L119.909489,72.3211669" id="Path-240" stroke="#D5CEE6" stroke-width="1.17700008"></path>
                            <path d="M119.909489,71.8507432 L119.9374,99.4744387" id="Path-241" stroke="#D5CEE6" stroke-width="1.17700008"></path>
                        </g>
                        <g id="Group-8" transform="translate(111.546675, 53.996711) scale(-1, 1) translate(-111.546675, -53.996711) translate(102.713342, 6.290306)" stroke="#D5CEE6" stroke-width="1.17700008">
                            <polyline id="Path-234" points="17.5662425 76.141894 17.5662425 8.1976197 15.5650251 0 14.0085226 8.1976197 14.0085226 19.3243004 11.6003489 20.1951904 11.6003489 13.2427479 7.62308639 9.60099219 3.40711433 15.8912974 3.40711433 23.5746412 0.222357501 24.8301521 0.222357501 94.685647 9.13313042 90.5920966"></polyline>
                            <path d="M14.0085226,18.3310943 L14.0085226,61.692939" id="Path-240"></path>
                            <path d="M14.0085226,61.2216146 L14.0085226,77.6356091" id="Path-241"></path>
                        </g>
                        <polyline id="Path-244" stroke="#D5CEE6" stroke-width="1.17700008" points="102.813766 54.9574035 122.037202 63.8962582 134.735184 59.4569233"></polyline>
                        <polyline id="Path-244" stroke="#D5CEE6" stroke-width="1.17700008" points="102.813766 71.1797696 122.037202 80.449693 134.753644 75.0512359"></polyline>
                        <polyline id="Path-244" stroke="#D5CEE6" stroke-width="1.17700008" points="102.813766 39.3971748 122.037202 48.0049608 134.767464 43.3527447"></polyline>
                        <polyline id="Path-245" stroke="#D5CEE6" stroke-width="1.17700008" points="124.025832 30.7893886 127.340218 20.1951904 130.986042 27.4787017"></polyline>
                        <polyline id="Path-246" stroke="#D5CEE6" stroke-width="1.17700008" points="130.986042 17.2155722 125.683025 2.97961826 117.397062 0 113.4198 1.65534348 106.45959 14.2359539"></polyline>
                    </g>
                    <g id="Group-10" transform="translate(169.430935, 97.847730) scale(-1, 1) translate(-169.430935, -97.847730) translate(151.764269, 46.018549)" stroke="#D5CEE6" stroke-width="1.17700008">
                        <g id="Group-9" transform="translate(17.732509, 7.945649)">
                            <path d="M15.0228879,54.0987192 L15.0228879,9.17326106 L13.0133237,0 L11.4503293,9.17326106 L11.4503293,19.2873694 M0.331438539,93.4137305 L2.56428764,94.354578 L15.0654105,88.8380161" id="Path-234"></path>
                            <path d="M15.0228879,10.0975952 L15.0228879,88.7264104" id="Path-238"></path>
                            <path d="M11.4503293,19.2873694 L11.4503293,62.5663448" id="Path-240"></path>
                            <path d="M11.4503293,62.0959212 L11.47824,89.7196163" id="Path-241"></path>
                            <polyline id="Path" points="4.08541609 93.4958944 4.08541609 13.1460854 2.0758519 3.97282435 0.512857529 13.1460854 0.512857529 23.2601938"></polyline>
                            <path d="M0.512857529,23.2601938 L0.512857529,66.5391692" id="Path-240"></path>
                            <path d="M0.512857529,66.0687455 L0.540768142,93.692441" id="Path-241"></path>
                        </g>
                        <g id="Group-8" transform="translate(9.562053, 54.327779) scale(-1, 1) translate(-9.562053, -54.327779) translate(0.728719, 6.621374)">
                            <polyline id="Path-234" points="17.5662425 75.3147836 17.5662425 8.1976197 15.5650251 -2.84217094e-14 14.0085226 8.1976197 14.0085226 19.3243004 11.2689103 20.8573278 11.2689103 12.9116791 7.62308639 9.60099219 3.40711433 16.8845034 3.40711433 24.4990834 0.222357501 26.1544269 0.222357501 94.685647 9.4263212 89.9303379"></polyline>
                            <path d="M14.0085226,18.3310943 L14.0085226,61.692939" id="Path-240"></path>
                            <path d="M14.0085226,61.2216146 L14.0085226,76.9734717" id="Path-241"></path>
                        </g>
                        <polyline id="Path-244" points="0.829143275 54.6263347 20.0525785 64.2273269 32.7505619 59.787992"></polyline>
                        <polyline id="Path-244" points="0.829143275 71.1797696 20.0525785 80.7807617 32.7690204 75.3823046"></polyline>
                        <polyline id="Path-244" points="0.829143275 39.0661061 20.0525785 48.3360295 32.7828412 43.6838134"></polyline>
                        <polyline id="Path-245" points="22.0412098 31.1204574 25.3555951 20.5262591 29.0014191 27.8097704"></polyline>
                        <polyline id="Path-246" points="29.0014191 17.5466409 23.6984025 3.31068696 16.7381931 0 11.4351765 1.98641217 4.47496721 14.5670226"></polyline>
                    </g>
                    <polyline id="Path-251" stroke="#D5CEE6" stroke-width="1.17700008" points="31.4866612 62.2409147 31.4866612 82.4361052 24.1950133 79.7875556 24.1950133 65.220533"></polyline>
                    <path d="M17.5662425,65.8826704 L17.5662425,77.1390061" id="Path-252" stroke="#D5CEE6" stroke-width="1.17700008"></path>
                    <path d="M11.6003489,65.5516017 L11.6003489,74.8215252" id="Path-253" stroke="#D5CEE6" stroke-width="1.17700008"></path>
                    <path d="M7.29164785,65.220533 L7.29164785,73.1661817" id="Path-254" stroke="#D5CEE6" stroke-width="1.17700008"></path>
                    <path d="M26.1836446,56.6127469 L26.1836446,64.5583956" id="Path-255" stroke="#D5CEE6" stroke-width="1.17700008"></path>
                    <g id="Group-5" transform="translate(0.000000, 54.626335)" stroke="#D5CEE6" stroke-width="1.17700008">
                        <path d="M154.450359,78.7943496 L117.99212,64.8894644" id="Path-242"></path>
                        <path d="M154.450359,75.4836626 L117.99212,61.5787774" id="Path-242"></path>
                        <path d="M154.450359,59.5923652 L117.99212,45.68748" id="Path-242"></path>
                        <path d="M36.4582393,33.1068696 L0,19.2019844" id="Path-242"></path>
                        <path d="M36.4582393,29.7961826 L0,15.8912974" id="Path-242"></path>
                        <path d="M36.4582393,13.9048852 L0,0" id="Path-242"></path>
                        <path d="M72.2536014,47.0117548 L50.7100964,38.7350373" id="Path-242"></path>
                        <path d="M72.2536014,43.7010678 L50.7100964,35.4243504" id="Path-242"></path>
                        <polyline id="Path-247" points="51.3729735 35.7554191 68.6077775 27.8097704 72.58504 29.1340452"></polyline>
                        <path d="M232.006977,108.921601 L168.702216,84.4225176" id="Path-242"></path>
                        <path d="M233.995608,106.273051 L168.702216,81.1118304" id="Path-242"></path>
                        <polyline id="Path-247" points="169.365094 81.4428991 186.599897 73.4972504 234.989924 90.7128223"></polyline>
                        <path d="M169.033654,54.295266 C176.546261,70.1865634 186.378938,80.8911179 198.531685,86.4089295 C210.684431,91.9267411 222.505739,95.1270719 233.995608,96.0099219" id="Path-248"></path>
                        <path d="M186.268459,46.3496174 C193.781066,62.2409147 203.613742,72.9454693 215.766489,78.4632808 C227.919235,83.9810926 239.740543,87.1814234 251.230412,88.0642733" id="Path-248"></path>
                        <path d="M36.4582393,4.96603043 C29.4120661,8.70914704 23.9985699,10.8059154 20.2177509,11.2563357 C16.4369318,11.7067559 9.808161,11.0446185 0.331438539,9.2699235" id="Path-249"></path>
                        <path d="M36.2901724,3.3469969 C33.8262812,3.18638739 29.0212049,2.51214668 21.8749436,1.32427479" id="Path-249"></path>
                        <path d="M171.685163,59.9234339 L171.685163,82.1050365" id="Path-250"></path>
                        <path d="M176.325303,67.2069452 L176.325303,84.0914486" id="Path-250"></path>
                        <path d="M180.965442,73.1661817 L180.965442,85.7467925" id="Path-250"></path>
                        <path d="M185.605582,77.8011434 L185.605582,87.7332044" id="Path-250"></path>
                        <path d="M190.57716,81.7739678 L190.57716,89.3885474" id="Path-250"></path>
                        <path d="M195.548738,84.7535857 L195.548738,91.3749601" id="Path-250"></path>
                        <path d="M201.183193,87.7332044 L201.183193,93.692441" id="Path-250"></path>
                        <path d="M206.817648,89.7196163 L206.817648,95.6788529" id="Path-250"></path>
                        <path d="M212.783542,92.0370972 L212.783542,97.9963338" id="Path-250"></path>
                        <path d="M218.749436,93.5269065 L218.749436,100.313815" id="Path-250"></path>
                        <path d="M225.709645,94.8511814 L225.543926,103.127899" id="Path-250"></path>
                        <path d="M188.919967,51.8122508 L188.919967,74.4904565" id="Path-250"></path>
                        <path d="M193.560106,59.2612965 L193.560106,76.1458" id="Path-250"></path>
                        <path d="M198.200246,65.220533 L198.200246,77.8011434" id="Path-250"></path>
                        <path d="M202.840385,70.0210291 L202.840385,79.1254183" id="Path-250"></path>
                        <path d="M207.811964,73.9938535 L207.811964,81.1118304" id="Path-250"></path>
                        <path d="M212.783542,76.9734717 L212.783542,82.7671738" id="Path-250"></path>
                        <path d="M218.417997,79.6220212 L218.417997,84.7535857" id="Path-250"></path>
                        <path d="M224.052452,81.9395022 L224.052452,86.7399984" id="Path-250"></path>
                        <path d="M230.018346,83.9259142 L230.018346,89.0574793" id="Path-250"></path>
                    </g>
                </g>
                <g id="Group-12" transform="translate(164.999512, 132.985948)">
                    <polygon id="Path-269" fill="#F8F8FD" fill-rule="nonzero" points="58.156215 13.8275522 58.156215 61.9499756 52.2734927 59.481743 52.2734927 14.8679941 21.5577252 4.12999837 21.5577252 0"></polygon>
                    <polygon id="Path-269" fill="#F8F8FD" fill-rule="nonzero" points="36.5984898 22.087549 36.5984898 70.2099723 7.46228948 57.8199772 7.46228948 40.4739841 4.97485965 27.2579893 2.48742983 40.4739841 2.48742983 49.5599805 0 48.7339808 0 8.25999675"></polygon>
                    <polygon id="Path-267" stroke="#D5CEE6" stroke-width="1.17700008" points="0.332713543 8.57371778 15.9702501 1.65199935 52.2360263 14.836225 36.5984898 22.087549"></polygon>
                    <path d="M0.332713543,8.57371778 L0.332713543,48.4560001" id="Path-268" stroke="#D5CEE6" stroke-width="1.17700008"></path>
                    <polyline id="Path-269" stroke="#D5CEE6" stroke-width="1.17700008" points="36.5984898 22.087549 36.5984898 70.2099723 8.31783856 58.3441693"></polyline>
                    <polyline id="Path-270" stroke="#D5CEE6" stroke-width="1.17700008" points="36.9312034 70.2099723 52.2360263 62.9586482 52.2360263 15.4954362"></polyline>
                    <polygon id="Path-271" stroke="#D5CEE6" stroke-width="1.17700008" points="3.99256252 14.1770136 31.2750731 24.3947884 31.2750731 31.9757182 3.99256252 21.4283377"></polygon>
                    <polyline id="Path-271" stroke="#D5CEE6" stroke-width="1.17700008" points="3.99256252 26.3724223 31.2750731 36.5901971 31.2750731 44.1711268 6.70654327 34.6729675"></polyline>
                    <polyline id="Path-271" stroke="#D5CEE6" stroke-width="1.17700008" points="7.99359271 41.0551033 31.2750731 49.7744227 31.2750731 57.3553524 8.01968778 48.364853"></polyline>
                    <path d="M23.6226616,21.7579434 L23.6226616,29.0092674" id="Path-272" stroke="#D5CEE6" stroke-width="1.17700008"></path>
                    <path d="M15.9702501,18.7914926 L15.9702501,26.0428167" id="Path-272" stroke="#D5CEE6" stroke-width="1.17700008"></path>
                    <path d="M8.98326567,16.1546475 L8.98326567,23.4059716" id="Path-272" stroke="#D5CEE6" stroke-width="1.17700008"></path>
                    <path d="M23.6226616,33.953352 L23.6226616,41.2046761" id="Path-272" stroke="#D5CEE6" stroke-width="1.17700008"></path>
                    <path d="M15.9702501,30.9869013 L15.9702501,38.2382253" id="Path-272" stroke="#D5CEE6" stroke-width="1.17700008"></path>
                    <path d="M8.98326567,28.3500562 L8.98326567,35.6013802" id="Path-272" stroke="#D5CEE6" stroke-width="1.17700008"></path>
                    <polyline id="Path-271" stroke="#D5CEE6" stroke-width="1.17700008" points="3.99256252 26.3724223 31.2750731 36.5901971 31.2750731 44.1711268 6.70654327 34.6729675"></polyline>
                    <polygon id="Path-273" stroke="#D5CEE6" stroke-width="1.17700008" points="39.2601982 58.3441693 49.9070315 53.7296904 49.9070315 47.7967889 39.2601982 52.4112678"></polygon>
                    <polygon id="Path-273" stroke="#D5CEE6" stroke-width="1.17700008" points="39.2601982 45.819155 49.9070315 41.2046761 49.9070315 35.2717746 39.2601982 39.8862535"></polygon>
                    <polygon id="Path-273" stroke="#D5CEE6" stroke-width="1.17700008" points="39.2601982 31.9757182 49.9070315 27.3612392 49.9070315 21.4283377 39.2601982 26.0428167"></polygon>
                    <path d="M23.6226616,47.1375776 L23.6226616,54.3889016" id="Path-272" stroke="#D5CEE6" stroke-width="1.17700008"></path>
                    <path d="M15.9702501,44.1711268 L15.9702501,51.4224509" id="Path-272" stroke="#D5CEE6" stroke-width="1.17700008"></path>
                    <path d="M8.98326567,41.5342817 L8.98326567,48.7856058" id="Path-272" stroke="#D5CEE6" stroke-width="1.17700008"></path>
                </g>
                <g id="Group-12" transform="translate(186.557237, 126.377950)" stroke="#D5CEE6" stroke-width="1.17700008">
                    <polygon id="Path-267" points="0 6.6079974 15.9702501 0 52.2360263 13.1842256 36.5984898 20.4355496"></polygon>
                    <path d="M0.332713547,6.92171843 L0.332713547,10.4600151" id="Path-268"></path>
                    <polyline id="Path-270" points="36.9312034 68.557973 52.2360263 61.3066489 52.2360263 13.8434369"></polyline>
                    <polygon id="Path-273" points="39.2601982 56.69217 49.9070315 52.077691 49.9070315 46.1447895 39.2601982 50.7592685"></polygon>
                    <polygon id="Path-273" points="39.2601982 44.1671556 49.9070315 39.5526767 49.9070315 33.6197752 39.2601982 38.2342541"></polygon>
                    <polygon id="Path-273" points="39.2601982 30.3237189 49.9070315 25.7092399 49.9070315 19.7763384 39.2601982 24.3908174"></polygon>
                </g>
                <g id="бигбен">
                    <g id="Group-9" transform="translate(141.590524, 150.903150)">
                        <path d="M16.7725708,43.2067737 L19.2600006,36.5987763 L21.6018807,45.6847727 L23.405717,46.5107724 L23.405717,37.4247759 L25.8931468,22.5567818 L24.9217246,0.335734834 L21.6018807,23.4508482 L14.4544002,26.6937351 L16.7725708,43.2067737 Z M11.3560761,28.0994773 L2.67877056,32.0364618 L2.67877056,36.5987763 L3.50627844,37.4247759 L5.99370826,31.6427782 L8.48113806,39.0767753 L11.3560761,28.0994773 Z" id="Path-243" fill="#F8F8FD" fill-rule="nonzero" transform="translate(14.285959, 23.423254) scale(-1, 1) translate(-14.285959, -23.423254) "></path>
                        <path d="M146.073131,42.9335867 L139.765428,40.6220753 L139.765428,31.0458141 L138.43749,26.0925755 L137.109552,31.0458141 L137.109552,39.6314276 L134.785662,38.9709958 L134.785662,17.8371778 L132.461771,13.2141551 L130.469865,17.8371778 L130.469865,38.9709958 L127.558113,40.346468 L127.558113,30.3853822 L126.149448,22.8500276 L125.056221,30.3853822 L125.056221,41.5283279 L116.78214,45.4368923 L116.78214,35.2746114 L115.357541,27.9479784 L114.439151,35.2746114 L114.439151,46.5436885 L105.476932,50.7773198 L105.476932,40.9522912 L103.990393,33.1608411 L102.900261,40.9522912 L102.900261,51.9945047 L94.107683,56.1479996 L94.107683,46.5436885 L92.8573391,38.5767705 L91.3855376,46.5659616 L91.3855376,57.4339042 L81.7120048,62.0035508 L81.7120048,51.9945047 L80.0904589,44.4508475 L78.7812199,51.9945047 L78.7812199,63.388014 L69.7955968,67.6327011 L69.7955968,57.4339042 L68.2301964,50.0534755 L66.8650078,57.4339042 L66.8650078,69.0170719 L57.9104274,73.2470948 L57.9104274,63.5987672 L56.3899111,55.8034913 L54.8693948,63.5987672 L54.8693948,74.6836375 L44.5407957,79.5627284 L44.5407957,68.9391946 L42.8259861,61.7558933 L41.232595,68.9391946 L41.232595,81.1254778 L31.2065325,85.8616543 L31.2065325,22.7904164 L28.218673,9.9119961 L25.8947823,22.7904164 L25.8947823,36.9897004 L4.97976582,46.5659616 L4.97976582,37.6501322 L2.32389072,22.1299846 L0.331984388,37.6501322 M0,144.30987 L3.31984388,145.630733 L5.97571899,144.30987 L5.97571899,143.649438 L60.228206,116.385005 L60.228206,101.051586 C60.799487,97.9695706 62.0810806,96.2084195 64.0729869,95.7681319 C66.0648933,95.3278435 67.3265712,96.3184914 67.8580206,98.7400746 L67.8580206,112.673362 L130.469865,82.5594953 L146.073131,89.4940292" id="Path-234" stroke="#D5CEE6" stroke-width="1.17700008"></path>
                        <polygon id="Path" stroke="#D5CEE6" stroke-width="1.17700008" fill="#F8F8FD" fill-rule="nonzero" points="146.80088 42.9354263 139.664033 40.623915 139.664033 31.0476537 138.336096 26.0944151 137.008158 31.0476537 137.008158 39.6332672 134.684268 38.9728355 134.684268 17.8390175 132.360376 13.2159948 130.368471 17.8390175 130.368471 38.9728355 130.368471 82.8565973 146.80088 90.2887549"></polygon>
                        <path d="M146.073131,52.179632 L135.449631,48.5472571 L130.13788,48.2170411 L31.3193398,95.2606022 M25.8947823,97.7494268 L5.97571899,107.325688 M5.97571899,115.581086 L25.8947823,106.004824 M31.1562837,103.630092 L130.13788,55.812007 L135.449631,55.812007 L146.073131,59.7745978" id="Path-235" stroke="#D5CEE6" stroke-width="1.17700008"></path>
                        <polyline id="Path-236" stroke="#D5CEE6" stroke-width="1.17700008" points="24.8988291 37.3199163 22.5749384 31.37603 20.2510477 39.3012117 15.1052897 20.1486892 11.6194536 43.2638026 8.63159409 36.6594844 6.30770338 45.9055298"></polyline>
                        <path d="M31.2065325,76.615609 L41.3294118,71.7041189 M44.6857775,70.0785161 L55.1247645,65.0225574 M58.0232557,63.6187188 L66.9964801,59.272679 M69.8652844,57.8832189 L78.8385088,53.5371791 M81.6371402,52.1817061 L91.3631814,47.4710513 M93.9826167,46.202369 L102.841971,41.9114805 M105.541696,40.6039112 L114.354652,36.3354951 M116.770312,35.165508 L125.107332,31.127604 M127.710585,29.8667595 L130.548809,28.4921105 M134.823116,27.5478427 L137.961524,28.6157893 M139.396247,29.1040009 L146.073131,31.37603" id="Path-237" stroke="#D5CEE6" stroke-width="1.17700008"></path>
                        <path d="M31.2065325,85.8616543 L31.2065325,95.4379154" id="Path-238" stroke="#D5CEE6" stroke-width="1.17700008"></path>
                        <path d="M31.2065325,94.4472676 L31.2065325,130.771018" id="Path-238" stroke="#D5CEE6" stroke-width="1.17700008"></path>
                        <path d="M5.97571899,143.649438 L4.97976582,46.5659616" id="Path-239" stroke="#D5CEE6" stroke-width="1.17700008"></path>
                        <path d="M25.8947823,36.9897004 L25.8947823,97.7494268" id="Path-240" stroke="#D5CEE6" stroke-width="1.17700008"></path>
                        <path d="M25.8947823,97.0889954 L25.9777784,133.412745" id="Path-241" stroke="#D5CEE6" stroke-width="1.17700008"></path>
                    </g>
                    <g id="Group-8" transform="translate(83.863084, 223.092978) scale(-1, 1) translate(-83.863084, -223.092978) translate(0.240862, 151.238885)" stroke="#D5CEE6" stroke-width="1.17700008">
                        <polyline id="Path-234" fill="#F8F8FD" fill-rule="nonzero" points="166.656163 42.5978518 160.34846 40.2863405 160.34846 30.7100792 159.020522 25.7568407 157.692585 30.7100792 157.692585 39.2956928 155.368693 38.635261 155.368693 17.501443 153.044803 12.8784203 151.052897 17.501443 151.052897 38.635261 148.141145 40.0107331 148.141145 30.0496474 146.73248 22.5142928 145.639253 30.0496474 145.639253 41.192593 137.365171 45.1011575 137.365171 34.9388766 135.940574 27.6122436 135.022183 34.9388766 135.022183 46.2079537 126.059964 50.441585 126.059964 40.6165564 124.573425 32.8251063 123.483292 40.6165564 123.483292 51.6587699 114.690715 55.8122648 114.690715 46.2079537 113.440371 38.2410357 111.96857 46.2302268 111.96857 57.0981694 102.295037 61.6678159 102.295037 51.6587699 100.673491 44.1151126 99.3642523 51.6587699 99.3642523 63.0522792 90.3786293 67.2969663 90.3786293 57.0981694 88.8132284 49.7177406 87.4480398 57.0981694 87.4480398 68.681337 78.4934595 72.9113599 78.4934595 63.2630323 76.9729432 55.4677566 75.4524269 63.2630323 75.4524269 74.3479027 65.1238278 79.2269936 65.1238278 68.6034598 63.4090182 61.4201584 61.8156271 68.6034598 61.8156271 80.7897429 51.7895646 85.5259193 51.7895646 22.4546816 48.8017051 9.57626126 46.4778143 22.4546816 46.430388 38.7410405 43.1138149 30.7100792 40.6263851 38.2410357 35.6515254 19.7430479 32.3349523 42.5978518 29.0183792 35.4370418 26.5309494 47.0010372 25.5627979 46.2302268 25.5627979 37.3143974 25.8947823 143.643919 80.8112381 116.04927 80.8112381 100.715851 88.4410525 96.7532604 88.4410525 112.337627 151.052897 82.2237605 166.656163 89.1582942"></polyline>
                        <polygon id="Rectangle-28" points="28.965229 124.746821 28.965229 135.711381 34.7757735 132.821586 34.7757735 121.857024"></polygon>
                        <polygon id="Rectangle-28" points="37.5968232 120.454014 37.5968232 131.418575 43.4073676 128.528779 43.4073676 117.564218"></polygon>
                        <polygon id="Rectangle-28" points="28.6332447 70.261196 28.6332447 81.2257574 34.4437891 78.3359616 34.4437891 67.3714001"></polygon>
                        <polygon id="Rectangle-28" points="37.5968232 65.9683892 37.5968232 76.9329506 43.4073676 74.0431548 43.4073676 63.0785934"></polygon>
                        <polygon id="Rectangle-28" points="28.6332447 88.7532867 28.6332447 99.7178484 34.4437891 96.8280522 34.4437891 85.8634905"></polygon>
                        <polygon id="Rectangle-28" points="37.5968232 84.4604797 37.5968232 95.4250414 43.4073676 92.5352452 43.4073676 81.5706841"></polygon>
                        <path d="M28.6332447,52.5555459 L28.6332447,63.7243144 L34.4437891,60.8345185 L34.4437891,49.3121707 C33.6300722,47.9253142 32.6895536,47.5310631 31.505643,48.0280945 C30.2381045,48.5602347 29.2689593,50.0566671 28.6332447,52.5555459 Z" id="Rectangle-28"></path>
                        <path d="M37.5968232,48.4013273 L37.5968232,59.5700958 L43.4073676,56.6802999 L43.4073676,45.1579522 C42.5936507,43.7710956 41.653132,43.3768444 40.4692215,43.8738759 C39.201683,44.4060161 38.2325378,45.9024485 37.5968232,48.4013273 Z" id="Rectangle-28"></path>
                        <path d="M166.656163,51.8438972 L156.032662,48.2115222 L150.720913,47.8813063 L51.9023719,94.9248672 M46.4778143,97.4136918 L26.5587511,106.989954 M26.5587511,115.245351 L46.4778143,105.66909 M51.7393158,103.294357 L150.720913,55.4762721 L156.032662,55.4762721 L166.656163,59.438863" id="Path-235"></path>
                        <path d="M46.4778143,36.6539655 L46.4778143,97.4136918" id="Path-240"></path>
                        <path d="M46.4778143,96.7532604 L46.5608104,133.07701" id="Path-241"></path>
                        <path d="M46.4778143,31.3705111 L37.877526,27.6832375 M34.6703383,26.3081931 L27.2227198,23.1151134 L22.242954,-9.09494702e-13 L18.9231101,23.1151134 L11.7756296,26.3580003 M8.6773055,27.7637424 L0,31.700727" id="Path-243"></path>
                    </g>
                    <g id="Group-11" transform="translate(149.226165, 194.166952)" stroke="#D5CEE6" stroke-width="1.17700008">
                        <polygon id="Rectangle-28" points="0.746556026 81.8187527 0.746556026 92.7833144 6.55710051 89.8935182 6.55710051 78.9289568"></polygon>
                        <polygon id="Rectangle-28" points="40.5846827 62.6662302 40.5846827 73.6307915 46.3952271 70.7409957 46.3952271 59.7764343"></polygon>
                        <polygon id="Rectangle-28" points="9.37815013 77.5259459 9.37815013 88.4905073 15.1886946 85.6007111 15.1886946 74.6361501"></polygon>
                        <polygon id="Rectangle-28" points="0.414571638 27.3331282 0.414571638 38.2976897 6.22511613 35.4078938 6.22511613 24.4433324"></polygon>
                        <polygon id="Rectangle-28" points="9.37815013 23.0403214 9.37815013 34.0048829 15.1886946 31.115087 15.1886946 20.1505256"></polygon>
                        <polygon id="Rectangle-28" points="0.414571638 45.825219 0.414571638 56.7897804 6.22511613 53.8999846 6.22511613 42.9354231"></polygon>
                        <polygon id="Rectangle-28" points="9.37815013 41.5324122 9.37815013 52.4969736 15.1886946 49.6071778 15.1886946 38.6426163"></polygon>
                        <path d="M0.414571638,9.6274782 L0.414571638,20.7962467 L6.22511613,17.9064508 L6.22511613,6.38410306 C5.41139924,4.99724651 4.47088057,4.60299536 3.28696998,5.10002679 C2.01943155,5.63216702 1.05028633,7.12859935 0.414571638,9.6274782 Z" id="Rectangle-28"></path>
                        <path d="M9.37815013,5.47325959 L9.37815013,16.642028 L15.1886946,13.7522322 L15.1886946,2.22988442 C14.3749778,0.843027881 13.4344591,0.448776726 12.2505484,0.94580816 C10.98301,1.47794838 10.0138648,2.97438071 9.37815013,5.47325959 Z" id="Rectangle-28"></path>
                        <polygon id="Rectangle-28" points="28.6332447 68.6101165 28.6332447 79.5746778 34.4437891 76.684882 34.4437891 65.7203206"></polygon>
                        <polygon id="Rectangle-28" points="65.8154961 50.4482416 65.8154961 61.4128031 71.6260406 58.5230072 71.6260406 47.5584458"></polygon>
                        <polygon id="Rectangle-28" points="78.7628872 44.1741394 78.7628872 55.1387008 84.5734316 52.248905 84.5734316 41.2843436"></polygon>
                        <polygon id="Rectangle-28" points="91.3782942 38.2302532 91.3782942 49.1948145 97.1888382 46.3050187 97.1888382 35.3404573"></polygon>
                        <polygon id="Rectangle-28" points="102.665763 32.6165827 102.665763 43.5811441 108.476308 40.6913483 108.476308 29.7267869"></polygon>
                        <polygon id="Rectangle-28" points="115.613155 26.3424805 115.613155 37.3070419 121.423699 34.4172461 121.423699 23.4526847"></polygon>
                        <polygon id="Rectangle-28" transform="translate(131.133834, 30.710079) scale(-1, 1) translate(-131.133834, -30.710079) " points="128.228562 26.6726965 128.228562 37.6372578 134.039106 34.747462 134.039106 23.7829006"></polygon>
                    </g>
                    <g id="Group-7" transform="translate(283.514668, 0.000000)" stroke="#D5CEE6" stroke-width="1.17700008">
                        <g id="Group-6" transform="translate(27.387894, 0.000000)">
                            <polyline id="Path-223" points="13.2135775 54.5552722 0 59.7690789 0 57.1273516 11.3897846 52.9631672"></polyline>
                            <polyline id="Path-223" points="12.247414 41.8111678 0 46.2302268 0 44.9093632 11.951438 40.6165564"></polyline>
                            <path d="M21.5789852,86.1863515 L21.5789852,111.612976" id="Path-226"></path>
                            <polygon id="Path-226" points="0.331984388 120.19859 0.331984388 93.5646126 1.65992194 92.3400623 0.995953163 91.4216489 2.32389072 90.8093742 3.65182827 91.4216489 2.9878595 92.3400623 4.31579705 93.5646126 4.31579705 118.667902"></polygon>
                            <path d="M7.45927212,108.051 L15.1156663,103.28718" id="Path-227"></path>
                            <path d="M18.9231101,122.179885 L18.9231101,243.369122" id="Path-230"></path>
                            <path d="M4.64778143,121.024129 L4.64778143,129.114419" id="Path-231"></path>
                            <path d="M7.30365654,119.703266 L7.30365654,127.793555" id="Path-231"></path>
                            <path d="M9.62754723,118.712618 L9.62754723,126.472692" id="Path-231"></path>
                            <path d="M11.951438,118.052187 L11.951438,125.482044" id="Path-231"></path>
                            <path d="M14.2753287,117.061539 L14.2753287,124.491397" id="Path-231"></path>
                            <path d="M16.5992194,116.070891 L16.5992194,123.170533" id="Path-231"></path>
                            <path d="M18.5911257,115.410459 L18.5911257,122.510101" id="Path-231"></path>
                            <path d="M20.5830321,114.419812 L20.5830321,121.519453" id="Path-231"></path>
                            <polyline id="Path-232" points="0 149.257589 3.98381266 147.276294 3.98381266 146.615862 18.9231101 139.681328 18.9231101 140.34176 22.5749384 138.690681"></polyline>
                            <polyline id="Path-232" points="0 155.531691 3.98381266 153.550396 3.98381266 152.889964 18.9231101 145.95543 18.9231101 146.615862 22.5749384 144.964782"></polyline>
                            <polyline id="Path-232" points="0 181.288532 3.98381266 179.307237 3.98381266 178.646805 18.9231101 171.712271 18.9231101 172.372703 22.5749384 170.721623"></polyline>
                            <polyline id="Path-232" points="0 175.344646 3.98381266 173.36335 3.98381266 172.702919 18.9231101 165.768385 18.9231101 166.428817 22.5749384 164.777737"></polyline>
                            <polyline id="Path-232" points="0 208.03602 3.98381266 206.054725 3.98381266 205.394293 18.9231101 198.129544 18.9231101 198.789975 22.5749384 197.138896"></polyline>
                            <polyline id="Path-232" points="0 202.092134 3.98381266 200.110838 3.98381266 199.450407 18.9231101 192.185657 18.9231101 192.846089 22.5749384 191.19501"></polyline>
                            <polyline id="Path-232" points="0 232.471997 3.98381266 230.490702 3.98381266 229.83027 18.9231101 222.565521 18.9231101 223.225952 22.5749384 221.574873"></polyline>
                            <polyline id="Path-232" points="0 226.528111 3.98381266 224.546816 3.98381266 223.886384 18.9231101 216.621634 18.9231101 217.282066 22.5749384 215.630987"></polyline>
                            <path d="M8.96357849,248.652577 L8.96357849,126.802908" id="Path-233"></path>
                            <path d="M13.9433443,246.341066 L13.9433443,124.491397" id="Path-233"></path>
                            <path d="M3.98381266,129.114419 L3.98381266,250.79898" id="Path-230"></path>
                            <path d="M5.31175022,24.1057611 C6.53522557,28.3651137 8.96977775,34.1989281 12.6154067,41.6072041 L11.2874692,42.2676359 L11.2874692,52.8345449 L13.2793755,53.1647608 L13.2793755,54.4856244 L11.951438,55.1460562 C13.5999756,58.940076 14.9279132,61.8019471 15.9352506,63.7316698 C16.9425881,65.6613924 18.60251,68.4131916 20.9150165,71.9870674 L22.5749384,73.307931 L21.9109696,73.9683629 L21.9109696,85.5259193 L22.9069228,83.8748401 L22.5749384,83.214408 L23.5708916,82.5539764 L24.5668447,83.214408 L24.2348603,83.8748401 L25.2308135,85.5259193 L25.2308135,110.622329 L26.5587511,110.622329 L26.5587511,111.943192 L24.8988291,112.603623 L24.8988291,119.538157 L22.9069228,120.528805 L22.9069228,242.048259 L1.65992194,251.954736 L0,250.303656 L0,130.435283 L1.32793755,130.435283 L0.995953163,122.510101 L1.99190633,121.849669 L1.99190633,120.528805 L0,120.528805 L0,78.2611696 L0,0 C2.31769145,11.8111548 4.08827486,19.8464085 5.31175022,24.1057611 Z" id="Path-222"></path>
                            <polygon id="Path-224" points="0.663968777 120.19859 24.5668447 110.622329 26.5587511 110.622329 26.5587511 111.943192 2.32389072 121.849669 2.32389072 120.19859"></polygon>
                            <polyline id="Path-225" points="1.32793755 130.435283 22.5749384 120.528805 22.5749384 113.594271"></polyline>
                            <path d="M21.9109696,85.8561358 L4.31579705,93.7813169 L4.31579705,81.5633287 M6.63968777,80.5726809 L6.63968777,92.1302377 L7.96762532,91.4698056 L7.96762532,79.9122491 M10.291516,78.9216014 L10.291516,90.4791585 L11.6194536,89.8187264 L11.6194536,78.5913855 M13.2793755,77.6007378 L13.2793755,89.1582942 L14.6073131,88.4978629 L14.6073131,77.2705219 M16.267235,76.2798742 L16.267235,87.8374307 L17.5951726,87.1769993 L17.5951726,75.9496583 M18.9231101,75.2892265 L18.9231101,86.5165672" id="Path-229"></path>
                            <polyline id="Path-223" points="22.5749384 73.638147 0 83.5446245 0 81.2331128 20.5830321 71.9870674"></polyline>
                            <ellipse id="Oval-8" transform="translate(13.279376, 104.183118) rotate(4.000000) translate(-13.279376, -104.183118) " cx="13.2793755" cy="104.183118" rx="7.30365654" ry="10.0715851"></ellipse>
                            <ellipse id="Oval-8" transform="translate(13.279376, 104.183118) rotate(4.000000) translate(-13.279376, -104.183118) " cx="13.2793755" cy="104.183118" rx="3.65182827" ry="5.11834653"></ellipse>
                            <polygon id="Path-222" points="4.31579705 97.0834761 21.5789852 89.1582942 21.5789852 111.612976 4.31579705 118.54751"></polygon>
                        </g>
                        <g id="Group-6" transform="translate(13.843450, 126.369362) scale(-1, 1) translate(-13.843450, -126.369362) translate(0.299005, 0.330216)">
                            <path d="M5.31175022,23.7755452 C6.53522557,28.0348978 8.96977775,33.8687121 12.6154067,41.2769882 L11.2874692,41.93742 L11.2874692,52.504329 L13.2793755,52.8345449 L13.2793755,54.1554085 L11.951438,54.8158404 C13.5999756,58.6098601 14.9279132,61.4717312 15.9352506,63.4014539 C16.9425881,65.3311765 18.60251,68.0829757 20.9150165,71.6568515 L22.5749384,72.9777151 L21.9109696,73.638147 L21.9109696,85.1957037 L22.9069228,83.5446245 L22.5749384,82.8841923 L23.5708916,82.2237605 L24.5668447,82.8841923 L24.2348603,83.5446245 L25.2308135,85.1957037 L25.2308135,110.292112 L26.5587511,110.292112 L26.5587511,111.612976 L24.8988291,112.273408 L24.8988291,119.207942 L22.9069228,120.19859 L22.9069228,241.718043 L1.65992194,251.62452 L0,249.97344 L0,130.105066 L1.32793755,130.105066 L0.995953163,122.179885 L1.99190633,121.519453 L1.99190633,120.19859 L0,120.19859 L0,77.9309538 L0,0 C2.31769145,11.5910108 4.08827486,19.5161926 5.31175022,23.7755452 Z" id="Path-222" fill="#F8F8FD" fill-rule="nonzero"></path>
                            <polyline id="Path-223" points="13.2135775 54.2250563 0 59.438863 0 56.7971358 11.3897846 52.6329513"></polyline>
                            <polyline id="Path-223" points="12.247414 41.4809518 -4.4408921e-16 45.9000109 -4.4408921e-16 44.5791473 11.951438 40.2863405"></polyline>
                            <path d="M21.5789852,85.8561358 L21.5789852,111.28276" id="Path-226"></path>
                            <polygon id="Path-226" points="0.331984388 119.868374 0.331984388 93.2343969 1.65992194 92.0098466 0.995953163 91.0914333 2.32389072 90.4791585 3.65182827 91.0914333 2.9878595 92.0098466 4.31579705 93.2343969 4.31579705 118.337685"></polygon>
                            <path d="M11.1110996,108.051 L18.7674938,103.28718" id="Path-227" transform="translate(14.939297, 105.669090) scale(-1, 1) translate(-14.939297, -105.669090) "></path>
                            <path d="M18.9231101,121.849669 L18.9231101,243.038906" id="Path-230"></path>
                            <path d="M4.64778143,120.693914 L4.64778143,128.784203" id="Path-231"></path>
                            <path d="M7.30365654,119.37305 L7.30365654,127.463339" id="Path-231"></path>
                            <path d="M9.62754723,118.382402 L9.62754723,126.142476" id="Path-231"></path>
                            <path d="M11.951438,117.72197 L11.951438,125.151828" id="Path-231"></path>
                            <path d="M14.2753287,116.731322 L14.2753287,124.16118" id="Path-231"></path>
                            <path d="M16.5992194,115.740675 L16.5992194,122.840317" id="Path-231"></path>
                            <path d="M18.5911257,115.080243 L18.5911257,122.179885" id="Path-231"></path>
                            <path d="M20.5830321,114.089595 L20.5830321,121.189238" id="Path-231"></path>
                            <polyline id="Path-232" points="0 148.927374 3.98381266 146.946078 3.98381266 146.285646 18.9231101 139.351112 18.9231101 140.011544 22.5749384 138.360465"></polyline>
                            <polyline id="Path-232" points="0 155.201476 3.98381266 153.22018 3.98381266 152.559749 18.9231101 145.625215 18.9231101 146.285646 22.5749384 144.634567"></polyline>
                            <polyline id="Path-232" points="0 180.958316 3.98381266 178.977021 3.98381266 178.316589 18.9231101 171.382055 18.9231101 172.042487 22.5749384 170.391407"></polyline>
                            <polyline id="Path-232" points="0 175.01443 3.98381266 173.033134 3.98381266 172.372703 18.9231101 165.438169 18.9231101 166.0986 22.5749384 164.447521"></polyline>
                            <polyline id="Path-232" points="0 207.705805 3.98381266 205.724509 3.98381266 205.064078 18.9231101 197.799327 18.9231101 198.459759 22.5749384 196.80868"></polyline>
                            <polyline id="Path-232" points="0 201.761918 3.98381266 199.780623 3.98381266 199.120191 18.9231101 191.855441 18.9231101 192.515873 22.5749384 190.864793"></polyline>
                            <polyline id="Path-232" points="0 232.141782 3.98381266 230.160486 3.98381266 229.500055 18.9231101 222.235304 18.9231101 222.895736 22.5749384 221.244657"></polyline>
                            <polyline id="Path-232" points="0 226.197896 3.98381266 224.2166 3.98381266 223.556168 18.9231101 216.291418 18.9231101 216.95185 22.5749384 215.30077"></polyline>
                            <path d="M8.96357849,248.322361 L8.96357849,126.472692" id="Path-233"></path>
                            <path d="M13.9433443,246.01085 L13.9433443,124.16118" id="Path-233"></path>
                            <path d="M3.98381266,128.784203 L3.98381266,250.468764" id="Path-230"></path>
                            <polygon id="Path-224" points="0.663968777 119.868374 24.5668447 110.292112 26.5587511 110.292112 26.5587511 111.612976 2.32389072 121.519453 2.32389072 119.868374"></polygon>
                            <polyline id="Path-225" points="1.32793755 130.105066 22.5749384 120.19859 22.5749384 113.264056"></polyline>
                            <path d="M21.9109696,85.5259193 L4.31579705,93.4511012 L4.31579705,81.2331128 M6.63968777,80.242465 L6.63968777,91.8000221 L7.96762532,91.1395899 L7.96762532,79.5820333 M10.291516,78.5913855 L10.291516,90.148942 L11.6194536,89.4885107 L11.6194536,78.2611696 M13.2793755,77.2705219 L13.2793755,88.8280785 L14.6073131,88.1676472 L14.6073131,76.940306 M16.267235,75.9496583 L16.267235,87.507215 L17.5951726,86.8467828 L17.5951726,75.6194424 M18.9231101,74.9590106 L18.9231101,86.1863515" id="Path-229"></path>
                            <polyline id="Path-223" points="22.5749384 73.307931 0 83.214408 0 80.9028969 20.5830321 71.6568515"></polyline>
                            <ellipse id="Oval-8" transform="translate(13.279376, 103.852902) rotate(4.000000) translate(-13.279376, -103.852902) " cx="13.2793755" cy="103.852902" rx="7.30365654" ry="10.0715851"></ellipse>
                            <ellipse id="Oval-8" transform="translate(13.279376, 103.852902) rotate(4.000000) translate(-13.279376, -103.852902) " cx="13.2793755" cy="103.852902" rx="3.65182827" ry="5.11834653"></ellipse>
                            <polygon id="Path-222" points="4.31579705 96.7532604 21.5789852 88.8280785 21.5789852 111.28276 4.31579705 118.217294"></polygon>
                        </g>
                    </g>
                </g>
                <polyline id="Path-4" stroke="#D5CEE6" stroke-width="1.17700008" points="223.039541 147.027942 223.039541 194.935923 217.235538 192.457924"></polyline>
                <g id="Group-2" transform="translate(160.024652, 118.117953)" stroke="#D5CEE6" stroke-width="1.17700008">
                    <polyline id="Path-5" fill="#F8F8FD" fill-rule="nonzero" points="290.200146 90.0339645 225.526971 65.2539743 225.526971 68.557973 288.54186 92.5119636"></polyline>
                    <polygon id="Path-5" fill="#F8F8FD" fill-rule="nonzero" points="210.538423 59.3839277 174.120088 45.4299821 174.120088 48.7339808 210.538423 62.7759753"></polygon>
                    <polygon id="Path-5" fill="#F8F8FD" fill-rule="nonzero" points="127.945024 27.5470605 107.788626 19.8239922 107.788626 23.1279909 127.983289 30.9145454"></polygon>
                    <polyline id="Path-5" fill="#F8F8FD" fill-rule="nonzero" points="55.5525994 3.3039987 92.3301283 16.872551 92.2918633 13.505066 92.2918633 13.505066 55.5525994 0"></polyline>
                    <path d="M78.7686111,36.3439857 L112.407484,49.6377387 M116.198258,51.1358151 L127.825173,55.730658 M173.903234,73.9402556 L197.281955,83.1792972 M230.339898,96.2434724 L279.421284,115.639954" id="Path-6"></path>
                    <path d="M42.286307,142.897944 L64.3968998,154.498327 L106.959483,132.985948 L137.504268,147.538937 C142.30237,149.824981 147.886148,149.801024 152.664305,147.473892 L182.411521,132.985948" id="Path-7"></path>
                    <polyline id="Path-8" points="41.4571638 148.679941 58.0400293 156.939938 0 185.849927"></polyline>
                </g>
            </g>
            <g id="grads" transform="translate(0.000000, 58.896797)">
                <rect id="Rectangle-28-Copy" fill="url(#linearGradient-1)" fill-rule="nonzero" transform="translate(500.278175, 172.495118) rotate(-113.000000) translate(-500.278175, -172.495118) " x="426.759273" y="91.1233852" width="147.037804" height="162.743466"></rect>
                <path d="M287.584913,0.941341002 C283.978867,5.66974656 281.889546,10.0931082 281.316949,14.2114259 C274.827385,60.8866539 283.059182,97.4412044 265.091231,86.9795721 C246.949847,76.4169604 234.119276,62.3658164 226.599516,44.8261399 L235.298602,22.0735131 L247.601263,17.1012373 L287.584913,0.941341002 Z" id="Rectangle-28-Copy-2" fill="url(#linearGradient-2)" fill-rule="nonzero" transform="translate(257.092214, 44.860623) rotate(112.000000) translate(-257.092214, -44.860623) "></path>
                <rect id="Rectangle-17" fill="url(#linearGradient-3)" x="0" y="89.1032028" width="147" height="169"></rect>
            </g>
        </g>
    </g>
</svg>