<?xml version="1.0" encoding="UTF-8"?>
<svg width="940px" height="81px" viewBox="0 0 940 81" version="1.1" xmlns="http://www.w3.org/2000/svg" xmlns:xlink="http://www.w3.org/1999/xlink">
    <!-- Generator: Sketch 48.1 (47250) - http://www.bohemiancoding.com/sketch -->
    <title>line-12 000 000</title>
    <desc>Created with Sketch.</desc>
    <defs></defs>
    <g id="майлстоун-3-copy" stroke="none" stroke-width="1" fill="none" fill-rule="evenodd" transform="translate(-180.000000, -144.000000)">
        <g id="Group-9" transform="translate(0.000000, 144.000000)">
            <g id="line-12-000-000" transform="translate(180.000000, 0.000000)">
                <path d="M20,45 L909.797858,45" id="Line" stroke="#4C3092" stroke-width="1.88999986" stroke-linecap="square"></path>
                <g id="Group-6" transform="translate(13.000000, 34.000000)" fill="#4C3092">
                    <ellipse id="Oval-3-Copy-2" opacity="0.049999997" cx="10.4005805" cy="10.5" rx="10.4005805" ry="10.5"></ellipse>
                    <ellipse id="Oval-3" opacity="0.100000001" cx="10.4005805" cy="10.5" rx="8.00044657" ry="8.07692308"></ellipse>
                    <ellipse id="Oval-3-Copy" cx="10.4005805" cy="10.5" rx="4.80026794" ry="4.84615385"></ellipse>
                </g>
                <path d="M12.1275997,77.3864001 L12.1275997,80 L1.65339998,80 L1.65339998,77.9210001 L6.99939984,72.8720002 C7.56700266,72.3307975 7.94979883,71.8655022 8.14779981,71.4761002 C8.3458008,71.0866983 8.4447998,70.7006022 8.4447998,70.3178003 C8.4447998,69.7633975 8.25670169,69.3377018 7.88049982,69.0407003 C7.50429795,68.7436988 6.95320347,68.5952003 6.22719986,68.5952003 C5.61999684,68.5952003 5.07220233,68.7106991 4.58379991,68.9417003 C4.09539748,69.1727014 3.68620158,69.519198 3.35619994,69.9812003 L1.0198,68.4764003 C1.56100269,67.6711963 2.30679521,67.0409026 3.25719994,66.5855004 C4.20760467,66.1300981 5.29659375,65.9024004 6.52419985,65.9024004 C7.55380497,65.9024004 8.45469594,66.0706987 9.22689978,66.4073004 C9.99910362,66.743902 10.5996976,67.2190973 11.0286997,67.8329003 C11.4577019,68.4467034 11.6721997,69.1693961 11.6721997,70.0010003 C11.6721997,70.753404 11.5138013,71.4595969 11.1969997,72.1196002 C10.8801982,72.7796035 10.2664043,73.5319959 9.35559978,74.3768001 L6.16779986,77.3864001 L12.1275997,77.3864001 Z M19.3545995,80.2376 C18.2061938,80.2376 17.1832041,79.9538028 16.2855996,79.3862 C15.3879951,78.8185972 14.6851022,77.9969054 14.1768997,76.9211001 C13.6686971,75.8452947 13.4145997,74.5616076 13.4145997,73.0700002 C13.4145997,71.5783928 13.6686971,70.2947056 14.1768997,69.2189003 C14.6851022,68.1430949 15.3879951,67.3214032 16.2855996,66.7538004 C17.1832041,66.1861975 18.2061938,65.9024004 19.3545995,65.9024004 C20.5030052,65.9024004 21.525995,66.1861975 22.4235994,66.7538004 C23.3212039,67.3214032 24.0240968,68.1430949 24.5322994,69.2189003 C25.0405019,70.2947056 25.2945994,71.5783928 25.2945994,73.0700002 C25.2945994,74.5616076 25.0405019,75.8452947 24.5322994,76.9211001 C24.0240968,77.9969054 23.3212039,78.8185972 22.4235994,79.3862 C21.525995,79.9538028 20.5030052,80.2376 19.3545995,80.2376 Z M19.3545995,77.5250001 C20.1994037,77.5250001 20.8626971,77.1620037 21.3444995,76.4360001 C21.8263019,75.7099965 22.0671994,74.5880077 22.0671994,73.0700002 C22.0671994,71.5519926 21.8263019,70.4300039 21.3444995,69.7040003 C20.8626971,68.9779967 20.1994037,68.6150003 19.3545995,68.6150003 C18.5229954,68.6150003 17.866302,68.9779967 17.3844996,69.7040003 C16.9026972,70.4300039 16.6617996,71.5519926 16.6617996,73.0700002 C16.6617996,74.5880077 16.9026972,75.7099965 17.3844996,76.4360001 C17.866302,77.1620037 18.5229954,77.5250001 19.3545995,77.5250001 Z M32.0859992,66.1400004 L32.0859992,80 L28.8783993,80 L28.8783993,68.7140003 L26.1063993,68.7140003 L26.1063993,66.1400004 L32.0859992,66.1400004 Z M43.9857989,72.7136002 C44.6722023,73.0568019 45.196897,73.5055974 45.5598988,74.0600002 C45.9229006,74.6144029 46.1043988,75.2545965 46.1043988,75.9806001 C46.1043988,76.8386044 45.8602013,77.5876969 45.3717988,78.2279 C44.8833964,78.8681032 44.1970033,79.3630983 43.3125989,79.7129 C42.4281945,80.0627017 41.4052047,80.2376 40.243599,80.2376 C39.0819932,80.2376 38.0623034,80.0627017 37.184499,79.7129 C36.3066947,79.3630983 35.6269015,78.8681032 35.1450991,78.2279 C34.6632967,77.5876969 34.4223991,76.8386044 34.4223991,75.9806001 C34.4223991,75.2545965 34.6038973,74.6144029 34.9668991,74.0600002 C35.3299009,73.5055974 35.8479957,73.0568019 36.5211991,72.7136002 C36.0063965,72.3967986 35.6104005,71.9975026 35.3331991,71.5157002 C35.0559977,71.0338978 34.9173991,70.4828034 34.9173991,69.8624003 C34.9173991,69.0571963 35.1417969,68.3576033 35.5905991,67.7636003 C36.0394013,67.1695974 36.666395,66.710902 37.471599,66.3875004 C38.276803,66.0640988 39.2007938,65.9024004 40.243599,65.9024004 C41.2996042,65.9024004 42.2334948,66.0640988 43.0452989,66.3875004 C43.8571029,66.710902 44.4873966,67.1695974 44.9361988,67.7636003 C45.3850011,68.3576033 45.6093988,69.0571963 45.6093988,69.8624003 C45.6093988,70.4828034 45.4708002,71.0338978 45.1935988,71.5157002 C44.9163975,71.9975026 44.5138015,72.3967986 43.9857989,72.7136002 Z M40.243599,68.2586003 C39.5967957,68.2586003 39.0787009,68.4136988 38.689299,68.7239003 C38.2998971,69.0341018 38.105199,69.4597976 38.105199,70.0010003 C38.105199,70.5290029 38.2965971,70.9447987 38.679399,71.2484002 C39.0622009,71.5520017 39.5835957,71.7038002 40.243599,71.7038002 C40.9036022,71.7038002 41.4315969,71.5520017 41.8275989,71.2484002 C42.2236009,70.9447987 42.4215989,70.5290029 42.4215989,70.0010003 C42.4215989,69.4597976 42.2236009,69.0341018 41.8275989,68.7239003 C41.4315969,68.4136988 40.9036022,68.2586003 40.243599,68.2586003 Z M40.243599,77.8814001 C41.048803,77.8814001 41.6856966,77.6999019 42.1542989,77.3369001 C42.6229012,76.9738983 42.8571989,76.4888031 42.8571989,75.8816001 C42.8571989,75.2743971 42.6229012,74.7926019 42.1542989,74.4362001 C41.6856966,74.0797984 41.048803,73.9016002 40.243599,73.9016002 C39.451595,73.9016002 38.8246013,74.0797984 38.362599,74.4362001 C37.9005967,74.7926019 37.669599,75.2743971 37.669599,75.8816001 C37.669599,76.5020032 37.9005967,76.9903983 38.362599,77.3468001 C38.8246013,77.7032018 39.451595,77.8814001 40.243599,77.8814001 Z" id="2018" fill="#4C3092"></path>
                <path d="M8.14520043,14.1800002 L8.14520043,23 L6.10400049,23 L6.10400049,19.3838001 L2.09720059,19.3838001 L2.09720059,23 L0.0560006475,23 L0.0560006475,14.1800002 L2.09720059,14.1800002 L2.09720059,17.6576001 L6.10400049,17.6576001 L6.10400049,14.1800002 L8.14520043,14.1800002 Z M13.3742003,23.1008 C12.6601967,23.1008 12.0197032,22.9517015 11.4527003,22.6535 C10.8856975,22.3552985 10.442602,21.9416027 10.1234004,21.4124 C9.80419879,20.8831974 9.64460039,20.2826034 9.64460039,19.6106001 C9.64460039,18.9385967 9.80419879,18.3380028 10.1234004,17.8088001 C10.442602,17.2795975 10.8856975,16.8659017 11.4527003,16.5677002 C12.0197032,16.2694987 12.6601967,16.1204002 13.3742003,16.1204002 C14.0882038,16.1204002 14.7265974,16.2694987 15.2894002,16.5677002 C15.852203,16.8659017 16.2931986,17.2795975 16.6124002,17.8088001 C16.9316018,18.3380028 17.0912002,18.9385967 17.0912002,19.6106001 C17.0912002,20.2826034 16.9316018,20.8831974 16.6124002,21.4124 C16.2931986,21.9416027 15.852203,22.3552985 15.2894002,22.6535 C14.7265974,22.9517015 14.0882038,23.1008 13.3742003,23.1008 Z M13.3742003,21.488 C13.8782028,21.488 14.2918987,21.3179017 14.6153003,20.9777001 C14.9387019,20.6374984 15.1004002,20.1818029 15.1004002,19.6106001 C15.1004002,19.0393972 14.9387019,18.5837018 14.6153003,18.2435001 C14.2918987,17.9032984 13.8782028,17.7332001 13.3742003,17.7332001 C12.8701978,17.7332001 12.454402,17.9032984 12.1268003,18.2435001 C11.7991987,18.5837018 11.6354003,19.0393972 11.6354003,19.6106001 C11.6354003,20.1818029 11.7991987,20.6374984 12.1268003,20.9777001 C12.454402,21.3179017 12.8701978,21.488 13.3742003,21.488 Z M24.248,16.2212002 L24.248,23 L22.4966001,23 L22.4966001,21.0596001 L21.0476001,21.0596001 L19.7624001,23 L17.6708002,23 L19.2206001,20.7824001 C18.7501978,20.5975991 18.3911014,20.3309018 18.1433002,19.9823001 C17.8954989,19.6336983 17.7716002,19.2116026 17.7716002,18.7160001 C17.7716002,17.9179961 18.0592973,17.3027023 18.6347002,16.8701002 C19.210103,16.437498 20.0017951,16.2212002 21.0098001,16.2212002 L24.248,16.2212002 Z M21.0476001,17.8214001 C20.627598,17.8214001 20.3105012,17.8969994 20.0963001,18.0482001 C19.8820991,18.1994009 19.7750001,18.4429984 19.7750001,18.7790001 C19.7750001,19.1150018 19.8778991,19.3606993 20.0837001,19.5161001 C20.2895011,19.6715009 20.602398,19.7492001 21.0224001,19.7492001 L22.4966001,19.7492001 L22.4966001,17.8214001 L21.0476001,17.8214001 Z M30.0565999,16.6874002 C30.7034031,16.6874002 31.2703974,16.8196988 31.7575998,17.0843002 C32.2448022,17.3489015 32.6206985,17.7205977 32.8852998,18.1994001 C33.1499011,18.6782025 33.2821998,19.2325969 33.2821998,19.8626001 C33.2821998,20.5094033 33.1247013,21.0826976 32.8096998,21.5825 C32.4946982,22.0823025 32.0558026,22.4686986 31.4929998,22.7417 C30.930197,23.0147014 30.2918034,23.1512 29.5777999,23.1512 C28.393394,23.1512 27.4631033,22.7711038 26.7868999,22.0109 C26.1106966,21.2506962 25.7726,20.1356074 25.7726,18.6656001 C25.7726,17.3047933 26.068697,16.2191042 26.6608999,15.4085002 C27.2531029,14.5978962 28.1623938,14.0666015 29.3887999,13.8146002 L32.6143998,13.1720003 L32.8789998,14.8604002 L30.0313999,15.4274002 C29.258596,15.578601 28.6853018,15.8305984 28.3114999,16.1834002 C27.937698,16.5362019 27.7172003,17.0359969 27.6499999,17.6828001 C27.9440014,17.3635986 28.2967978,17.117901 28.7083999,16.9457002 C29.1200019,16.7734993 29.5693974,16.6874002 30.0565999,16.6874002 Z M29.5903999,21.6266 C30.0944024,21.6266 30.4996983,21.4628017 30.8062998,21.1352 C31.1129014,20.8075984 31.2661998,20.3918026 31.2661998,19.8878001 C31.2661998,19.3753975 31.1129014,18.9680016 30.8062998,18.6656001 C30.4996983,18.3631986 30.0944024,18.2120001 29.5903999,18.2120001 C29.0779973,18.2120001 28.6664014,18.3631986 28.3555999,18.6656001 C28.0447984,18.9680016 27.8893999,19.3753975 27.8893999,19.8878001 C27.8893999,20.4002026 28.0489983,20.8180984 28.3681999,21.1415 C28.6874015,21.4649017 29.0947974,21.6266 29.5903999,21.6266 Z M38.6119996,16.1204002 C39.2420028,16.1204002 39.815297,16.2652987 40.3318996,16.5551002 C40.8485021,16.8449016 41.2537981,17.2522975 41.5477995,17.7773001 C41.841801,18.3023027 41.9887995,18.9133966 41.9887995,19.6106001 C41.9887995,20.3078036 41.841801,20.9188974 41.5477995,21.4439 C41.2537981,21.9689027 40.8485021,22.3762986 40.3318996,22.6661 C39.815297,22.9559015 39.2420028,23.1008 38.6119996,23.1008 C37.7467953,23.1008 37.0664021,22.8278027 36.5707997,22.2818 L36.5707997,25.4443999 L34.6051997,25.4443999 L34.6051997,16.2212002 L36.4825997,16.2212002 L36.4825997,17.0024002 C36.9698021,16.4143972 37.679595,16.1204002 38.6119996,16.1204002 Z M38.2717996,21.488 C38.7758021,21.488 39.189498,21.3179017 39.5128996,20.9777001 C39.8363012,20.6374984 39.9979996,20.1818029 39.9979996,19.6106001 C39.9979996,19.0393972 39.8363012,18.5837018 39.5128996,18.2435001 C39.189498,17.9032984 38.7758021,17.7332001 38.2717996,17.7332001 C37.7677971,17.7332001 37.3541013,17.9032984 37.0306997,18.2435001 C36.7072981,18.5837018 36.5455997,19.0393972 36.5455997,19.6106001 C36.5455997,20.1818029 36.7072981,20.6374984 37.0306997,20.9777001 C37.3541013,21.3179017 37.7677971,21.488 38.2717996,21.488 Z M47.0287994,18.3884001 C47.9108038,18.3968002 48.586997,18.5962982 49.0573993,18.9869001 C49.5278017,19.377502 49.7629993,19.9297965 49.7629993,20.6438001 C49.7629993,21.3914038 49.500502,21.9730979 48.9754994,22.3889 C48.4504967,22.8047021 47.7134041,23.0126 46.7641994,23.0126 L43.3621995,23 L43.3621995,16.2212002 L45.3151994,16.2212002 L45.3151994,18.3884001 L47.0287994,18.3884001 Z M46.5877994,21.614 C46.9658013,21.6224001 47.2555984,21.5426009 47.4571994,21.3746 C47.6588004,21.2065992 47.7595994,20.9546017 47.7595994,20.6186001 C47.7595994,20.2909984 47.6609004,20.0516008 47.4634994,19.9004001 C47.2660984,19.7491993 46.9742013,19.6694001 46.5877994,19.6610001 L45.3151994,19.6484001 L45.3151994,21.614 L46.5877994,21.614 Z" id="Ноябрь" fill="#4C3092"></path>
                <path d="M897.1276,77.3864001 L897.1276,80 L886.6534,80 L886.6534,77.9210001 L891.9994,72.8720002 C892.567003,72.3307975 892.949799,71.8655022 893.1478,71.4761002 C893.345801,71.0866983 893.4448,70.7006022 893.4448,70.3178003 C893.4448,69.7633975 893.256702,69.3377018 892.8805,69.0407003 C892.504298,68.7436988 891.953203,68.5952003 891.2272,68.5952003 C890.619997,68.5952003 890.072202,68.7106991 889.5838,68.9417003 C889.095397,69.1727014 888.686202,69.519198 888.3562,69.9812003 L886.0198,68.4764003 C886.561003,67.6711963 887.306795,67.0409026 888.2572,66.5855004 C889.207605,66.1300981 890.296594,65.9024004 891.5242,65.9024004 C892.553805,65.9024004 893.454696,66.0706987 894.2269,66.4073004 C894.999104,66.743902 895.599698,67.2190973 896.0287,67.8329003 C896.457702,68.4467034 896.6722,69.1693961 896.6722,70.0010003 C896.6722,70.753404 896.513801,71.4595969 896.197,72.1196002 C895.880198,72.7796035 895.266404,73.5319959 894.3556,74.3768001 L891.1678,77.3864001 L897.1276,77.3864001 Z M904.3546,80.2376 C903.206194,80.2376 902.183204,79.9538028 901.2856,79.3862 C900.387995,78.8185972 899.685102,77.9969054 899.1769,76.9211001 C898.668697,75.8452947 898.4146,74.5616076 898.4146,73.0700002 C898.4146,71.5783928 898.668697,70.2947056 899.1769,69.2189003 C899.685102,68.1430949 900.387995,67.3214032 901.2856,66.7538004 C902.183204,66.1861975 903.206194,65.9024004 904.3546,65.9024004 C905.503005,65.9024004 906.525995,66.1861975 907.423599,66.7538004 C908.321204,67.3214032 909.024097,68.1430949 909.532299,69.2189003 C910.040502,70.2947056 910.294599,71.5783928 910.294599,73.0700002 C910.294599,74.5616076 910.040502,75.8452947 909.532299,76.9211001 C909.024097,77.9969054 908.321204,78.8185972 907.423599,79.3862 C906.525995,79.9538028 905.503005,80.2376 904.3546,80.2376 Z M904.3546,77.5250001 C905.199404,77.5250001 905.862697,77.1620037 906.344499,76.4360001 C906.826302,75.7099965 907.067199,74.5880077 907.067199,73.0700002 C907.067199,71.5519926 906.826302,70.4300039 906.344499,69.7040003 C905.862697,68.9779967 905.199404,68.6150003 904.3546,68.6150003 C903.522995,68.6150003 902.866302,68.9779967 902.3845,69.7040003 C901.902697,70.4300039 901.6618,71.5519926 901.6618,73.0700002 C901.6618,74.5880077 901.902697,75.7099965 902.3845,76.4360001 C902.866302,77.1620037 903.522995,77.5250001 904.3546,77.5250001 Z M917.085999,66.1400004 L917.085999,80 L913.878399,80 L913.878399,68.7140003 L911.106399,68.7140003 L911.106399,66.1400004 L917.085999,66.1400004 Z M924.372399,65.9024004 C926.312809,65.9024004 927.830793,66.4930945 928.926399,67.6745003 C930.022004,68.8559062 930.569799,70.5553892 930.569799,72.7730002 C930.569799,74.343808 930.276102,75.6901945 929.688699,76.8122001 C929.101296,77.9342057 928.273004,78.7855971 927.203799,79.3664 C926.134594,79.9472029 924.900406,80.2376 923.501199,80.2376 C922.761995,80.2376 922.055802,80.1551008 921.382599,79.9901 C920.709396,79.8250992 920.135201,79.5908015 919.659999,79.2872 L920.847999,76.9310001 C921.521202,77.3930024 922.385794,77.6240001 923.441799,77.6240001 C924.616605,77.6240001 925.547196,77.2775035 926.233599,76.5845001 C926.920002,75.8914966 927.289599,74.8916067 927.342399,73.5848002 C926.510795,74.4164043 925.362406,74.8322001 923.897199,74.8322001 C923.012795,74.8322001 922.207603,74.6540019 921.481599,74.2976002 C920.755595,73.9411984 920.181401,73.4363034 919.758999,72.7829002 C919.336597,72.1294969 919.125399,71.3738045 919.125399,70.5158003 C919.125399,69.5917957 919.356397,68.7800038 919.818399,68.0804003 C920.280401,67.3807968 920.910695,66.8429022 921.709299,66.4667004 C922.507903,66.0904985 923.395594,65.9024004 924.372399,65.9024004 Z M924.609999,72.4364002 C925.309602,72.4364002 925.880497,72.2417022 926.322699,71.8523002 C926.764901,71.4628983 926.985999,70.9646033 926.985999,70.3574003 C926.985999,69.7501972 926.771501,69.2552022 926.342499,68.8724003 C925.913497,68.4895984 925.322803,68.2982003 924.570399,68.2982003 C923.883996,68.2982003 923.326301,68.4829985 922.897299,68.8526003 C922.468297,69.2222021 922.253799,69.7237971 922.253799,70.3574003 C922.253799,70.9910034 922.468297,71.4958983 922.897299,71.8721002 C923.326301,72.2483021 923.897195,72.4364002 924.609999,72.4364002 Z" id="2019" fill="#4C3092"></path>
                <path d="M890.9591,18.5648001 C890.9591,19.7324059 890.562204,20.6500967 889.768401,21.3179 C888.974597,21.9857034 887.834308,22.3573996 886.347501,22.433 L886.347501,23.3906 L884.470101,23.3906 L884.470101,22.4204 C882.974893,22.3363996 881.830405,21.9605034 881.036601,21.2927 C880.242797,20.6248967 879.845901,19.7156058 879.845901,18.5648001 C879.845901,17.4055944 880.242797,16.4963035 881.036601,15.8369002 C881.830405,15.1774969 882.974893,14.8016007 884.470101,14.7092002 L884.470101,13.8020002 L886.347501,13.8020002 L886.347501,14.6966002 C887.834308,14.7806006 888.974597,15.1585968 889.768401,15.8306002 C890.562204,16.5026035 890.9591,17.4139944 890.9591,18.5648001 Z M886.347501,20.8328001 C887.237905,20.7487996 887.901498,20.5199019 888.338301,20.1461001 C888.775103,19.7722982 888.993501,19.2410035 888.993501,18.5522001 C888.993501,17.2081934 888.111509,16.4606009 886.347501,16.3094002 L886.347501,20.8328001 Z M881.824101,18.5648001 C881.824101,19.8920067 882.706092,20.6479991 884.470101,20.8328001 L884.470101,16.3094002 C883.571296,16.3934006 882.905603,16.6180983 882.473001,16.9835002 C882.040399,17.348902 881.824101,17.8759967 881.824101,18.5648001 Z M898.9223,19.6358001 C898.9223,19.6610002 898.9097,19.8373984 898.8845,20.1650001 L893.7563,20.1650001 C893.848701,20.5850022 894.067099,20.9167988 894.4115,21.1604 C894.755902,21.4040013 895.184298,21.5258 895.6967,21.5258 C896.049502,21.5258 896.362399,21.4733006 896.6354,21.3683 C896.908402,21.2632995 897.162499,21.0974012 897.3977,20.8706001 L898.4435,22.0046 C897.805097,22.7354037 896.872706,23.1008 895.6463,23.1008 C894.881897,23.1008 894.205703,22.9517015 893.6177,22.6535 C893.029697,22.3552985 892.576102,21.9416027 892.2569,21.4124 C891.937699,20.8831974 891.7781,20.2826034 891.7781,19.6106001 C891.7781,18.9469968 891.935599,18.3485028 892.2506,17.8151001 C892.565602,17.2816975 892.998198,16.8659017 893.5484,16.5677002 C894.098603,16.2694987 894.713897,16.1204002 895.3943,16.1204002 C896.057904,16.1204002 896.658498,16.2631988 897.1961,16.5488002 C897.733703,16.8344016 898.155799,17.2438975 898.4624,17.7773001 C898.769002,18.3107028 898.9223,18.9301966 898.9223,19.6358001 Z M895.4069,17.6072001 C894.961698,17.6072001 894.587902,17.7331989 894.2855,17.9852001 C893.983099,18.2372014 893.798301,18.5815979 893.7311,19.0184001 L897.0701,19.0184001 C897.0029,18.589998 896.818102,18.2477014 896.5157,17.9915001 C896.213299,17.7352989 895.843703,17.6072001 895.4069,17.6072001 Z M905.6129,19.4594001 C906.410904,19.7282014 906.8099,20.265796 906.8099,21.0722001 C906.8099,21.6854031 906.578902,22.1599983 906.1169,22.496 C905.654898,22.8320017 904.966105,23 904.0505,23 L900.4343,23 L900.4343,16.2212002 L903.8993,16.2212002 C904.747704,16.2212002 905.411298,16.3744986 905.8901,16.6811002 C906.368902,16.9877017 906.6083,17.4181974 906.6083,17.9726001 C906.6083,18.3086018 906.522201,18.6046988 906.35,18.8609001 C906.177799,19.1171014 905.932102,19.3165994 905.6129,19.4594001 Z M902.2361,19.0058001 L903.7229,19.0058001 C904.411704,19.0058001 904.7561,18.7622025 904.7561,18.2750001 C904.7561,17.7961977 904.411704,17.5568001 903.7229,17.5568001 L902.2361,17.5568001 L902.2361,19.0058001 Z M903.8867,21.6644 C904.609104,21.6644 904.9703,21.4166025 904.9703,20.9210001 C904.9703,20.6605988 904.886301,20.4695007 904.7183,20.3477001 C904.550299,20.2258995 904.285702,20.1650001 903.9245,20.1650001 L902.2361,20.1650001 L902.2361,21.6644 L903.8867,21.6644 Z M912.2657,16.1204002 C912.895703,16.1204002 913.468997,16.2652987 913.9856,16.5551002 C914.502202,16.8449016 914.907498,17.2522975 915.2015,17.7773001 C915.495501,18.3023027 915.6425,18.9133966 915.6425,19.6106001 C915.6425,20.3078036 915.495501,20.9188974 915.2015,21.4439 C914.907498,21.9689027 914.502202,22.3762986 913.9856,22.6661 C913.468997,22.9559015 912.895703,23.1008 912.2657,23.1008 C911.400496,23.1008 910.720102,22.8278027 910.2245,22.2818 L910.2245,25.4443999 L908.2589,25.4443999 L908.2589,16.2212002 L910.1363,16.2212002 L910.1363,17.0024002 C910.623502,16.4143972 911.333295,16.1204002 912.2657,16.1204002 Z M911.9255,21.488 C912.429502,21.488 912.843198,21.3179017 913.1666,20.9777001 C913.490002,20.6374984 913.6517,20.1818029 913.6517,19.6106001 C913.6517,19.0393972 913.490002,18.5837018 913.1666,18.2435001 C912.843198,17.9032984 912.429502,17.7332001 911.9255,17.7332001 C911.421497,17.7332001 911.007802,17.9032984 910.6844,18.2435001 C910.360998,18.5837018 910.1993,19.0393972 910.1993,19.6106001 C910.1993,20.1818029 910.360998,20.6374984 910.6844,20.9777001 C911.007802,21.3179017 911.421497,21.488 911.9255,21.488 Z M919.5359,16.1204002 C920.585905,16.1204002 921.392297,16.3702977 921.9551,16.8701002 C922.517902,17.3699026 922.7993,18.1237951 922.7993,19.1318001 L922.7993,23 L920.9597,23 L920.9597,22.1558 C920.590098,22.7858032 919.901305,23.1008 918.8933,23.1008 C918.372497,23.1008 917.921002,23.0126009 917.5388,22.8362 C917.156598,22.6597991 916.864701,22.4162016 916.6631,22.1054 C916.461499,21.7945985 916.3607,21.441802 916.3607,21.0470001 C916.3607,20.4169969 916.597997,19.9214019 917.0726,19.5602001 C917.547202,19.1989983 918.280095,19.0184001 919.2713,19.0184001 L920.8337,19.0184001 C920.8337,18.589998 920.703501,18.2603013 920.4431,18.0293001 C920.182698,17.798299 919.792102,17.6828001 919.2713,17.6828001 C918.910098,17.6828001 918.555202,17.7394996 918.2066,17.8529001 C917.857998,17.9663007 917.561901,18.1195992 917.3183,18.3128001 L916.6127,16.9394002 C916.982302,16.6789989 917.425397,16.4774009 917.942,16.3346002 C918.458602,16.1917995 918.989897,16.1204002 919.5359,16.1204002 Z M919.3847,21.7778 C919.720701,21.7778 920.018898,21.7001008 920.2793,21.5447 C920.539701,21.3892993 920.724499,21.1604016 920.8337,20.8580001 L920.8337,20.1650001 L919.4855,20.1650001 C918.679096,20.1650001 918.2759,20.4295974 918.2759,20.9588001 C918.2759,21.2108013 918.374599,21.4102993 918.572,21.5573 C918.769401,21.7043008 919.040298,21.7778 919.3847,21.7778 Z M931.014499,16.2212002 L931.014499,23 L929.048899,23 L929.048899,17.8340001 L926.9069,17.8340001 L926.8439,19.0310001 C926.810299,19.9214045 926.7263,20.6605971 926.5919,21.2486 C926.457499,21.836603 926.239101,22.2985983 925.9367,22.6346 C925.634298,22.9706017 925.214302,23.1386 924.6767,23.1386 C924.391098,23.1386 924.050902,23.0882005 923.6561,22.9874 L923.7569,21.3746 C923.8913,21.3914001 923.987899,21.3998 924.0467,21.3998 C924.340701,21.3998 924.561199,21.2927011 924.7082,21.0785001 C924.8552,20.864299 924.953899,20.5913017 925.0043,20.2595001 C925.0547,19.9276984 925.092499,19.4888028 925.1177,18.9428001 L925.2185,16.2212002 L931.014499,16.2212002 Z M936.571099,18.3884001 C937.453104,18.3968002 938.129297,18.5962982 938.599699,18.9869001 C939.070102,19.377502 939.305299,19.9297965 939.305299,20.6438001 C939.305299,21.3914038 939.042802,21.9730979 938.517799,22.3889 C937.992797,22.8047021 937.255704,23.0126 936.306499,23.0126 L932.904499,23 L932.904499,16.2212002 L934.857499,16.2212002 L934.857499,18.3884001 L936.571099,18.3884001 Z M936.130099,21.614 C936.508101,21.6224001 936.797898,21.5426009 936.999499,21.3746 C937.2011,21.2065992 937.301899,20.9546017 937.301899,20.6186001 C937.301899,20.2909984 937.2032,20.0516008 937.005799,19.9004001 C936.808398,19.7491993 936.516501,19.6694001 936.130099,19.6610001 L934.857499,19.6484001 L934.857499,21.614 L936.130099,21.614 Z" id="Февраль" fill="#4C3092"></path>
                <path d="M398.824802,15.8340001 C398.824802,17.211607 398.320807,18.3917952 397.312802,19.3746 C396.304797,20.3574049 394.851611,20.9663988 392.953202,21.2016 L392.953202,24.0239999 L390.433202,24.0239999 L390.433202,21.2772 C389.189996,21.2099997 388.005608,20.9916018 386.880002,20.622 C385.754396,20.2523982 384.847206,19.7988027 384.158402,19.2612 L385.544402,16.1868001 C386.182805,16.6572025 386.930398,17.0519985 387.787202,17.3712001 C388.644006,17.6904017 389.525997,17.8919997 390.433202,17.9760001 L390.433202,13.7676002 C389.240396,13.4819988 388.232406,13.162802 387.409202,12.8100002 C386.585998,12.4571985 385.897205,11.9406036 385.342802,11.2602003 C384.788399,10.5797969 384.511202,9.67680593 384.511202,8.55120033 C384.511202,7.15679339 385.019397,5.9598054 386.035802,4.96020042 C387.052207,3.96059545 388.517992,3.35160156 390.433202,3.13320047 L390.433202,0.336000547 L392.953202,0.336000547 L392.953202,3.08280047 C395.019612,3.25080131 396.724795,3.76319617 398.068802,4.62000043 L396.808802,7.71960035 C395.548796,6.99719676 394.263608,6.56040114 392.953202,6.40920039 L392.953202,10.6932003 C394.129208,10.9620016 395.124598,11.2685985 395.939402,11.6130002 C396.754206,11.957402 397.438799,12.4697968 397.993202,13.1502002 C398.547605,13.8306036 398.824802,14.7251946 398.824802,15.8340001 Z M388.568402,8.34960034 C388.568402,8.76960242 388.728,9.11399897 389.047202,9.38280031 C389.366404,9.65160164 389.828399,9.87839937 390.433202,10.0632003 L390.433202,6.48480038 C389.794799,6.63600114 389.324404,6.87539874 389.022002,7.20300037 C388.719601,7.53060199 388.568402,7.91279816 388.568402,8.34960034 Z M392.953202,17.8752001 C393.558005,17.7407994 394.0116,17.5224016 394.314002,17.2200001 C394.616403,16.9175986 394.767602,16.5564022 394.767602,16.1364001 C394.767602,15.716398 394.612203,15.3720015 394.301402,15.1032002 C393.9906,14.8343988 393.541205,14.5992012 392.953202,14.3976002 L392.953202,17.8752001 Z M414.448801,3.36000047 L414.448801,21 L410.366401,21 L410.366401,6.63600038 L406.838402,6.63600038 L406.838402,3.36000047 L414.448801,3.36000047 Z M430.702801,17.6736001 L430.702801,21 L417.372001,21 L417.372001,18.3540001 L424.176001,11.9280002 C424.898405,11.2391968 425.3856,10.6470028 425.637601,10.1514003 C425.889602,9.65579782 426.015601,9.16440275 426.015601,8.67720033 C426.015601,7.97159682 425.776203,7.42980225 425.297401,7.05180037 C424.818599,6.67379849 424.117206,6.48480038 423.193201,6.48480038 C422.420397,6.48480038 421.723204,6.63179891 421.101601,6.92580037 C420.479998,7.21980184 419.959203,7.66079741 419.539201,8.24880034 L416.565601,6.33360039 C417.254405,5.30879529 418.203595,4.50660333 419.413201,3.92700045 C420.622807,3.34739757 422.008793,3.05760048 423.571201,3.05760048 C424.881608,3.05760048 426.028196,3.27179833 427.011001,3.70020046 C427.993806,4.12860259 428.758198,4.73339652 429.304201,5.51460041 C429.850204,6.2958043 430.123201,7.21559507 430.123201,8.27400034 C430.123201,9.2316051 429.921603,10.1303961 429.518401,10.9704003 C429.115199,11.8104044 428.334007,12.7679948 427.174801,13.8432002 L423.117601,17.6736001 L430.702801,17.6736001 Z M434.961601,21.2016 C434.272797,21.2016 433.693203,20.9664024 433.222801,20.496 C432.752399,20.0255977 432.517201,19.4376036 432.517201,18.7320001 C432.517201,18.0095965 432.752399,17.4258023 433.222801,16.9806001 C433.693203,16.5353979 434.272797,16.3128001 434.961601,16.3128001 C435.650404,16.3128001 436.229998,16.5353979 436.700401,16.9806001 C437.170803,17.4258023 437.406001,18.0095965 437.406001,18.7320001 C437.406001,19.4376036 437.170803,20.0255977 436.700401,20.496 C436.229998,20.9664024 435.650404,21.2016 434.961601,21.2016 Z M446.478,21.3024 C445.016393,21.3024 443.714406,20.9412036 442.572001,20.2188 C441.429595,19.4963964 440.535004,18.4506069 439.888201,17.0814001 C439.241397,15.7121933 438.918001,14.0784097 438.918001,12.1800002 C438.918001,10.2815908 439.241397,8.64780717 439.888201,7.27860036 C440.535004,5.90939355 441.429595,4.86360404 442.572001,4.14120045 C443.714406,3.41879685 445.016393,3.05760048 446.478,3.05760048 C447.939608,3.05760048 449.241595,3.41879685 450.384,4.14120045 C451.526406,4.86360404 452.420997,5.90939355 453.0678,7.27860036 C453.714604,8.64780717 454.038,10.2815908 454.038,12.1800002 C454.038,14.0784097 453.714604,15.7121933 453.0678,17.0814001 C452.420997,18.4506069 451.526406,19.4963964 450.384,20.2188 C449.241595,20.9412036 447.939608,21.3024 446.478,21.3024 Z M446.478,17.8500001 C447.553206,17.8500001 448.397397,17.3880047 449.0106,16.4640001 C449.623803,15.5399955 449.9304,14.1120098 449.9304,12.1800002 C449.9304,10.2479906 449.623803,8.82000494 449.0106,7.89600035 C448.397397,6.97199575 447.553206,6.51000038 446.478,6.51000038 C445.419595,6.51000038 444.583804,6.97199575 443.970601,7.89600035 C443.357398,8.82000494 443.050801,10.2479906 443.050801,12.1800002 C443.050801,14.1120098 443.357398,15.5399955 443.970601,16.4640001 C444.583804,17.3880047 445.419595,17.8500001 446.478,17.8500001 Z M463.5888,21.3024 C462.127193,21.3024 460.825206,20.9412036 459.6828,20.2188 C458.540394,19.4963964 457.645803,18.4506069 456.999,17.0814001 C456.352197,15.7121933 456.0288,14.0784097 456.0288,12.1800002 C456.0288,10.2815908 456.352197,8.64780717 456.999,7.27860036 C457.645803,5.90939355 458.540394,4.86360404 459.6828,4.14120045 C460.825206,3.41879685 462.127193,3.05760048 463.5888,3.05760048 C465.050407,3.05760048 466.352394,3.41879685 467.4948,4.14120045 C468.637206,4.86360404 469.531797,5.90939355 470.1786,7.27860036 C470.825403,8.64780717 471.1488,10.2815908 471.1488,12.1800002 C471.1488,14.0784097 470.825403,15.7121933 470.1786,17.0814001 C469.531797,18.4506069 468.637206,19.4963964 467.4948,20.2188 C466.352394,20.9412036 465.050407,21.3024 463.5888,21.3024 Z M463.5888,17.8500001 C464.664005,17.8500001 465.508197,17.3880047 466.1214,16.4640001 C466.734603,15.5399955 467.0412,14.1120098 467.0412,12.1800002 C467.0412,10.2479906 466.734603,8.82000494 466.1214,7.89600035 C465.508197,6.97199575 464.664005,6.51000038 463.5888,6.51000038 C462.530395,6.51000038 461.694603,6.97199575 461.0814,7.89600035 C460.468197,8.82000494 460.1616,10.2479906 460.1616,12.1800002 C460.1616,14.1120098 460.468197,15.5399955 461.0814,16.4640001 C461.694603,17.3880047 462.530395,17.8500001 463.5888,17.8500001 Z M480.6996,21.3024 C479.237992,21.3024 477.936005,20.9412036 476.7936,20.2188 C475.651194,19.4963964 474.756603,18.4506069 474.1098,17.0814001 C473.462997,15.7121933 473.1396,14.0784097 473.1396,12.1800002 C473.1396,10.2815908 473.462997,8.64780717 474.1098,7.27860036 C474.756603,5.90939355 475.651194,4.86360404 476.7936,4.14120045 C477.936005,3.41879685 479.237992,3.05760048 480.6996,3.05760048 C482.161207,3.05760048 483.463194,3.41879685 484.605599,4.14120045 C485.748005,4.86360404 486.642596,5.90939355 487.289399,7.27860036 C487.936203,8.64780717 488.259599,10.2815908 488.259599,12.1800002 C488.259599,14.0784097 487.936203,15.7121933 487.289399,17.0814001 C486.642596,18.4506069 485.748005,19.4963964 484.605599,20.2188 C483.463194,20.9412036 482.161207,21.3024 480.6996,21.3024 Z M480.6996,17.8500001 C481.774805,17.8500001 482.618996,17.3880047 483.2322,16.4640001 C483.845403,15.5399955 484.151999,14.1120098 484.151999,12.1800002 C484.151999,10.2479906 483.845403,8.82000494 483.2322,7.89600035 C482.618996,6.97199575 481.774805,6.51000038 480.6996,6.51000038 C479.641194,6.51000038 478.805403,6.97199575 478.1922,7.89600035 C477.578997,8.82000494 477.2724,10.2479906 477.2724,12.1800002 C477.2724,14.1120098 477.578997,15.5399955 478.1922,16.4640001 C478.805403,17.3880047 479.641194,17.8500001 480.6996,17.8500001 Z M492.241199,21.2016 C491.552396,21.2016 490.972802,20.9664024 490.502399,20.496 C490.031997,20.0255977 489.796799,19.4376036 489.796799,18.7320001 C489.796799,18.0095965 490.031997,17.4258023 490.502399,16.9806001 C490.972802,16.5353979 491.552396,16.3128001 492.241199,16.3128001 C492.930003,16.3128001 493.509597,16.5353979 493.979999,16.9806001 C494.450402,17.4258023 494.685599,18.0095965 494.685599,18.7320001 C494.685599,19.4376036 494.450402,20.0255977 493.979999,20.496 C493.509597,20.9664024 492.930003,21.2016 492.241199,21.2016 Z M503.757599,21.3024 C502.295992,21.3024 500.994005,20.9412036 499.851599,20.2188 C498.709193,19.4963964 497.814602,18.4506069 497.167799,17.0814001 C496.520996,15.7121933 496.197599,14.0784097 496.197599,12.1800002 C496.197599,10.2815908 496.520996,8.64780717 497.167799,7.27860036 C497.814602,5.90939355 498.709193,4.86360404 499.851599,4.14120045 C500.994005,3.41879685 502.295992,3.05760048 503.757599,3.05760048 C505.219206,3.05760048 506.521193,3.41879685 507.663599,4.14120045 C508.806005,4.86360404 509.700596,5.90939355 510.347399,7.27860036 C510.994202,8.64780717 511.317599,10.2815908 511.317599,12.1800002 C511.317599,14.0784097 510.994202,15.7121933 510.347399,17.0814001 C509.700596,18.4506069 508.806005,19.4963964 507.663599,20.2188 C506.521193,20.9412036 505.219206,21.3024 503.757599,21.3024 Z M503.757599,17.8500001 C504.832804,17.8500001 505.676996,17.3880047 506.290199,16.4640001 C506.903402,15.5399955 507.209999,14.1120098 507.209999,12.1800002 C507.209999,10.2479906 506.903402,8.82000494 506.290199,7.89600035 C505.676996,6.97199575 504.832804,6.51000038 503.757599,6.51000038 C502.699194,6.51000038 501.863402,6.97199575 501.250199,7.89600035 C500.636996,8.82000494 500.330399,10.2479906 500.330399,12.1800002 C500.330399,14.1120098 500.636996,15.5399955 501.250199,16.4640001 C501.863402,17.3880047 502.699194,17.8500001 503.757599,17.8500001 Z M520.868399,21.3024 C519.406791,21.3024 518.104804,20.9412036 516.962399,20.2188 C515.819993,19.4963964 514.925402,18.4506069 514.278599,17.0814001 C513.631795,15.7121933 513.308399,14.0784097 513.308399,12.1800002 C513.308399,10.2815908 513.631795,8.64780717 514.278599,7.27860036 C514.925402,5.90939355 515.819993,4.86360404 516.962399,4.14120045 C518.104804,3.41879685 519.406791,3.05760048 520.868399,3.05760048 C522.330006,3.05760048 523.631993,3.41879685 524.774398,4.14120045 C525.916804,4.86360404 526.811395,5.90939355 527.458198,7.27860036 C528.105002,8.64780717 528.428398,10.2815908 528.428398,12.1800002 C528.428398,14.0784097 528.105002,15.7121933 527.458198,17.0814001 C526.811395,18.4506069 525.916804,19.4963964 524.774398,20.2188 C523.631993,20.9412036 522.330006,21.3024 520.868399,21.3024 Z M520.868399,17.8500001 C521.943604,17.8500001 522.787795,17.3880047 523.400998,16.4640001 C524.014202,15.5399955 524.320798,14.1120098 524.320798,12.1800002 C524.320798,10.2479906 524.014202,8.82000494 523.400998,7.89600035 C522.787795,6.97199575 521.943604,6.51000038 520.868399,6.51000038 C519.809993,6.51000038 518.974202,6.97199575 518.360999,7.89600035 C517.747796,8.82000494 517.441199,10.2479906 517.441199,12.1800002 C517.441199,14.1120098 517.747796,15.5399955 518.360999,16.4640001 C518.974202,17.3880047 519.809993,17.8500001 520.868399,17.8500001 Z M537.979198,21.3024 C536.517591,21.3024 535.215604,20.9412036 534.073198,20.2188 C532.930792,19.4963964 532.036201,18.4506069 531.389398,17.0814001 C530.742595,15.7121933 530.419198,14.0784097 530.419198,12.1800002 C530.419198,10.2815908 530.742595,8.64780717 531.389398,7.27860036 C532.036201,5.90939355 532.930792,4.86360404 534.073198,4.14120045 C535.215604,3.41879685 536.517591,3.05760048 537.979198,3.05760048 C539.440805,3.05760048 540.742792,3.41879685 541.885198,4.14120045 C543.027604,4.86360404 543.922195,5.90939355 544.568998,7.27860036 C545.215801,8.64780717 545.539198,10.2815908 545.539198,12.1800002 C545.539198,14.0784097 545.215801,15.7121933 544.568998,17.0814001 C543.922195,18.4506069 543.027604,19.4963964 541.885198,20.2188 C540.742792,20.9412036 539.440805,21.3024 537.979198,21.3024 Z M537.979198,17.8500001 C539.054403,17.8500001 539.898595,17.3880047 540.511798,16.4640001 C541.125001,15.5399955 541.431598,14.1120098 541.431598,12.1800002 C541.431598,10.2479906 541.125001,8.82000494 540.511798,7.89600035 C539.898595,6.97199575 539.054403,6.51000038 537.979198,6.51000038 C536.920793,6.51000038 536.085001,6.97199575 535.471798,7.89600035 C534.858595,8.82000494 534.551998,10.2479906 534.551998,12.1800002 C534.551998,14.1120098 534.858595,15.5399955 535.471798,16.4640001 C536.085001,17.3880047 536.920793,17.8500001 537.979198,17.8500001 Z" id="$-12.000.000" fill="#4C3092"></path>
                <g id="Group-6-Copy" transform="translate(896.912316, 34.000000)" fill="#4C3092">
                    <ellipse id="Oval-3-Copy-2" opacity="0.049999997" cx="10.4005805" cy="10.5" rx="10.4005805" ry="10.5"></ellipse>
                    <ellipse id="Oval-3" opacity="0.100000001" cx="10.4005805" cy="10.5" rx="8.00044657" ry="8.07692308"></ellipse>
                    <ellipse id="Oval-3-Copy" cx="10.4005805" cy="10.5" rx="4.80026794" ry="4.84615385"></ellipse>
                </g>
            </g>
        </g>
    </g>
</svg>