<?xml version="1.0" encoding="UTF-8"?>
<svg width="951px" height="81px" viewBox="0 0 951 81" version="1.1" xmlns="http://www.w3.org/2000/svg" xmlns:xlink="http://www.w3.org/1999/xlink">
    <!-- Generator: Sketch 48.1 (47250) - http://www.bohemiancoding.com/sketch -->
    <title>line-30 000 000</title>
    <desc>Created with Sketch.</desc>
    <defs></defs>
    <g id="майлстоун-4-copy" stroke="none" stroke-width="1" fill="none" fill-rule="evenodd" transform="translate(-151.000000, -144.000000)">
        <g id="Group-9" transform="translate(-23.000000, 144.000000)">
            <g id="line-30-000-000" transform="translate(174.000000, 0.000000)">
                <path d="M26,45 L924.846266,45" id="Line" stroke="#4C3092" stroke-width="1.88999986" stroke-linecap="square"></path>
                <g id="Group-6" transform="translate(19.000000, 34.000000)" fill="#4C3092">
                    <ellipse id="Oval-3-Copy-2" opacity="0.049999997" cx="10.4005805" cy="10.5" rx="10.4005805" ry="10.5"></ellipse>
                    <ellipse id="Oval-3" opacity="0.100000001" cx="10.4005805" cy="10.5" rx="8.00044657" ry="8.07692308"></ellipse>
                    <ellipse id="Oval-3-Copy" cx="10.4005805" cy="10.5" rx="4.80026794" ry="4.84615385"></ellipse>
                </g>
                <g id="Group-6-Copy" transform="translate(916.000000, 34.000000)" fill="#4C3092">
                    <ellipse id="Oval-3-Copy-2" opacity="0.049999997" cx="10.4005805" cy="10.5" rx="10.4005805" ry="10.5"></ellipse>
                    <ellipse id="Oval-3" opacity="0.100000001" cx="10.4005805" cy="10.5" rx="8.00044657" ry="8.07692308"></ellipse>
                    <ellipse id="Oval-3-Copy" cx="10.4005805" cy="10.5" rx="4.80026794" ry="4.84615385"></ellipse>
                </g>
                <path d="M18.1275997,77.3864001 L18.1275997,80 L7.65339998,80 L7.65339998,77.9210001 L12.9993998,72.8720002 C13.5670027,72.3307975 13.9497988,71.8655022 14.1477998,71.4761002 C14.3458008,71.0866983 14.4447998,70.7006022 14.4447998,70.3178003 C14.4447998,69.7633975 14.2567017,69.3377018 13.8804998,69.0407003 C13.5042979,68.7436988 12.9532035,68.5952003 12.2271999,68.5952003 C11.6199968,68.5952003 11.0722023,68.7106991 10.5837999,68.9417003 C10.0953975,69.1727014 9.68620158,69.519198 9.35619994,69.9812003 L7.0198,68.4764003 C7.56100269,67.6711963 8.30679521,67.0409026 9.25719994,66.5855004 C10.2076047,66.1300981 11.2965937,65.9024004 12.5241999,65.9024004 C13.553805,65.9024004 14.4546959,66.0706987 15.2268998,66.4073004 C15.9991036,66.743902 16.5996976,67.2190973 17.0286997,67.8329003 C17.4577019,68.4467034 17.6721997,69.1693961 17.6721997,70.0010003 C17.6721997,70.753404 17.5138013,71.4595969 17.1969997,72.1196002 C16.8801982,72.7796035 16.2664043,73.5319959 15.3555998,74.3768001 L12.1677999,77.3864001 L18.1275997,77.3864001 Z M25.3545995,80.2376 C24.2061938,80.2376 23.1832041,79.9538028 22.2855996,79.3862 C21.3879951,78.8185972 20.6851022,77.9969054 20.1768997,76.9211001 C19.6686971,75.8452947 19.4145997,74.5616076 19.4145997,73.0700002 C19.4145997,71.5783928 19.6686971,70.2947056 20.1768997,69.2189003 C20.6851022,68.1430949 21.3879951,67.3214032 22.2855996,66.7538004 C23.1832041,66.1861975 24.2061938,65.9024004 25.3545995,65.9024004 C26.5030052,65.9024004 27.525995,66.1861975 28.4235994,66.7538004 C29.3212039,67.3214032 30.0240968,68.1430949 30.5322994,69.2189003 C31.0405019,70.2947056 31.2945994,71.5783928 31.2945994,73.0700002 C31.2945994,74.5616076 31.0405019,75.8452947 30.5322994,76.9211001 C30.0240968,77.9969054 29.3212039,78.8185972 28.4235994,79.3862 C27.525995,79.9538028 26.5030052,80.2376 25.3545995,80.2376 Z M25.3545995,77.5250001 C26.1994037,77.5250001 26.8626971,77.1620037 27.3444995,76.4360001 C27.8263019,75.7099965 28.0671994,74.5880077 28.0671994,73.0700002 C28.0671994,71.5519926 27.8263019,70.4300039 27.3444995,69.7040003 C26.8626971,68.9779967 26.1994037,68.6150003 25.3545995,68.6150003 C24.5229954,68.6150003 23.866302,68.9779967 23.3844996,69.7040003 C22.9026972,70.4300039 22.6617996,71.5519926 22.6617996,73.0700002 C22.6617996,74.5880077 22.9026972,75.7099965 23.3844996,76.4360001 C23.866302,77.1620037 24.5229954,77.5250001 25.3545995,77.5250001 Z M38.0859992,66.1400004 L38.0859992,80 L34.8783993,80 L34.8783993,68.7140003 L32.1063993,68.7140003 L32.1063993,66.1400004 L38.0859992,66.1400004 Z M45.372399,65.9024004 C47.3128086,65.9024004 48.8307934,66.4930945 49.9263989,67.6745003 C51.0220043,68.8559062 51.5697988,70.5553892 51.5697988,72.7730002 C51.5697988,74.343808 51.2761018,75.6901945 50.6886988,76.8122001 C50.1012959,77.9342057 49.2730042,78.7855971 48.2037989,79.3664 C47.1345936,79.9472029 45.900406,80.2376 44.501199,80.2376 C43.7619953,80.2376 43.0558024,80.1551008 42.3825991,79.9901 C41.7093957,79.8250992 41.1352015,79.5908015 40.6599991,79.2872 L41.8479991,76.9310001 C42.5212024,77.3930024 43.3857938,77.6240001 44.441799,77.6240001 C45.6166049,77.6240001 46.5471955,77.2775035 47.2335989,76.5845001 C47.9200023,75.8914966 48.2895986,74.8916067 48.3423989,73.5848002 C47.5107948,74.4164043 46.3624063,74.8322001 44.897199,74.8322001 C44.0127946,74.8322001 43.2076027,74.6540019 42.4815991,74.2976002 C41.7555954,73.9411984 41.1814012,73.4363034 40.7589991,72.7829002 C40.336597,72.1294969 40.1253991,71.3738045 40.1253991,70.5158003 C40.1253991,69.5917957 40.3563968,68.7800038 40.8183991,68.0804003 C41.2804014,67.3807968 41.9106951,66.8429022 42.7092991,66.4667004 C43.507903,66.0904985 44.3955941,65.9024004 45.372399,65.9024004 Z M45.609999,72.4364002 C46.3096025,72.4364002 46.8804967,72.2417022 47.3226989,71.8523002 C47.7649011,71.4628983 47.9859989,70.9646033 47.9859989,70.3574003 C47.9859989,69.7501972 47.7715011,69.2552022 47.3424989,68.8724003 C46.9134968,68.4895984 46.3228027,68.2982003 45.570399,68.2982003 C44.8839956,68.2982003 44.3263012,68.4829985 43.897299,68.8526003 C43.4682969,69.2222021 43.253799,69.7237971 43.253799,70.3574003 C43.253799,70.9910034 43.4682969,71.4958983 43.897299,71.8721002 C44.3263012,72.2483021 44.8971954,72.4364002 45.609999,72.4364002 Z" id="2019" fill="#4C3092"></path>
                <path d="M11.9591005,18.5648001 C11.9591005,19.7324059 11.5622045,20.6500967 10.7684005,21.3179 C9.97459657,21.9857034 8.83430801,22.3573996 7.34750061,22.433 L7.34750061,23.3906 L5.47010066,23.3906 L5.47010066,22.4204 C3.97489323,22.3363996 2.8304047,21.9605034 2.03660075,21.2927 C1.24279681,20.6248967 0.845900786,19.7156058 0.845900786,18.5648001 C0.845900786,17.4055944 1.24279681,16.4963035 2.03660075,15.8369002 C2.8304047,15.1774969 3.97489323,14.8016007 5.47010066,14.7092002 L5.47010066,13.8020002 L7.34750061,13.8020002 L7.34750061,14.6966002 C8.83430801,14.7806006 9.97459657,15.1585968 10.7684005,15.8306002 C11.5622045,16.5026035 11.9591005,17.4139944 11.9591005,18.5648001 Z M7.34750061,20.8328001 C8.23790504,20.7487996 8.90149839,20.5199019 9.33830056,20.1461001 C9.77510273,19.7722982 9.99350054,19.2410035 9.99350054,18.5522001 C9.99350054,17.2081934 9.11150939,16.4606009 7.34750061,16.3094002 L7.34750061,20.8328001 Z M2.82410073,18.5648001 C2.82410073,19.8920067 3.70609189,20.6479991 5.47010066,20.8328001 L5.47010066,16.3094002 C4.57129619,16.3934006 3.90560287,16.6180983 3.47300072,16.9835002 C3.04039856,17.348902 2.82410073,17.8759967 2.82410073,18.5648001 Z M19.9223003,19.6358001 C19.9223003,19.6610002 19.9097004,19.8373984 19.8845003,20.1650001 L14.7563004,20.1650001 C14.8487009,20.5850022 15.0670987,20.9167988 15.4115004,21.1604 C15.7559021,21.4040013 16.1842978,21.5258 16.6967004,21.5258 C17.0495021,21.5258 17.362399,21.4733006 17.6354003,21.3683 C17.9084017,21.2632995 18.1624992,21.0974012 18.3977003,20.8706001 L19.4435003,22.0046 C18.8050971,22.7354037 17.8727065,23.1008 16.6463004,23.1008 C15.8818966,23.1008 15.2057033,22.9517015 14.6177004,22.6535 C14.0296975,22.3552985 13.576102,21.9416027 13.2569005,21.4124 C12.9376989,20.8831974 12.7781005,20.2826034 12.7781005,19.6106001 C12.7781005,18.9469968 12.9355989,18.3485028 13.2506005,17.8151001 C13.565602,17.2816975 13.9981977,16.8659017 14.5484004,16.5677002 C15.0986032,16.2694987 15.713897,16.1204002 16.3943004,16.1204002 C17.0579037,16.1204002 17.6584977,16.2631988 18.1961003,16.5488002 C18.733703,16.8344016 19.1557988,17.2438975 19.4624003,17.7773001 C19.7690018,18.3107028 19.9223003,18.9301966 19.9223003,19.6358001 Z M16.4069004,17.6072001 C15.9616982,17.6072001 15.5879019,17.7331989 15.2855004,17.9852001 C14.9830989,18.2372014 14.7983008,18.5815979 14.7311004,19.0184001 L18.0701003,19.0184001 C18.0029,18.589998 17.8181018,18.2477014 17.5157003,17.9915001 C17.2132988,17.7352989 16.8437025,17.6072001 16.4069004,17.6072001 Z M26.6129001,19.4594001 C27.4109041,19.7282014 27.8099001,20.265796 27.8099001,21.0722001 C27.8099001,21.6854031 27.5789024,22.1599983 27.1169001,22.496 C26.6548978,22.8320017 25.9661047,23 25.0505001,23 L21.4343002,23 L21.4343002,16.2212002 L24.8993001,16.2212002 C25.7477044,16.2212002 26.4112977,16.3744986 26.8901001,16.6811002 C27.3689025,16.9877017 27.6083001,17.4181974 27.6083001,17.9726001 C27.6083001,18.3086018 27.5222009,18.6046988 27.3500001,18.8609001 C27.1777992,19.1171014 26.9321017,19.3165994 26.6129001,19.4594001 Z M23.2361002,19.0058001 L24.7229002,19.0058001 C25.4117036,19.0058001 25.7561001,18.7622025 25.7561001,18.2750001 C25.7561001,17.7961977 25.4117036,17.5568001 24.7229002,17.5568001 L23.2361002,17.5568001 L23.2361002,19.0058001 Z M24.8867001,21.6644 C25.6091037,21.6644 25.9703001,21.4166025 25.9703001,20.9210001 C25.9703001,20.6605988 25.886301,20.4695007 25.7183001,20.3477001 C25.5502993,20.2258995 25.2857019,20.1650001 24.9245001,20.1650001 L23.2361002,20.1650001 L23.2361002,21.6644 L24.8867001,21.6644 Z M33.2656999,16.1204002 C33.8957031,16.1204002 34.4689973,16.2652987 34.9855999,16.5551002 C35.5022025,16.8449016 35.9074984,17.2522975 36.2014998,17.7773001 C36.4955013,18.3023027 36.6424998,18.9133966 36.6424998,19.6106001 C36.6424998,20.3078036 36.4955013,20.9188974 36.2014998,21.4439 C35.9074984,21.9689027 35.5022025,22.3762986 34.9855999,22.6661 C34.4689973,22.9559015 33.8957031,23.1008 33.2656999,23.1008 C32.4004956,23.1008 31.7201024,22.8278027 31.2245,22.2818 L31.2245,25.4443999 L29.2589,25.4443999 L29.2589,16.2212002 L31.1363,16.2212002 L31.1363,17.0024002 C31.6235024,16.4143972 32.3332953,16.1204002 33.2656999,16.1204002 Z M32.9254999,21.488 C33.4295024,21.488 33.8431983,21.3179017 34.1665999,20.9777001 C34.4900015,20.6374984 34.6516999,20.1818029 34.6516999,19.6106001 C34.6516999,19.0393972 34.4900015,18.5837018 34.1665999,18.2435001 C33.8431983,17.9032984 33.4295024,17.7332001 32.9254999,17.7332001 C32.4214974,17.7332001 32.0078016,17.9032984 31.6844,18.2435001 C31.3609984,18.5837018 31.1993,19.0393972 31.1993,19.6106001 C31.1993,20.1818029 31.3609984,20.6374984 31.6844,20.9777001 C32.0078016,21.3179017 32.4214974,21.488 32.9254999,21.488 Z M40.5358997,16.1204002 C41.585905,16.1204002 42.3922969,16.3702977 42.9550997,16.8701002 C43.5179025,17.3699026 43.7992996,18.1237951 43.7992996,19.1318001 L43.7992996,23 L41.9596997,23 L41.9596997,22.1558 C41.5900979,22.7858032 40.9013048,23.1008 39.8932998,23.1008 C39.3724972,23.1008 38.9210017,23.0126009 38.5387998,22.8362 C38.1565979,22.6597991 37.8647008,22.4162016 37.6630998,22.1054 C37.4614988,21.7945985 37.3606998,21.441802 37.3606998,21.0470001 C37.3606998,20.4169969 37.5979974,19.9214019 38.0725998,19.5602001 C38.5472022,19.1989983 39.2800948,19.0184001 40.2712997,19.0184001 L41.8336997,19.0184001 C41.8336997,18.589998 41.703501,18.2603013 41.4430997,18.0293001 C41.1826984,17.798299 40.7921023,17.6828001 40.2712997,17.6828001 C39.9100979,17.6828001 39.5552015,17.7394996 39.2065998,17.8529001 C38.857998,17.9663007 38.561901,18.1195992 38.3182998,18.3128001 L37.6126998,16.9394002 C37.9823016,16.6789989 38.4253972,16.4774009 38.9419998,16.3346002 C39.4586023,16.1917995 39.989897,16.1204002 40.5358997,16.1204002 Z M40.3846997,21.7778 C40.7207014,21.7778 41.0188984,21.7001008 41.2792997,21.5447 C41.539701,21.3892993 41.7244992,21.1604016 41.8336997,20.8580001 L41.8336997,20.1650001 L40.4854997,20.1650001 C39.6790957,20.1650001 39.2758998,20.4295974 39.2758998,20.9588001 C39.2758998,21.2108013 39.3745988,21.4102993 39.5719998,21.5573 C39.7694007,21.7043008 40.040298,21.7778 40.3846997,21.7778 Z M52.0144994,16.2212002 L52.0144994,23 L50.0488995,23 L50.0488995,17.8340001 L47.9068995,17.8340001 L47.8438995,19.0310001 C47.8102994,19.9214045 47.7263002,20.6605971 47.5918995,21.2486 C47.4574989,21.836603 47.2391011,22.2985983 46.9366996,22.6346 C46.6342981,22.9706017 46.2143023,23.1386 45.6766996,23.1386 C45.3910982,23.1386 45.0509016,23.0882005 44.6560996,22.9874 L44.7568996,21.3746 C44.8913003,21.3914001 44.9878993,21.3998 45.0466996,21.3998 C45.3407011,21.3998 45.5611989,21.2927011 45.7081996,21.0785001 C45.8552003,20.864299 45.9538993,20.5913017 46.0042996,20.2595001 C46.0546998,19.9276984 46.0924995,19.4888028 46.1176996,18.9428001 L46.2184996,16.2212002 L52.0144994,16.2212002 Z M57.5710993,18.3884001 C58.4531037,18.3968002 59.1292969,18.5962982 59.5996992,18.9869001 C60.0701016,19.377502 60.3052992,19.9297965 60.3052992,20.6438001 C60.3052992,21.3914038 60.0428018,21.9730979 59.5177992,22.3889 C58.9927966,22.8047021 58.255704,23.0126 57.3064993,23.0126 L53.9044994,23 L53.9044994,16.2212002 L55.8574993,16.2212002 L55.8574993,18.3884001 L57.5710993,18.3884001 Z M57.1300993,21.614 C57.5081012,21.6224001 57.7978983,21.5426009 57.9994993,21.3746 C58.2011003,21.2065992 58.3018993,20.9546017 58.3018993,20.6186001 C58.3018993,20.2909984 58.2032003,20.0516008 58.0057993,19.9004001 C57.8083983,19.7491993 57.5165012,19.6694001 57.1300993,19.6610001 L55.8574993,19.6484001 L55.8574993,21.614 L57.1300993,21.614 Z" id="Февраль" fill="#4C3092"></path>
                <path d="M405.473202,15.8340001 C405.473202,17.211607 404.969207,18.3917952 403.961202,19.3746 C402.953197,20.3574049 401.500011,20.9663988 399.601602,21.2016 L399.601602,24.0239999 L397.081602,24.0239999 L397.081602,21.2772 C395.838396,21.2099997 394.654008,20.9916018 393.528402,20.622 C392.402797,20.2523982 391.495606,19.7988027 390.806802,19.2612 L392.192802,16.1868001 C392.831205,16.6572025 393.578798,17.0519985 394.435602,17.3712001 C395.292406,17.6904017 396.174398,17.8919997 397.081602,17.9760001 L397.081602,13.7676002 C395.888796,13.4819988 394.880806,13.162802 394.057602,12.8100002 C393.234398,12.4571985 392.545605,11.9406036 391.991202,11.2602003 C391.436799,10.5797969 391.159602,9.67680593 391.159602,8.55120033 C391.159602,7.15679339 391.667797,5.9598054 392.684202,4.96020042 C393.700607,3.96059545 395.166393,3.35160156 397.081602,3.13320047 L397.081602,0.336000547 L399.601602,0.336000547 L399.601602,3.08280047 C401.668012,3.25080131 403.373195,3.76319617 404.717202,4.62000043 L403.457202,7.71960035 C402.197196,6.99719676 400.912009,6.56040114 399.601602,6.40920039 L399.601602,10.6932003 C400.777608,10.9620016 401.772998,11.2685985 402.587802,11.6130002 C403.402606,11.957402 404.087199,12.4697968 404.641602,13.1502002 C405.196005,13.8306036 405.473202,14.7251946 405.473202,15.8340001 Z M395.216802,8.34960034 C395.216802,8.76960242 395.376401,9.11399897 395.695602,9.38280031 C396.014804,9.65160164 396.476799,9.87839937 397.081602,10.0632003 L397.081602,6.48480038 C396.443199,6.63600114 395.972804,6.87539874 395.670402,7.20300037 C395.368001,7.53060199 395.216802,7.91279816 395.216802,8.34960034 Z M399.601602,17.8752001 C400.206405,17.7407994 400.66,17.5224016 400.962402,17.2200001 C401.264803,16.9175986 401.416002,16.5564022 401.416002,16.1364001 C401.416002,15.716398 401.260604,15.3720015 400.949802,15.1032002 C400.639,14.8343988 400.189605,14.5992012 399.601602,14.3976002 L399.601602,17.8752001 Z M422.533601,10.5420003 C424.079209,10.7940015 425.263597,11.3693958 426.086801,12.2682002 C426.910005,13.1670047 427.321601,14.2799935 427.321601,15.6072001 C427.321601,16.6320052 427.052804,17.5769958 426.515201,18.4422001 C425.977599,19.3074044 425.158607,20.0003974 424.058201,20.5212 C422.957796,21.0420026 421.609609,21.3024 420.013601,21.3024 C418.770395,21.3024 417.548208,21.1386016 416.347002,20.811 C415.145796,20.4833984 414.125206,20.0172031 413.285202,19.4124 L414.872802,16.2876001 C415.544805,16.7916026 416.321797,17.1821987 417.203802,17.4594001 C418.085806,17.7366015 418.988797,17.8752001 419.912801,17.8752001 C420.937607,17.8752001 421.743998,17.6778021 422.332001,17.2830001 C422.920004,16.8881981 423.214001,16.3296037 423.214001,15.6072001 C423.214001,14.162393 422.113612,13.4400002 419.912801,13.4400002 L418.048002,13.4400002 L418.048002,10.7436003 L421.676801,6.63600038 L414.167202,6.63600038 L414.167202,3.36000047 L426.515201,3.36000047 L426.515201,6.0060004 L422.533601,10.5420003 Z M436.771601,21.3024 C435.309994,21.3024 434.008007,20.9412036 432.865601,20.2188 C431.723195,19.4963964 430.828604,18.4506069 430.181801,17.0814001 C429.534998,15.7121933 429.211601,14.0784097 429.211601,12.1800002 C429.211601,10.2815908 429.534998,8.64780717 430.181801,7.27860036 C430.828604,5.90939355 431.723195,4.86360404 432.865601,4.14120045 C434.008007,3.41879685 435.309994,3.05760048 436.771601,3.05760048 C438.233208,3.05760048 439.535195,3.41879685 440.677601,4.14120045 C441.820007,4.86360404 442.714598,5.90939355 443.361401,7.27860036 C444.008204,8.64780717 444.331601,10.2815908 444.331601,12.1800002 C444.331601,14.0784097 444.008204,15.7121933 443.361401,17.0814001 C442.714598,18.4506069 441.820007,19.4963964 440.677601,20.2188 C439.535195,20.9412036 438.233208,21.3024 436.771601,21.3024 Z M436.771601,17.8500001 C437.846806,17.8500001 438.690998,17.3880047 439.304201,16.4640001 C439.917404,15.5399955 440.224001,14.1120098 440.224001,12.1800002 C440.224001,10.2479906 439.917404,8.82000494 439.304201,7.89600035 C438.690998,6.97199575 437.846806,6.51000038 436.771601,6.51000038 C435.713196,6.51000038 434.877404,6.97199575 434.264201,7.89600035 C433.650998,8.82000494 433.344401,10.2479906 433.344401,12.1800002 C433.344401,14.1120098 433.650998,15.5399955 434.264201,16.4640001 C434.877404,17.3880047 435.713196,17.8500001 436.771601,17.8500001 Z M448.313201,21.2016 C447.624397,21.2016 447.044803,20.9664024 446.574401,20.496 C446.103998,20.0255977 445.868801,19.4376036 445.868801,18.7320001 C445.868801,18.0095965 446.103998,17.4258023 446.574401,16.9806001 C447.044803,16.5353979 447.624397,16.3128001 448.313201,16.3128001 C449.002004,16.3128001 449.581598,16.5353979 450.052001,16.9806001 C450.522403,17.4258023 450.757601,18.0095965 450.757601,18.7320001 C450.757601,19.4376036 450.522403,20.0255977 450.052001,20.496 C449.581598,20.9664024 449.002004,21.2016 448.313201,21.2016 Z M459.8296,21.3024 C458.367993,21.3024 457.066006,20.9412036 455.923601,20.2188 C454.781195,19.4963964 453.886604,18.4506069 453.239801,17.0814001 C452.592997,15.7121933 452.269601,14.0784097 452.269601,12.1800002 C452.269601,10.2815908 452.592997,8.64780717 453.239801,7.27860036 C453.886604,5.90939355 454.781195,4.86360404 455.923601,4.14120045 C457.066006,3.41879685 458.367993,3.05760048 459.8296,3.05760048 C461.291208,3.05760048 462.593195,3.41879685 463.7356,4.14120045 C464.878006,4.86360404 465.772597,5.90939355 466.4194,7.27860036 C467.066203,8.64780717 467.3896,10.2815908 467.3896,12.1800002 C467.3896,14.0784097 467.066203,15.7121933 466.4194,17.0814001 C465.772597,18.4506069 464.878006,19.4963964 463.7356,20.2188 C462.593195,20.9412036 461.291208,21.3024 459.8296,21.3024 Z M459.8296,17.8500001 C460.904806,17.8500001 461.748997,17.3880047 462.3622,16.4640001 C462.975403,15.5399955 463.282,14.1120098 463.282,12.1800002 C463.282,10.2479906 462.975403,8.82000494 462.3622,7.89600035 C461.748997,6.97199575 460.904806,6.51000038 459.8296,6.51000038 C458.771195,6.51000038 457.935404,6.97199575 457.3222,7.89600035 C456.708997,8.82000494 456.4024,10.2479906 456.4024,12.1800002 C456.4024,14.1120098 456.708997,15.5399955 457.3222,16.4640001 C457.935404,17.3880047 458.771195,17.8500001 459.8296,17.8500001 Z M476.9404,21.3024 C475.478793,21.3024 474.176806,20.9412036 473.0344,20.2188 C471.891994,19.4963964 470.997403,18.4506069 470.3506,17.0814001 C469.703797,15.7121933 469.3804,14.0784097 469.3804,12.1800002 C469.3804,10.2815908 469.703797,8.64780717 470.3506,7.27860036 C470.997403,5.90939355 471.891994,4.86360404 473.0344,4.14120045 C474.176806,3.41879685 475.478793,3.05760048 476.9404,3.05760048 C478.402007,3.05760048 479.703994,3.41879685 480.8464,4.14120045 C481.988806,4.86360404 482.883397,5.90939355 483.5302,7.27860036 C484.177003,8.64780717 484.5004,10.2815908 484.5004,12.1800002 C484.5004,14.0784097 484.177003,15.7121933 483.5302,17.0814001 C482.883397,18.4506069 481.988806,19.4963964 480.8464,20.2188 C479.703994,20.9412036 478.402007,21.3024 476.9404,21.3024 Z M476.9404,17.8500001 C478.015605,17.8500001 478.859797,17.3880047 479.473,16.4640001 C480.086203,15.5399955 480.3928,14.1120098 480.3928,12.1800002 C480.3928,10.2479906 480.086203,8.82000494 479.473,7.89600035 C478.859797,6.97199575 478.015605,6.51000038 476.9404,6.51000038 C475.881995,6.51000038 475.046203,6.97199575 474.433,7.89600035 C473.819797,8.82000494 473.5132,10.2479906 473.5132,12.1800002 C473.5132,14.1120098 473.819797,15.5399955 474.433,16.4640001 C475.046203,17.3880047 475.881995,17.8500001 476.9404,17.8500001 Z M494.051199,21.3024 C492.589592,21.3024 491.287605,20.9412036 490.1452,20.2188 C489.002794,19.4963964 488.108203,18.4506069 487.4614,17.0814001 C486.814596,15.7121933 486.4912,14.0784097 486.4912,12.1800002 C486.4912,10.2815908 486.814596,8.64780717 487.4614,7.27860036 C488.108203,5.90939355 489.002794,4.86360404 490.1452,4.14120045 C491.287605,3.41879685 492.589592,3.05760048 494.051199,3.05760048 C495.512807,3.05760048 496.814794,3.41879685 497.957199,4.14120045 C499.099605,4.86360404 499.994196,5.90939355 500.640999,7.27860036 C501.287803,8.64780717 501.611199,10.2815908 501.611199,12.1800002 C501.611199,14.0784097 501.287803,15.7121933 500.640999,17.0814001 C499.994196,18.4506069 499.099605,19.4963964 497.957199,20.2188 C496.814794,20.9412036 495.512807,21.3024 494.051199,21.3024 Z M494.051199,17.8500001 C495.126405,17.8500001 495.970596,17.3880047 496.583799,16.4640001 C497.197002,15.5399955 497.503599,14.1120098 497.503599,12.1800002 C497.503599,10.2479906 497.197002,8.82000494 496.583799,7.89600035 C495.970596,6.97199575 495.126405,6.51000038 494.051199,6.51000038 C492.992794,6.51000038 492.157003,6.97199575 491.5438,7.89600035 C490.930597,8.82000494 490.624,10.2479906 490.624,12.1800002 C490.624,14.1120098 490.930597,15.5399955 491.5438,16.4640001 C492.157003,17.3880047 492.992794,17.8500001 494.051199,17.8500001 Z M505.592799,21.2016 C504.903996,21.2016 504.324402,20.9664024 503.853999,20.496 C503.383597,20.0255977 503.148399,19.4376036 503.148399,18.7320001 C503.148399,18.0095965 503.383597,17.4258023 503.853999,16.9806001 C504.324402,16.5353979 504.903996,16.3128001 505.592799,16.3128001 C506.281603,16.3128001 506.861197,16.5353979 507.331599,16.9806001 C507.802001,17.4258023 508.037199,18.0095965 508.037199,18.7320001 C508.037199,19.4376036 507.802001,20.0255977 507.331599,20.496 C506.861197,20.9664024 506.281603,21.2016 505.592799,21.2016 Z M517.109199,21.3024 C515.647592,21.3024 514.345605,20.9412036 513.203199,20.2188 C512.060793,19.4963964 511.166202,18.4506069 510.519399,17.0814001 C509.872596,15.7121933 509.549199,14.0784097 509.549199,12.1800002 C509.549199,10.2815908 509.872596,8.64780717 510.519399,7.27860036 C511.166202,5.90939355 512.060793,4.86360404 513.203199,4.14120045 C514.345605,3.41879685 515.647592,3.05760048 517.109199,3.05760048 C518.570806,3.05760048 519.872793,3.41879685 521.015199,4.14120045 C522.157604,4.86360404 523.052195,5.90939355 523.698999,7.27860036 C524.345802,8.64780717 524.669199,10.2815908 524.669199,12.1800002 C524.669199,14.0784097 524.345802,15.7121933 523.698999,17.0814001 C523.052195,18.4506069 522.157604,19.4963964 521.015199,20.2188 C519.872793,20.9412036 518.570806,21.3024 517.109199,21.3024 Z M517.109199,17.8500001 C518.184404,17.8500001 519.028596,17.3880047 519.641799,16.4640001 C520.255002,15.5399955 520.561599,14.1120098 520.561599,12.1800002 C520.561599,10.2479906 520.255002,8.82000494 519.641799,7.89600035 C519.028596,6.97199575 518.184404,6.51000038 517.109199,6.51000038 C516.050794,6.51000038 515.215002,6.97199575 514.601799,7.89600035 C513.988596,8.82000494 513.681999,10.2479906 513.681999,12.1800002 C513.681999,14.1120098 513.988596,15.5399955 514.601799,16.4640001 C515.215002,17.3880047 516.050794,17.8500001 517.109199,17.8500001 Z M534.219998,21.3024 C532.758391,21.3024 531.456404,20.9412036 530.313999,20.2188 C529.171593,19.4963964 528.277002,18.4506069 527.630199,17.0814001 C526.983395,15.7121933 526.659999,14.0784097 526.659999,12.1800002 C526.659999,10.2815908 526.983395,8.64780717 527.630199,7.27860036 C528.277002,5.90939355 529.171593,4.86360404 530.313999,4.14120045 C531.456404,3.41879685 532.758391,3.05760048 534.219998,3.05760048 C535.681606,3.05760048 536.983593,3.41879685 538.125998,4.14120045 C539.268404,4.86360404 540.162995,5.90939355 540.809798,7.27860036 C541.456601,8.64780717 541.779998,10.2815908 541.779998,12.1800002 C541.779998,14.0784097 541.456601,15.7121933 540.809798,17.0814001 C540.162995,18.4506069 539.268404,19.4963964 538.125998,20.2188 C536.983593,20.9412036 535.681606,21.3024 534.219998,21.3024 Z M534.219998,17.8500001 C535.295204,17.8500001 536.139395,17.3880047 536.752598,16.4640001 C537.365801,15.5399955 537.672398,14.1120098 537.672398,12.1800002 C537.672398,10.2479906 537.365801,8.82000494 536.752598,7.89600035 C536.139395,6.97199575 535.295204,6.51000038 534.219998,6.51000038 C533.161593,6.51000038 532.325802,6.97199575 531.712598,7.89600035 C531.099395,8.82000494 530.792799,10.2479906 530.792799,12.1800002 C530.792799,14.1120098 531.099395,15.5399955 531.712598,16.4640001 C532.325802,17.3880047 533.161593,17.8500001 534.219998,17.8500001 Z M551.330798,21.3024 C549.869191,21.3024 548.567204,20.9412036 547.424798,20.2188 C546.282392,19.4963964 545.387801,18.4506069 544.740998,17.0814001 C544.094195,15.7121933 543.770798,14.0784097 543.770798,12.1800002 C543.770798,10.2815908 544.094195,8.64780717 544.740998,7.27860036 C545.387801,5.90939355 546.282392,4.86360404 547.424798,4.14120045 C548.567204,3.41879685 549.869191,3.05760048 551.330798,3.05760048 C552.792405,3.05760048 554.094392,3.41879685 555.236798,4.14120045 C556.379204,4.86360404 557.273795,5.90939355 557.920598,7.27860036 C558.567401,8.64780717 558.890798,10.2815908 558.890798,12.1800002 C558.890798,14.0784097 558.567401,15.7121933 557.920598,17.0814001 C557.273795,18.4506069 556.379204,19.4963964 555.236798,20.2188 C554.094392,20.9412036 552.792405,21.3024 551.330798,21.3024 Z M551.330798,17.8500001 C552.406003,17.8500001 553.250195,17.3880047 553.863398,16.4640001 C554.476601,15.5399955 554.783198,14.1120098 554.783198,12.1800002 C554.783198,10.2479906 554.476601,8.82000494 553.863398,7.89600035 C553.250195,6.97199575 552.406003,6.51000038 551.330798,6.51000038 C550.272393,6.51000038 549.436601,6.97199575 548.823398,7.89600035 C548.210195,8.82000494 547.903598,10.2479906 547.903598,12.1800002 C547.903598,14.1120098 548.210195,15.5399955 548.823398,16.4640001 C549.436601,17.3880047 550.272393,17.8500001 551.330798,17.8500001 Z" id="$-30.000.000" fill="#4C3092"></path>
                <path d="M909.2781,14.1800002 L911.3067,14.1800002 L911.3067,19.9256001 L915.5151,14.1800002 L917.4303,14.1800002 L917.4303,23 L915.4143,23 L915.4143,17.2670002 L911.2059,23 L909.2781,23 L909.2781,14.1800002 Z M925.8849,16.1204002 C926.573703,16.1204002 927.191097,16.2694987 927.7371,16.5677002 C928.283103,16.8659017 928.711498,17.2795975 929.0223,17.8088001 C929.333101,18.3380028 929.4885,18.9385967 929.4885,19.6106001 C929.4885,20.2826034 929.333101,20.8831974 929.0223,21.4124 C928.711498,21.9416027 928.283103,22.3552985 927.7371,22.6535 C927.191097,22.9517015 926.573703,23.1008 925.8849,23.1008 C925.288497,23.1008 924.742503,22.9895011 924.2469,22.7669 C923.751298,22.5442989 923.339702,22.2293021 923.0121,21.8219 C922.684498,21.414498 922.466101,20.9462027 922.3569,20.4170001 L921.4245,20.4170001 L921.4245,23 L919.4715,23 L919.4715,16.2212002 L921.4245,16.2212002 L921.4245,18.7160001 L922.3695,18.7160001 C922.562701,17.9263962 922.974297,17.2964025 923.6043,16.8260002 C924.234303,16.3555978 924.994496,16.1204002 925.8849,16.1204002 Z M925.8849,21.488 C926.363702,21.488 926.760598,21.3179017 927.0756,20.9777001 C927.390602,20.6374984 927.5481,20.1818029 927.5481,19.6106001 C927.5481,19.0309972 927.390602,18.5732018 927.0756,18.2372001 C926.760598,17.9011985 926.363702,17.7332001 925.8849,17.7332001 C925.397698,17.7332001 924.996602,17.9011985 924.6816,18.2372001 C924.366598,18.5732018 924.2091,19.0309972 924.2091,19.6106001 C924.2091,20.1818029 924.366598,20.6374984 924.6816,20.9777001 C924.996602,21.3179017 925.397698,21.488 925.8849,21.488 Z M937.2501,16.2212002 L937.2501,23 L935.2845,23 L935.2845,17.8340001 L933.1425,17.8340001 L933.0795,19.0310001 C933.0459,19.9214045 932.961901,20.6605971 932.8275,21.2486 C932.693099,21.836603 932.474701,22.2985983 932.1723,22.6346 C931.869898,22.9706017 931.449903,23.1386 930.9123,23.1386 C930.626698,23.1386 930.286502,23.0882005 929.8917,22.9874 L929.9925,21.3746 C930.126901,21.3914001 930.2235,21.3998 930.2823,21.3998 C930.576301,21.3998 930.796799,21.2927011 930.9438,21.0785001 C931.090801,20.864299 931.1895,20.5913017 931.2399,20.2595001 C931.2903,19.9276984 931.3281,19.4888028 931.3533,18.9428001 L931.4541,16.2212002 L937.2501,16.2212002 Z M942.8067,18.3884001 C943.688704,18.3968002 944.364897,18.5962982 944.8353,18.9869001 C945.305702,19.377502 945.5409,19.9297965 945.5409,20.6438001 C945.5409,21.3914038 945.278402,21.9730979 944.7534,22.3889 C944.228397,22.8047021 943.491304,23.0126 942.5421,23.0126 L939.1401,23 L939.1401,16.2212002 L941.0931,16.2212002 L941.0931,18.3884001 L942.8067,18.3884001 Z M942.3657,21.614 C942.743701,21.6224001 943.033499,21.5426009 943.2351,21.3746 C943.436701,21.2065992 943.5375,20.9546017 943.5375,20.6186001 C943.5375,20.2909984 943.438801,20.0516008 943.2414,19.9004001 C943.043999,19.7491993 942.752102,19.6694001 942.3657,19.6610001 L941.0931,19.6484001 L941.0931,21.614 L942.3657,21.614 Z" id="Июль" fill="#4C3092"></path>
                <path d="M917.1276,77.3864001 L917.1276,80 L906.6534,80 L906.6534,77.9210001 L911.9994,72.8720002 C912.567003,72.3307975 912.949799,71.8655022 913.1478,71.4761002 C913.345801,71.0866983 913.4448,70.7006022 913.4448,70.3178003 C913.4448,69.7633975 913.256702,69.3377018 912.8805,69.0407003 C912.504298,68.7436988 911.953203,68.5952003 911.2272,68.5952003 C910.619997,68.5952003 910.072202,68.7106991 909.5838,68.9417003 C909.095397,69.1727014 908.686202,69.519198 908.3562,69.9812003 L906.0198,68.4764003 C906.561003,67.6711963 907.306795,67.0409026 908.2572,66.5855004 C909.207605,66.1300981 910.296594,65.9024004 911.5242,65.9024004 C912.553805,65.9024004 913.454696,66.0706987 914.2269,66.4073004 C914.999104,66.743902 915.599698,67.2190973 916.0287,67.8329003 C916.457702,68.4467034 916.6722,69.1693961 916.6722,70.0010003 C916.6722,70.753404 916.513801,71.4595969 916.197,72.1196002 C915.880198,72.7796035 915.266404,73.5319959 914.3556,74.3768001 L911.1678,77.3864001 L917.1276,77.3864001 Z M924.3546,80.2376 C923.206194,80.2376 922.183204,79.9538028 921.2856,79.3862 C920.387995,78.8185972 919.685102,77.9969054 919.1769,76.9211001 C918.668697,75.8452947 918.4146,74.5616076 918.4146,73.0700002 C918.4146,71.5783928 918.668697,70.2947056 919.1769,69.2189003 C919.685102,68.1430949 920.387995,67.3214032 921.2856,66.7538004 C922.183204,66.1861975 923.206194,65.9024004 924.3546,65.9024004 C925.503005,65.9024004 926.525995,66.1861975 927.423599,66.7538004 C928.321204,67.3214032 929.024097,68.1430949 929.532299,69.2189003 C930.040502,70.2947056 930.294599,71.5783928 930.294599,73.0700002 C930.294599,74.5616076 930.040502,75.8452947 929.532299,76.9211001 C929.024097,77.9969054 928.321204,78.8185972 927.423599,79.3862 C926.525995,79.9538028 925.503005,80.2376 924.3546,80.2376 Z M924.3546,77.5250001 C925.199404,77.5250001 925.862697,77.1620037 926.344499,76.4360001 C926.826302,75.7099965 927.067199,74.5880077 927.067199,73.0700002 C927.067199,71.5519926 926.826302,70.4300039 926.344499,69.7040003 C925.862697,68.9779967 925.199404,68.6150003 924.3546,68.6150003 C923.522995,68.6150003 922.866302,68.9779967 922.3845,69.7040003 C921.902697,70.4300039 921.6618,71.5519926 921.6618,73.0700002 C921.6618,74.5880077 921.902697,75.7099965 922.3845,76.4360001 C922.866302,77.1620037 923.522995,77.5250001 924.3546,77.5250001 Z M937.085999,66.1400004 L937.085999,80 L933.878399,80 L933.878399,68.7140003 L931.106399,68.7140003 L931.106399,66.1400004 L937.085999,66.1400004 Z M944.372399,65.9024004 C946.312809,65.9024004 947.830793,66.4930945 948.926399,67.6745003 C950.022004,68.8559062 950.569799,70.5553892 950.569799,72.7730002 C950.569799,74.343808 950.276102,75.6901945 949.688699,76.8122001 C949.101296,77.9342057 948.273004,78.7855971 947.203799,79.3664 C946.134594,79.9472029 944.900406,80.2376 943.501199,80.2376 C942.761995,80.2376 942.055802,80.1551008 941.382599,79.9901 C940.709396,79.8250992 940.135201,79.5908015 939.659999,79.2872 L940.847999,76.9310001 C941.521202,77.3930024 942.385794,77.6240001 943.441799,77.6240001 C944.616605,77.6240001 945.547196,77.2775035 946.233599,76.5845001 C946.920002,75.8914966 947.289599,74.8916067 947.342399,73.5848002 C946.510795,74.4164043 945.362406,74.8322001 943.897199,74.8322001 C943.012795,74.8322001 942.207603,74.6540019 941.481599,74.2976002 C940.755595,73.9411984 940.181401,73.4363034 939.758999,72.7829002 C939.336597,72.1294969 939.125399,71.3738045 939.125399,70.5158003 C939.125399,69.5917957 939.356397,68.7800038 939.818399,68.0804003 C940.280401,67.3807968 940.910695,66.8429022 941.709299,66.4667004 C942.507903,66.0904985 943.395594,65.9024004 944.372399,65.9024004 Z M944.609999,72.4364002 C945.309602,72.4364002 945.880497,72.2417022 946.322699,71.8523002 C946.764901,71.4628983 946.985999,70.9646033 946.985999,70.3574003 C946.985999,69.7501972 946.771501,69.2552022 946.342499,68.8724003 C945.913497,68.4895984 945.322803,68.2982003 944.570399,68.2982003 C943.883996,68.2982003 943.326301,68.4829985 942.897299,68.8526003 C942.468297,69.2222021 942.253799,69.7237971 942.253799,70.3574003 C942.253799,70.9910034 942.468297,71.4958983 942.897299,71.8721002 C943.326301,72.2483021 943.897195,72.4364002 944.609999,72.4364002 Z" id="2019" fill="#4C3092"></path>
            </g>
        </g>
    </g>
</svg>