<?xml version="1.0" encoding="UTF-8"?>
<svg width="936px" height="81px" viewBox="0 0 936 81" version="1.1" xmlns="http://www.w3.org/2000/svg" xmlns:xlink="http://www.w3.org/1999/xlink">
    <!-- Generator: Sketch 48.1 (47250) - http://www.bohemiancoding.com/sketch -->
    <title>line-30000000</title>
    <desc>Created with Sketch.</desc>
    <defs></defs>
    <g id="Artboard-2" stroke="none" stroke-width="1" fill="none" fill-rule="evenodd" transform="translate(-85.000000, -1250.000000)">
        <g id="line-30000000" transform="translate(85.000000, 1250.000000)">
            <path d="M25,45 L914.797858,45" id="Line" stroke="#4C3092" stroke-width="1.88999986" stroke-linecap="square"></path>
            <g id="Group-6" transform="translate(18.000000, 34.000000)" fill="#4C3092">
                <ellipse id="Oval-3-Copy-2" opacity="0.049999997" cx="10.4005805" cy="10.5" rx="10.4005805" ry="10.5"></ellipse>
                <ellipse id="Oval-3" opacity="0.100000001" cx="10.4005805" cy="10.5" rx="8.00044657" ry="8.07692308"></ellipse>
                <ellipse id="Oval-3-Copy" cx="10.4005805" cy="10.5" rx="4.80026794" ry="4.84615385"></ellipse>
            </g>
            <g id="Group-6-Copy" transform="translate(904.000000, 34.000000)" fill="#4C3092">
                <ellipse id="Oval-3-Copy-2" opacity="0.049999997" cx="10.4005805" cy="10.5" rx="10.4005805" ry="10.5"></ellipse>
                <ellipse id="Oval-3" opacity="0.100000001" cx="10.4005805" cy="10.5" rx="8.00044657" ry="8.07692308"></ellipse>
                <ellipse id="Oval-3-Copy" cx="10.4005805" cy="10.5" rx="4.80026794" ry="4.84615385"></ellipse>
            </g>
            <path d="M17.1275997,77.3864001 L17.1275997,80 L6.65339998,80 L6.65339998,77.9210001 L11.9993998,72.8720002 C12.5670027,72.3307975 12.9497988,71.8655022 13.1477998,71.4761002 C13.3458008,71.0866983 13.4447998,70.7006022 13.4447998,70.3178003 C13.4447998,69.7633975 13.2567017,69.3377018 12.8804998,69.0407003 C12.5042979,68.7436988 11.9532035,68.5952003 11.2271999,68.5952003 C10.6199968,68.5952003 10.0722023,68.7106991 9.58379991,68.9417003 C9.09539748,69.1727014 8.68620158,69.519198 8.35619994,69.9812003 L6.0198,68.4764003 C6.56100269,67.6711963 7.30679521,67.0409026 8.25719994,66.5855004 C9.20760467,66.1300981 10.2965937,65.9024004 11.5241999,65.9024004 C12.553805,65.9024004 13.4546959,66.0706987 14.2268998,66.4073004 C14.9991036,66.743902 15.5996976,67.2190973 16.0286997,67.8329003 C16.4577019,68.4467034 16.6721997,69.1693961 16.6721997,70.0010003 C16.6721997,70.753404 16.5138013,71.4595969 16.1969997,72.1196002 C15.8801982,72.7796035 15.2664043,73.5319959 14.3555998,74.3768001 L11.1677999,77.3864001 L17.1275997,77.3864001 Z M24.3545995,80.2376 C23.2061938,80.2376 22.1832041,79.9538028 21.2855996,79.3862 C20.3879951,78.8185972 19.6851022,77.9969054 19.1768997,76.9211001 C18.6686971,75.8452947 18.4145997,74.5616076 18.4145997,73.0700002 C18.4145997,71.5783928 18.6686971,70.2947056 19.1768997,69.2189003 C19.6851022,68.1430949 20.3879951,67.3214032 21.2855996,66.7538004 C22.1832041,66.1861975 23.2061938,65.9024004 24.3545995,65.9024004 C25.5030052,65.9024004 26.525995,66.1861975 27.4235994,66.7538004 C28.3212039,67.3214032 29.0240968,68.1430949 29.5322994,69.2189003 C30.0405019,70.2947056 30.2945994,71.5783928 30.2945994,73.0700002 C30.2945994,74.5616076 30.0405019,75.8452947 29.5322994,76.9211001 C29.0240968,77.9969054 28.3212039,78.8185972 27.4235994,79.3862 C26.525995,79.9538028 25.5030052,80.2376 24.3545995,80.2376 Z M24.3545995,77.5250001 C25.1994037,77.5250001 25.8626971,77.1620037 26.3444995,76.4360001 C26.8263019,75.7099965 27.0671994,74.5880077 27.0671994,73.0700002 C27.0671994,71.5519926 26.8263019,70.4300039 26.3444995,69.7040003 C25.8626971,68.9779967 25.1994037,68.6150003 24.3545995,68.6150003 C23.5229954,68.6150003 22.866302,68.9779967 22.3844996,69.7040003 C21.9026972,70.4300039 21.6617996,71.5519926 21.6617996,73.0700002 C21.6617996,74.5880077 21.9026972,75.7099965 22.3844996,76.4360001 C22.866302,77.1620037 23.5229954,77.5250001 24.3545995,77.5250001 Z M37.0859992,66.1400004 L37.0859992,80 L33.8783993,80 L33.8783993,68.7140003 L31.1063993,68.7140003 L31.1063993,66.1400004 L37.0859992,66.1400004 Z M44.372399,65.9024004 C46.3128086,65.9024004 47.8307934,66.4930945 48.9263989,67.6745003 C50.0220043,68.8559062 50.5697988,70.5553892 50.5697988,72.7730002 C50.5697988,74.343808 50.2761018,75.6901945 49.6886988,76.8122001 C49.1012959,77.9342057 48.2730042,78.7855971 47.2037989,79.3664 C46.1345936,79.9472029 44.900406,80.2376 43.501199,80.2376 C42.7619953,80.2376 42.0558024,80.1551008 41.3825991,79.9901 C40.7093957,79.8250992 40.1352015,79.5908015 39.6599991,79.2872 L40.8479991,76.9310001 C41.5212024,77.3930024 42.3857938,77.6240001 43.441799,77.6240001 C44.6166049,77.6240001 45.5471955,77.2775035 46.2335989,76.5845001 C46.9200023,75.8914966 47.2895986,74.8916067 47.3423989,73.5848002 C46.5107948,74.4164043 45.3624063,74.8322001 43.897199,74.8322001 C43.0127946,74.8322001 42.2076027,74.6540019 41.4815991,74.2976002 C40.7555954,73.9411984 40.1814012,73.4363034 39.7589991,72.7829002 C39.336597,72.1294969 39.1253991,71.3738045 39.1253991,70.5158003 C39.1253991,69.5917957 39.3563968,68.7800038 39.8183991,68.0804003 C40.2804014,67.3807968 40.9106951,66.8429022 41.7092991,66.4667004 C42.507903,66.0904985 43.3955941,65.9024004 44.372399,65.9024004 Z M44.609999,72.4364002 C45.3096025,72.4364002 45.8804967,72.2417022 46.3226989,71.8523002 C46.7649011,71.4628983 46.9859989,70.9646033 46.9859989,70.3574003 C46.9859989,69.7501972 46.7715011,69.2552022 46.3424989,68.8724003 C45.9134968,68.4895984 45.3228027,68.2982003 44.570399,68.2982003 C43.8839956,68.2982003 43.3263012,68.4829985 42.897299,68.8526003 C42.4682969,69.2222021 42.253799,69.7237971 42.253799,70.3574003 C42.253799,70.9910034 42.4682969,71.4958983 42.897299,71.8721002 C43.3263012,72.2483021 43.8971954,72.4364002 44.609999,72.4364002 Z" id="2019" fill="#4C3092"></path>
            <path d="M2.31950071,15.8180002 L2.31950071,18.1490001 L6.4019006,18.1490001 L6.4019006,19.7870001 L2.31950071,19.7870001 L2.31950071,23 L0.278300761,23 L0.278300761,14.1800002 L6.94370058,14.1800002 L6.94370058,15.8180002 L2.31950071,15.8180002 Z M14.6549004,19.6358001 C14.6549004,19.6610002 14.6423005,19.8373984 14.6171004,20.1650001 L9.48890052,20.1650001 C9.58130098,20.5850022 9.79969879,20.9167988 10.1441005,21.1604 C10.4885022,21.4040013 10.9168979,21.5258 11.4293005,21.5258 C11.7821022,21.5258 12.0949991,21.4733006 12.3680004,21.3683 C12.6410018,21.2632995 12.8950993,21.0974012 13.1303004,20.8706001 L14.1761004,22.0046 C13.5376972,22.7354037 12.6053066,23.1008 11.3789005,23.1008 C10.6144967,23.1008 9.93830344,22.9517015 9.35030052,22.6535 C8.7622976,22.3552985 8.30870214,21.9416027 7.98950056,21.4124 C7.67029897,20.8831974 7.51070057,20.2826034 7.51070057,19.6106001 C7.51070057,18.9469968 7.66819899,18.3485028 7.98320056,17.8151001 C8.29820212,17.2816975 8.73079779,16.8659017 9.28100052,16.5677002 C9.83120326,16.2694987 10.4464971,16.1204002 11.1269005,16.1204002 C11.7905038,16.1204002 12.3910978,16.2631988 12.9287004,16.5488002 C13.4663031,16.8344016 13.8883989,17.2438975 14.1950004,17.7773001 C14.5016019,18.3107028 14.6549004,18.9301966 14.6549004,19.6358001 Z M11.1395005,17.6072001 C10.6942983,17.6072001 10.320502,17.7331989 10.0181005,17.9852001 C9.715699,18.2372014 9.53090085,18.5815979 9.46370052,19.0184001 L12.8027004,19.0184001 C12.7355001,18.589998 12.5507019,18.2477014 12.2483004,17.9915001 C11.9458989,17.7352989 11.5763026,17.6072001 11.1395005,17.6072001 Z M19.9721002,16.1204002 C20.6021034,16.1204002 21.1753976,16.2652987 21.6920002,16.5551002 C22.2086028,16.8449016 22.6138987,17.2522975 22.9079002,17.7773001 C23.2019016,18.3023027 23.3489001,18.9133966 23.3489001,19.6106001 C23.3489001,20.3078036 23.2019016,20.9188974 22.9079002,21.4439 C22.6138987,21.9689027 22.2086028,22.3762986 21.6920002,22.6661 C21.1753976,22.9559015 20.6021034,23.1008 19.9721002,23.1008 C19.0396956,23.1008 18.3299027,22.8068029 17.8427003,22.2188 L17.8427003,23 L15.9653003,23 L15.9653003,13.6508002 L17.9309003,13.6508002 L17.9309003,16.9394002 C18.4265028,16.3933974 19.1068959,16.1204002 19.9721002,16.1204002 Z M19.6319002,21.488 C20.1359028,21.488 20.5495986,21.3179017 20.8730002,20.9777001 C21.1964018,20.6374984 21.3581002,20.1818029 21.3581002,19.6106001 C21.3581002,19.0393972 21.1964018,18.5837018 20.8730002,18.2435001 C20.5495986,17.9032984 20.1359028,17.7332001 19.6319002,17.7332001 C19.1278977,17.7332001 18.7142019,17.9032984 18.3908003,18.2435001 C18.0673987,18.5837018 17.9057003,19.0393972 17.9057003,19.6106001 C17.9057003,20.1818029 18.0673987,20.6374984 18.3908003,20.9777001 C18.7142019,21.3179017 19.1278977,21.488 19.6319002,21.488 Z M26.5367001,17.1158002 C26.7719012,16.7881985 27.0889981,16.540401 27.488,16.3724002 C27.887002,16.2043993 28.3468974,16.1204002 28.8677,16.1204002 L28.8677,17.9348001 C28.6492989,17.9180001 28.5023004,17.9096001 28.4267,17.9096001 C27.8638972,17.9096001 27.4229016,18.0670986 27.1037001,18.3821001 C26.7844985,18.6971017 26.6249001,19.169597 26.6249001,19.7996001 L26.6249001,23 L24.6593001,23 L24.6593001,16.2212002 L26.5367001,16.2212002 L26.5367001,17.1158002 Z M36.9190998,16.2212002 L36.9190998,23 L35.0542998,23 L35.0542998,22.1936 C34.7938985,22.4876015 34.4831017,22.7122992 34.1218999,22.8677 C33.7606981,23.0231008 33.370102,23.1008 32.9500999,23.1008 C32.0596955,23.1008 31.3541025,22.8446026 30.8333,22.3322 C30.3124974,21.8197975 30.0521,21.0596051 30.0521,20.0516001 L30.0521,16.2212002 L32.0176999,16.2212002 L32.0176999,19.7618001 C32.0176999,20.8538055 32.4754953,21.3998 33.3910999,21.3998 C33.8615022,21.3998 34.2394984,21.2465016 34.5250999,20.9399001 C34.8107013,20.6332985 34.9534998,20.1776031 34.9534998,19.5728001 L34.9534998,16.2212002 L36.9190998,16.2212002 Z M41.4802997,16.1204002 C42.5303049,16.1204002 43.3366968,16.3702977 43.8994996,16.8701002 C44.4623024,17.3699026 44.7436996,18.1237951 44.7436996,19.1318001 L44.7436996,23 L42.9040996,23 L42.9040996,22.1558 C42.5344978,22.7858032 41.8457047,23.1008 40.8376997,23.1008 C40.3168971,23.1008 39.8654016,23.0126009 39.4831997,22.8362 C39.1009978,22.6597991 38.8091007,22.4162016 38.6074997,22.1054 C38.4058987,21.7945985 38.3050998,21.441802 38.3050998,21.0470001 C38.3050998,20.4169969 38.5423974,19.9214019 39.0169997,19.5602001 C39.4916021,19.1989983 40.2244947,19.0184001 41.2156997,19.0184001 L42.7780996,19.0184001 C42.7780996,18.589998 42.6479009,18.2603013 42.3874996,18.0293001 C42.1270984,17.798299 41.7365023,17.6828001 41.2156997,17.6828001 C40.8544979,17.6828001 40.4996014,17.7394996 40.1509997,17.8529001 C39.802398,17.9663007 39.5063009,18.1195992 39.2626997,18.3128001 L38.5570997,16.9394002 C38.9267016,16.6789989 39.3697971,16.4774009 39.8863997,16.3346002 C40.4030023,16.1917995 40.934297,16.1204002 41.4802997,16.1204002 Z M41.3290997,21.7778 C41.6651013,21.7778 41.9632984,21.7001008 42.2236996,21.5447 C42.4841009,21.3892993 42.6688991,21.1604016 42.7780996,20.8580001 L42.7780996,20.1650001 L41.4298997,20.1650001 C40.6234957,20.1650001 40.2202997,20.4295974 40.2202997,20.9588001 C40.2202997,21.2108013 40.3189987,21.4102993 40.5163997,21.5573 C40.7138007,21.7043008 40.984698,21.7778 41.3290997,21.7778 Z M48.3976995,17.1158002 C48.6329007,16.7881985 48.9499975,16.540401 49.3489995,16.3724002 C49.7480014,16.2043993 50.2078968,16.1204002 50.7286994,16.1204002 L50.7286994,17.9348001 C50.5102983,17.9180001 50.3632998,17.9096001 50.2876994,17.9096001 C49.7248966,17.9096001 49.2839011,18.0670986 48.9646995,18.3821001 C48.6454979,18.6971017 48.4858995,19.169597 48.4858995,19.7996001 L48.4858995,23 L46.5202995,23 L46.5202995,16.2212002 L48.3976995,16.2212002 L48.3976995,17.1158002 Z M58.8682992,16.2212002 L55.8064993,23.4158 C55.4956977,24.1970039 55.1114016,24.7471984 54.6535993,25.0663999 C54.195797,25.3856015 53.6435026,25.5451999 52.9966994,25.5451999 C52.6438976,25.5451999 52.2953011,25.4906005 51.9508994,25.3813999 C51.6064977,25.2721994 51.3251005,25.1210009 51.1066994,24.9277999 L51.8248994,23.5292 C51.9761001,23.6636007 52.1503984,23.7685996 52.3477994,23.8442 C52.5452004,23.9198004 52.7404984,23.9576 52.9336994,23.9576 C53.2025007,23.9576 53.4208985,23.8925006 53.5888993,23.7623 C53.7569002,23.6320993 53.9080987,23.4158015 54.0424993,23.1134 L54.0676993,23.0504 L51.1318994,16.2212002 L53.1604994,16.2212002 L55.0630993,20.8202001 L56.9782993,16.2212002 L58.8682992,16.2212002 Z" id="February" fill="#4C3092"></path>
            <path d="M902.1276,77.3864001 L902.1276,80 L891.6534,80 L891.6534,77.9210001 L896.9994,72.8720002 C897.567003,72.3307975 897.949799,71.8655022 898.1478,71.4761002 C898.345801,71.0866983 898.4448,70.7006022 898.4448,70.3178003 C898.4448,69.7633975 898.256702,69.3377018 897.8805,69.0407003 C897.504298,68.7436988 896.953203,68.5952003 896.2272,68.5952003 C895.619997,68.5952003 895.072202,68.7106991 894.5838,68.9417003 C894.095397,69.1727014 893.686202,69.519198 893.3562,69.9812003 L891.0198,68.4764003 C891.561003,67.6711963 892.306795,67.0409026 893.2572,66.5855004 C894.207605,66.1300981 895.296594,65.9024004 896.5242,65.9024004 C897.553805,65.9024004 898.454696,66.0706987 899.2269,66.4073004 C899.999104,66.743902 900.599698,67.2190973 901.0287,67.8329003 C901.457702,68.4467034 901.6722,69.1693961 901.6722,70.0010003 C901.6722,70.753404 901.513801,71.4595969 901.197,72.1196002 C900.880198,72.7796035 900.266404,73.5319959 899.3556,74.3768001 L896.1678,77.3864001 L902.1276,77.3864001 Z M909.3546,80.2376 C908.206194,80.2376 907.183204,79.9538028 906.2856,79.3862 C905.387995,78.8185972 904.685102,77.9969054 904.1769,76.9211001 C903.668697,75.8452947 903.4146,74.5616076 903.4146,73.0700002 C903.4146,71.5783928 903.668697,70.2947056 904.1769,69.2189003 C904.685102,68.1430949 905.387995,67.3214032 906.2856,66.7538004 C907.183204,66.1861975 908.206194,65.9024004 909.3546,65.9024004 C910.503005,65.9024004 911.525995,66.1861975 912.423599,66.7538004 C913.321204,67.3214032 914.024097,68.1430949 914.532299,69.2189003 C915.040502,70.2947056 915.294599,71.5783928 915.294599,73.0700002 C915.294599,74.5616076 915.040502,75.8452947 914.532299,76.9211001 C914.024097,77.9969054 913.321204,78.8185972 912.423599,79.3862 C911.525995,79.9538028 910.503005,80.2376 909.3546,80.2376 Z M909.3546,77.5250001 C910.199404,77.5250001 910.862697,77.1620037 911.344499,76.4360001 C911.826302,75.7099965 912.067199,74.5880077 912.067199,73.0700002 C912.067199,71.5519926 911.826302,70.4300039 911.344499,69.7040003 C910.862697,68.9779967 910.199404,68.6150003 909.3546,68.6150003 C908.522995,68.6150003 907.866302,68.9779967 907.3845,69.7040003 C906.902697,70.4300039 906.6618,71.5519926 906.6618,73.0700002 C906.6618,74.5880077 906.902697,75.7099965 907.3845,76.4360001 C907.866302,77.1620037 908.522995,77.5250001 909.3546,77.5250001 Z M922.085999,66.1400004 L922.085999,80 L918.878399,80 L918.878399,68.7140003 L916.106399,68.7140003 L916.106399,66.1400004 L922.085999,66.1400004 Z M929.372399,65.9024004 C931.312809,65.9024004 932.830793,66.4930945 933.926399,67.6745003 C935.022004,68.8559062 935.569799,70.5553892 935.569799,72.7730002 C935.569799,74.343808 935.276102,75.6901945 934.688699,76.8122001 C934.101296,77.9342057 933.273004,78.7855971 932.203799,79.3664 C931.134594,79.9472029 929.900406,80.2376 928.501199,80.2376 C927.761995,80.2376 927.055802,80.1551008 926.382599,79.9901 C925.709396,79.8250992 925.135201,79.5908015 924.659999,79.2872 L925.847999,76.9310001 C926.521202,77.3930024 927.385794,77.6240001 928.441799,77.6240001 C929.616605,77.6240001 930.547196,77.2775035 931.233599,76.5845001 C931.920002,75.8914966 932.289599,74.8916067 932.342399,73.5848002 C931.510795,74.4164043 930.362406,74.8322001 928.897199,74.8322001 C928.012795,74.8322001 927.207603,74.6540019 926.481599,74.2976002 C925.755595,73.9411984 925.181401,73.4363034 924.758999,72.7829002 C924.336597,72.1294969 924.125399,71.3738045 924.125399,70.5158003 C924.125399,69.5917957 924.356397,68.7800038 924.818399,68.0804003 C925.280401,67.3807968 925.910695,66.8429022 926.709299,66.4667004 C927.507903,66.0904985 928.395594,65.9024004 929.372399,65.9024004 Z M929.609999,72.4364002 C930.309602,72.4364002 930.880497,72.2417022 931.322699,71.8523002 C931.764901,71.4628983 931.985999,70.9646033 931.985999,70.3574003 C931.985999,69.7501972 931.771501,69.2552022 931.342499,68.8724003 C930.913497,68.4895984 930.322803,68.2982003 929.570399,68.2982003 C928.883996,68.2982003 928.326301,68.4829985 927.897299,68.8526003 C927.468297,69.2222021 927.253799,69.7237971 927.253799,70.3574003 C927.253799,70.9910034 927.468297,71.4958983 927.897299,71.8721002 C928.326301,72.2483021 928.897195,72.4364002 929.609999,72.4364002 Z" id="2019" fill="#4C3092"></path>
            <path d="M903.7711,23.1512 C903.174697,23.1512 902.626603,23.0399011 902.1268,22.8173 C901.626998,22.5946989 901.217502,22.2776021 900.8983,21.866 L902.0323,20.5052001 C902.511103,21.1520033 903.057097,21.4754 903.6703,21.4754 C904.501904,21.4754 904.9177,20.9882049 904.9177,20.0138001 L904.9177,15.8180002 L901.8181,15.8180002 L901.8181,14.1800002 L906.9463,14.1800002 L906.9463,19.9004001 C906.9463,20.9840055 906.677503,21.7966973 906.1399,22.3385 C905.602298,22.8803027 904.812705,23.1512 903.7711,23.1512 Z M915.6529,16.2212002 L915.6529,23 L913.7881,23 L913.7881,22.1936 C913.527699,22.4876015 913.216902,22.7122992 912.8557,22.8677 C912.494498,23.0231008 912.103902,23.1008 911.6839,23.1008 C910.793496,23.1008 910.087903,22.8446026 909.5671,22.3322 C909.046298,21.8197975 908.7859,21.0596051 908.7859,20.0516001 L908.7859,16.2212002 L910.7515,16.2212002 L910.7515,19.7618001 C910.7515,20.8538055 911.209296,21.3998 912.1249,21.3998 C912.595302,21.3998 912.973299,21.2465016 913.2589,20.9399001 C913.544501,20.6332985 913.6873,20.1776031 913.6873,19.5728001 L913.6873,16.2212002 L915.6529,16.2212002 Z M917.4799,13.6508002 L919.4455,13.6508002 L919.4455,23 L917.4799,23 L917.4799,13.6508002 Z M928.0009,16.2212002 L924.9391,23.4158 C924.628298,24.1970039 924.244002,24.7471984 923.7862,25.0663999 C923.328397,25.3856015 922.776103,25.5451999 922.1293,25.5451999 C921.776498,25.5451999 921.427902,25.4906005 921.0835,25.3813999 C920.739098,25.2721994 920.457701,25.1210009 920.2393,24.9277999 L920.9575,23.5292 C921.108701,23.6636007 921.282999,23.7685996 921.4804,23.8442 C921.677801,23.9198004 921.873099,23.9576 922.0663,23.9576 C922.335101,23.9576 922.553499,23.8925006 922.7215,23.7623 C922.889501,23.6320993 923.040699,23.4158015 923.1751,23.1134 L923.2003,23.0504 L920.2645,16.2212002 L922.2931,16.2212002 L924.1957,20.8202001 L926.1109,16.2212002 L928.0009,16.2212002 Z" id="July" fill="#4C3092"></path>
            <path d="M400.473202,15.8340001 C400.473202,17.211607 399.969207,18.3917952 398.961202,19.3746 C397.953197,20.3574049 396.500011,20.9663988 394.601602,21.2016 L394.601602,24.0239999 L392.081602,24.0239999 L392.081602,21.2772 C390.838396,21.2099997 389.654008,20.9916018 388.528402,20.622 C387.402797,20.2523982 386.495606,19.7988027 385.806802,19.2612 L387.192802,16.1868001 C387.831205,16.6572025 388.578798,17.0519985 389.435602,17.3712001 C390.292406,17.6904017 391.174398,17.8919997 392.081602,17.9760001 L392.081602,13.7676002 C390.888796,13.4819988 389.880806,13.162802 389.057602,12.8100002 C388.234398,12.4571985 387.545605,11.9406036 386.991202,11.2602003 C386.436799,10.5797969 386.159602,9.67680593 386.159602,8.55120033 C386.159602,7.15679339 386.667797,5.9598054 387.684202,4.96020042 C388.700607,3.96059545 390.166393,3.35160156 392.081602,3.13320047 L392.081602,0.336000547 L394.601602,0.336000547 L394.601602,3.08280047 C396.668012,3.25080131 398.373195,3.76319617 399.717202,4.62000043 L398.457202,7.71960035 C397.197196,6.99719676 395.912009,6.56040114 394.601602,6.40920039 L394.601602,10.6932003 C395.777608,10.9620016 396.772998,11.2685985 397.587802,11.6130002 C398.402606,11.957402 399.087199,12.4697968 399.641602,13.1502002 C400.196005,13.8306036 400.473202,14.7251946 400.473202,15.8340001 Z M390.216802,8.34960034 C390.216802,8.76960242 390.376401,9.11399897 390.695602,9.38280031 C391.014804,9.65160164 391.476799,9.87839937 392.081602,10.0632003 L392.081602,6.48480038 C391.443199,6.63600114 390.972804,6.87539874 390.670402,7.20300037 C390.368001,7.53060199 390.216802,7.91279816 390.216802,8.34960034 Z M394.601602,17.8752001 C395.206405,17.7407994 395.66,17.5224016 395.962402,17.2200001 C396.264803,16.9175986 396.416002,16.5564022 396.416002,16.1364001 C396.416002,15.716398 396.260604,15.3720015 395.949802,15.1032002 C395.639,14.8343988 395.189605,14.5992012 394.601602,14.3976002 L394.601602,17.8752001 Z M417.533601,10.5420003 C419.079209,10.7940015 420.263597,11.3693958 421.086801,12.2682002 C421.910005,13.1670047 422.321601,14.2799935 422.321601,15.6072001 C422.321601,16.6320052 422.052804,17.5769958 421.515201,18.4422001 C420.977599,19.3074044 420.158607,20.0003974 419.058201,20.5212 C417.957796,21.0420026 416.609609,21.3024 415.013601,21.3024 C413.770395,21.3024 412.548208,21.1386016 411.347002,20.811 C410.145796,20.4833984 409.125206,20.0172031 408.285202,19.4124 L409.872802,16.2876001 C410.544805,16.7916026 411.321797,17.1821987 412.203802,17.4594001 C413.085806,17.7366015 413.988797,17.8752001 414.912801,17.8752001 C415.937607,17.8752001 416.743998,17.6778021 417.332001,17.2830001 C417.920004,16.8881981 418.214001,16.3296037 418.214001,15.6072001 C418.214001,14.162393 417.113612,13.4400002 414.912801,13.4400002 L413.048002,13.4400002 L413.048002,10.7436003 L416.676801,6.63600038 L409.167202,6.63600038 L409.167202,3.36000047 L421.515201,3.36000047 L421.515201,6.0060004 L417.533601,10.5420003 Z M431.771601,21.3024 C430.309994,21.3024 429.008007,20.9412036 427.865601,20.2188 C426.723195,19.4963964 425.828604,18.4506069 425.181801,17.0814001 C424.534998,15.7121933 424.211601,14.0784097 424.211601,12.1800002 C424.211601,10.2815908 424.534998,8.64780717 425.181801,7.27860036 C425.828604,5.90939355 426.723195,4.86360404 427.865601,4.14120045 C429.008007,3.41879685 430.309994,3.05760048 431.771601,3.05760048 C433.233208,3.05760048 434.535195,3.41879685 435.677601,4.14120045 C436.820007,4.86360404 437.714598,5.90939355 438.361401,7.27860036 C439.008204,8.64780717 439.331601,10.2815908 439.331601,12.1800002 C439.331601,14.0784097 439.008204,15.7121933 438.361401,17.0814001 C437.714598,18.4506069 436.820007,19.4963964 435.677601,20.2188 C434.535195,20.9412036 433.233208,21.3024 431.771601,21.3024 Z M431.771601,17.8500001 C432.846806,17.8500001 433.690998,17.3880047 434.304201,16.4640001 C434.917404,15.5399955 435.224001,14.1120098 435.224001,12.1800002 C435.224001,10.2479906 434.917404,8.82000494 434.304201,7.89600035 C433.690998,6.97199575 432.846806,6.51000038 431.771601,6.51000038 C430.713196,6.51000038 429.877404,6.97199575 429.264201,7.89600035 C428.650998,8.82000494 428.344401,10.2479906 428.344401,12.1800002 C428.344401,14.1120098 428.650998,15.5399955 429.264201,16.4640001 C429.877404,17.3880047 430.713196,17.8500001 431.771601,17.8500001 Z M443.313201,21.2016 C442.624397,21.2016 442.044803,20.9664024 441.574401,20.496 C441.103998,20.0255977 440.868801,19.4376036 440.868801,18.7320001 C440.868801,18.0095965 441.103998,17.4258023 441.574401,16.9806001 C442.044803,16.5353979 442.624397,16.3128001 443.313201,16.3128001 C444.002004,16.3128001 444.581598,16.5353979 445.052001,16.9806001 C445.522403,17.4258023 445.757601,18.0095965 445.757601,18.7320001 C445.757601,19.4376036 445.522403,20.0255977 445.052001,20.496 C444.581598,20.9664024 444.002004,21.2016 443.313201,21.2016 Z M454.8296,21.3024 C453.367993,21.3024 452.066006,20.9412036 450.923601,20.2188 C449.781195,19.4963964 448.886604,18.4506069 448.239801,17.0814001 C447.592997,15.7121933 447.269601,14.0784097 447.269601,12.1800002 C447.269601,10.2815908 447.592997,8.64780717 448.239801,7.27860036 C448.886604,5.90939355 449.781195,4.86360404 450.923601,4.14120045 C452.066006,3.41879685 453.367993,3.05760048 454.8296,3.05760048 C456.291208,3.05760048 457.593195,3.41879685 458.7356,4.14120045 C459.878006,4.86360404 460.772597,5.90939355 461.4194,7.27860036 C462.066203,8.64780717 462.3896,10.2815908 462.3896,12.1800002 C462.3896,14.0784097 462.066203,15.7121933 461.4194,17.0814001 C460.772597,18.4506069 459.878006,19.4963964 458.7356,20.2188 C457.593195,20.9412036 456.291208,21.3024 454.8296,21.3024 Z M454.8296,17.8500001 C455.904806,17.8500001 456.748997,17.3880047 457.3622,16.4640001 C457.975403,15.5399955 458.282,14.1120098 458.282,12.1800002 C458.282,10.2479906 457.975403,8.82000494 457.3622,7.89600035 C456.748997,6.97199575 455.904806,6.51000038 454.8296,6.51000038 C453.771195,6.51000038 452.935404,6.97199575 452.3222,7.89600035 C451.708997,8.82000494 451.4024,10.2479906 451.4024,12.1800002 C451.4024,14.1120098 451.708997,15.5399955 452.3222,16.4640001 C452.935404,17.3880047 453.771195,17.8500001 454.8296,17.8500001 Z M471.9404,21.3024 C470.478793,21.3024 469.176806,20.9412036 468.0344,20.2188 C466.891994,19.4963964 465.997403,18.4506069 465.3506,17.0814001 C464.703797,15.7121933 464.3804,14.0784097 464.3804,12.1800002 C464.3804,10.2815908 464.703797,8.64780717 465.3506,7.27860036 C465.997403,5.90939355 466.891994,4.86360404 468.0344,4.14120045 C469.176806,3.41879685 470.478793,3.05760048 471.9404,3.05760048 C473.402007,3.05760048 474.703994,3.41879685 475.8464,4.14120045 C476.988806,4.86360404 477.883397,5.90939355 478.5302,7.27860036 C479.177003,8.64780717 479.5004,10.2815908 479.5004,12.1800002 C479.5004,14.0784097 479.177003,15.7121933 478.5302,17.0814001 C477.883397,18.4506069 476.988806,19.4963964 475.8464,20.2188 C474.703994,20.9412036 473.402007,21.3024 471.9404,21.3024 Z M471.9404,17.8500001 C473.015605,17.8500001 473.859797,17.3880047 474.473,16.4640001 C475.086203,15.5399955 475.3928,14.1120098 475.3928,12.1800002 C475.3928,10.2479906 475.086203,8.82000494 474.473,7.89600035 C473.859797,6.97199575 473.015605,6.51000038 471.9404,6.51000038 C470.881995,6.51000038 470.046203,6.97199575 469.433,7.89600035 C468.819797,8.82000494 468.5132,10.2479906 468.5132,12.1800002 C468.5132,14.1120098 468.819797,15.5399955 469.433,16.4640001 C470.046203,17.3880047 470.881995,17.8500001 471.9404,17.8500001 Z M489.051199,21.3024 C487.589592,21.3024 486.287605,20.9412036 485.1452,20.2188 C484.002794,19.4963964 483.108203,18.4506069 482.4614,17.0814001 C481.814596,15.7121933 481.4912,14.0784097 481.4912,12.1800002 C481.4912,10.2815908 481.814596,8.64780717 482.4614,7.27860036 C483.108203,5.90939355 484.002794,4.86360404 485.1452,4.14120045 C486.287605,3.41879685 487.589592,3.05760048 489.051199,3.05760048 C490.512807,3.05760048 491.814794,3.41879685 492.957199,4.14120045 C494.099605,4.86360404 494.994196,5.90939355 495.640999,7.27860036 C496.287803,8.64780717 496.611199,10.2815908 496.611199,12.1800002 C496.611199,14.0784097 496.287803,15.7121933 495.640999,17.0814001 C494.994196,18.4506069 494.099605,19.4963964 492.957199,20.2188 C491.814794,20.9412036 490.512807,21.3024 489.051199,21.3024 Z M489.051199,17.8500001 C490.126405,17.8500001 490.970596,17.3880047 491.583799,16.4640001 C492.197002,15.5399955 492.503599,14.1120098 492.503599,12.1800002 C492.503599,10.2479906 492.197002,8.82000494 491.583799,7.89600035 C490.970596,6.97199575 490.126405,6.51000038 489.051199,6.51000038 C487.992794,6.51000038 487.157003,6.97199575 486.5438,7.89600035 C485.930597,8.82000494 485.624,10.2479906 485.624,12.1800002 C485.624,14.1120098 485.930597,15.5399955 486.5438,16.4640001 C487.157003,17.3880047 487.992794,17.8500001 489.051199,17.8500001 Z M500.592799,21.2016 C499.903996,21.2016 499.324402,20.9664024 498.853999,20.496 C498.383597,20.0255977 498.148399,19.4376036 498.148399,18.7320001 C498.148399,18.0095965 498.383597,17.4258023 498.853999,16.9806001 C499.324402,16.5353979 499.903996,16.3128001 500.592799,16.3128001 C501.281603,16.3128001 501.861197,16.5353979 502.331599,16.9806001 C502.802001,17.4258023 503.037199,18.0095965 503.037199,18.7320001 C503.037199,19.4376036 502.802001,20.0255977 502.331599,20.496 C501.861197,20.9664024 501.281603,21.2016 500.592799,21.2016 Z M512.109199,21.3024 C510.647592,21.3024 509.345605,20.9412036 508.203199,20.2188 C507.060793,19.4963964 506.166202,18.4506069 505.519399,17.0814001 C504.872596,15.7121933 504.549199,14.0784097 504.549199,12.1800002 C504.549199,10.2815908 504.872596,8.64780717 505.519399,7.27860036 C506.166202,5.90939355 507.060793,4.86360404 508.203199,4.14120045 C509.345605,3.41879685 510.647592,3.05760048 512.109199,3.05760048 C513.570806,3.05760048 514.872793,3.41879685 516.015199,4.14120045 C517.157604,4.86360404 518.052195,5.90939355 518.698999,7.27860036 C519.345802,8.64780717 519.669199,10.2815908 519.669199,12.1800002 C519.669199,14.0784097 519.345802,15.7121933 518.698999,17.0814001 C518.052195,18.4506069 517.157604,19.4963964 516.015199,20.2188 C514.872793,20.9412036 513.570806,21.3024 512.109199,21.3024 Z M512.109199,17.8500001 C513.184404,17.8500001 514.028596,17.3880047 514.641799,16.4640001 C515.255002,15.5399955 515.561599,14.1120098 515.561599,12.1800002 C515.561599,10.2479906 515.255002,8.82000494 514.641799,7.89600035 C514.028596,6.97199575 513.184404,6.51000038 512.109199,6.51000038 C511.050794,6.51000038 510.215002,6.97199575 509.601799,7.89600035 C508.988596,8.82000494 508.681999,10.2479906 508.681999,12.1800002 C508.681999,14.1120098 508.988596,15.5399955 509.601799,16.4640001 C510.215002,17.3880047 511.050794,17.8500001 512.109199,17.8500001 Z M529.219998,21.3024 C527.758391,21.3024 526.456404,20.9412036 525.313999,20.2188 C524.171593,19.4963964 523.277002,18.4506069 522.630199,17.0814001 C521.983395,15.7121933 521.659999,14.0784097 521.659999,12.1800002 C521.659999,10.2815908 521.983395,8.64780717 522.630199,7.27860036 C523.277002,5.90939355 524.171593,4.86360404 525.313999,4.14120045 C526.456404,3.41879685 527.758391,3.05760048 529.219998,3.05760048 C530.681606,3.05760048 531.983593,3.41879685 533.125998,4.14120045 C534.268404,4.86360404 535.162995,5.90939355 535.809798,7.27860036 C536.456601,8.64780717 536.779998,10.2815908 536.779998,12.1800002 C536.779998,14.0784097 536.456601,15.7121933 535.809798,17.0814001 C535.162995,18.4506069 534.268404,19.4963964 533.125998,20.2188 C531.983593,20.9412036 530.681606,21.3024 529.219998,21.3024 Z M529.219998,17.8500001 C530.295204,17.8500001 531.139395,17.3880047 531.752598,16.4640001 C532.365801,15.5399955 532.672398,14.1120098 532.672398,12.1800002 C532.672398,10.2479906 532.365801,8.82000494 531.752598,7.89600035 C531.139395,6.97199575 530.295204,6.51000038 529.219998,6.51000038 C528.161593,6.51000038 527.325802,6.97199575 526.712598,7.89600035 C526.099395,8.82000494 525.792799,10.2479906 525.792799,12.1800002 C525.792799,14.1120098 526.099395,15.5399955 526.712598,16.4640001 C527.325802,17.3880047 528.161593,17.8500001 529.219998,17.8500001 Z M546.330798,21.3024 C544.869191,21.3024 543.567204,20.9412036 542.424798,20.2188 C541.282392,19.4963964 540.387801,18.4506069 539.740998,17.0814001 C539.094195,15.7121933 538.770798,14.0784097 538.770798,12.1800002 C538.770798,10.2815908 539.094195,8.64780717 539.740998,7.27860036 C540.387801,5.90939355 541.282392,4.86360404 542.424798,4.14120045 C543.567204,3.41879685 544.869191,3.05760048 546.330798,3.05760048 C547.792405,3.05760048 549.094392,3.41879685 550.236798,4.14120045 C551.379204,4.86360404 552.273795,5.90939355 552.920598,7.27860036 C553.567401,8.64780717 553.890798,10.2815908 553.890798,12.1800002 C553.890798,14.0784097 553.567401,15.7121933 552.920598,17.0814001 C552.273795,18.4506069 551.379204,19.4963964 550.236798,20.2188 C549.094392,20.9412036 547.792405,21.3024 546.330798,21.3024 Z M546.330798,17.8500001 C547.406003,17.8500001 548.250195,17.3880047 548.863398,16.4640001 C549.476601,15.5399955 549.783198,14.1120098 549.783198,12.1800002 C549.783198,10.2479906 549.476601,8.82000494 548.863398,7.89600035 C548.250195,6.97199575 547.406003,6.51000038 546.330798,6.51000038 C545.272393,6.51000038 544.436601,6.97199575 543.823398,7.89600035 C543.210195,8.82000494 542.903598,10.2479906 542.903598,12.1800002 C542.903598,14.1120098 543.210195,15.5399955 543.823398,16.4640001 C544.436601,17.3880047 545.272393,17.8500001 546.330798,17.8500001 Z" id="$-30.000.000" fill="#4C3092"></path>
        </g>
    </g>
</svg>