<?xml version="1.0" encoding="UTF-8"?>
<svg width="944px" height="81px" viewBox="0 0 944 81" version="1.1" xmlns="http://www.w3.org/2000/svg" xmlns:xlink="http://www.w3.org/1999/xlink">
    <!-- Generator: Sketch 48.1 (47250) - http://www.bohemiancoding.com/sketch -->
    <title>line-6000000</title>
    <desc>Created with Sketch.</desc>
    <defs></defs>
    <g id="Artboard-2" stroke="none" stroke-width="1" fill="none" fill-rule="evenodd" transform="translate(-87.000000, -948.000000)">
        <g id="line-6000000" transform="translate(87.000000, 945.000000)">
            <path d="M20,48 L909.797858,48" id="Line" stroke="#4C3092" stroke-width="1.88999986" stroke-linecap="square"></path>
            <g id="Group-6" transform="translate(13.000000, 37.000000)" fill="#4C3092">
                <ellipse id="Oval-3-Copy-2" opacity="0.049999997" cx="10.4005805" cy="10.5" rx="10.4005805" ry="10.5"></ellipse>
                <ellipse id="Oval-3" opacity="0.100000001" cx="10.4005805" cy="10.5" rx="8.00044657" ry="8.07692308"></ellipse>
                <ellipse id="Oval-3-Copy" cx="10.4005805" cy="10.5" rx="4.80026794" ry="4.84615385"></ellipse>
            </g>
            <g id="Group-6-Copy" transform="translate(899.000000, 37.000000)" fill="#4C3092">
                <ellipse id="Oval-3-Copy-2" opacity="0.049999997" cx="10.4005805" cy="10.5" rx="10.4005805" ry="10.5"></ellipse>
                <ellipse id="Oval-3" opacity="0.100000001" cx="10.4005805" cy="10.5" rx="8.00044657" ry="8.07692308"></ellipse>
                <ellipse id="Oval-3-Copy" cx="10.4005805" cy="10.5" rx="4.80026794" ry="4.84615385"></ellipse>
            </g>
            <path d="M11.1275997,80.3864001 L11.1275997,83 L0.653399983,83 L0.653399983,80.9210001 L5.99939984,75.8720002 C6.56700266,75.3307975 6.94979883,74.8655022 7.14779981,74.4761002 C7.3458008,74.0866983 7.4447998,73.7006022 7.4447998,73.3178003 C7.4447998,72.7633975 7.25670169,72.3377018 6.88049982,72.0407003 C6.50429795,71.7436988 5.95320347,71.5952003 5.22719986,71.5952003 C4.61999684,71.5952003 4.07220233,71.7106991 3.58379991,71.9417003 C3.09539748,72.1727014 2.68620158,72.519198 2.35619994,72.9812003 L0.0197999995,71.4764003 C0.561002691,70.6711963 1.30679521,70.0409026 2.25719994,69.5855004 C3.20760467,69.1300981 4.29659375,68.9024004 5.52419985,68.9024004 C6.55380497,68.9024004 7.45469594,69.0706987 8.22689978,69.4073004 C8.99910362,69.743902 9.5996976,70.2190973 10.0286997,70.8329003 C10.4577019,71.4467034 10.6721997,72.1693961 10.6721997,73.0010003 C10.6721997,73.753404 10.5138013,74.4595969 10.1969997,75.1196002 C9.88019815,75.7796035 9.26640431,76.5319959 8.35559978,77.3768001 L5.16779986,80.3864001 L11.1275997,80.3864001 Z M18.3545995,83.2376 C17.2061938,83.2376 16.1832041,82.9538028 15.2855996,82.3862 C14.3879951,81.8185972 13.6851022,80.9969054 13.1768997,79.9211001 C12.6686971,78.8452947 12.4145997,77.5616076 12.4145997,76.0700002 C12.4145997,74.5783928 12.6686971,73.2947056 13.1768997,72.2189003 C13.6851022,71.1430949 14.3879951,70.3214032 15.2855996,69.7538004 C16.1832041,69.1861975 17.2061938,68.9024004 18.3545995,68.9024004 C19.5030052,68.9024004 20.525995,69.1861975 21.4235994,69.7538004 C22.3212039,70.3214032 23.0240968,71.1430949 23.5322994,72.2189003 C24.0405019,73.2947056 24.2945994,74.5783928 24.2945994,76.0700002 C24.2945994,77.5616076 24.0405019,78.8452947 23.5322994,79.9211001 C23.0240968,80.9969054 22.3212039,81.8185972 21.4235994,82.3862 C20.525995,82.9538028 19.5030052,83.2376 18.3545995,83.2376 Z M18.3545995,80.5250001 C19.1994037,80.5250001 19.8626971,80.1620037 20.3444995,79.4360001 C20.8263019,78.7099965 21.0671994,77.5880077 21.0671994,76.0700002 C21.0671994,74.5519926 20.8263019,73.4300039 20.3444995,72.7040003 C19.8626971,71.9779967 19.1994037,71.6150003 18.3545995,71.6150003 C17.5229954,71.6150003 16.866302,71.9779967 16.3844996,72.7040003 C15.9026972,73.4300039 15.6617996,74.5519926 15.6617996,76.0700002 C15.6617996,77.5880077 15.9026972,78.7099965 16.3844996,79.4360001 C16.866302,80.1620037 17.5229954,80.5250001 18.3545995,80.5250001 Z M31.0859992,69.1400004 L31.0859992,83 L27.8783993,83 L27.8783993,71.7140003 L25.1063993,71.7140003 L25.1063993,69.1400004 L31.0859992,69.1400004 Z M42.9857989,75.7136002 C43.6722023,76.0568019 44.196897,76.5055974 44.5598988,77.0600002 C44.9229006,77.6144029 45.1043988,78.2545965 45.1043988,78.9806001 C45.1043988,79.8386044 44.8602013,80.5876969 44.3717988,81.2279 C43.8833964,81.8681032 43.1970033,82.3630983 42.3125989,82.7129 C41.4281945,83.0627017 40.4052047,83.2376 39.243599,83.2376 C38.0819932,83.2376 37.0623034,83.0627017 36.184499,82.7129 C35.3066947,82.3630983 34.6269015,81.8681032 34.1450991,81.2279 C33.6632967,80.5876969 33.4223991,79.8386044 33.4223991,78.9806001 C33.4223991,78.2545965 33.6038973,77.6144029 33.9668991,77.0600002 C34.3299009,76.5055974 34.8479957,76.0568019 35.5211991,75.7136002 C35.0063965,75.3967986 34.6104005,74.9975026 34.3331991,74.5157002 C34.0559977,74.0338978 33.9173991,73.4828034 33.9173991,72.8624003 C33.9173991,72.0571963 34.1417969,71.3576033 34.5905991,70.7636003 C35.0394013,70.1695974 35.666395,69.710902 36.471599,69.3875004 C37.276803,69.0640988 38.2007938,68.9024004 39.243599,68.9024004 C40.2996042,68.9024004 41.2334948,69.0640988 42.0452989,69.3875004 C42.8571029,69.710902 43.4873966,70.1695974 43.9361988,70.7636003 C44.3850011,71.3576033 44.6093988,72.0571963 44.6093988,72.8624003 C44.6093988,73.4828034 44.4708002,74.0338978 44.1935988,74.5157002 C43.9163975,74.9975026 43.5138015,75.3967986 42.9857989,75.7136002 Z M39.243599,71.2586003 C38.5967957,71.2586003 38.0787009,71.4136988 37.689299,71.7239003 C37.2998971,72.0341018 37.105199,72.4597976 37.105199,73.0010003 C37.105199,73.5290029 37.2965971,73.9447987 37.679399,74.2484002 C38.0622009,74.5520017 38.5835957,74.7038002 39.243599,74.7038002 C39.9036022,74.7038002 40.4315969,74.5520017 40.8275989,74.2484002 C41.2236009,73.9447987 41.4215989,73.5290029 41.4215989,73.0010003 C41.4215989,72.4597976 41.2236009,72.0341018 40.8275989,71.7239003 C40.4315969,71.4136988 39.9036022,71.2586003 39.243599,71.2586003 Z M39.243599,80.8814001 C40.048803,80.8814001 40.6856966,80.6999019 41.1542989,80.3369001 C41.6229012,79.9738983 41.8571989,79.4888031 41.8571989,78.8816001 C41.8571989,78.2743971 41.6229012,77.7926019 41.1542989,77.4362001 C40.6856966,77.0797984 40.048803,76.9016002 39.243599,76.9016002 C38.451595,76.9016002 37.8246013,77.0797984 37.362599,77.4362001 C36.9005967,77.7926019 36.669599,78.2743971 36.669599,78.8816001 C36.669599,79.5020032 36.9005967,79.9903983 37.362599,80.3468001 C37.8246013,80.7032018 38.451595,80.8814001 39.243599,80.8814001 Z" id="2018" fill="#4C3092"></path>
            <path d="M18.4640001,26 L18.4514001,20.7080001 L15.8558002,25.0676 L14.9360002,25.0676 L12.3530003,20.8214001 L12.3530003,26 L10.4378003,26 L10.4378003,17.1800002 L12.1262003,17.1800002 L15.4274002,22.6610001 L18.6782001,17.1800002 L20.3540001,17.1800002 L20.3792001,26 L18.4640001,26 Z M25.0663999,19.1204002 C26.1164052,19.1204002 26.9227971,19.3702977 27.4855999,19.8701002 C28.0484027,20.3699026 28.3297999,21.1237951 28.3297999,22.1318001 L28.3297999,26 L26.4901999,26 L26.4901999,25.1558 C26.1205981,25.7858032 25.431805,26.1008 24.4238,26.1008 C23.9029974,26.1008 23.4515019,26.0126009 23.0693,25.8362 C22.6870981,25.6597991 22.395201,25.4162016 22.1936,25.1054 C21.991999,24.7945985 21.8912,24.441802 21.8912,24.0470001 C21.8912,23.4169969 22.1284977,22.9214019 22.6031,22.5602001 C23.0777024,22.1989983 23.810595,22.0184001 24.8018,22.0184001 L26.3641999,22.0184001 C26.3641999,21.589998 26.2340012,21.2603013 25.9735999,21.0293001 C25.7131986,20.798299 25.3226025,20.6828001 24.8018,20.6828001 C24.4405982,20.6828001 24.0857017,20.7394996 23.7371,20.8529001 C23.3884982,20.9663007 23.0924012,21.1195992 22.8488,21.3128001 L22.1432,19.9394002 C22.5128019,19.6789989 22.9558974,19.4774009 23.4725,19.3346002 C23.9891026,19.1917995 24.5203972,19.1204002 25.0663999,19.1204002 Z M24.9151999,24.7778 C25.2512016,24.7778 25.5493986,24.7001008 25.8097999,24.5447 C26.0702012,24.3892993 26.2549994,24.1604016 26.3641999,23.8580001 L26.3641999,23.1650001 L25.0159999,23.1650001 C24.2095959,23.1650001 23.8064,23.4295974 23.8064,23.9588001 C23.8064,24.2108013 23.905099,24.4102993 24.1025,24.5573 C24.299901,24.7043008 24.5707982,24.7778 24.9151999,24.7778 Z M36.7087996,19.2212002 L33.6469997,26.4158 C33.3361982,27.1970039 32.951902,27.7471984 32.4940997,28.0663999 C32.0362975,28.3856015 31.484003,28.5451999 30.8371998,28.5451999 C30.484398,28.5451999 30.1358015,28.4906005 29.7913998,28.3813999 C29.4469981,28.2721994 29.1656009,28.1210009 28.9471998,27.9277999 L29.6653998,26.5292 C29.8166006,26.6636007 29.9908988,26.7685996 30.1882998,26.8442 C30.3857008,26.9198004 30.5809988,26.9576 30.7741998,26.9576 C31.0430011,26.9576 31.2613989,26.8925006 31.4293998,26.7623 C31.5974006,26.6320993 31.7485991,26.4158015 31.8829998,26.1134 L31.9081998,26.0504 L28.9723998,19.2212002 L31.0009998,19.2212002 L32.9035997,23.8202001 L34.8187997,19.2212002 L36.7087996,19.2212002 Z" id="May" fill="#4C3092"></path>
            <path d="M898.1276,80.3864001 L898.1276,83 L887.6534,83 L887.6534,80.9210001 L892.9994,75.8720002 C893.567003,75.3307975 893.949799,74.8655022 894.1478,74.4761002 C894.345801,74.0866983 894.4448,73.7006022 894.4448,73.3178003 C894.4448,72.7633975 894.256702,72.3377018 893.8805,72.0407003 C893.504298,71.7436988 892.953203,71.5952003 892.2272,71.5952003 C891.619997,71.5952003 891.072202,71.7106991 890.5838,71.9417003 C890.095397,72.1727014 889.686202,72.519198 889.3562,72.9812003 L887.0198,71.4764003 C887.561003,70.6711963 888.306795,70.0409026 889.2572,69.5855004 C890.207605,69.1300981 891.296594,68.9024004 892.5242,68.9024004 C893.553805,68.9024004 894.454696,69.0706987 895.2269,69.4073004 C895.999104,69.743902 896.599698,70.2190973 897.0287,70.8329003 C897.457702,71.4467034 897.6722,72.1693961 897.6722,73.0010003 C897.6722,73.753404 897.513801,74.4595969 897.197,75.1196002 C896.880198,75.7796035 896.266404,76.5319959 895.3556,77.3768001 L892.1678,80.3864001 L898.1276,80.3864001 Z M905.3546,83.2376 C904.206194,83.2376 903.183204,82.9538028 902.2856,82.3862 C901.387995,81.8185972 900.685102,80.9969054 900.1769,79.9211001 C899.668697,78.8452947 899.4146,77.5616076 899.4146,76.0700002 C899.4146,74.5783928 899.668697,73.2947056 900.1769,72.2189003 C900.685102,71.1430949 901.387995,70.3214032 902.2856,69.7538004 C903.183204,69.1861975 904.206194,68.9024004 905.3546,68.9024004 C906.503005,68.9024004 907.525995,69.1861975 908.423599,69.7538004 C909.321204,70.3214032 910.024097,71.1430949 910.532299,72.2189003 C911.040502,73.2947056 911.294599,74.5783928 911.294599,76.0700002 C911.294599,77.5616076 911.040502,78.8452947 910.532299,79.9211001 C910.024097,80.9969054 909.321204,81.8185972 908.423599,82.3862 C907.525995,82.9538028 906.503005,83.2376 905.3546,83.2376 Z M905.3546,80.5250001 C906.199404,80.5250001 906.862697,80.1620037 907.344499,79.4360001 C907.826302,78.7099965 908.067199,77.5880077 908.067199,76.0700002 C908.067199,74.5519926 907.826302,73.4300039 907.344499,72.7040003 C906.862697,71.9779967 906.199404,71.6150003 905.3546,71.6150003 C904.522995,71.6150003 903.866302,71.9779967 903.3845,72.7040003 C902.902697,73.4300039 902.6618,74.5519926 902.6618,76.0700002 C902.6618,77.5880077 902.902697,78.7099965 903.3845,79.4360001 C903.866302,80.1620037 904.522995,80.5250001 905.3546,80.5250001 Z M918.085999,69.1400004 L918.085999,83 L914.878399,83 L914.878399,71.7140003 L912.106399,71.7140003 L912.106399,69.1400004 L918.085999,69.1400004 Z M929.985799,75.7136002 C930.672202,76.0568019 931.196897,76.5055974 931.559899,77.0600002 C931.922901,77.6144029 932.104399,78.2545965 932.104399,78.9806001 C932.104399,79.8386044 931.860201,80.5876969 931.371799,81.2279 C930.883396,81.8681032 930.197003,82.3630983 929.312599,82.7129 C928.428194,83.0627017 927.405205,83.2376 926.243599,83.2376 C925.081993,83.2376 924.062303,83.0627017 923.184499,82.7129 C922.306695,82.3630983 921.626901,81.8681032 921.145099,81.2279 C920.663297,80.5876969 920.422399,79.8386044 920.422399,78.9806001 C920.422399,78.2545965 920.603897,77.6144029 920.966899,77.0600002 C921.329901,76.5055974 921.847996,76.0568019 922.521199,75.7136002 C922.006396,75.3967986 921.6104,74.9975026 921.333199,74.5157002 C921.055998,74.0338978 920.917399,73.4828034 920.917399,72.8624003 C920.917399,72.0571963 921.141797,71.3576033 921.590599,70.7636003 C922.039401,70.1695974 922.666395,69.710902 923.471599,69.3875004 C924.276803,69.0640988 925.200794,68.9024004 926.243599,68.9024004 C927.299604,68.9024004 928.233495,69.0640988 929.045299,69.3875004 C929.857103,69.710902 930.487397,70.1695974 930.936199,70.7636003 C931.385001,71.3576033 931.609399,72.0571963 931.609399,72.8624003 C931.609399,73.4828034 931.4708,74.0338978 931.193599,74.5157002 C930.916397,74.9975026 930.513801,75.3967986 929.985799,75.7136002 Z M926.243599,71.2586003 C925.596796,71.2586003 925.078701,71.4136988 924.689299,71.7239003 C924.299897,72.0341018 924.105199,72.4597976 924.105199,73.0010003 C924.105199,73.5290029 924.296597,73.9447987 924.679399,74.2484002 C925.062201,74.5520017 925.583596,74.7038002 926.243599,74.7038002 C926.903602,74.7038002 927.431597,74.5520017 927.827599,74.2484002 C928.223601,73.9447987 928.421599,73.5290029 928.421599,73.0010003 C928.421599,72.4597976 928.223601,72.0341018 927.827599,71.7239003 C927.431597,71.4136988 926.903602,71.2586003 926.243599,71.2586003 Z M926.243599,80.8814001 C927.048803,80.8814001 927.685697,80.6999019 928.154299,80.3369001 C928.622901,79.9738983 928.857199,79.4888031 928.857199,78.8816001 C928.857199,78.2743971 928.622901,77.7926019 928.154299,77.4362001 C927.685697,77.0797984 927.048803,76.9016002 926.243599,76.9016002 C925.451595,76.9016002 924.824601,77.0797984 924.362599,77.4362001 C923.900597,77.7926019 923.669599,78.2743971 923.669599,78.8816001 C923.669599,79.5020032 923.900597,79.9903983 924.362599,80.3468001 C924.824601,80.7032018 925.451595,80.8814001 926.243599,80.8814001 Z" id="2018-copy" fill="#4C3092"></path>
            <path d="M884.218101,17.1800002 L884.218101,26 L882.542301,26 L878.144901,20.6450001 L878.144901,26 L876.128901,26 L876.128901,17.1800002 L877.817301,17.1800002 L882.202101,22.5350001 L882.202101,17.1800002 L884.218101,17.1800002 Z M889.396701,26.1008 C888.682697,26.1008 888.042203,25.9517015 887.475201,25.6535 C886.908198,25.3552985 886.465102,24.9416027 886.145901,24.4124 C885.826699,23.8831974 885.667101,23.2826034 885.667101,22.6106001 C885.667101,21.9385967 885.826699,21.3380028 886.145901,20.8088001 C886.465102,20.2795975 886.908198,19.8659017 887.475201,19.5677002 C888.042203,19.2694987 888.682697,19.1204002 889.396701,19.1204002 C890.110704,19.1204002 890.749098,19.2694987 891.3119,19.5677002 C891.874703,19.8659017 892.315699,20.2795975 892.6349,20.8088001 C892.954102,21.3380028 893.1137,21.9385967 893.1137,22.6106001 C893.1137,23.2826034 892.954102,23.8831974 892.6349,24.4124 C892.315699,24.9416027 891.874703,25.3552985 891.3119,25.6535 C890.749098,25.9517015 890.110704,26.1008 889.396701,26.1008 Z M889.396701,24.488 C889.900703,24.488 890.314399,24.3179017 890.6378,23.9777001 C890.961202,23.6374984 891.1229,23.1818029 891.1229,22.6106001 C891.1229,22.0393972 890.961202,21.5837018 890.6378,21.2435001 C890.314399,20.9032984 889.900703,20.7332001 889.396701,20.7332001 C888.892698,20.7332001 888.476902,20.9032984 888.149301,21.2435001 C887.821699,21.5837018 887.657901,22.0393972 887.657901,22.6106001 C887.657901,23.1818029 887.821699,23.6374984 888.149301,23.9777001 C888.476902,24.3179017 888.892698,24.488 889.396701,24.488 Z M900.9635,19.2212002 L898.1033,26 L896.0747,26 L893.2271,19.2212002 L895.2557,19.2212002 L897.1331,23.8328001 L899.0735,19.2212002 L900.9635,19.2212002 Z M908.2211,22.6358001 C908.2211,22.6610002 908.2085,22.8373984 908.1833,23.1650001 L903.0551,23.1650001 C903.147501,23.5850022 903.365898,23.9167988 903.7103,24.1604 C904.054702,24.4040013 904.483098,24.5258 904.9955,24.5258 C905.348302,24.5258 905.661199,24.4733006 905.9342,24.3683 C906.207201,24.2632995 906.461299,24.0974012 906.6965,23.8706001 L907.7423,25.0046 C907.103897,25.7354037 906.171506,26.1008 904.9451,26.1008 C904.180696,26.1008 903.504503,25.9517015 902.9165,25.6535 C902.328497,25.3552985 901.874902,24.9416027 901.5557,24.4124 C901.236499,23.8831974 901.0769,23.2826034 901.0769,22.6106001 C901.0769,21.9469968 901.234399,21.3485028 901.5494,20.8151001 C901.864402,20.2816975 902.296997,19.8659017 902.8472,19.5677002 C903.397403,19.2694987 904.012697,19.1204002 904.6931,19.1204002 C905.356703,19.1204002 905.957297,19.2631988 906.4949,19.5488002 C907.032503,19.8344016 907.454599,20.2438975 907.7612,20.7773001 C908.067802,21.3107028 908.2211,21.9301966 908.2211,22.6358001 Z M904.7057,20.6072001 C904.260498,20.6072001 903.886702,20.7331989 903.5843,20.9852001 C903.281899,21.2372014 903.097101,21.5815979 903.0299,22.0184001 L906.3689,22.0184001 C906.3017,21.589998 906.116902,21.2477014 905.8145,20.9915001 C905.512099,20.7352989 905.142502,20.6072001 904.7057,20.6072001 Z M918.2129,19.1204002 C919.061304,19.1204002 919.735397,19.3702977 920.2352,19.8701002 C920.735002,20.3699026 920.9849,21.1195951 920.9849,22.1192001 L920.9849,26 L919.0193,26 L919.0193,22.4216001 C919.0193,21.8839974 918.908001,21.4829014 918.6854,21.2183001 C918.462799,20.9536988 918.145702,20.8214001 917.7341,20.8214001 C917.272097,20.8214001 916.906701,20.9704986 916.6379,21.2687001 C916.369098,21.5669016 916.2347,22.0099972 916.2347,22.5980001 L916.2347,26 L914.2691,26 L914.2691,22.4216001 C914.2691,21.3547948 913.840704,20.8214001 912.9839,20.8214001 C912.530298,20.8214001 912.169101,20.9704986 911.9003,21.2687001 C911.631499,21.5669016 911.4971,22.0099972 911.4971,22.5980001 L911.4971,26 L909.5315,26 L909.5315,19.2212002 L911.4089,19.2212002 L911.4089,20.0024002 C911.660901,19.7167987 911.969598,19.4984009 912.335,19.3472002 C912.700402,19.1959994 913.101498,19.1204002 913.5383,19.1204002 C914.017102,19.1204002 914.449698,19.2148992 914.8361,19.4039002 C915.222502,19.5929011 915.533299,19.8679984 915.7685,20.2292002 C916.045701,19.8763984 916.396398,19.6034011 916.8206,19.4102002 C917.244802,19.2169992 917.708897,19.1204002 918.2129,19.1204002 Z M926.7557,19.1204002 C927.385703,19.1204002 927.958997,19.2652987 928.475599,19.5551002 C928.992202,19.8449016 929.397498,20.2522975 929.691499,20.7773001 C929.985501,21.3023027 930.132499,21.9133966 930.132499,22.6106001 C930.132499,23.3078036 929.985501,23.9188974 929.691499,24.4439 C929.397498,24.9689027 928.992202,25.3762986 928.475599,25.6661 C927.958997,25.9559015 927.385703,26.1008 926.7557,26.1008 C925.823295,26.1008 925.113502,25.8068029 924.6263,25.2188 L924.6263,26 L922.7489,26 L922.7489,16.6508002 L924.7145,16.6508002 L924.7145,19.9394002 C925.210102,19.3933974 925.890495,19.1204002 926.7557,19.1204002 Z M926.4155,24.488 C926.919502,24.488 927.333198,24.3179017 927.6566,23.9777001 C927.980001,23.6374984 928.1417,23.1818029 928.1417,22.6106001 C928.1417,22.0393972 927.980001,21.5837018 927.6566,21.2435001 C927.333198,20.9032984 926.919502,20.7332001 926.4155,20.7332001 C925.911497,20.7332001 925.497801,20.9032984 925.1744,21.2435001 C924.850998,21.5837018 924.6893,22.0393972 924.6893,22.6106001 C924.6893,23.1818029 924.850998,23.6374984 925.1744,23.9777001 C925.497801,24.3179017 925.911497,24.488 926.4155,24.488 Z M938.083099,22.6358001 C938.083099,22.6610002 938.070499,22.8373984 938.045299,23.1650001 L932.917099,23.1650001 C933.0095,23.5850022 933.227898,23.9167988 933.572299,24.1604 C933.916701,24.4040013 934.345097,24.5258 934.857499,24.5258 C935.210301,24.5258 935.523198,24.4733006 935.796199,24.3683 C936.069201,24.2632995 936.323298,24.0974012 936.558499,23.8706001 L937.604299,25.0046 C936.965896,25.7354037 936.033505,26.1008 934.807099,26.1008 C934.042696,26.1008 933.366502,25.9517015 932.778499,25.6535 C932.190496,25.3552985 931.736901,24.9416027 931.417699,24.4124 C931.098498,23.8831974 930.938899,23.2826034 930.938899,22.6106001 C930.938899,21.9469968 931.096398,21.3485028 931.411399,20.8151001 C931.726401,20.2816975 932.158997,19.8659017 932.709199,19.5677002 C933.259402,19.2694987 933.874696,19.1204002 934.555099,19.1204002 C935.218703,19.1204002 935.819297,19.2631988 936.356899,19.5488002 C936.894502,19.8344016 937.316598,20.2438975 937.623199,20.7773001 C937.929801,21.3107028 938.083099,21.9301966 938.083099,22.6358001 Z M934.567699,20.6072001 C934.122497,20.6072001 933.748701,20.7331989 933.446299,20.9852001 C933.143898,21.2372014 932.9591,21.5815979 932.891899,22.0184001 L936.230899,22.0184001 C936.163699,21.589998 935.978901,21.2477014 935.676499,20.9915001 C935.374098,20.7352989 935.004502,20.6072001 934.567699,20.6072001 Z M941.270899,20.1158002 C941.5061,19.7881985 941.823197,19.540401 942.222199,19.3724002 C942.621201,19.2043993 943.081097,19.1204002 943.601899,19.1204002 L943.601899,20.9348001 C943.383498,20.9180001 943.236499,20.9096001 943.160899,20.9096001 C942.598096,20.9096001 942.157101,21.0670986 941.837899,21.3821001 C941.518698,21.6971017 941.359099,22.169597 941.359099,22.7996001 L941.359099,26 L939.393499,26 L939.393499,19.2212002 L941.270899,19.2212002 L941.270899,20.1158002 Z" id="November" fill="#4C3092"></path>
            <path d="M402.671802,18.8340001 C402.671802,20.211607 402.167807,21.3917952 401.159802,22.3746 C400.151797,23.3574049 398.698611,23.9663988 396.800202,24.2016 L396.800202,27.0239999 L394.280202,27.0239999 L394.280202,24.2772 C393.036996,24.2099997 391.852608,23.9916018 390.727002,23.622 C389.601396,23.2523982 388.694205,22.7988027 388.005402,22.2612 L389.391402,19.1868001 C390.029805,19.6572025 390.777398,20.0519985 391.634202,20.3712001 C392.491006,20.6904017 393.372997,20.8919997 394.280202,20.9760001 L394.280202,16.7676002 C393.087396,16.4819988 392.079406,16.162802 391.256202,15.8100002 C390.432998,15.4571985 389.744205,14.9406036 389.189802,14.2602003 C388.635399,13.5797969 388.358202,12.6768059 388.358202,11.5512003 C388.358202,10.1567934 388.866397,8.9598054 389.882802,7.96020042 C390.899207,6.96059545 392.364992,6.35160156 394.280202,6.13320047 L394.280202,3.33600055 L396.800202,3.33600055 L396.800202,6.08280047 C398.866612,6.25080131 400.571795,6.76319617 401.915802,7.62000043 L400.655802,10.7196004 C399.395795,9.99719676 398.110608,9.56040114 396.800202,9.40920039 L396.800202,13.6932003 C397.976208,13.9620016 398.971598,14.2685985 399.786402,14.6130002 C400.601206,14.957402 401.285799,15.4697968 401.840202,16.1502002 C402.394604,16.8306036 402.671802,17.7251946 402.671802,18.8340001 Z M392.415402,11.3496003 C392.415402,11.7696024 392.575,12.113999 392.894202,12.3828003 C393.213403,12.6516016 393.675399,12.8783994 394.280202,13.0632003 L394.280202,9.48480038 C393.641799,9.63600114 393.171403,9.87539874 392.869002,10.2030004 C392.5666,10.530602 392.415402,10.9127982 392.415402,11.3496003 Z M396.800202,20.8752001 C397.405005,20.7407994 397.8586,20.5224016 398.161002,20.2200001 C398.463403,19.9175986 398.614602,19.5564022 398.614602,19.1364001 C398.614602,18.716398 398.459203,18.3720015 398.148402,18.1032002 C397.8376,17.8343988 397.388205,17.5992012 396.800202,17.3976002 L396.800202,20.8752001 Z M419.984201,12.9372003 C421.109807,12.9372003 422.134597,13.163998 423.058601,13.6176003 C423.982606,14.0712025 424.713398,14.7137961 425.251001,15.5454002 C425.788604,16.3770044 426.057401,17.3387947 426.057401,18.4308001 C426.057401,19.606806 425.763404,20.6399956 425.175401,21.5304001 C424.587398,22.4208045 423.785206,23.1053976 422.768801,23.5842 C421.752396,24.0630024 420.622607,24.3024 419.379401,24.3024 C416.909789,24.3024 414.977808,23.5464076 413.583401,22.0344001 C412.188994,20.5223925 411.491801,18.3636142 411.491801,15.5580002 C411.491801,13.5587903 411.869798,11.8452075 412.625801,10.4172004 C413.381805,8.98919326 414.435995,7.90560412 415.788401,7.16640045 C417.140808,6.42719677 418.707392,6.05760048 420.488201,6.05760048 C421.429006,6.05760048 422.331997,6.16259942 423.197201,6.37260047 C424.062405,6.58260151 424.797398,6.88079852 425.402201,7.26720044 L423.890201,10.2660004 C423.016597,9.67799744 421.916208,9.38400039 420.589001,9.38400039 C419.093794,9.38400039 417.909406,9.82079601 417.035801,10.6944004 C416.162197,11.5680047 415.691802,12.836392 415.624601,14.4996003 C416.666206,13.4579951 418.119392,12.9372003 419.984201,12.9372003 Z M419.152601,21.2532001 C420.026206,21.2532001 420.735998,21.0180024 421.282001,20.5476001 C421.828004,20.0771978 422.101001,19.4388042 422.101001,18.6324001 C422.101001,17.8259961 421.828004,17.1834026 421.282001,16.7046002 C420.735998,16.2257978 420.009406,15.9864002 419.102201,15.9864002 C418.211797,15.9864002 417.481004,16.2341977 416.909801,16.7298002 C416.338598,17.2254027 416.053001,17.8595963 416.053001,18.6324001 C416.053001,19.405204 416.330199,20.0351977 416.884601,20.5224001 C417.439004,21.0096025 418.194996,21.2532001 419.152601,21.2532001 Z M430.114601,24.2016 C429.425797,24.2016 428.846203,23.9664024 428.375801,23.496 C427.905399,23.0255977 427.670201,22.4376036 427.670201,21.7320001 C427.670201,21.0095965 427.905399,20.4258023 428.375801,19.9806001 C428.846203,19.5353979 429.425797,19.3128001 430.114601,19.3128001 C430.803404,19.3128001 431.382999,19.5353979 431.853401,19.9806001 C432.323803,20.4258023 432.559001,21.0095965 432.559001,21.7320001 C432.559001,22.4376036 432.323803,23.0255977 431.853401,23.496 C431.382999,23.9664024 430.803404,24.2016 430.114601,24.2016 Z M441.631001,24.3024 C440.169393,24.3024 438.867406,23.9412036 437.725001,23.2188 C436.582595,22.4963964 435.688004,21.4506069 435.041201,20.0814001 C434.394398,18.7121933 434.071001,17.0784097 434.071001,15.1800002 C434.071001,13.2815908 434.394398,11.6478072 435.041201,10.2786004 C435.688004,8.90939355 436.582595,7.86360404 437.725001,7.14120045 C438.867406,6.41879685 440.169393,6.05760048 441.631001,6.05760048 C443.092608,6.05760048 444.394595,6.41879685 445.537001,7.14120045 C446.679406,7.86360404 447.573997,8.90939355 448.2208,10.2786004 C448.867604,11.6478072 449.191,13.2815908 449.191,15.1800002 C449.191,17.0784097 448.867604,18.7121933 448.2208,20.0814001 C447.573997,21.4506069 446.679406,22.4963964 445.537001,23.2188 C444.394595,23.9412036 443.092608,24.3024 441.631001,24.3024 Z M441.631001,20.8500001 C442.706206,20.8500001 443.550397,20.3880047 444.163601,19.4640001 C444.776804,18.5399955 445.083401,17.1120098 445.083401,15.1800002 C445.083401,13.2479906 444.776804,11.8200049 444.163601,10.8960003 C443.550397,9.97199575 442.706206,9.51000038 441.631001,9.51000038 C440.572595,9.51000038 439.736804,9.97199575 439.123601,10.8960003 C438.510398,11.8200049 438.203801,13.2479906 438.203801,15.1800002 C438.203801,17.1120098 438.510398,18.5399955 439.123601,19.4640001 C439.736804,20.3880047 440.572595,20.8500001 441.631001,20.8500001 Z M458.7418,24.3024 C457.280193,24.3024 455.978206,23.9412036 454.8358,23.2188 C453.693395,22.4963964 452.798804,21.4506069 452.152,20.0814001 C451.505197,18.7121933 451.1818,17.0784097 451.1818,15.1800002 C451.1818,13.2815908 451.505197,11.6478072 452.152,10.2786004 C452.798804,8.90939355 453.693395,7.86360404 454.8358,7.14120045 C455.978206,6.41879685 457.280193,6.05760048 458.7418,6.05760048 C460.203407,6.05760048 461.505394,6.41879685 462.6478,7.14120045 C463.790206,7.86360404 464.684797,8.90939355 465.3316,10.2786004 C465.978403,11.6478072 466.3018,13.2815908 466.3018,15.1800002 C466.3018,17.0784097 465.978403,18.7121933 465.3316,20.0814001 C464.684797,21.4506069 463.790206,22.4963964 462.6478,23.2188 C461.505394,23.9412036 460.203407,24.3024 458.7418,24.3024 Z M458.7418,20.8500001 C459.817006,20.8500001 460.661197,20.3880047 461.2744,19.4640001 C461.887603,18.5399955 462.1942,17.1120098 462.1942,15.1800002 C462.1942,13.2479906 461.887603,11.8200049 461.2744,10.8960003 C460.661197,9.97199575 459.817006,9.51000038 458.7418,9.51000038 C457.683395,9.51000038 456.847603,9.97199575 456.2344,10.8960003 C455.621197,11.8200049 455.3146,13.2479906 455.3146,15.1800002 C455.3146,17.1120098 455.621197,18.5399955 456.2344,19.4640001 C456.847603,20.3880047 457.683395,20.8500001 458.7418,20.8500001 Z M475.8526,24.3024 C474.390992,24.3024 473.089005,23.9412036 471.9466,23.2188 C470.804194,22.4963964 469.909603,21.4506069 469.2628,20.0814001 C468.615997,18.7121933 468.2926,17.0784097 468.2926,15.1800002 C468.2926,13.2815908 468.615997,11.6478072 469.2628,10.2786004 C469.909603,8.90939355 470.804194,7.86360404 471.9466,7.14120045 C473.089005,6.41879685 474.390992,6.05760048 475.8526,6.05760048 C477.314207,6.05760048 478.616194,6.41879685 479.7586,7.14120045 C480.901005,7.86360404 481.795596,8.90939355 482.4424,10.2786004 C483.089203,11.6478072 483.412599,13.2815908 483.412599,15.1800002 C483.412599,17.0784097 483.089203,18.7121933 482.4424,20.0814001 C481.795596,21.4506069 480.901005,22.4963964 479.7586,23.2188 C478.616194,23.9412036 477.314207,24.3024 475.8526,24.3024 Z M475.8526,20.8500001 C476.927805,20.8500001 477.771997,20.3880047 478.3852,19.4640001 C478.998403,18.5399955 479.305,17.1120098 479.305,15.1800002 C479.305,13.2479906 478.998403,11.8200049 478.3852,10.8960003 C477.771997,9.97199575 476.927805,9.51000038 475.8526,9.51000038 C474.794194,9.51000038 473.958403,9.97199575 473.3452,10.8960003 C472.731997,11.8200049 472.4254,13.2479906 472.4254,15.1800002 C472.4254,17.1120098 472.731997,18.5399955 473.3452,19.4640001 C473.958403,20.3880047 474.794194,20.8500001 475.8526,20.8500001 Z M487.394199,24.2016 C486.705396,24.2016 486.125802,23.9664024 485.655399,23.496 C485.184997,23.0255977 484.949799,22.4376036 484.949799,21.7320001 C484.949799,21.0095965 485.184997,20.4258023 485.655399,19.9806001 C486.125802,19.5353979 486.705396,19.3128001 487.394199,19.3128001 C488.083003,19.3128001 488.662597,19.5353979 489.132999,19.9806001 C489.603402,20.4258023 489.838599,21.0095965 489.838599,21.7320001 C489.838599,22.4376036 489.603402,23.0255977 489.132999,23.496 C488.662597,23.9664024 488.083003,24.2016 487.394199,24.2016 Z M498.910599,24.3024 C497.448992,24.3024 496.147005,23.9412036 495.004599,23.2188 C493.862194,22.4963964 492.967602,21.4506069 492.320799,20.0814001 C491.673996,18.7121933 491.350599,17.0784097 491.350599,15.1800002 C491.350599,13.2815908 491.673996,11.6478072 492.320799,10.2786004 C492.967602,8.90939355 493.862194,7.86360404 495.004599,7.14120045 C496.147005,6.41879685 497.448992,6.05760048 498.910599,6.05760048 C500.372206,6.05760048 501.674193,6.41879685 502.816599,7.14120045 C503.959005,7.86360404 504.853596,8.90939355 505.500399,10.2786004 C506.147202,11.6478072 506.470599,13.2815908 506.470599,15.1800002 C506.470599,17.0784097 506.147202,18.7121933 505.500399,20.0814001 C504.853596,21.4506069 503.959005,22.4963964 502.816599,23.2188 C501.674193,23.9412036 500.372206,24.3024 498.910599,24.3024 Z M498.910599,20.8500001 C499.985804,20.8500001 500.829996,20.3880047 501.443199,19.4640001 C502.056402,18.5399955 502.362999,17.1120098 502.362999,15.1800002 C502.362999,13.2479906 502.056402,11.8200049 501.443199,10.8960003 C500.829996,9.97199575 499.985804,9.51000038 498.910599,9.51000038 C497.852194,9.51000038 497.016402,9.97199575 496.403199,10.8960003 C495.789996,11.8200049 495.483399,13.2479906 495.483399,15.1800002 C495.483399,17.1120098 495.789996,18.5399955 496.403199,19.4640001 C497.016402,20.3880047 497.852194,20.8500001 498.910599,20.8500001 Z M516.021399,24.3024 C514.559791,24.3024 513.257804,23.9412036 512.115399,23.2188 C510.972993,22.4963964 510.078402,21.4506069 509.431599,20.0814001 C508.784796,18.7121933 508.461399,17.0784097 508.461399,15.1800002 C508.461399,13.2815908 508.784796,11.6478072 509.431599,10.2786004 C510.078402,8.90939355 510.972993,7.86360404 512.115399,7.14120045 C513.257804,6.41879685 514.559791,6.05760048 516.021399,6.05760048 C517.483006,6.05760048 518.784993,6.41879685 519.927399,7.14120045 C521.069804,7.86360404 521.964395,8.90939355 522.611198,10.2786004 C523.258002,11.6478072 523.581398,13.2815908 523.581398,15.1800002 C523.581398,17.0784097 523.258002,18.7121933 522.611198,20.0814001 C521.964395,21.4506069 521.069804,22.4963964 519.927399,23.2188 C518.784993,23.9412036 517.483006,24.3024 516.021399,24.3024 Z M516.021399,20.8500001 C517.096604,20.8500001 517.940796,20.3880047 518.553999,19.4640001 C519.167202,18.5399955 519.473799,17.1120098 519.473799,15.1800002 C519.473799,13.2479906 519.167202,11.8200049 518.553999,10.8960003 C517.940796,9.97199575 517.096604,9.51000038 516.021399,9.51000038 C514.962993,9.51000038 514.127202,9.97199575 513.513999,10.8960003 C512.900796,11.8200049 512.594199,13.2479906 512.594199,15.1800002 C512.594199,17.1120098 512.900796,18.5399955 513.513999,19.4640001 C514.127202,20.3880047 514.962993,20.8500001 516.021399,20.8500001 Z M533.132198,24.3024 C531.670591,24.3024 530.368604,23.9412036 529.226198,23.2188 C528.083793,22.4963964 527.189202,21.4506069 526.542398,20.0814001 C525.895595,18.7121933 525.572198,17.0784097 525.572198,15.1800002 C525.572198,13.2815908 525.895595,11.6478072 526.542398,10.2786004 C527.189202,8.90939355 528.083793,7.86360404 529.226198,7.14120045 C530.368604,6.41879685 531.670591,6.05760048 533.132198,6.05760048 C534.593805,6.05760048 535.895792,6.41879685 537.038198,7.14120045 C538.180604,7.86360404 539.075195,8.90939355 539.721998,10.2786004 C540.368801,11.6478072 540.692198,13.2815908 540.692198,15.1800002 C540.692198,17.0784097 540.368801,18.7121933 539.721998,20.0814001 C539.075195,21.4506069 538.180604,22.4963964 537.038198,23.2188 C535.895792,23.9412036 534.593805,24.3024 533.132198,24.3024 Z M533.132198,20.8500001 C534.207404,20.8500001 535.051595,20.3880047 535.664798,19.4640001 C536.278001,18.5399955 536.584598,17.1120098 536.584598,15.1800002 C536.584598,13.2479906 536.278001,11.8200049 535.664798,10.8960003 C535.051595,9.97199575 534.207404,9.51000038 533.132198,9.51000038 C532.073793,9.51000038 531.238001,9.97199575 530.624798,10.8960003 C530.011595,11.8200049 529.704998,13.2479906 529.704998,15.1800002 C529.704998,17.1120098 530.011595,18.5399955 530.624798,19.4640001 C531.238001,20.3880047 532.073793,20.8500001 533.132198,20.8500001 Z" id="$-6.000.000" fill="#4C3092"></path>
        </g>
    </g>
</svg>