<?xml version="1.0" encoding="UTF-8"?>
<svg width="934px" height="81px" viewBox="0 0 934 81" version="1.1" xmlns="http://www.w3.org/2000/svg" xmlns:xlink="http://www.w3.org/1999/xlink">
    <!-- Generator: Sketch 48.1 (47250) - http://www.bohemiancoding.com/sketch -->
    <title>line-6 000 000</title>
    <desc>Created with Sketch.</desc>
    <defs></defs>
    <g id="майлстоун-2-copy" stroke="none" stroke-width="1" fill="none" fill-rule="evenodd" transform="translate(-158.000000, -144.000000)">
        <g id="Group-9" transform="translate(-23.000000, 144.000000)">
            <g id="line-6-000-000" transform="translate(181.000000, 0.000000)">
                <path d="M19,45 L908.797858,45" id="Line" stroke="#4C3092" stroke-width="1.88999986" stroke-linecap="square"></path>
                <g id="Group-6" transform="translate(12.000000, 34.000000)" fill="#4C3092">
                    <ellipse id="Oval-3-Copy-2" opacity="0.049999997" cx="10.4005805" cy="10.5" rx="10.4005805" ry="10.5"></ellipse>
                    <ellipse id="Oval-3" opacity="0.100000001" cx="10.4005805" cy="10.5" rx="8.00044657" ry="8.07692308"></ellipse>
                    <ellipse id="Oval-3-Copy" cx="10.4005805" cy="10.5" rx="4.80026794" ry="4.84615385"></ellipse>
                </g>
                <g id="Group-6-Copy" transform="translate(895.912316, 34.000000)" fill="#4C3092">
                    <ellipse id="Oval-3-Copy-2" opacity="0.049999997" cx="10.4005805" cy="10.5" rx="10.4005805" ry="10.5"></ellipse>
                    <ellipse id="Oval-3" opacity="0.100000001" cx="10.4005805" cy="10.5" rx="8.00044657" ry="8.07692308"></ellipse>
                    <ellipse id="Oval-3-Copy" cx="10.4005805" cy="10.5" rx="4.80026794" ry="4.84615385"></ellipse>
                </g>
                <path d="M11.1275997,77.3864001 L11.1275997,80 L0.653399983,80 L0.653399983,77.9210001 L5.99939984,72.8720002 C6.56700266,72.3307975 6.94979883,71.8655022 7.14779981,71.4761002 C7.3458008,71.0866983 7.4447998,70.7006022 7.4447998,70.3178003 C7.4447998,69.7633975 7.25670169,69.3377018 6.88049982,69.0407003 C6.50429795,68.7436988 5.95320347,68.5952003 5.22719986,68.5952003 C4.61999684,68.5952003 4.07220233,68.7106991 3.58379991,68.9417003 C3.09539748,69.1727014 2.68620158,69.519198 2.35619994,69.9812003 L0.0197999995,68.4764003 C0.561002691,67.6711963 1.30679521,67.0409026 2.25719994,66.5855004 C3.20760467,66.1300981 4.29659375,65.9024004 5.52419985,65.9024004 C6.55380497,65.9024004 7.45469594,66.0706987 8.22689978,66.4073004 C8.99910362,66.743902 9.5996976,67.2190973 10.0286997,67.8329003 C10.4577019,68.4467034 10.6721997,69.1693961 10.6721997,70.0010003 C10.6721997,70.753404 10.5138013,71.4595969 10.1969997,72.1196002 C9.88019815,72.7796035 9.26640431,73.5319959 8.35559978,74.3768001 L5.16779986,77.3864001 L11.1275997,77.3864001 Z M18.3545995,80.2376 C17.2061938,80.2376 16.1832041,79.9538028 15.2855996,79.3862 C14.3879951,78.8185972 13.6851022,77.9969054 13.1768997,76.9211001 C12.6686971,75.8452947 12.4145997,74.5616076 12.4145997,73.0700002 C12.4145997,71.5783928 12.6686971,70.2947056 13.1768997,69.2189003 C13.6851022,68.1430949 14.3879951,67.3214032 15.2855996,66.7538004 C16.1832041,66.1861975 17.2061938,65.9024004 18.3545995,65.9024004 C19.5030052,65.9024004 20.525995,66.1861975 21.4235994,66.7538004 C22.3212039,67.3214032 23.0240968,68.1430949 23.5322994,69.2189003 C24.0405019,70.2947056 24.2945994,71.5783928 24.2945994,73.0700002 C24.2945994,74.5616076 24.0405019,75.8452947 23.5322994,76.9211001 C23.0240968,77.9969054 22.3212039,78.8185972 21.4235994,79.3862 C20.525995,79.9538028 19.5030052,80.2376 18.3545995,80.2376 Z M18.3545995,77.5250001 C19.1994037,77.5250001 19.8626971,77.1620037 20.3444995,76.4360001 C20.8263019,75.7099965 21.0671994,74.5880077 21.0671994,73.0700002 C21.0671994,71.5519926 20.8263019,70.4300039 20.3444995,69.7040003 C19.8626971,68.9779967 19.1994037,68.6150003 18.3545995,68.6150003 C17.5229954,68.6150003 16.866302,68.9779967 16.3844996,69.7040003 C15.9026972,70.4300039 15.6617996,71.5519926 15.6617996,73.0700002 C15.6617996,74.5880077 15.9026972,75.7099965 16.3844996,76.4360001 C16.866302,77.1620037 17.5229954,77.5250001 18.3545995,77.5250001 Z M31.0859992,66.1400004 L31.0859992,80 L27.8783993,80 L27.8783993,68.7140003 L25.1063993,68.7140003 L25.1063993,66.1400004 L31.0859992,66.1400004 Z M42.9857989,72.7136002 C43.6722023,73.0568019 44.196897,73.5055974 44.5598988,74.0600002 C44.9229006,74.6144029 45.1043988,75.2545965 45.1043988,75.9806001 C45.1043988,76.8386044 44.8602013,77.5876969 44.3717988,78.2279 C43.8833964,78.8681032 43.1970033,79.3630983 42.3125989,79.7129 C41.4281945,80.0627017 40.4052047,80.2376 39.243599,80.2376 C38.0819932,80.2376 37.0623034,80.0627017 36.184499,79.7129 C35.3066947,79.3630983 34.6269015,78.8681032 34.1450991,78.2279 C33.6632967,77.5876969 33.4223991,76.8386044 33.4223991,75.9806001 C33.4223991,75.2545965 33.6038973,74.6144029 33.9668991,74.0600002 C34.3299009,73.5055974 34.8479957,73.0568019 35.5211991,72.7136002 C35.0063965,72.3967986 34.6104005,71.9975026 34.3331991,71.5157002 C34.0559977,71.0338978 33.9173991,70.4828034 33.9173991,69.8624003 C33.9173991,69.0571963 34.1417969,68.3576033 34.5905991,67.7636003 C35.0394013,67.1695974 35.666395,66.710902 36.471599,66.3875004 C37.276803,66.0640988 38.2007938,65.9024004 39.243599,65.9024004 C40.2996042,65.9024004 41.2334948,66.0640988 42.0452989,66.3875004 C42.8571029,66.710902 43.4873966,67.1695974 43.9361988,67.7636003 C44.3850011,68.3576033 44.6093988,69.0571963 44.6093988,69.8624003 C44.6093988,70.4828034 44.4708002,71.0338978 44.1935988,71.5157002 C43.9163975,71.9975026 43.5138015,72.3967986 42.9857989,72.7136002 Z M39.243599,68.2586003 C38.5967957,68.2586003 38.0787009,68.4136988 37.689299,68.7239003 C37.2998971,69.0341018 37.105199,69.4597976 37.105199,70.0010003 C37.105199,70.5290029 37.2965971,70.9447987 37.679399,71.2484002 C38.0622009,71.5520017 38.5835957,71.7038002 39.243599,71.7038002 C39.9036022,71.7038002 40.4315969,71.5520017 40.8275989,71.2484002 C41.2236009,70.9447987 41.4215989,70.5290029 41.4215989,70.0010003 C41.4215989,69.4597976 41.2236009,69.0341018 40.8275989,68.7239003 C40.4315969,68.4136988 39.9036022,68.2586003 39.243599,68.2586003 Z M39.243599,77.8814001 C40.048803,77.8814001 40.6856966,77.6999019 41.1542989,77.3369001 C41.6229012,76.9738983 41.8571989,76.4888031 41.8571989,75.8816001 C41.8571989,75.2743971 41.6229012,74.7926019 41.1542989,74.4362001 C40.6856966,74.0797984 40.048803,73.9016002 39.243599,73.9016002 C38.451595,73.9016002 37.8246013,74.0797984 37.362599,74.4362001 C36.9005967,74.7926019 36.669599,75.2743971 36.669599,75.8816001 C36.669599,76.5020032 36.9005967,76.9903983 37.362599,77.3468001 C37.8246013,77.7032018 38.451595,77.8814001 39.243599,77.8814001 Z" id="2018" fill="#4C3092"></path>
                <path d="M18.2773001,23 L18.2647001,17.7206001 L15.6691002,22.0676 L14.7619002,22.0676 L12.1663003,17.8214001 L12.1663003,23 L10.2511004,23 L10.2511004,14.1800002 L11.9395003,14.1800002 L15.2407002,19.6610001 L18.4915001,14.1800002 L20.1799001,14.1800002 L20.1925001,23 L18.2773001,23 Z M24.8671,16.1204002 C25.9171052,16.1204002 26.7234971,16.3702977 27.2862999,16.8701002 C27.8491027,17.3699026 28.1304999,18.1237951 28.1304999,19.1318001 L28.1304999,23 L26.2908999,23 L26.2908999,22.1558 C25.9212981,22.7858032 25.232505,23.1008 24.2245,23.1008 C23.7036974,23.1008 23.2522019,23.0126009 22.87,22.8362 C22.4877981,22.6597991 22.195901,22.4162016 21.9943,22.1054 C21.792699,21.7945985 21.6919,21.441802 21.6919,21.0470001 C21.6919,20.4169969 21.9291977,19.9214019 22.4038,19.5602001 C22.8784024,19.1989983 23.611295,19.0184001 24.6025,19.0184001 L26.1648999,19.0184001 C26.1648999,18.589998 26.0347012,18.2603013 25.7742999,18.0293001 C25.5138986,17.798299 25.1233026,17.6828001 24.6025,17.6828001 C24.2412982,17.6828001 23.8864017,17.7394996 23.5378,17.8529001 C23.1891983,17.9663007 22.8931012,18.1195992 22.6495,18.3128001 L21.9439,16.9394002 C22.3135019,16.6789989 22.7565974,16.4774009 23.2732,16.3346002 C23.7898026,16.1917995 24.3210972,16.1204002 24.8671,16.1204002 Z M24.7159,21.7778 C25.0519016,21.7778 25.3500986,21.7001008 25.6104999,21.5447 C25.8709012,21.3892993 26.0556994,21.1604016 26.1648999,20.8580001 L26.1648999,20.1650001 L24.8167,20.1650001 C24.010296,20.1650001 23.6071,20.4295974 23.6071,20.9588001 C23.6071,21.2108013 23.705799,21.4102993 23.9032,21.5573 C24.100601,21.7043008 24.3714983,21.7778 24.7159,21.7778 Z M29.8440998,16.2212002 L31.7970998,16.2212002 L31.7970998,20.2532001 L35.0982997,16.2212002 L36.9000996,16.2212002 L36.9000996,23 L34.9470997,23 L34.9470997,18.9680001 L31.6584998,23 L29.8440998,23 L29.8440998,16.2212002 Z M33.2460997,15.4904002 C31.7676924,15.4904002 31.0242998,14.8394067 31.0158998,13.5374003 L32.3010998,13.5374003 C32.3094998,13.8314017 32.391399,14.0602994 32.5467998,14.2241002 C32.7022005,14.387901 32.9310982,14.4698002 33.2334997,14.4698002 C33.5359012,14.4698002 33.7689989,14.387901 33.9327997,14.2241002 C34.0966005,14.0602994 34.1784997,13.8314017 34.1784997,13.5374003 L35.4888997,13.5374003 C35.4804996,14.8394067 34.7329071,15.4904002 33.2460997,15.4904002 Z" id="Май" fill="#4C3092"></path>
                <path d="M896.1276,77.3864001 L896.1276,80 L885.6534,80 L885.6534,77.9210001 L890.9994,72.8720002 C891.567003,72.3307975 891.949799,71.8655022 892.1478,71.4761002 C892.345801,71.0866983 892.4448,70.7006022 892.4448,70.3178003 C892.4448,69.7633975 892.256702,69.3377018 891.8805,69.0407003 C891.504298,68.7436988 890.953203,68.5952003 890.2272,68.5952003 C889.619997,68.5952003 889.072202,68.7106991 888.5838,68.9417003 C888.095397,69.1727014 887.686202,69.519198 887.3562,69.9812003 L885.0198,68.4764003 C885.561003,67.6711963 886.306795,67.0409026 887.2572,66.5855004 C888.207605,66.1300981 889.296594,65.9024004 890.5242,65.9024004 C891.553805,65.9024004 892.454696,66.0706987 893.2269,66.4073004 C893.999104,66.743902 894.599698,67.2190973 895.0287,67.8329003 C895.457702,68.4467034 895.6722,69.1693961 895.6722,70.0010003 C895.6722,70.753404 895.513801,71.4595969 895.197,72.1196002 C894.880198,72.7796035 894.266404,73.5319959 893.3556,74.3768001 L890.1678,77.3864001 L896.1276,77.3864001 Z M903.3546,80.2376 C902.206194,80.2376 901.183204,79.9538028 900.2856,79.3862 C899.387995,78.8185972 898.685102,77.9969054 898.1769,76.9211001 C897.668697,75.8452947 897.4146,74.5616076 897.4146,73.0700002 C897.4146,71.5783928 897.668697,70.2947056 898.1769,69.2189003 C898.685102,68.1430949 899.387995,67.3214032 900.2856,66.7538004 C901.183204,66.1861975 902.206194,65.9024004 903.3546,65.9024004 C904.503005,65.9024004 905.525995,66.1861975 906.423599,66.7538004 C907.321204,67.3214032 908.024097,68.1430949 908.532299,69.2189003 C909.040502,70.2947056 909.294599,71.5783928 909.294599,73.0700002 C909.294599,74.5616076 909.040502,75.8452947 908.532299,76.9211001 C908.024097,77.9969054 907.321204,78.8185972 906.423599,79.3862 C905.525995,79.9538028 904.503005,80.2376 903.3546,80.2376 Z M903.3546,77.5250001 C904.199404,77.5250001 904.862697,77.1620037 905.344499,76.4360001 C905.826302,75.7099965 906.067199,74.5880077 906.067199,73.0700002 C906.067199,71.5519926 905.826302,70.4300039 905.344499,69.7040003 C904.862697,68.9779967 904.199404,68.6150003 903.3546,68.6150003 C902.522995,68.6150003 901.866302,68.9779967 901.3845,69.7040003 C900.902697,70.4300039 900.6618,71.5519926 900.6618,73.0700002 C900.6618,74.5880077 900.902697,75.7099965 901.3845,76.4360001 C901.866302,77.1620037 902.522995,77.5250001 903.3546,77.5250001 Z M916.085999,66.1400004 L916.085999,80 L912.878399,80 L912.878399,68.7140003 L910.106399,68.7140003 L910.106399,66.1400004 L916.085999,66.1400004 Z M927.985799,72.7136002 C928.672202,73.0568019 929.196897,73.5055974 929.559899,74.0600002 C929.922901,74.6144029 930.104399,75.2545965 930.104399,75.9806001 C930.104399,76.8386044 929.860201,77.5876969 929.371799,78.2279 C928.883396,78.8681032 928.197003,79.3630983 927.312599,79.7129 C926.428194,80.0627017 925.405205,80.2376 924.243599,80.2376 C923.081993,80.2376 922.062303,80.0627017 921.184499,79.7129 C920.306695,79.3630983 919.626901,78.8681032 919.145099,78.2279 C918.663297,77.5876969 918.422399,76.8386044 918.422399,75.9806001 C918.422399,75.2545965 918.603897,74.6144029 918.966899,74.0600002 C919.329901,73.5055974 919.847996,73.0568019 920.521199,72.7136002 C920.006396,72.3967986 919.6104,71.9975026 919.333199,71.5157002 C919.055998,71.0338978 918.917399,70.4828034 918.917399,69.8624003 C918.917399,69.0571963 919.141797,68.3576033 919.590599,67.7636003 C920.039401,67.1695974 920.666395,66.710902 921.471599,66.3875004 C922.276803,66.0640988 923.200794,65.9024004 924.243599,65.9024004 C925.299604,65.9024004 926.233495,66.0640988 927.045299,66.3875004 C927.857103,66.710902 928.487397,67.1695974 928.936199,67.7636003 C929.385001,68.3576033 929.609399,69.0571963 929.609399,69.8624003 C929.609399,70.4828034 929.4708,71.0338978 929.193599,71.5157002 C928.916397,71.9975026 928.513801,72.3967986 927.985799,72.7136002 Z M924.243599,68.2586003 C923.596796,68.2586003 923.078701,68.4136988 922.689299,68.7239003 C922.299897,69.0341018 922.105199,69.4597976 922.105199,70.0010003 C922.105199,70.5290029 922.296597,70.9447987 922.679399,71.2484002 C923.062201,71.5520017 923.583596,71.7038002 924.243599,71.7038002 C924.903602,71.7038002 925.431597,71.5520017 925.827599,71.2484002 C926.223601,70.9447987 926.421599,70.5290029 926.421599,70.0010003 C926.421599,69.4597976 926.223601,69.0341018 925.827599,68.7239003 C925.431597,68.4136988 924.903602,68.2586003 924.243599,68.2586003 Z M924.243599,77.8814001 C925.048803,77.8814001 925.685697,77.6999019 926.154299,77.3369001 C926.622901,76.9738983 926.857199,76.4888031 926.857199,75.8816001 C926.857199,75.2743971 926.622901,74.7926019 926.154299,74.4362001 C925.685697,74.0797984 925.048803,73.9016002 924.243599,73.9016002 C923.451595,73.9016002 922.824601,74.0797984 922.362599,74.4362001 C921.900597,74.7926019 921.669599,75.2743971 921.669599,75.8816001 C921.669599,76.5020032 921.900597,76.9903983 922.362599,77.3468001 C922.824601,77.7032018 923.451595,77.8814001 924.243599,77.8814001 Z" id="2018-copy" fill="#4C3092"></path>
                <path d="M892.1452,14.1800002 L892.1452,23 L890.104,23 L890.104,19.3838001 L886.097201,19.3838001 L886.097201,23 L884.056001,23 L884.056001,14.1800002 L886.097201,14.1800002 L886.097201,17.6576001 L890.104,17.6576001 L890.104,14.1800002 L892.1452,14.1800002 Z M897.3742,23.1008 C896.660197,23.1008 896.019703,22.9517015 895.4527,22.6535 C894.885698,22.3552985 894.442602,21.9416027 894.1234,21.4124 C893.804199,20.8831974 893.6446,20.2826034 893.6446,19.6106001 C893.6446,18.9385967 893.804199,18.3380028 894.1234,17.8088001 C894.442602,17.2795975 894.885698,16.8659017 895.4527,16.5677002 C896.019703,16.2694987 896.660197,16.1204002 897.3742,16.1204002 C898.088204,16.1204002 898.726597,16.2694987 899.2894,16.5677002 C899.852203,16.8659017 900.293199,17.2795975 900.6124,17.8088001 C900.931602,18.3380028 901.0912,18.9385967 901.0912,19.6106001 C901.0912,20.2826034 900.931602,20.8831974 900.6124,21.4124 C900.293199,21.9416027 899.852203,22.3552985 899.2894,22.6535 C898.726597,22.9517015 898.088204,23.1008 897.3742,23.1008 Z M897.3742,21.488 C897.878203,21.488 898.291899,21.3179017 898.6153,20.9777001 C898.938702,20.6374984 899.1004,20.1818029 899.1004,19.6106001 C899.1004,19.0393972 898.938702,18.5837018 898.6153,18.2435001 C898.291899,17.9032984 897.878203,17.7332001 897.3742,17.7332001 C896.870198,17.7332001 896.454402,17.9032984 896.1268,18.2435001 C895.799199,18.5837018 895.6354,19.0393972 895.6354,19.6106001 C895.6354,20.1818029 895.799199,20.6374984 896.1268,20.9777001 C896.454402,21.3179017 896.870198,21.488 897.3742,21.488 Z M908.248,16.2212002 L908.248,23 L906.4966,23 L906.4966,21.0596001 L905.0476,21.0596001 L903.7624,23 L901.6708,23 L903.2206,20.7824001 C902.750198,20.5975991 902.391101,20.3309018 902.1433,19.9823001 C901.895499,19.6336983 901.7716,19.2116026 901.7716,18.7160001 C901.7716,17.9179961 902.059297,17.3027023 902.6347,16.8701002 C903.210103,16.437498 904.001795,16.2212002 905.0098,16.2212002 L908.248,16.2212002 Z M905.0476,17.8214001 C904.627598,17.8214001 904.310501,17.8969994 904.0963,18.0482001 C903.882099,18.1994009 903.775,18.4429984 903.775,18.7790001 C903.775,19.1150018 903.877899,19.3606993 904.0837,19.5161001 C904.289501,19.6715009 904.602398,19.7492001 905.0224,19.7492001 L906.4966,19.7492001 L906.4966,17.8214001 L905.0476,17.8214001 Z M914.0566,16.6874002 C914.703403,16.6874002 915.270397,16.8196988 915.7576,17.0843002 C916.244802,17.3489015 916.620698,17.7205977 916.8853,18.1994001 C917.149901,18.6782025 917.2822,19.2325969 917.2822,19.8626001 C917.2822,20.5094033 917.124701,21.0826976 916.8097,21.5825 C916.494698,22.0823025 916.055803,22.4686986 915.493,22.7417 C914.930197,23.0147014 914.291803,23.1512 913.5778,23.1512 C912.393394,23.1512 911.463103,22.7711038 910.7869,22.0109 C910.110697,21.2506962 909.7726,20.1356074 909.7726,18.6656001 C909.7726,17.3047933 910.068697,16.2191042 910.6609,15.4085002 C911.253103,14.5978962 912.162394,14.0666015 913.3888,13.8146002 L916.6144,13.1720003 L916.879,14.8604002 L914.0314,15.4274002 C913.258596,15.578601 912.685302,15.8305984 912.3115,16.1834002 C911.937698,16.5362019 911.7172,17.0359969 911.65,17.6828001 C911.944001,17.3635986 912.296798,17.117901 912.7084,16.9457002 C913.120002,16.7734993 913.569397,16.6874002 914.0566,16.6874002 Z M913.5904,21.6266 C914.094402,21.6266 914.499698,21.4628017 914.8063,21.1352 C915.112901,20.8075984 915.2662,20.3918026 915.2662,19.8878001 C915.2662,19.3753975 915.112901,18.9680016 914.8063,18.6656001 C914.499698,18.3631986 914.094402,18.2120001 913.5904,18.2120001 C913.077997,18.2120001 912.666401,18.3631986 912.3556,18.6656001 C912.044798,18.9680016 911.8894,19.3753975 911.8894,19.8878001 C911.8894,20.4002026 912.048998,20.8180984 912.3682,21.1415 C912.687401,21.4649017 913.094797,21.6266 913.5904,21.6266 Z M922.612,16.1204002 C923.242003,16.1204002 923.815297,16.2652987 924.3319,16.5551002 C924.848502,16.8449016 925.253798,17.2522975 925.5478,17.7773001 C925.841801,18.3023027 925.9888,18.9133966 925.9888,19.6106001 C925.9888,20.3078036 925.841801,20.9188974 925.5478,21.4439 C925.253798,21.9689027 924.848502,22.3762986 924.3319,22.6661 C923.815297,22.9559015 923.242003,23.1008 922.612,23.1008 C921.746795,23.1008 921.066402,22.8278027 920.5708,22.2818 L920.5708,25.4443999 L918.6052,25.4443999 L918.6052,16.2212002 L920.4826,16.2212002 L920.4826,17.0024002 C920.969802,16.4143972 921.679595,16.1204002 922.612,16.1204002 Z M922.2718,21.488 C922.775802,21.488 923.189498,21.3179017 923.5129,20.9777001 C923.836301,20.6374984 923.998,20.1818029 923.998,19.6106001 C923.998,19.0393972 923.836301,18.5837018 923.5129,18.2435001 C923.189498,17.9032984 922.775802,17.7332001 922.2718,17.7332001 C921.767797,17.7332001 921.354101,17.9032984 921.0307,18.2435001 C920.707298,18.5837018 920.5456,19.0393972 920.5456,19.6106001 C920.5456,20.1818029 920.707298,20.6374984 921.0307,20.9777001 C921.354101,21.3179017 921.767797,21.488 922.2718,21.488 Z M931.028799,18.3884001 C931.910804,18.3968002 932.586997,18.5962982 933.057399,18.9869001 C933.527802,19.377502 933.762999,19.9297965 933.762999,20.6438001 C933.762999,21.3914038 933.500502,21.9730979 932.975499,22.3889 C932.450497,22.8047021 931.713404,23.0126 930.764199,23.0126 L927.3622,23 L927.3622,16.2212002 L929.315199,16.2212002 L929.315199,18.3884001 L931.028799,18.3884001 Z M930.587799,21.614 C930.965801,21.6224001 931.255598,21.5426009 931.457199,21.3746 C931.6588,21.2065992 931.759599,20.9546017 931.759599,20.6186001 C931.759599,20.2909984 931.6609,20.0516008 931.463499,19.9004001 C931.266098,19.7491993 930.974201,19.6694001 930.587799,19.6610001 L929.315199,19.6484001 L929.315199,21.614 L930.587799,21.614 Z" id="Ноябрь" fill="#4C3092"></path>
                <path d="M401.671802,15.8340001 C401.671802,17.211607 401.167807,18.3917952 400.159802,19.3746 C399.151797,20.3574049 397.698611,20.9663988 395.800202,21.2016 L395.800202,24.0239999 L393.280202,24.0239999 L393.280202,21.2772 C392.036996,21.2099997 390.852608,20.9916018 389.727002,20.622 C388.601396,20.2523982 387.694205,19.7988027 387.005402,19.2612 L388.391402,16.1868001 C389.029805,16.6572025 389.777398,17.0519985 390.634202,17.3712001 C391.491006,17.6904017 392.372997,17.8919997 393.280202,17.9760001 L393.280202,13.7676002 C392.087396,13.4819988 391.079406,13.162802 390.256202,12.8100002 C389.432998,12.4571985 388.744205,11.9406036 388.189802,11.2602003 C387.635399,10.5797969 387.358202,9.67680593 387.358202,8.55120033 C387.358202,7.15679339 387.866397,5.9598054 388.882802,4.96020042 C389.899207,3.96059545 391.364992,3.35160156 393.280202,3.13320047 L393.280202,0.336000547 L395.800202,0.336000547 L395.800202,3.08280047 C397.866612,3.25080131 399.571795,3.76319617 400.915802,4.62000043 L399.655802,7.71960035 C398.395795,6.99719676 397.110608,6.56040114 395.800202,6.40920039 L395.800202,10.6932003 C396.976208,10.9620016 397.971598,11.2685985 398.786402,11.6130002 C399.601206,11.957402 400.285799,12.4697968 400.840202,13.1502002 C401.394604,13.8306036 401.671802,14.7251946 401.671802,15.8340001 Z M391.415402,8.34960034 C391.415402,8.76960242 391.575,9.11399897 391.894202,9.38280031 C392.213403,9.65160164 392.675399,9.87839937 393.280202,10.0632003 L393.280202,6.48480038 C392.641799,6.63600114 392.171403,6.87539874 391.869002,7.20300037 C391.5666,7.53060199 391.415402,7.91279816 391.415402,8.34960034 Z M395.800202,17.8752001 C396.405005,17.7407994 396.8586,17.5224016 397.161002,17.2200001 C397.463403,16.9175986 397.614602,16.5564022 397.614602,16.1364001 C397.614602,15.716398 397.459203,15.3720015 397.148402,15.1032002 C396.8376,14.8343988 396.388205,14.5992012 395.800202,14.3976002 L395.800202,17.8752001 Z M418.984201,9.93720029 C420.109807,9.93720029 421.134597,10.163998 422.058601,10.6176003 C422.982606,11.0712025 423.713398,11.7137961 424.251001,12.5454002 C424.788604,13.3770044 425.057401,14.3387947 425.057401,15.4308001 C425.057401,16.606806 424.763404,17.6399956 424.175401,18.5304001 C423.587398,19.4208045 422.785206,20.1053976 421.768801,20.5842 C420.752396,21.0630024 419.622607,21.3024 418.379401,21.3024 C415.909789,21.3024 413.977808,20.5464076 412.583401,19.0344001 C411.188994,17.5223925 410.491801,15.3636142 410.491801,12.5580002 C410.491801,10.5587903 410.869798,8.84520746 411.625801,7.41720036 C412.381805,5.98919326 413.435995,4.90560412 414.788401,4.16640045 C416.140808,3.42719677 417.707392,3.05760048 419.488201,3.05760048 C420.429006,3.05760048 421.331997,3.16259942 422.197201,3.37260047 C423.062405,3.58260151 423.797398,3.88079852 424.402201,4.26720044 L422.890201,7.26600036 C422.016597,6.67799744 420.916208,6.38400039 419.589001,6.38400039 C418.093794,6.38400039 416.909406,6.82079601 416.035801,7.69440035 C415.162197,8.5680047 414.691802,9.83639198 414.624601,11.4996003 C415.666206,10.4579951 417.119392,9.93720029 418.984201,9.93720029 Z M418.152601,18.2532001 C419.026206,18.2532001 419.735998,18.0180024 420.282001,17.5476001 C420.828004,17.0771978 421.101001,16.4388042 421.101001,15.6324001 C421.101001,14.8259961 420.828004,14.1834026 420.282001,13.7046002 C419.735998,13.2257978 419.009406,12.9864002 418.102201,12.9864002 C417.211797,12.9864002 416.481004,13.2341977 415.909801,13.7298002 C415.338598,14.2254027 415.053001,14.8595963 415.053001,15.6324001 C415.053001,16.405204 415.330199,17.0351977 415.884601,17.5224001 C416.439004,18.0096025 417.194996,18.2532001 418.152601,18.2532001 Z M429.114601,21.2016 C428.425797,21.2016 427.846203,20.9664024 427.375801,20.496 C426.905399,20.0255977 426.670201,19.4376036 426.670201,18.7320001 C426.670201,18.0095965 426.905399,17.4258023 427.375801,16.9806001 C427.846203,16.5353979 428.425797,16.3128001 429.114601,16.3128001 C429.803404,16.3128001 430.382999,16.5353979 430.853401,16.9806001 C431.323803,17.4258023 431.559001,18.0095965 431.559001,18.7320001 C431.559001,19.4376036 431.323803,20.0255977 430.853401,20.496 C430.382999,20.9664024 429.803404,21.2016 429.114601,21.2016 Z M440.631001,21.3024 C439.169393,21.3024 437.867406,20.9412036 436.725001,20.2188 C435.582595,19.4963964 434.688004,18.4506069 434.041201,17.0814001 C433.394398,15.7121933 433.071001,14.0784097 433.071001,12.1800002 C433.071001,10.2815908 433.394398,8.64780717 434.041201,7.27860036 C434.688004,5.90939355 435.582595,4.86360404 436.725001,4.14120045 C437.867406,3.41879685 439.169393,3.05760048 440.631001,3.05760048 C442.092608,3.05760048 443.394595,3.41879685 444.537001,4.14120045 C445.679406,4.86360404 446.573997,5.90939355 447.2208,7.27860036 C447.867604,8.64780717 448.191,10.2815908 448.191,12.1800002 C448.191,14.0784097 447.867604,15.7121933 447.2208,17.0814001 C446.573997,18.4506069 445.679406,19.4963964 444.537001,20.2188 C443.394595,20.9412036 442.092608,21.3024 440.631001,21.3024 Z M440.631001,17.8500001 C441.706206,17.8500001 442.550397,17.3880047 443.163601,16.4640001 C443.776804,15.5399955 444.083401,14.1120098 444.083401,12.1800002 C444.083401,10.2479906 443.776804,8.82000494 443.163601,7.89600035 C442.550397,6.97199575 441.706206,6.51000038 440.631001,6.51000038 C439.572595,6.51000038 438.736804,6.97199575 438.123601,7.89600035 C437.510398,8.82000494 437.203801,10.2479906 437.203801,12.1800002 C437.203801,14.1120098 437.510398,15.5399955 438.123601,16.4640001 C438.736804,17.3880047 439.572595,17.8500001 440.631001,17.8500001 Z M457.7418,21.3024 C456.280193,21.3024 454.978206,20.9412036 453.8358,20.2188 C452.693395,19.4963964 451.798804,18.4506069 451.152,17.0814001 C450.505197,15.7121933 450.1818,14.0784097 450.1818,12.1800002 C450.1818,10.2815908 450.505197,8.64780717 451.152,7.27860036 C451.798804,5.90939355 452.693395,4.86360404 453.8358,4.14120045 C454.978206,3.41879685 456.280193,3.05760048 457.7418,3.05760048 C459.203407,3.05760048 460.505394,3.41879685 461.6478,4.14120045 C462.790206,4.86360404 463.684797,5.90939355 464.3316,7.27860036 C464.978403,8.64780717 465.3018,10.2815908 465.3018,12.1800002 C465.3018,14.0784097 464.978403,15.7121933 464.3316,17.0814001 C463.684797,18.4506069 462.790206,19.4963964 461.6478,20.2188 C460.505394,20.9412036 459.203407,21.3024 457.7418,21.3024 Z M457.7418,17.8500001 C458.817006,17.8500001 459.661197,17.3880047 460.2744,16.4640001 C460.887603,15.5399955 461.1942,14.1120098 461.1942,12.1800002 C461.1942,10.2479906 460.887603,8.82000494 460.2744,7.89600035 C459.661197,6.97199575 458.817006,6.51000038 457.7418,6.51000038 C456.683395,6.51000038 455.847603,6.97199575 455.2344,7.89600035 C454.621197,8.82000494 454.3146,10.2479906 454.3146,12.1800002 C454.3146,14.1120098 454.621197,15.5399955 455.2344,16.4640001 C455.847603,17.3880047 456.683395,17.8500001 457.7418,17.8500001 Z M474.8526,21.3024 C473.390992,21.3024 472.089005,20.9412036 470.9466,20.2188 C469.804194,19.4963964 468.909603,18.4506069 468.2628,17.0814001 C467.615997,15.7121933 467.2926,14.0784097 467.2926,12.1800002 C467.2926,10.2815908 467.615997,8.64780717 468.2628,7.27860036 C468.909603,5.90939355 469.804194,4.86360404 470.9466,4.14120045 C472.089005,3.41879685 473.390992,3.05760048 474.8526,3.05760048 C476.314207,3.05760048 477.616194,3.41879685 478.7586,4.14120045 C479.901005,4.86360404 480.795596,5.90939355 481.4424,7.27860036 C482.089203,8.64780717 482.412599,10.2815908 482.412599,12.1800002 C482.412599,14.0784097 482.089203,15.7121933 481.4424,17.0814001 C480.795596,18.4506069 479.901005,19.4963964 478.7586,20.2188 C477.616194,20.9412036 476.314207,21.3024 474.8526,21.3024 Z M474.8526,17.8500001 C475.927805,17.8500001 476.771997,17.3880047 477.3852,16.4640001 C477.998403,15.5399955 478.305,14.1120098 478.305,12.1800002 C478.305,10.2479906 477.998403,8.82000494 477.3852,7.89600035 C476.771997,6.97199575 475.927805,6.51000038 474.8526,6.51000038 C473.794194,6.51000038 472.958403,6.97199575 472.3452,7.89600035 C471.731997,8.82000494 471.4254,10.2479906 471.4254,12.1800002 C471.4254,14.1120098 471.731997,15.5399955 472.3452,16.4640001 C472.958403,17.3880047 473.794194,17.8500001 474.8526,17.8500001 Z M486.394199,21.2016 C485.705396,21.2016 485.125802,20.9664024 484.655399,20.496 C484.184997,20.0255977 483.949799,19.4376036 483.949799,18.7320001 C483.949799,18.0095965 484.184997,17.4258023 484.655399,16.9806001 C485.125802,16.5353979 485.705396,16.3128001 486.394199,16.3128001 C487.083003,16.3128001 487.662597,16.5353979 488.132999,16.9806001 C488.603402,17.4258023 488.838599,18.0095965 488.838599,18.7320001 C488.838599,19.4376036 488.603402,20.0255977 488.132999,20.496 C487.662597,20.9664024 487.083003,21.2016 486.394199,21.2016 Z M497.910599,21.3024 C496.448992,21.3024 495.147005,20.9412036 494.004599,20.2188 C492.862194,19.4963964 491.967602,18.4506069 491.320799,17.0814001 C490.673996,15.7121933 490.350599,14.0784097 490.350599,12.1800002 C490.350599,10.2815908 490.673996,8.64780717 491.320799,7.27860036 C491.967602,5.90939355 492.862194,4.86360404 494.004599,4.14120045 C495.147005,3.41879685 496.448992,3.05760048 497.910599,3.05760048 C499.372206,3.05760048 500.674193,3.41879685 501.816599,4.14120045 C502.959005,4.86360404 503.853596,5.90939355 504.500399,7.27860036 C505.147202,8.64780717 505.470599,10.2815908 505.470599,12.1800002 C505.470599,14.0784097 505.147202,15.7121933 504.500399,17.0814001 C503.853596,18.4506069 502.959005,19.4963964 501.816599,20.2188 C500.674193,20.9412036 499.372206,21.3024 497.910599,21.3024 Z M497.910599,17.8500001 C498.985804,17.8500001 499.829996,17.3880047 500.443199,16.4640001 C501.056402,15.5399955 501.362999,14.1120098 501.362999,12.1800002 C501.362999,10.2479906 501.056402,8.82000494 500.443199,7.89600035 C499.829996,6.97199575 498.985804,6.51000038 497.910599,6.51000038 C496.852194,6.51000038 496.016402,6.97199575 495.403199,7.89600035 C494.789996,8.82000494 494.483399,10.2479906 494.483399,12.1800002 C494.483399,14.1120098 494.789996,15.5399955 495.403199,16.4640001 C496.016402,17.3880047 496.852194,17.8500001 497.910599,17.8500001 Z M515.021399,21.3024 C513.559791,21.3024 512.257804,20.9412036 511.115399,20.2188 C509.972993,19.4963964 509.078402,18.4506069 508.431599,17.0814001 C507.784796,15.7121933 507.461399,14.0784097 507.461399,12.1800002 C507.461399,10.2815908 507.784796,8.64780717 508.431599,7.27860036 C509.078402,5.90939355 509.972993,4.86360404 511.115399,4.14120045 C512.257804,3.41879685 513.559791,3.05760048 515.021399,3.05760048 C516.483006,3.05760048 517.784993,3.41879685 518.927399,4.14120045 C520.069804,4.86360404 520.964395,5.90939355 521.611198,7.27860036 C522.258002,8.64780717 522.581398,10.2815908 522.581398,12.1800002 C522.581398,14.0784097 522.258002,15.7121933 521.611198,17.0814001 C520.964395,18.4506069 520.069804,19.4963964 518.927399,20.2188 C517.784993,20.9412036 516.483006,21.3024 515.021399,21.3024 Z M515.021399,17.8500001 C516.096604,17.8500001 516.940796,17.3880047 517.553999,16.4640001 C518.167202,15.5399955 518.473799,14.1120098 518.473799,12.1800002 C518.473799,10.2479906 518.167202,8.82000494 517.553999,7.89600035 C516.940796,6.97199575 516.096604,6.51000038 515.021399,6.51000038 C513.962993,6.51000038 513.127202,6.97199575 512.513999,7.89600035 C511.900796,8.82000494 511.594199,10.2479906 511.594199,12.1800002 C511.594199,14.1120098 511.900796,15.5399955 512.513999,16.4640001 C513.127202,17.3880047 513.962993,17.8500001 515.021399,17.8500001 Z M532.132198,21.3024 C530.670591,21.3024 529.368604,20.9412036 528.226198,20.2188 C527.083793,19.4963964 526.189202,18.4506069 525.542398,17.0814001 C524.895595,15.7121933 524.572198,14.0784097 524.572198,12.1800002 C524.572198,10.2815908 524.895595,8.64780717 525.542398,7.27860036 C526.189202,5.90939355 527.083793,4.86360404 528.226198,4.14120045 C529.368604,3.41879685 530.670591,3.05760048 532.132198,3.05760048 C533.593805,3.05760048 534.895792,3.41879685 536.038198,4.14120045 C537.180604,4.86360404 538.075195,5.90939355 538.721998,7.27860036 C539.368801,8.64780717 539.692198,10.2815908 539.692198,12.1800002 C539.692198,14.0784097 539.368801,15.7121933 538.721998,17.0814001 C538.075195,18.4506069 537.180604,19.4963964 536.038198,20.2188 C534.895792,20.9412036 533.593805,21.3024 532.132198,21.3024 Z M532.132198,17.8500001 C533.207404,17.8500001 534.051595,17.3880047 534.664798,16.4640001 C535.278001,15.5399955 535.584598,14.1120098 535.584598,12.1800002 C535.584598,10.2479906 535.278001,8.82000494 534.664798,7.89600035 C534.051595,6.97199575 533.207404,6.51000038 532.132198,6.51000038 C531.073793,6.51000038 530.238001,6.97199575 529.624798,7.89600035 C529.011595,8.82000494 528.704998,10.2479906 528.704998,12.1800002 C528.704998,14.1120098 529.011595,15.5399955 529.624798,16.4640001 C530.238001,17.3880047 531.073793,17.8500001 532.132198,17.8500001 Z" id="$-6.000.000" fill="#4C3092"></path>
            </g>
        </g>
    </g>
</svg>