<?xml version="1.0" encoding="UTF-8"?>
<svg width="828px" height="81px" viewBox="0 0 828 81" version="1.1" xmlns="http://www.w3.org/2000/svg" xmlns:xlink="http://www.w3.org/1999/xlink">
    <!-- Generator: Sketch 48.1 (47250) - http://www.bohemiancoding.com/sketch -->
    <title>line-2 000 000</title>
    <desc>Created with Sketch.</desc>
    <defs></defs>
    <g id="инспир–лендинг-copy" stroke="none" stroke-width="1" fill="none" fill-rule="evenodd" transform="translate(-139.000000, -843.000000)">
        <g id="Group-9" transform="translate(139.000000, 843.000000)">
            <g id="line-2-000-000">
                <path d="M22.7034806,44.9565217 L805.813466,44.9565217" id="Line" stroke="#4C3092" stroke-width="1.88999986" stroke-linecap="square"></path>
                <g id="Group-6" transform="translate(11.000000, 34.000000)" fill="#4C3092">
                    <ellipse id="Oval-3-Copy-2" opacity="0.049999997" cx="10.4005805" cy="10.5" rx="10.4005805" ry="10.5"></ellipse>
                    <ellipse id="Oval-3" opacity="0.100000001" cx="10.4005805" cy="10.5" rx="8.00044657" ry="8.07692308"></ellipse>
                    <ellipse id="Oval-3-Copy" cx="10.4005805" cy="10.5" rx="4.80026794" ry="4.84615385"></ellipse>
                </g>
                <g id="Group-6-Copy" transform="translate(794.912316, 34.000000)" fill="#4C3092">
                    <ellipse id="Oval-3-Copy-2" opacity="0.049999997" cx="10.4005805" cy="10.5" rx="10.4005805" ry="10.5"></ellipse>
                    <ellipse id="Oval-3" opacity="0.100000001" cx="10.4005805" cy="10.5" rx="8.00044657" ry="8.07692308"></ellipse>
                    <ellipse id="Oval-3-Copy" cx="10.4005805" cy="10.5" rx="4.80026794" ry="4.84615385"></ellipse>
                </g>
                <path d="M11.1275997,77.3864001 L11.1275997,80 L0.653399983,80 L0.653399983,77.9210001 L5.99939984,72.8720002 C6.56700266,72.3307975 6.94979883,71.8655022 7.14779981,71.4761002 C7.3458008,71.0866983 7.4447998,70.7006022 7.4447998,70.3178003 C7.4447998,69.7633975 7.25670169,69.3377018 6.88049982,69.0407003 C6.50429795,68.7436988 5.95320347,68.5952003 5.22719986,68.5952003 C4.61999684,68.5952003 4.07220233,68.7106991 3.58379991,68.9417003 C3.09539748,69.1727014 2.68620158,69.519198 2.35619994,69.9812003 L0.0197999995,68.4764003 C0.561002691,67.6711963 1.30679521,67.0409026 2.25719994,66.5855004 C3.20760467,66.1300981 4.29659375,65.9024004 5.52419985,65.9024004 C6.55380497,65.9024004 7.45469594,66.0706987 8.22689978,66.4073004 C8.99910362,66.743902 9.5996976,67.2190973 10.0286997,67.8329003 C10.4577019,68.4467034 10.6721997,69.1693961 10.6721997,70.0010003 C10.6721997,70.753404 10.5138013,71.4595969 10.1969997,72.1196002 C9.88019815,72.7796035 9.26640431,73.5319959 8.35559978,74.3768001 L5.16779986,77.3864001 L11.1275997,77.3864001 Z M18.3545995,80.2376 C17.2061938,80.2376 16.1832041,79.9538028 15.2855996,79.3862 C14.3879951,78.8185972 13.6851022,77.9969054 13.1768997,76.9211001 C12.6686971,75.8452947 12.4145997,74.5616076 12.4145997,73.0700002 C12.4145997,71.5783928 12.6686971,70.2947056 13.1768997,69.2189003 C13.6851022,68.1430949 14.3879951,67.3214032 15.2855996,66.7538004 C16.1832041,66.1861975 17.2061938,65.9024004 18.3545995,65.9024004 C19.5030052,65.9024004 20.525995,66.1861975 21.4235994,66.7538004 C22.3212039,67.3214032 23.0240968,68.1430949 23.5322994,69.2189003 C24.0405019,70.2947056 24.2945994,71.5783928 24.2945994,73.0700002 C24.2945994,74.5616076 24.0405019,75.8452947 23.5322994,76.9211001 C23.0240968,77.9969054 22.3212039,78.8185972 21.4235994,79.3862 C20.525995,79.9538028 19.5030052,80.2376 18.3545995,80.2376 Z M18.3545995,77.5250001 C19.1994037,77.5250001 19.8626971,77.1620037 20.3444995,76.4360001 C20.8263019,75.7099965 21.0671994,74.5880077 21.0671994,73.0700002 C21.0671994,71.5519926 20.8263019,70.4300039 20.3444995,69.7040003 C19.8626971,68.9779967 19.1994037,68.6150003 18.3545995,68.6150003 C17.5229954,68.6150003 16.866302,68.9779967 16.3844996,69.7040003 C15.9026972,70.4300039 15.6617996,71.5519926 15.6617996,73.0700002 C15.6617996,74.5880077 15.9026972,75.7099965 16.3844996,76.4360001 C16.866302,77.1620037 17.5229954,77.5250001 18.3545995,77.5250001 Z M31.0859992,66.1400004 L31.0859992,80 L27.8783993,80 L27.8783993,68.7140003 L25.1063993,68.7140003 L25.1063993,66.1400004 L31.0859992,66.1400004 Z M44.3519988,66.1400004 L44.3519988,68.2190003 L39.203999,80 L35.7191991,80 L40.6889989,68.7536003 L36.095399,68.7536003 L36.095399,71.0108002 L33.2441991,71.0108002 L33.2441991,66.1400004 L44.3519988,66.1400004 Z" id="2017" fill="#4C3092"></path>
                <path d="M793.1276,77.3864001 L793.1276,80 L782.6534,80 L782.6534,77.9210001 L787.9994,72.8720002 C788.567003,72.3307975 788.949799,71.8655022 789.1478,71.4761002 C789.345801,71.0866983 789.4448,70.7006022 789.4448,70.3178003 C789.4448,69.7633975 789.256702,69.3377018 788.8805,69.0407003 C788.504298,68.7436988 787.953203,68.5952003 787.2272,68.5952003 C786.619997,68.5952003 786.072202,68.7106991 785.5838,68.9417003 C785.095397,69.1727014 784.686202,69.519198 784.3562,69.9812003 L782.0198,68.4764003 C782.561003,67.6711963 783.306795,67.0409026 784.2572,66.5855004 C785.207605,66.1300981 786.296594,65.9024004 787.5242,65.9024004 C788.553805,65.9024004 789.454696,66.0706987 790.2269,66.4073004 C790.999104,66.743902 791.599698,67.2190973 792.0287,67.8329003 C792.457702,68.4467034 792.6722,69.1693961 792.6722,70.0010003 C792.6722,70.753404 792.513801,71.4595969 792.197,72.1196002 C791.880198,72.7796035 791.266404,73.5319959 790.3556,74.3768001 L787.1678,77.3864001 L793.1276,77.3864001 Z M800.3546,80.2376 C799.206194,80.2376 798.183204,79.9538028 797.2856,79.3862 C796.387995,78.8185972 795.685102,77.9969054 795.1769,76.9211001 C794.668697,75.8452947 794.4146,74.5616076 794.4146,73.0700002 C794.4146,71.5783928 794.668697,70.2947056 795.1769,69.2189003 C795.685102,68.1430949 796.387995,67.3214032 797.2856,66.7538004 C798.183204,66.1861975 799.206194,65.9024004 800.3546,65.9024004 C801.503005,65.9024004 802.525995,66.1861975 803.423599,66.7538004 C804.321204,67.3214032 805.024097,68.1430949 805.532299,69.2189003 C806.040502,70.2947056 806.294599,71.5783928 806.294599,73.0700002 C806.294599,74.5616076 806.040502,75.8452947 805.532299,76.9211001 C805.024097,77.9969054 804.321204,78.8185972 803.423599,79.3862 C802.525995,79.9538028 801.503005,80.2376 800.3546,80.2376 Z M800.3546,77.5250001 C801.199404,77.5250001 801.862697,77.1620037 802.344499,76.4360001 C802.826302,75.7099965 803.067199,74.5880077 803.067199,73.0700002 C803.067199,71.5519926 802.826302,70.4300039 802.344499,69.7040003 C801.862697,68.9779967 801.199404,68.6150003 800.3546,68.6150003 C799.522995,68.6150003 798.866302,68.9779967 798.3845,69.7040003 C797.902697,70.4300039 797.6618,71.5519926 797.6618,73.0700002 C797.6618,74.5880077 797.902697,75.7099965 798.3845,76.4360001 C798.866302,77.1620037 799.522995,77.5250001 800.3546,77.5250001 Z M813.085999,66.1400004 L813.085999,80 L809.878399,80 L809.878399,68.7140003 L807.106399,68.7140003 L807.106399,66.1400004 L813.085999,66.1400004 Z M824.985799,72.7136002 C825.672202,73.0568019 826.196897,73.5055974 826.559899,74.0600002 C826.922901,74.6144029 827.104399,75.2545965 827.104399,75.9806001 C827.104399,76.8386044 826.860201,77.5876969 826.371799,78.2279 C825.883396,78.8681032 825.197003,79.3630983 824.312599,79.7129 C823.428194,80.0627017 822.405205,80.2376 821.243599,80.2376 C820.081993,80.2376 819.062303,80.0627017 818.184499,79.7129 C817.306695,79.3630983 816.626901,78.8681032 816.145099,78.2279 C815.663297,77.5876969 815.422399,76.8386044 815.422399,75.9806001 C815.422399,75.2545965 815.603897,74.6144029 815.966899,74.0600002 C816.329901,73.5055974 816.847996,73.0568019 817.521199,72.7136002 C817.006396,72.3967986 816.6104,71.9975026 816.333199,71.5157002 C816.055998,71.0338978 815.917399,70.4828034 815.917399,69.8624003 C815.917399,69.0571963 816.141797,68.3576033 816.590599,67.7636003 C817.039401,67.1695974 817.666395,66.710902 818.471599,66.3875004 C819.276803,66.0640988 820.200794,65.9024004 821.243599,65.9024004 C822.299604,65.9024004 823.233495,66.0640988 824.045299,66.3875004 C824.857103,66.710902 825.487397,67.1695974 825.936199,67.7636003 C826.385001,68.3576033 826.609399,69.0571963 826.609399,69.8624003 C826.609399,70.4828034 826.4708,71.0338978 826.193599,71.5157002 C825.916397,71.9975026 825.513801,72.3967986 824.985799,72.7136002 Z M821.243599,68.2586003 C820.596796,68.2586003 820.078701,68.4136988 819.689299,68.7239003 C819.299897,69.0341018 819.105199,69.4597976 819.105199,70.0010003 C819.105199,70.5290029 819.296597,70.9447987 819.679399,71.2484002 C820.062201,71.5520017 820.583596,71.7038002 821.243599,71.7038002 C821.903602,71.7038002 822.431597,71.5520017 822.827599,71.2484002 C823.223601,70.9447987 823.421599,70.5290029 823.421599,70.0010003 C823.421599,69.4597976 823.223601,69.0341018 822.827599,68.7239003 C822.431597,68.4136988 821.903602,68.2586003 821.243599,68.2586003 Z M821.243599,77.8814001 C822.048803,77.8814001 822.685697,77.6999019 823.154299,77.3369001 C823.622901,76.9738983 823.857199,76.4888031 823.857199,75.8816001 C823.857199,75.2743971 823.622901,74.7926019 823.154299,74.4362001 C822.685697,74.0797984 822.048803,73.9016002 821.243599,73.9016002 C820.451595,73.9016002 819.824601,74.0797984 819.362599,74.4362001 C818.900597,74.7926019 818.669599,75.2743971 818.669599,75.8816001 C818.669599,76.5020032 818.900597,76.9903983 819.362599,77.3468001 C819.824601,77.7032018 820.451595,77.8814001 821.243599,77.8814001 Z" id="2018" fill="#4C3092"></path>
                <path d="M800.2773,23 L800.2647,17.7206001 L797.6691,22.0676 L796.7619,22.0676 L794.1663,17.8214001 L794.1663,23 L792.2511,23 L792.2511,14.1800002 L793.9395,14.1800002 L797.2407,19.6610001 L800.4915,14.1800002 L802.1799,14.1800002 L802.1925,23 L800.2773,23 Z M806.8671,16.1204002 C807.917105,16.1204002 808.723497,16.3702977 809.2863,16.8701002 C809.849103,17.3699026 810.1305,18.1237951 810.1305,19.1318001 L810.1305,23 L808.2909,23 L808.2909,22.1558 C807.921298,22.7858032 807.232505,23.1008 806.2245,23.1008 C805.703697,23.1008 805.252202,23.0126009 804.87,22.8362 C804.487798,22.6597991 804.195901,22.4162016 803.9943,22.1054 C803.792699,21.7945985 803.6919,21.441802 803.6919,21.0470001 C803.6919,20.4169969 803.929198,19.9214019 804.4038,19.5602001 C804.878402,19.1989983 805.611295,19.0184001 806.6025,19.0184001 L808.1649,19.0184001 C808.1649,18.589998 808.034701,18.2603013 807.7743,18.0293001 C807.513899,17.798299 807.123303,17.6828001 806.6025,17.6828001 C806.241298,17.6828001 805.886402,17.7394996 805.5378,17.8529001 C805.189198,17.9663007 804.893101,18.1195992 804.6495,18.3128001 L803.9439,16.9394002 C804.313502,16.6789989 804.756597,16.4774009 805.2732,16.3346002 C805.789803,16.1917995 806.321097,16.1204002 806.8671,16.1204002 Z M806.7159,21.7778 C807.051902,21.7778 807.350099,21.7001008 807.6105,21.5447 C807.870901,21.3892993 808.055699,21.1604016 808.1649,20.8580001 L808.1649,20.1650001 L806.8167,20.1650001 C806.010296,20.1650001 805.6071,20.4295974 805.6071,20.9588001 C805.6071,21.2108013 805.705799,21.4102993 805.9032,21.5573 C806.100601,21.7043008 806.371498,21.7778 806.7159,21.7778 Z M811.8441,16.2212002 L813.7971,16.2212002 L813.7971,20.2532001 L817.0983,16.2212002 L818.9001,16.2212002 L818.9001,23 L816.9471,23 L816.9471,18.9680001 L813.6585,23 L811.8441,23 L811.8441,16.2212002 Z M815.2461,15.4904002 C813.767692,15.4904002 813.0243,14.8394067 813.0159,13.5374003 L814.3011,13.5374003 C814.3095,13.8314017 814.391399,14.0602994 814.5468,14.2241002 C814.702201,14.387901 814.931098,14.4698002 815.2335,14.4698002 C815.535901,14.4698002 815.768999,14.387901 815.9328,14.2241002 C816.096601,14.0602994 816.1785,13.8314017 816.1785,13.5374003 L817.4889,13.5374003 C817.4805,14.8394067 816.732907,15.4904002 815.2461,15.4904002 Z" id="Май" fill="#4C3092"></path>
                <path d="M316.764002,15.8340001 C316.764002,17.211607 316.260007,18.3917952 315.252002,19.3746 C314.243997,20.3574049 312.790811,20.9663988 310.892402,21.2016 L310.892402,24.0239999 L308.372402,24.0239999 L308.372402,21.2772 C307.129196,21.2099997 305.944808,20.9916018 304.819202,20.622 C303.693596,20.2523982 302.786405,19.7988027 302.097602,19.2612 L303.483602,16.1868001 C304.122005,16.6572025 304.869598,17.0519985 305.726402,17.3712001 C306.583206,17.6904017 307.465197,17.8919997 308.372402,17.9760001 L308.372402,13.7676002 C307.179596,13.4819988 306.171606,13.162802 305.348402,12.8100002 C304.525198,12.4571985 303.836405,11.9406036 303.282002,11.2602003 C302.727599,10.5797969 302.450402,9.67680593 302.450402,8.55120033 C302.450402,7.15679339 302.958597,5.9598054 303.975002,4.96020042 C304.991407,3.96059545 306.457192,3.35160156 308.372402,3.13320047 L308.372402,0.336000547 L310.892402,0.336000547 L310.892402,3.08280047 C312.958812,3.25080131 314.663995,3.76319617 316.008002,4.62000043 L314.748002,7.71960035 C313.487995,6.99719676 312.202808,6.56040114 310.892402,6.40920039 L310.892402,10.6932003 C312.068408,10.9620016 313.063798,11.2685985 313.878602,11.6130002 C314.693406,11.957402 315.377999,12.4697968 315.932402,13.1502002 C316.486804,13.8306036 316.764002,14.7251946 316.764002,15.8340001 Z M306.507602,8.34960034 C306.507602,8.76960242 306.6672,9.11399897 306.986402,9.38280031 C307.305603,9.65160164 307.767599,9.87839937 308.372402,10.0632003 L308.372402,6.48480038 C307.733999,6.63600114 307.263603,6.87539874 306.961202,7.20300037 C306.6588,7.53060199 306.507602,7.91279816 306.507602,8.34960034 Z M310.892402,17.8752001 C311.497205,17.7407994 311.9508,17.5224016 312.253202,17.2200001 C312.555603,16.9175986 312.706802,16.5564022 312.706802,16.1364001 C312.706802,15.716398 312.551403,15.3720015 312.240602,15.1032002 C311.9298,14.8343988 311.480405,14.5992012 310.892402,14.3976002 L310.892402,17.8752001 Z M338.763601,17.6736001 L338.763601,21 L325.432801,21 L325.432801,18.3540001 L332.236801,11.9280002 C332.959205,11.2391968 333.4464,10.6470028 333.698401,10.1514003 C333.950402,9.65579782 334.076401,9.16440275 334.076401,8.67720033 C334.076401,7.97159682 333.837004,7.42980225 333.358201,7.05180037 C332.879399,6.67379849 332.178006,6.48480038 331.254001,6.48480038 C330.481197,6.48480038 329.784004,6.63179891 329.162401,6.92580037 C328.540798,7.21980184 328.020003,7.66079741 327.600001,8.24880034 L324.626401,6.33360039 C325.315205,5.30879529 326.264395,4.50660333 327.474001,3.92700045 C328.683607,3.34739757 330.069593,3.05760048 331.632001,3.05760048 C332.942408,3.05760048 334.088996,3.27179833 335.071801,3.70020046 C336.054606,4.12860259 336.818998,4.73339652 337.365001,5.51460041 C337.911004,6.2958043 338.184001,7.21559507 338.184001,8.27400034 C338.184001,9.2316051 337.982403,10.1303961 337.579201,10.9704003 C337.175999,11.8104044 336.394807,12.7679948 335.235601,13.8432002 L331.178401,17.6736001 L338.763601,17.6736001 Z M343.022401,21.2016 C342.333598,21.2016 341.754003,20.9664024 341.283601,20.496 C340.813199,20.0255977 340.578001,19.4376036 340.578001,18.7320001 C340.578001,18.0095965 340.813199,17.4258023 341.283601,16.9806001 C341.754003,16.5353979 342.333598,16.3128001 343.022401,16.3128001 C343.711204,16.3128001 344.290799,16.5353979 344.761201,16.9806001 C345.231603,17.4258023 345.466801,18.0095965 345.466801,18.7320001 C345.466801,19.4376036 345.231603,20.0255977 344.761201,20.496 C344.290799,20.9664024 343.711204,21.2016 343.022401,21.2016 Z M354.538801,21.3024 C353.077193,21.3024 351.775206,20.9412036 350.632801,20.2188 C349.490395,19.4963964 348.595804,18.4506069 347.949001,17.0814001 C347.302198,15.7121933 346.978801,14.0784097 346.978801,12.1800002 C346.978801,10.2815908 347.302198,8.64780717 347.949001,7.27860036 C348.595804,5.90939355 349.490395,4.86360404 350.632801,4.14120045 C351.775206,3.41879685 353.077193,3.05760048 354.538801,3.05760048 C356.000408,3.05760048 357.302395,3.41879685 358.444801,4.14120045 C359.587206,4.86360404 360.481797,5.90939355 361.1286,7.27860036 C361.775404,8.64780717 362.0988,10.2815908 362.0988,12.1800002 C362.0988,14.0784097 361.775404,15.7121933 361.1286,17.0814001 C360.481797,18.4506069 359.587206,19.4963964 358.444801,20.2188 C357.302395,20.9412036 356.000408,21.3024 354.538801,21.3024 Z M354.538801,17.8500001 C355.614006,17.8500001 356.458198,17.3880047 357.071401,16.4640001 C357.684604,15.5399955 357.991201,14.1120098 357.991201,12.1800002 C357.991201,10.2479906 357.684604,8.82000494 357.071401,7.89600035 C356.458198,6.97199575 355.614006,6.51000038 354.538801,6.51000038 C353.480395,6.51000038 352.644604,6.97199575 352.031401,7.89600035 C351.418198,8.82000494 351.111601,10.2479906 351.111601,12.1800002 C351.111601,14.1120098 351.418198,15.5399955 352.031401,16.4640001 C352.644604,17.3880047 353.480395,17.8500001 354.538801,17.8500001 Z M371.6496,21.3024 C370.187993,21.3024 368.886006,20.9412036 367.7436,20.2188 C366.601195,19.4963964 365.706604,18.4506069 365.0598,17.0814001 C364.412997,15.7121933 364.0896,14.0784097 364.0896,12.1800002 C364.0896,10.2815908 364.412997,8.64780717 365.0598,7.27860036 C365.706604,5.90939355 366.601195,4.86360404 367.7436,4.14120045 C368.886006,3.41879685 370.187993,3.05760048 371.6496,3.05760048 C373.111207,3.05760048 374.413194,3.41879685 375.5556,4.14120045 C376.698006,4.86360404 377.592597,5.90939355 378.2394,7.27860036 C378.886203,8.64780717 379.2096,10.2815908 379.2096,12.1800002 C379.2096,14.0784097 378.886203,15.7121933 378.2394,17.0814001 C377.592597,18.4506069 376.698006,19.4963964 375.5556,20.2188 C374.413194,20.9412036 373.111207,21.3024 371.6496,21.3024 Z M371.6496,17.8500001 C372.724806,17.8500001 373.568997,17.3880047 374.1822,16.4640001 C374.795403,15.5399955 375.102,14.1120098 375.102,12.1800002 C375.102,10.2479906 374.795403,8.82000494 374.1822,7.89600035 C373.568997,6.97199575 372.724806,6.51000038 371.6496,6.51000038 C370.591195,6.51000038 369.755403,6.97199575 369.1422,7.89600035 C368.528997,8.82000494 368.2224,10.2479906 368.2224,12.1800002 C368.2224,14.1120098 368.528997,15.5399955 369.1422,16.4640001 C369.755403,17.3880047 370.591195,17.8500001 371.6496,17.8500001 Z M388.7604,21.3024 C387.298792,21.3024 385.996806,20.9412036 384.8544,20.2188 C383.711994,19.4963964 382.817403,18.4506069 382.1706,17.0814001 C381.523797,15.7121933 381.2004,14.0784097 381.2004,12.1800002 C381.2004,10.2815908 381.523797,8.64780717 382.1706,7.27860036 C382.817403,5.90939355 383.711994,4.86360404 384.8544,4.14120045 C385.996806,3.41879685 387.298792,3.05760048 388.7604,3.05760048 C390.222007,3.05760048 391.523994,3.41879685 392.6664,4.14120045 C393.808805,4.86360404 394.703396,5.90939355 395.3502,7.27860036 C395.997003,8.64780717 396.3204,10.2815908 396.3204,12.1800002 C396.3204,14.0784097 395.997003,15.7121933 395.3502,17.0814001 C394.703396,18.4506069 393.808805,19.4963964 392.6664,20.2188 C391.523994,20.9412036 390.222007,21.3024 388.7604,21.3024 Z M388.7604,17.8500001 C389.835605,17.8500001 390.679797,17.3880047 391.293,16.4640001 C391.906203,15.5399955 392.2128,14.1120098 392.2128,12.1800002 C392.2128,10.2479906 391.906203,8.82000494 391.293,7.89600035 C390.679797,6.97199575 389.835605,6.51000038 388.7604,6.51000038 C387.701994,6.51000038 386.866203,6.97199575 386.253,7.89600035 C385.639797,8.82000494 385.3332,10.2479906 385.3332,12.1800002 C385.3332,14.1120098 385.639797,15.5399955 386.253,16.4640001 C386.866203,17.3880047 387.701994,17.8500001 388.7604,17.8500001 Z M400.301999,21.2016 C399.613196,21.2016 399.033602,20.9664024 398.563199,20.496 C398.092797,20.0255977 397.857599,19.4376036 397.857599,18.7320001 C397.857599,18.0095965 398.092797,17.4258023 398.563199,16.9806001 C399.033602,16.5353979 399.613196,16.3128001 400.301999,16.3128001 C400.990803,16.3128001 401.570397,16.5353979 402.040799,16.9806001 C402.511202,17.4258023 402.746399,18.0095965 402.746399,18.7320001 C402.746399,19.4376036 402.511202,20.0255977 402.040799,20.496 C401.570397,20.9664024 400.990803,21.2016 400.301999,21.2016 Z M411.818399,21.3024 C410.356792,21.3024 409.054805,20.9412036 407.912399,20.2188 C406.769994,19.4963964 405.875402,18.4506069 405.228599,17.0814001 C404.581796,15.7121933 404.258399,14.0784097 404.258399,12.1800002 C404.258399,10.2815908 404.581796,8.64780717 405.228599,7.27860036 C405.875402,5.90939355 406.769994,4.86360404 407.912399,4.14120045 C409.054805,3.41879685 410.356792,3.05760048 411.818399,3.05760048 C413.280006,3.05760048 414.581993,3.41879685 415.724399,4.14120045 C416.866805,4.86360404 417.761396,5.90939355 418.408199,7.27860036 C419.055002,8.64780717 419.378399,10.2815908 419.378399,12.1800002 C419.378399,14.0784097 419.055002,15.7121933 418.408199,17.0814001 C417.761396,18.4506069 416.866805,19.4963964 415.724399,20.2188 C414.581993,20.9412036 413.280006,21.3024 411.818399,21.3024 Z M411.818399,17.8500001 C412.893604,17.8500001 413.737796,17.3880047 414.350999,16.4640001 C414.964202,15.5399955 415.270799,14.1120098 415.270799,12.1800002 C415.270799,10.2479906 414.964202,8.82000494 414.350999,7.89600035 C413.737796,6.97199575 412.893604,6.51000038 411.818399,6.51000038 C410.759994,6.51000038 409.924202,6.97199575 409.310999,7.89600035 C408.697796,8.82000494 408.391199,10.2479906 408.391199,12.1800002 C408.391199,14.1120098 408.697796,15.5399955 409.310999,16.4640001 C409.924202,17.3880047 410.759994,17.8500001 411.818399,17.8500001 Z M428.929199,21.3024 C427.467591,21.3024 426.165604,20.9412036 425.023199,20.2188 C423.880793,19.4963964 422.986202,18.4506069 422.339399,17.0814001 C421.692596,15.7121933 421.369199,14.0784097 421.369199,12.1800002 C421.369199,10.2815908 421.692596,8.64780717 422.339399,7.27860036 C422.986202,5.90939355 423.880793,4.86360404 425.023199,4.14120045 C426.165604,3.41879685 427.467591,3.05760048 428.929199,3.05760048 C430.390806,3.05760048 431.692793,3.41879685 432.835199,4.14120045 C433.977604,4.86360404 434.872195,5.90939355 435.518998,7.27860036 C436.165802,8.64780717 436.489198,10.2815908 436.489198,12.1800002 C436.489198,14.0784097 436.165802,15.7121933 435.518998,17.0814001 C434.872195,18.4506069 433.977604,19.4963964 432.835199,20.2188 C431.692793,20.9412036 430.390806,21.3024 428.929199,21.3024 Z M428.929199,17.8500001 C430.004404,17.8500001 430.848596,17.3880047 431.461799,16.4640001 C432.075002,15.5399955 432.381599,14.1120098 432.381599,12.1800002 C432.381599,10.2479906 432.075002,8.82000494 431.461799,7.89600035 C430.848596,6.97199575 430.004404,6.51000038 428.929199,6.51000038 C427.870793,6.51000038 427.035002,6.97199575 426.421799,7.89600035 C425.808596,8.82000494 425.501999,10.2479906 425.501999,12.1800002 C425.501999,14.1120098 425.808596,15.5399955 426.421799,16.4640001 C427.035002,17.3880047 427.870793,17.8500001 428.929199,17.8500001 Z M446.039998,21.3024 C444.578391,21.3024 443.276404,20.9412036 442.133998,20.2188 C440.991593,19.4963964 440.097002,18.4506069 439.450198,17.0814001 C438.803395,15.7121933 438.479998,14.0784097 438.479998,12.1800002 C438.479998,10.2815908 438.803395,8.64780717 439.450198,7.27860036 C440.097002,5.90939355 440.991593,4.86360404 442.133998,4.14120045 C443.276404,3.41879685 444.578391,3.05760048 446.039998,3.05760048 C447.501605,3.05760048 448.803592,3.41879685 449.945998,4.14120045 C451.088404,4.86360404 451.982995,5.90939355 452.629798,7.27860036 C453.276601,8.64780717 453.599998,10.2815908 453.599998,12.1800002 C453.599998,14.0784097 453.276601,15.7121933 452.629798,17.0814001 C451.982995,18.4506069 451.088404,19.4963964 449.945998,20.2188 C448.803592,20.9412036 447.501605,21.3024 446.039998,21.3024 Z M446.039998,17.8500001 C447.115204,17.8500001 447.959395,17.3880047 448.572598,16.4640001 C449.185801,15.5399955 449.492398,14.1120098 449.492398,12.1800002 C449.492398,10.2479906 449.185801,8.82000494 448.572598,7.89600035 C447.959395,6.97199575 447.115204,6.51000038 446.039998,6.51000038 C444.981593,6.51000038 444.145801,6.97199575 443.532598,7.89600035 C442.919395,8.82000494 442.612798,10.2479906 442.612798,12.1800002 C442.612798,14.1120098 442.919395,15.5399955 443.532598,16.4640001 C444.145801,17.3880047 444.981593,17.8500001 446.039998,17.8500001 Z" id="$-2.000.000" fill="#4C3092"></path>
            </g>
        </g>
    </g>
</svg>