<?xml version="1.0" encoding="UTF-8"?>
<svg width="950px" height="81px" viewBox="0 0 950 81" version="1.1" xmlns="http://www.w3.org/2000/svg" xmlns:xlink="http://www.w3.org/1999/xlink">
    <!-- Generator: Sketch 48.1 (47250) - http://www.bohemiancoding.com/sketch -->
    <title>line-12000000</title>
    <desc>Created with Sketch.</desc>
    <defs></defs>
    <g id="Artboard-2" stroke="none" stroke-width="1" fill="none" fill-rule="evenodd" transform="translate(-80.000000, -1099.000000)">
        <g id="line-12000000" transform="translate(79.000000, 1096.000000)">
            <path d="M31,48 L920.797858,48" id="Line" stroke="#4C3092" stroke-width="1.88999986" stroke-linecap="square"></path>
            <g id="Group-6" transform="translate(24.000000, 37.000000)" fill="#4C3092">
                <ellipse id="Oval-3-Copy-2" opacity="0.049999997" cx="10.4005805" cy="10.5" rx="10.4005805" ry="10.5"></ellipse>
                <ellipse id="Oval-3" opacity="0.100000001" cx="10.4005805" cy="10.5" rx="8.00044657" ry="8.07692308"></ellipse>
                <ellipse id="Oval-3-Copy" cx="10.4005805" cy="10.5" rx="4.80026794" ry="4.84615385"></ellipse>
            </g>
            <g id="Group-6-Copy" transform="translate(910.000000, 37.000000)" fill="#4C3092">
                <ellipse id="Oval-3-Copy-2" opacity="0.049999997" cx="10.4005805" cy="10.5" rx="10.4005805" ry="10.5"></ellipse>
                <ellipse id="Oval-3" opacity="0.100000001" cx="10.4005805" cy="10.5" rx="8.00044657" ry="8.07692308"></ellipse>
                <ellipse id="Oval-3-Copy" cx="10.4005805" cy="10.5" rx="4.80026794" ry="4.84615385"></ellipse>
            </g>
            <path d="M23.1275997,80.3864001 L23.1275997,83 L12.6534,83 L12.6534,80.9210001 L17.9993998,75.8720002 C18.5670027,75.3307975 18.9497988,74.8655022 19.1477998,74.4761002 C19.3458008,74.0866983 19.4447998,73.7006022 19.4447998,73.3178003 C19.4447998,72.7633975 19.2567017,72.3377018 18.8804998,72.0407003 C18.5042979,71.7436988 17.9532035,71.5952003 17.2271999,71.5952003 C16.6199968,71.5952003 16.0722023,71.7106991 15.5837999,71.9417003 C15.0953975,72.1727014 14.6862016,72.519198 14.3561999,72.9812003 L12.0198,71.4764003 C12.5610027,70.6711963 13.3067952,70.0409026 14.2571999,69.5855004 C15.2076047,69.1300981 16.2965937,68.9024004 17.5241999,68.9024004 C18.553805,68.9024004 19.4546959,69.0706987 20.2268998,69.4073004 C20.9991036,69.743902 21.5996976,70.2190973 22.0286997,70.8329003 C22.4577019,71.4467034 22.6721997,72.1693961 22.6721997,73.0010003 C22.6721997,73.753404 22.5138013,74.4595969 22.1969997,75.1196002 C21.8801982,75.7796035 21.2664043,76.5319959 20.3555998,77.3768001 L17.1677999,80.3864001 L23.1275997,80.3864001 Z M30.3545995,83.2376 C29.2061938,83.2376 28.1832041,82.9538028 27.2855996,82.3862 C26.3879951,81.8185972 25.6851022,80.9969054 25.1768997,79.9211001 C24.6686971,78.8452947 24.4145997,77.5616076 24.4145997,76.0700002 C24.4145997,74.5783928 24.6686971,73.2947056 25.1768997,72.2189003 C25.6851022,71.1430949 26.3879951,70.3214032 27.2855996,69.7538004 C28.1832041,69.1861975 29.2061938,68.9024004 30.3545995,68.9024004 C31.5030052,68.9024004 32.525995,69.1861975 33.4235994,69.7538004 C34.3212039,70.3214032 35.0240968,71.1430949 35.5322994,72.2189003 C36.0405019,73.2947056 36.2945994,74.5783928 36.2945994,76.0700002 C36.2945994,77.5616076 36.0405019,78.8452947 35.5322994,79.9211001 C35.0240968,80.9969054 34.3212039,81.8185972 33.4235994,82.3862 C32.525995,82.9538028 31.5030052,83.2376 30.3545995,83.2376 Z M30.3545995,80.5250001 C31.1994037,80.5250001 31.8626971,80.1620037 32.3444995,79.4360001 C32.8263019,78.7099965 33.0671994,77.5880077 33.0671994,76.0700002 C33.0671994,74.5519926 32.8263019,73.4300039 32.3444995,72.7040003 C31.8626971,71.9779967 31.1994037,71.6150003 30.3545995,71.6150003 C29.5229954,71.6150003 28.866302,71.9779967 28.3844996,72.7040003 C27.9026972,73.4300039 27.6617996,74.5519926 27.6617996,76.0700002 C27.6617996,77.5880077 27.9026972,78.7099965 28.3844996,79.4360001 C28.866302,80.1620037 29.5229954,80.5250001 30.3545995,80.5250001 Z M43.0859992,69.1400004 L43.0859992,83 L39.8783993,83 L39.8783993,71.7140003 L37.1063993,71.7140003 L37.1063993,69.1400004 L43.0859992,69.1400004 Z M54.9857989,75.7136002 C55.6722023,76.0568019 56.196897,76.5055974 56.5598988,77.0600002 C56.9229006,77.6144029 57.1043988,78.2545965 57.1043988,78.9806001 C57.1043988,79.8386044 56.8602013,80.5876969 56.3717988,81.2279 C55.8833964,81.8681032 55.1970033,82.3630983 54.3125989,82.7129 C53.4281945,83.0627017 52.4052047,83.2376 51.243599,83.2376 C50.0819932,83.2376 49.0623034,83.0627017 48.184499,82.7129 C47.3066947,82.3630983 46.6269015,81.8681032 46.1450991,81.2279 C45.6632967,80.5876969 45.4223991,79.8386044 45.4223991,78.9806001 C45.4223991,78.2545965 45.6038973,77.6144029 45.9668991,77.0600002 C46.3299009,76.5055974 46.8479957,76.0568019 47.5211991,75.7136002 C47.0063965,75.3967986 46.6104005,74.9975026 46.3331991,74.5157002 C46.0559977,74.0338978 45.9173991,73.4828034 45.9173991,72.8624003 C45.9173991,72.0571963 46.1417969,71.3576033 46.5905991,70.7636003 C47.0394013,70.1695974 47.666395,69.710902 48.471599,69.3875004 C49.276803,69.0640988 50.2007938,68.9024004 51.243599,68.9024004 C52.2996042,68.9024004 53.2334948,69.0640988 54.0452989,69.3875004 C54.8571029,69.710902 55.4873966,70.1695974 55.9361988,70.7636003 C56.3850011,71.3576033 56.6093988,72.0571963 56.6093988,72.8624003 C56.6093988,73.4828034 56.4708002,74.0338978 56.1935988,74.5157002 C55.9163975,74.9975026 55.5138015,75.3967986 54.9857989,75.7136002 Z M51.243599,71.2586003 C50.5967957,71.2586003 50.0787009,71.4136988 49.689299,71.7239003 C49.2998971,72.0341018 49.105199,72.4597976 49.105199,73.0010003 C49.105199,73.5290029 49.2965971,73.9447987 49.679399,74.2484002 C50.0622009,74.5520017 50.5835957,74.7038002 51.243599,74.7038002 C51.9036022,74.7038002 52.4315969,74.5520017 52.8275989,74.2484002 C53.2236009,73.9447987 53.4215989,73.5290029 53.4215989,73.0010003 C53.4215989,72.4597976 53.2236009,72.0341018 52.8275989,71.7239003 C52.4315969,71.4136988 51.9036022,71.2586003 51.243599,71.2586003 Z M51.243599,80.8814001 C52.048803,80.8814001 52.6856966,80.6999019 53.1542989,80.3369001 C53.6229012,79.9738983 53.8571989,79.4888031 53.8571989,78.8816001 C53.8571989,78.2743971 53.6229012,77.7926019 53.1542989,77.4362001 C52.6856966,77.0797984 52.048803,76.9016002 51.243599,76.9016002 C50.451595,76.9016002 49.8246013,77.0797984 49.362599,77.4362001 C48.9005967,77.7926019 48.669599,78.2743971 48.669599,78.8816001 C48.669599,79.5020032 48.9005967,79.9903983 49.362599,80.3468001 C49.8246013,80.7032018 50.451595,80.8814001 51.243599,80.8814001 Z" id="2018" fill="#4C3092"></path>
            <path d="M9.21810067,17.1800002 L9.21810067,26 L7.54230071,26 L3.14490083,20.6450001 L3.14490083,26 L1.12890088,26 L1.12890088,17.1800002 L2.81730084,17.1800002 L7.20210072,22.5350001 L7.20210072,17.1800002 L9.21810067,17.1800002 Z M14.3967005,26.1008 C13.682697,26.1008 13.0422034,25.9517015 12.4752006,25.6535 C11.9081978,25.3552985 11.4651022,24.9416027 11.1459006,24.4124 C10.826699,23.8831974 10.6671006,23.2826034 10.6671006,22.6106001 C10.6671006,21.9385967 10.826699,21.3380028 11.1459006,20.8088001 C11.4651022,20.2795975 11.9081978,19.8659017 12.4752006,19.5677002 C13.0422034,19.2694987 13.682697,19.1204002 14.3967005,19.1204002 C15.1107041,19.1204002 15.7490977,19.2694987 16.3119005,19.5677002 C16.8747033,19.8659017 17.3156989,20.2795975 17.6349004,20.8088001 C17.954102,21.3380028 18.1137004,21.9385967 18.1137004,22.6106001 C18.1137004,23.2826034 17.954102,23.8831974 17.6349004,24.4124 C17.3156989,24.9416027 16.8747033,25.3552985 16.3119005,25.6535 C15.7490977,25.9517015 15.1107041,26.1008 14.3967005,26.1008 Z M14.3967005,24.488 C14.900703,24.488 15.3143989,24.3179017 15.6378005,23.9777001 C15.9612021,23.6374984 16.1229005,23.1818029 16.1229005,22.6106001 C16.1229005,22.0393972 15.9612021,21.5837018 15.6378005,21.2435001 C15.3143989,20.9032984 14.900703,20.7332001 14.3967005,20.7332001 C13.892698,20.7332001 13.4769022,20.9032984 13.1493006,21.2435001 C12.8216989,21.5837018 12.6579006,22.0393972 12.6579006,22.6106001 C12.6579006,23.1818029 12.8216989,23.6374984 13.1493006,23.9777001 C13.4769022,24.3179017 13.892698,24.488 14.3967005,24.488 Z M25.9635002,19.2212002 L23.1033003,26 L21.0747004,26 L18.2271004,19.2212002 L20.2557004,19.2212002 L22.1331003,23.8328001 L24.0735003,19.2212002 L25.9635002,19.2212002 Z M33.2211,22.6358001 C33.2211,22.6610002 33.2085002,22.8373984 33.1833,23.1650001 L28.0551002,23.1650001 C28.1475006,23.5850022 28.3658984,23.9167988 28.7103002,24.1604 C29.0547019,24.4040013 29.4830976,24.5258 29.9955001,24.5258 C30.3483019,24.5258 30.6611987,24.4733006 30.9342001,24.3683 C31.2072015,24.2632995 31.4612989,24.0974012 31.6965001,23.8706001 L32.7423,25.0046 C32.1038969,25.7354037 31.1715062,26.1008 29.9451001,26.1008 C29.1806963,26.1008 28.5045031,25.9517015 27.9165002,25.6535 C27.3284972,25.3552985 26.8749018,24.9416027 26.5557002,24.4124 C26.2364986,23.8831974 26.0769002,23.2826034 26.0769002,22.6106001 C26.0769002,21.9469968 26.2343986,21.3485028 26.5494002,20.8151001 C26.8644018,20.2816975 27.2969974,19.8659017 27.8472002,19.5677002 C28.3974029,19.2694987 29.0126967,19.1204002 29.6931001,19.1204002 C30.3567034,19.1204002 30.9572974,19.2631988 31.4949001,19.5488002 C32.0325028,19.8344016 32.4545985,20.2438975 32.7612,20.7773001 C33.0678016,21.3107028 33.2211,21.9301966 33.2211,22.6358001 Z M29.7057001,20.6072001 C29.2604979,20.6072001 28.8867017,20.7331989 28.5843002,20.9852001 C28.2818987,21.2372014 28.0971005,21.5815979 28.0299002,22.0184001 L31.3689001,22.0184001 C31.3016997,21.589998 31.1169016,21.2477014 30.8145001,20.9915001 C30.5120986,20.7352989 30.1425023,20.6072001 29.7057001,20.6072001 Z M43.2128998,19.1204002 C44.061304,19.1204002 44.7353972,19.3702977 45.2351997,19.8701002 C45.7350022,20.3699026 45.9848997,21.1195951 45.9848997,22.1192001 L45.9848997,26 L44.0192997,26 L44.0192997,22.4216001 C44.0192997,21.8839974 43.9080009,21.4829014 43.6853998,21.2183001 C43.4627986,20.9536988 43.1457018,20.8214001 42.7340998,20.8214001 C42.2720975,20.8214001 41.9067011,20.9704986 41.6378998,21.2687001 C41.3690985,21.5669016 41.2346998,22.0099972 41.2346998,22.5980001 L41.2346998,26 L39.2690999,26 L39.2690999,22.4216001 C39.2690999,21.3547948 38.8407042,20.8214001 37.9838999,20.8214001 C37.5302977,20.8214001 37.1691013,20.9704986 36.9002999,21.2687001 C36.6314986,21.5669016 36.4970999,22.0099972 36.4970999,22.5980001 L36.4970999,26 L34.5315,26 L34.5315,19.2212002 L36.4088999,19.2212002 L36.4088999,20.0024002 C36.6609012,19.7167987 36.9695981,19.4984009 37.3349999,19.3472002 C37.7004017,19.1959994 38.1014977,19.1204002 38.5382999,19.1204002 C39.0171023,19.1204002 39.4496979,19.2148992 39.8360999,19.4039002 C40.2225018,19.5929011 40.5332987,19.8679984 40.7684998,20.2292002 C41.0457012,19.8763984 41.3963977,19.6034011 41.8205998,19.4102002 C42.2448019,19.2169992 42.7088973,19.1204002 43.2128998,19.1204002 Z M51.7556995,19.1204002 C52.3857027,19.1204002 52.9589969,19.2652987 53.4755995,19.5551002 C53.9922021,19.8449016 54.397498,20.2522975 54.6914995,20.7773001 C54.9855009,21.3023027 55.1324995,21.9133966 55.1324995,22.6106001 C55.1324995,23.3078036 54.9855009,23.9188974 54.6914995,24.4439 C54.397498,24.9689027 53.9922021,25.3762986 53.4755995,25.6661 C52.9589969,25.9559015 52.3857027,26.1008 51.7556995,26.1008 C50.8232949,26.1008 50.113502,25.8068029 49.6262996,25.2188 L49.6262996,26 L47.7488996,26 L47.7488996,16.6508002 L49.7144996,16.6508002 L49.7144996,19.9394002 C50.2101021,19.3933974 50.8904952,19.1204002 51.7556995,19.1204002 Z M51.4154996,24.488 C51.9195021,24.488 52.3331979,24.3179017 52.6565995,23.9777001 C52.9800011,23.6374984 53.1416995,23.1818029 53.1416995,22.6106001 C53.1416995,22.0393972 52.9800011,21.5837018 52.6565995,21.2435001 C52.3331979,20.9032984 51.9195021,20.7332001 51.4154996,20.7332001 C50.911497,20.7332001 50.4978012,20.9032984 50.1743996,21.2435001 C49.850998,21.5837018 49.6892996,22.0393972 49.6892996,22.6106001 C49.6892996,23.1818029 49.850998,23.6374984 50.1743996,23.9777001 C50.4978012,24.3179017 50.911497,24.488 51.4154996,24.488 Z M63.0830992,22.6358001 C63.0830992,22.6610002 63.0704994,22.8373984 63.0452992,23.1650001 L57.9170994,23.1650001 C58.0094998,23.5850022 58.2278976,23.9167988 58.5722994,24.1604 C58.9167011,24.4040013 59.3450968,24.5258 59.8574993,24.5258 C60.2103011,24.5258 60.5231979,24.4733006 60.7961993,24.3683 C61.0692007,24.2632995 61.3232981,24.0974012 61.5584993,23.8706001 L62.6042993,25.0046 C61.9658961,25.7354037 61.0335054,26.1008 59.8070993,26.1008 C59.0426955,26.1008 58.3665023,25.9517015 57.7784994,25.6535 C57.1904965,25.3552985 56.736901,24.9416027 56.4176994,24.4124 C56.0984978,23.8831974 55.9388994,23.2826034 55.9388994,22.6106001 C55.9388994,21.9469968 56.0963979,21.3485028 56.4113994,20.8151001 C56.726401,20.2816975 57.1589966,19.8659017 57.7091994,19.5677002 C58.2594021,19.2694987 58.874696,19.1204002 59.5550993,19.1204002 C60.2187026,19.1204002 60.8192966,19.2631988 61.3568993,19.5488002 C61.894502,19.8344016 62.3165977,20.2438975 62.6231993,20.7773001 C62.9298008,21.3107028 63.0830992,21.9301966 63.0830992,22.6358001 Z M59.5676993,20.6072001 C59.1224971,20.6072001 58.7487009,20.7331989 58.4462994,20.9852001 C58.1438979,21.2372014 57.9590997,21.5815979 57.8918994,22.0184001 L61.2308993,22.0184001 C61.163699,21.589998 60.9789008,21.2477014 60.6764993,20.9915001 C60.3740978,20.7352989 60.0045015,20.6072001 59.5676993,20.6072001 Z M66.2708992,20.1158002 C66.5061003,19.7881985 66.8231971,19.540401 67.2221991,19.3724002 C67.6212011,19.2043993 68.0810965,19.1204002 68.6018991,19.1204002 L68.6018991,20.9348001 C68.383498,20.9180001 68.2364995,20.9096001 68.1608991,20.9096001 C67.5980963,20.9096001 67.1571007,21.0670986 66.8378991,21.3821001 C66.5186976,21.6971017 66.3590992,22.169597 66.3590992,22.7996001 L66.3590992,26 L64.3934992,26 L64.3934992,19.2212002 L66.2708992,19.2212002 L66.2708992,20.1158002 Z" id="November" fill="#4C3092"></path>
            <path d="M909.1276,80.3864001 L909.1276,83 L898.6534,83 L898.6534,80.9210001 L903.9994,75.8720002 C904.567003,75.3307975 904.949799,74.8655022 905.1478,74.4761002 C905.345801,74.0866983 905.4448,73.7006022 905.4448,73.3178003 C905.4448,72.7633975 905.256702,72.3377018 904.8805,72.0407003 C904.504298,71.7436988 903.953203,71.5952003 903.2272,71.5952003 C902.619997,71.5952003 902.072202,71.7106991 901.5838,71.9417003 C901.095397,72.1727014 900.686202,72.519198 900.3562,72.9812003 L898.0198,71.4764003 C898.561003,70.6711963 899.306795,70.0409026 900.2572,69.5855004 C901.207605,69.1300981 902.296594,68.9024004 903.5242,68.9024004 C904.553805,68.9024004 905.454696,69.0706987 906.2269,69.4073004 C906.999104,69.743902 907.599698,70.2190973 908.0287,70.8329003 C908.457702,71.4467034 908.6722,72.1693961 908.6722,73.0010003 C908.6722,73.753404 908.513801,74.4595969 908.197,75.1196002 C907.880198,75.7796035 907.266404,76.5319959 906.3556,77.3768001 L903.1678,80.3864001 L909.1276,80.3864001 Z M916.3546,83.2376 C915.206194,83.2376 914.183204,82.9538028 913.2856,82.3862 C912.387995,81.8185972 911.685102,80.9969054 911.1769,79.9211001 C910.668697,78.8452947 910.4146,77.5616076 910.4146,76.0700002 C910.4146,74.5783928 910.668697,73.2947056 911.1769,72.2189003 C911.685102,71.1430949 912.387995,70.3214032 913.2856,69.7538004 C914.183204,69.1861975 915.206194,68.9024004 916.3546,68.9024004 C917.503005,68.9024004 918.525995,69.1861975 919.423599,69.7538004 C920.321204,70.3214032 921.024097,71.1430949 921.532299,72.2189003 C922.040502,73.2947056 922.294599,74.5783928 922.294599,76.0700002 C922.294599,77.5616076 922.040502,78.8452947 921.532299,79.9211001 C921.024097,80.9969054 920.321204,81.8185972 919.423599,82.3862 C918.525995,82.9538028 917.503005,83.2376 916.3546,83.2376 Z M916.3546,80.5250001 C917.199404,80.5250001 917.862697,80.1620037 918.344499,79.4360001 C918.826302,78.7099965 919.067199,77.5880077 919.067199,76.0700002 C919.067199,74.5519926 918.826302,73.4300039 918.344499,72.7040003 C917.862697,71.9779967 917.199404,71.6150003 916.3546,71.6150003 C915.522995,71.6150003 914.866302,71.9779967 914.3845,72.7040003 C913.902697,73.4300039 913.6618,74.5519926 913.6618,76.0700002 C913.6618,77.5880077 913.902697,78.7099965 914.3845,79.4360001 C914.866302,80.1620037 915.522995,80.5250001 916.3546,80.5250001 Z M929.085999,69.1400004 L929.085999,83 L925.878399,83 L925.878399,71.7140003 L923.106399,71.7140003 L923.106399,69.1400004 L929.085999,69.1400004 Z M936.372399,68.9024004 C938.312809,68.9024004 939.830793,69.4930945 940.926399,70.6745003 C942.022004,71.8559062 942.569799,73.5553892 942.569799,75.7730002 C942.569799,77.343808 942.276102,78.6901945 941.688699,79.8122001 C941.101296,80.9342057 940.273004,81.7855971 939.203799,82.3664 C938.134594,82.9472029 936.900406,83.2376 935.501199,83.2376 C934.761995,83.2376 934.055802,83.1551008 933.382599,82.9901 C932.709396,82.8250992 932.135201,82.5908015 931.659999,82.2872 L932.847999,79.9310001 C933.521202,80.3930024 934.385794,80.6240001 935.441799,80.6240001 C936.616605,80.6240001 937.547196,80.2775035 938.233599,79.5845001 C938.920002,78.8914966 939.289599,77.8916067 939.342399,76.5848002 C938.510795,77.4164043 937.362406,77.8322001 935.897199,77.8322001 C935.012795,77.8322001 934.207603,77.6540019 933.481599,77.2976002 C932.755595,76.9411984 932.181401,76.4363034 931.758999,75.7829002 C931.336597,75.1294969 931.125399,74.3738045 931.125399,73.5158003 C931.125399,72.5917957 931.356397,71.7800038 931.818399,71.0804003 C932.280401,70.3807968 932.910695,69.8429022 933.709299,69.4667004 C934.507903,69.0904985 935.395594,68.9024004 936.372399,68.9024004 Z M936.609999,75.4364002 C937.309602,75.4364002 937.880497,75.2417022 938.322699,74.8523002 C938.764901,74.4628983 938.985999,73.9646033 938.985999,73.3574003 C938.985999,72.7501972 938.771501,72.2552022 938.342499,71.8724003 C937.913497,71.4895984 937.322803,71.2982003 936.570399,71.2982003 C935.883996,71.2982003 935.326301,71.4829985 934.897299,71.8526003 C934.468297,72.2222021 934.253799,72.7237971 934.253799,73.3574003 C934.253799,73.9910034 934.468297,74.4958983 934.897299,74.8721002 C935.326301,75.2483021 935.897195,75.4364002 936.609999,75.4364002 Z" id="2019" fill="#4C3092"></path>
            <path d="M894.319501,18.8180002 L894.319501,21.1490001 L898.401901,21.1490001 L898.401901,22.7870001 L894.319501,22.7870001 L894.319501,26 L892.278301,26 L892.278301,17.1800002 L898.943701,17.1800002 L898.943701,18.8180002 L894.319501,18.8180002 Z M906.6549,22.6358001 C906.6549,22.6610002 906.642301,22.8373984 906.6171,23.1650001 L901.488901,23.1650001 C901.581301,23.5850022 901.799699,23.9167988 902.1441,24.1604 C902.488502,24.4040013 902.916898,24.5258 903.4293,24.5258 C903.782102,24.5258 904.094999,24.4733006 904.368,24.3683 C904.641002,24.2632995 904.895099,24.0974012 905.1303,23.8706001 L906.1761,25.0046 C905.537697,25.7354037 904.605307,26.1008 903.3789,26.1008 C902.614497,26.1008 901.938303,25.9517015 901.350301,25.6535 C900.762298,25.3552985 900.308702,24.9416027 899.989501,24.4124 C899.670299,23.8831974 899.510701,23.2826034 899.510701,22.6106001 C899.510701,21.9469968 899.668199,21.3485028 899.983201,20.8151001 C900.298202,20.2816975 900.730798,19.8659017 901.281001,19.5677002 C901.831203,19.2694987 902.446497,19.1204002 903.1269,19.1204002 C903.790504,19.1204002 904.391098,19.2631988 904.9287,19.5488002 C905.466303,19.8344016 905.888399,20.2438975 906.195,20.7773001 C906.501602,21.3107028 906.6549,21.9301966 906.6549,22.6358001 Z M903.1395,20.6072001 C902.694298,20.6072001 902.320502,20.7331989 902.018101,20.9852001 C901.715699,21.2372014 901.530901,21.5815979 901.463701,22.0184001 L904.8027,22.0184001 C904.7355,21.589998 904.550702,21.2477014 904.2483,20.9915001 C903.945899,20.7352989 903.576303,20.6072001 903.1395,20.6072001 Z M911.9721,19.1204002 C912.602103,19.1204002 913.175398,19.2652987 913.692,19.5551002 C914.208603,19.8449016 914.613899,20.2522975 914.9079,20.7773001 C915.201902,21.3023027 915.3489,21.9133966 915.3489,22.6106001 C915.3489,23.3078036 915.201902,23.9188974 914.9079,24.4439 C914.613899,24.9689027 914.208603,25.3762986 913.692,25.6661 C913.175398,25.9559015 912.602103,26.1008 911.9721,26.1008 C911.039696,26.1008 910.329903,25.8068029 909.8427,25.2188 L909.8427,26 L907.9653,26 L907.9653,16.6508002 L909.9309,16.6508002 L909.9309,19.9394002 C910.426503,19.3933974 911.106896,19.1204002 911.9721,19.1204002 Z M911.6319,24.488 C912.135903,24.488 912.549599,24.3179017 912.873,23.9777001 C913.196402,23.6374984 913.3581,23.1818029 913.3581,22.6106001 C913.3581,22.0393972 913.196402,21.5837018 912.873,21.2435001 C912.549599,20.9032984 912.135903,20.7332001 911.6319,20.7332001 C911.127898,20.7332001 910.714202,20.9032984 910.3908,21.2435001 C910.067399,21.5837018 909.9057,22.0393972 909.9057,22.6106001 C909.9057,23.1818029 910.067399,23.6374984 910.3908,23.9777001 C910.714202,24.3179017 911.127898,24.488 911.6319,24.488 Z M918.5367,20.1158002 C918.771901,19.7881985 919.088998,19.540401 919.488,19.3724002 C919.887002,19.2043993 920.346897,19.1204002 920.8677,19.1204002 L920.8677,20.9348001 C920.649299,20.9180001 920.5023,20.9096001 920.4267,20.9096001 C919.863897,20.9096001 919.422902,21.0670986 919.1037,21.3821001 C918.784498,21.6971017 918.6249,22.169597 918.6249,22.7996001 L918.6249,26 L916.6593,26 L916.6593,19.2212002 L918.5367,19.2212002 L918.5367,20.1158002 Z M928.9191,19.2212002 L928.9191,26 L927.0543,26 L927.0543,25.1936 C926.793899,25.4876015 926.483102,25.7122992 926.1219,25.8677 C925.760698,26.0231008 925.370102,26.1008 924.9501,26.1008 C924.059695,26.1008 923.354103,25.8446026 922.8333,25.3322 C922.312497,24.8197975 922.0521,24.0596051 922.0521,23.0516001 L922.0521,19.2212002 L924.0177,19.2212002 L924.0177,22.7618001 C924.0177,23.8538055 924.475495,24.3998 925.3911,24.3998 C925.861502,24.3998 926.239498,24.2465016 926.5251,23.9399001 C926.810701,23.6332985 926.9535,23.1776031 926.9535,22.5728001 L926.9535,19.2212002 L928.9191,19.2212002 Z M933.4803,19.1204002 C934.530305,19.1204002 935.336697,19.3702977 935.8995,19.8701002 C936.462302,20.3699026 936.7437,21.1237951 936.7437,22.1318001 L936.7437,26 L934.9041,26 L934.9041,25.1558 C934.534498,25.7858032 933.845705,26.1008 932.8377,26.1008 C932.316897,26.1008 931.865402,26.0126009 931.4832,25.8362 C931.100998,25.6597991 930.809101,25.4162016 930.6075,25.1054 C930.405899,24.7945985 930.3051,24.441802 930.3051,24.0470001 C930.3051,23.4169969 930.542397,22.9214019 931.017,22.5602001 C931.491602,22.1989983 932.224495,22.0184001 933.2157,22.0184001 L934.7781,22.0184001 C934.7781,21.589998 934.647901,21.2603013 934.3875,21.0293001 C934.127098,20.798299 933.736502,20.6828001 933.2157,20.6828001 C932.854498,20.6828001 932.499601,20.7394996 932.151,20.8529001 C931.802398,20.9663007 931.506301,21.1195992 931.2627,21.3128001 L930.5571,19.9394002 C930.926702,19.6789989 931.369797,19.4774009 931.8864,19.3346002 C932.403002,19.1917995 932.934297,19.1204002 933.4803,19.1204002 Z M933.3291,24.7778 C933.665101,24.7778 933.963298,24.7001008 934.2237,24.5447 C934.484101,24.3892993 934.668899,24.1604016 934.7781,23.8580001 L934.7781,23.1650001 L933.4299,23.1650001 C932.623496,23.1650001 932.2203,23.4295974 932.2203,23.9588001 C932.2203,24.2108013 932.318999,24.4102993 932.5164,24.5573 C932.713801,24.7043008 932.984698,24.7778 933.3291,24.7778 Z M940.397699,20.1158002 C940.632901,19.7881985 940.949997,19.540401 941.348999,19.3724002 C941.748001,19.2043993 942.207897,19.1204002 942.728699,19.1204002 L942.728699,20.9348001 C942.510298,20.9180001 942.3633,20.9096001 942.287699,20.9096001 C941.724897,20.9096001 941.283901,21.0670986 940.964699,21.3821001 C940.645498,21.6971017 940.485899,22.169597 940.485899,22.7996001 L940.485899,26 L938.5203,26 L938.5203,19.2212002 L940.397699,19.2212002 L940.397699,20.1158002 Z M950.868299,19.2212002 L947.806499,26.4158 C947.495698,27.1970039 947.111402,27.7471984 946.653599,28.0663999 C946.195797,28.3856015 945.643503,28.5451999 944.996699,28.5451999 C944.643898,28.5451999 944.295301,28.4906005 943.950899,28.3813999 C943.606498,28.2721994 943.325101,28.1210009 943.106699,27.9277999 L943.824899,26.5292 C943.9761,26.6636007 944.150398,26.7685996 944.347799,26.8442 C944.5452,26.9198004 944.740498,26.9576 944.933699,26.9576 C945.202501,26.9576 945.420899,26.8925006 945.588899,26.7623 C945.7569,26.6320993 945.908099,26.4158015 946.042499,26.1134 L946.067699,26.0504 L943.131899,19.2212002 L945.160499,19.2212002 L947.063099,23.8202001 L948.978299,19.2212002 L950.868299,19.2212002 Z" id="February" fill="#4C3092"></path>
            <path d="M409.824802,18.8340001 C409.824802,20.211607 409.320807,21.3917952 408.312802,22.3746 C407.304797,23.3574049 405.851611,23.9663988 403.953202,24.2016 L403.953202,27.0239999 L401.433202,27.0239999 L401.433202,24.2772 C400.189996,24.2099997 399.005608,23.9916018 397.880002,23.622 C396.754396,23.2523982 395.847206,22.7988027 395.158402,22.2612 L396.544402,19.1868001 C397.182805,19.6572025 397.930398,20.0519985 398.787202,20.3712001 C399.644006,20.6904017 400.525997,20.8919997 401.433202,20.9760001 L401.433202,16.7676002 C400.240396,16.4819988 399.232406,16.162802 398.409202,15.8100002 C397.585998,15.4571985 396.897205,14.9406036 396.342802,14.2602003 C395.788399,13.5797969 395.511202,12.6768059 395.511202,11.5512003 C395.511202,10.1567934 396.019397,8.9598054 397.035802,7.96020042 C398.052207,6.96059545 399.517992,6.35160156 401.433202,6.13320047 L401.433202,3.33600055 L403.953202,3.33600055 L403.953202,6.08280047 C406.019612,6.25080131 407.724795,6.76319617 409.068802,7.62000043 L407.808802,10.7196004 C406.548796,9.99719676 405.263608,9.56040114 403.953202,9.40920039 L403.953202,13.6932003 C405.129208,13.9620016 406.124598,14.2685985 406.939402,14.6130002 C407.754206,14.957402 408.438799,15.4697968 408.993202,16.1502002 C409.547605,16.8306036 409.824802,17.7251946 409.824802,18.8340001 Z M399.568402,11.3496003 C399.568402,11.7696024 399.728,12.113999 400.047202,12.3828003 C400.366404,12.6516016 400.828399,12.8783994 401.433202,13.0632003 L401.433202,9.48480038 C400.794799,9.63600114 400.324404,9.87539874 400.022002,10.2030004 C399.719601,10.530602 399.568402,10.9127982 399.568402,11.3496003 Z M403.953202,20.8752001 C404.558005,20.7407994 405.0116,20.5224016 405.314002,20.2200001 C405.616403,19.9175986 405.767602,19.5564022 405.767602,19.1364001 C405.767602,18.716398 405.612203,18.3720015 405.301402,18.1032002 C404.9906,17.8343988 404.541205,17.5992012 403.953202,17.3976002 L403.953202,20.8752001 Z M425.448801,6.36000047 L425.448801,24 L421.366401,24 L421.366401,9.63600038 L417.838402,9.63600038 L417.838402,6.36000047 L425.448801,6.36000047 Z M441.702801,20.6736001 L441.702801,24 L428.372001,24 L428.372001,21.3540001 L435.176001,14.9280002 C435.898405,14.2391968 436.3856,13.6470028 436.637601,13.1514003 C436.889602,12.6557978 437.015601,12.1644027 437.015601,11.6772003 C437.015601,10.9715968 436.776203,10.4298022 436.297401,10.0518004 C435.818599,9.67379849 435.117206,9.48480038 434.193201,9.48480038 C433.420397,9.48480038 432.723204,9.63179891 432.101601,9.92580037 C431.479998,10.2198018 430.959203,10.6607974 430.539201,11.2488003 L427.565601,9.33360039 C428.254405,8.30879529 429.203595,7.50660333 430.413201,6.92700045 C431.622807,6.34739757 433.008793,6.05760048 434.571201,6.05760048 C435.881608,6.05760048 437.028196,6.27179833 438.011001,6.70020046 C438.993806,7.12860259 439.758198,7.73339652 440.304201,8.51460041 C440.850204,9.2958043 441.123201,10.2155951 441.123201,11.2740003 C441.123201,12.2316051 440.921603,13.1303961 440.518401,13.9704003 C440.115199,14.8104044 439.334007,15.7679948 438.174801,16.8432002 L434.117601,20.6736001 L441.702801,20.6736001 Z M445.961601,24.2016 C445.272797,24.2016 444.693203,23.9664024 444.222801,23.496 C443.752399,23.0255977 443.517201,22.4376036 443.517201,21.7320001 C443.517201,21.0095965 443.752399,20.4258023 444.222801,19.9806001 C444.693203,19.5353979 445.272797,19.3128001 445.961601,19.3128001 C446.650404,19.3128001 447.229998,19.5353979 447.700401,19.9806001 C448.170803,20.4258023 448.406001,21.0095965 448.406001,21.7320001 C448.406001,22.4376036 448.170803,23.0255977 447.700401,23.496 C447.229998,23.9664024 446.650404,24.2016 445.961601,24.2016 Z M457.478,24.3024 C456.016393,24.3024 454.714406,23.9412036 453.572001,23.2188 C452.429595,22.4963964 451.535004,21.4506069 450.888201,20.0814001 C450.241397,18.7121933 449.918001,17.0784097 449.918001,15.1800002 C449.918001,13.2815908 450.241397,11.6478072 450.888201,10.2786004 C451.535004,8.90939355 452.429595,7.86360404 453.572001,7.14120045 C454.714406,6.41879685 456.016393,6.05760048 457.478,6.05760048 C458.939608,6.05760048 460.241595,6.41879685 461.384,7.14120045 C462.526406,7.86360404 463.420997,8.90939355 464.0678,10.2786004 C464.714604,11.6478072 465.038,13.2815908 465.038,15.1800002 C465.038,17.0784097 464.714604,18.7121933 464.0678,20.0814001 C463.420997,21.4506069 462.526406,22.4963964 461.384,23.2188 C460.241595,23.9412036 458.939608,24.3024 457.478,24.3024 Z M457.478,20.8500001 C458.553206,20.8500001 459.397397,20.3880047 460.0106,19.4640001 C460.623803,18.5399955 460.9304,17.1120098 460.9304,15.1800002 C460.9304,13.2479906 460.623803,11.8200049 460.0106,10.8960003 C459.397397,9.97199575 458.553206,9.51000038 457.478,9.51000038 C456.419595,9.51000038 455.583804,9.97199575 454.970601,10.8960003 C454.357398,11.8200049 454.050801,13.2479906 454.050801,15.1800002 C454.050801,17.1120098 454.357398,18.5399955 454.970601,19.4640001 C455.583804,20.3880047 456.419595,20.8500001 457.478,20.8500001 Z M474.5888,24.3024 C473.127193,24.3024 471.825206,23.9412036 470.6828,23.2188 C469.540394,22.4963964 468.645803,21.4506069 467.999,20.0814001 C467.352197,18.7121933 467.0288,17.0784097 467.0288,15.1800002 C467.0288,13.2815908 467.352197,11.6478072 467.999,10.2786004 C468.645803,8.90939355 469.540394,7.86360404 470.6828,7.14120045 C471.825206,6.41879685 473.127193,6.05760048 474.5888,6.05760048 C476.050407,6.05760048 477.352394,6.41879685 478.4948,7.14120045 C479.637206,7.86360404 480.531797,8.90939355 481.1786,10.2786004 C481.825403,11.6478072 482.1488,13.2815908 482.1488,15.1800002 C482.1488,17.0784097 481.825403,18.7121933 481.1786,20.0814001 C480.531797,21.4506069 479.637206,22.4963964 478.4948,23.2188 C477.352394,23.9412036 476.050407,24.3024 474.5888,24.3024 Z M474.5888,20.8500001 C475.664005,20.8500001 476.508197,20.3880047 477.1214,19.4640001 C477.734603,18.5399955 478.0412,17.1120098 478.0412,15.1800002 C478.0412,13.2479906 477.734603,11.8200049 477.1214,10.8960003 C476.508197,9.97199575 475.664005,9.51000038 474.5888,9.51000038 C473.530395,9.51000038 472.694603,9.97199575 472.0814,10.8960003 C471.468197,11.8200049 471.1616,13.2479906 471.1616,15.1800002 C471.1616,17.1120098 471.468197,18.5399955 472.0814,19.4640001 C472.694603,20.3880047 473.530395,20.8500001 474.5888,20.8500001 Z M491.6996,24.3024 C490.237992,24.3024 488.936005,23.9412036 487.7936,23.2188 C486.651194,22.4963964 485.756603,21.4506069 485.1098,20.0814001 C484.462997,18.7121933 484.1396,17.0784097 484.1396,15.1800002 C484.1396,13.2815908 484.462997,11.6478072 485.1098,10.2786004 C485.756603,8.90939355 486.651194,7.86360404 487.7936,7.14120045 C488.936005,6.41879685 490.237992,6.05760048 491.6996,6.05760048 C493.161207,6.05760048 494.463194,6.41879685 495.605599,7.14120045 C496.748005,7.86360404 497.642596,8.90939355 498.289399,10.2786004 C498.936203,11.6478072 499.259599,13.2815908 499.259599,15.1800002 C499.259599,17.0784097 498.936203,18.7121933 498.289399,20.0814001 C497.642596,21.4506069 496.748005,22.4963964 495.605599,23.2188 C494.463194,23.9412036 493.161207,24.3024 491.6996,24.3024 Z M491.6996,20.8500001 C492.774805,20.8500001 493.618996,20.3880047 494.2322,19.4640001 C494.845403,18.5399955 495.151999,17.1120098 495.151999,15.1800002 C495.151999,13.2479906 494.845403,11.8200049 494.2322,10.8960003 C493.618996,9.97199575 492.774805,9.51000038 491.6996,9.51000038 C490.641194,9.51000038 489.805403,9.97199575 489.1922,10.8960003 C488.578997,11.8200049 488.2724,13.2479906 488.2724,15.1800002 C488.2724,17.1120098 488.578997,18.5399955 489.1922,19.4640001 C489.805403,20.3880047 490.641194,20.8500001 491.6996,20.8500001 Z M503.241199,24.2016 C502.552396,24.2016 501.972802,23.9664024 501.502399,23.496 C501.031997,23.0255977 500.796799,22.4376036 500.796799,21.7320001 C500.796799,21.0095965 501.031997,20.4258023 501.502399,19.9806001 C501.972802,19.5353979 502.552396,19.3128001 503.241199,19.3128001 C503.930003,19.3128001 504.509597,19.5353979 504.979999,19.9806001 C505.450402,20.4258023 505.685599,21.0095965 505.685599,21.7320001 C505.685599,22.4376036 505.450402,23.0255977 504.979999,23.496 C504.509597,23.9664024 503.930003,24.2016 503.241199,24.2016 Z M514.757599,24.3024 C513.295992,24.3024 511.994005,23.9412036 510.851599,23.2188 C509.709193,22.4963964 508.814602,21.4506069 508.167799,20.0814001 C507.520996,18.7121933 507.197599,17.0784097 507.197599,15.1800002 C507.197599,13.2815908 507.520996,11.6478072 508.167799,10.2786004 C508.814602,8.90939355 509.709193,7.86360404 510.851599,7.14120045 C511.994005,6.41879685 513.295992,6.05760048 514.757599,6.05760048 C516.219206,6.05760048 517.521193,6.41879685 518.663599,7.14120045 C519.806005,7.86360404 520.700596,8.90939355 521.347399,10.2786004 C521.994202,11.6478072 522.317599,13.2815908 522.317599,15.1800002 C522.317599,17.0784097 521.994202,18.7121933 521.347399,20.0814001 C520.700596,21.4506069 519.806005,22.4963964 518.663599,23.2188 C517.521193,23.9412036 516.219206,24.3024 514.757599,24.3024 Z M514.757599,20.8500001 C515.832804,20.8500001 516.676996,20.3880047 517.290199,19.4640001 C517.903402,18.5399955 518.209999,17.1120098 518.209999,15.1800002 C518.209999,13.2479906 517.903402,11.8200049 517.290199,10.8960003 C516.676996,9.97199575 515.832804,9.51000038 514.757599,9.51000038 C513.699194,9.51000038 512.863402,9.97199575 512.250199,10.8960003 C511.636996,11.8200049 511.330399,13.2479906 511.330399,15.1800002 C511.330399,17.1120098 511.636996,18.5399955 512.250199,19.4640001 C512.863402,20.3880047 513.699194,20.8500001 514.757599,20.8500001 Z M531.868399,24.3024 C530.406791,24.3024 529.104804,23.9412036 527.962399,23.2188 C526.819993,22.4963964 525.925402,21.4506069 525.278599,20.0814001 C524.631795,18.7121933 524.308399,17.0784097 524.308399,15.1800002 C524.308399,13.2815908 524.631795,11.6478072 525.278599,10.2786004 C525.925402,8.90939355 526.819993,7.86360404 527.962399,7.14120045 C529.104804,6.41879685 530.406791,6.05760048 531.868399,6.05760048 C533.330006,6.05760048 534.631993,6.41879685 535.774398,7.14120045 C536.916804,7.86360404 537.811395,8.90939355 538.458198,10.2786004 C539.105002,11.6478072 539.428398,13.2815908 539.428398,15.1800002 C539.428398,17.0784097 539.105002,18.7121933 538.458198,20.0814001 C537.811395,21.4506069 536.916804,22.4963964 535.774398,23.2188 C534.631993,23.9412036 533.330006,24.3024 531.868399,24.3024 Z M531.868399,20.8500001 C532.943604,20.8500001 533.787795,20.3880047 534.400998,19.4640001 C535.014202,18.5399955 535.320798,17.1120098 535.320798,15.1800002 C535.320798,13.2479906 535.014202,11.8200049 534.400998,10.8960003 C533.787795,9.97199575 532.943604,9.51000038 531.868399,9.51000038 C530.809993,9.51000038 529.974202,9.97199575 529.360999,10.8960003 C528.747796,11.8200049 528.441199,13.2479906 528.441199,15.1800002 C528.441199,17.1120098 528.747796,18.5399955 529.360999,19.4640001 C529.974202,20.3880047 530.809993,20.8500001 531.868399,20.8500001 Z M548.979198,24.3024 C547.517591,24.3024 546.215604,23.9412036 545.073198,23.2188 C543.930792,22.4963964 543.036201,21.4506069 542.389398,20.0814001 C541.742595,18.7121933 541.419198,17.0784097 541.419198,15.1800002 C541.419198,13.2815908 541.742595,11.6478072 542.389398,10.2786004 C543.036201,8.90939355 543.930792,7.86360404 545.073198,7.14120045 C546.215604,6.41879685 547.517591,6.05760048 548.979198,6.05760048 C550.440805,6.05760048 551.742792,6.41879685 552.885198,7.14120045 C554.027604,7.86360404 554.922195,8.90939355 555.568998,10.2786004 C556.215801,11.6478072 556.539198,13.2815908 556.539198,15.1800002 C556.539198,17.0784097 556.215801,18.7121933 555.568998,20.0814001 C554.922195,21.4506069 554.027604,22.4963964 552.885198,23.2188 C551.742792,23.9412036 550.440805,24.3024 548.979198,24.3024 Z M548.979198,20.8500001 C550.054403,20.8500001 550.898595,20.3880047 551.511798,19.4640001 C552.125001,18.5399955 552.431598,17.1120098 552.431598,15.1800002 C552.431598,13.2479906 552.125001,11.8200049 551.511798,10.8960003 C550.898595,9.97199575 550.054403,9.51000038 548.979198,9.51000038 C547.920793,9.51000038 547.085001,9.97199575 546.471798,10.8960003 C545.858595,11.8200049 545.551998,13.2479906 545.551998,15.1800002 C545.551998,17.1120098 545.858595,18.5399955 546.471798,19.4640001 C547.085001,20.3880047 547.920793,20.8500001 548.979198,20.8500001 Z" id="$-12.000.000" fill="#4C3092"></path>
        </g>
    </g>
</svg>