<?xml version="1.0" encoding="UTF-8"?>
<svg width="931px" height="81px" viewBox="0 0 931 81" version="1.1" xmlns="http://www.w3.org/2000/svg" xmlns:xlink="http://www.w3.org/1999/xlink">
    <!-- Generator: Sketch 48.1 (47250) - http://www.bohemiancoding.com/sketch -->
    <title>line-2000000</title>
    <desc>Created with Sketch.</desc>
    <defs></defs>
    <g id="Artboard-2" stroke="none" stroke-width="1" fill="none" fill-rule="evenodd" transform="translate(-88.000000, -797.000000)">
        <g id="line-2000000" transform="translate(88.000000, 794.000000)">
            <path d="M19,48 L908.797858,48" id="Line" stroke="#4C3092" stroke-width="1.88999986" stroke-linecap="square"></path>
            <g id="Group-6" transform="translate(12.000000, 37.000000)" fill="#4C3092">
                <ellipse id="Oval-3-Copy-2" opacity="0.049999997" cx="10.4005805" cy="10.5" rx="10.4005805" ry="10.5"></ellipse>
                <ellipse id="Oval-3" opacity="0.100000001" cx="10.4005805" cy="10.5" rx="8.00044657" ry="8.07692308"></ellipse>
                <ellipse id="Oval-3-Copy" cx="10.4005805" cy="10.5" rx="4.80026794" ry="4.84615385"></ellipse>
            </g>
            <g id="Group-6-Copy" transform="translate(898.000000, 37.000000)" fill="#4C3092">
                <ellipse id="Oval-3-Copy-2" opacity="0.049999997" cx="10.4005805" cy="10.5" rx="10.4005805" ry="10.5"></ellipse>
                <ellipse id="Oval-3" opacity="0.100000001" cx="10.4005805" cy="10.5" rx="8.00044657" ry="8.07692308"></ellipse>
                <ellipse id="Oval-3-Copy" cx="10.4005805" cy="10.5" rx="4.80026794" ry="4.84615385"></ellipse>
            </g>
            <path d="M11.1275997,80.3864001 L11.1275997,83 L0.653399983,83 L0.653399983,80.9210001 L5.99939984,75.8720002 C6.56700266,75.3307975 6.94979883,74.8655022 7.14779981,74.4761002 C7.3458008,74.0866983 7.4447998,73.7006022 7.4447998,73.3178003 C7.4447998,72.7633975 7.25670169,72.3377018 6.88049982,72.0407003 C6.50429795,71.7436988 5.95320347,71.5952003 5.22719986,71.5952003 C4.61999684,71.5952003 4.07220233,71.7106991 3.58379991,71.9417003 C3.09539748,72.1727014 2.68620158,72.519198 2.35619994,72.9812003 L0.0197999995,71.4764003 C0.561002691,70.6711963 1.30679521,70.0409026 2.25719994,69.5855004 C3.20760467,69.1300981 4.29659375,68.9024004 5.52419985,68.9024004 C6.55380497,68.9024004 7.45469594,69.0706987 8.22689978,69.4073004 C8.99910362,69.743902 9.5996976,70.2190973 10.0286997,70.8329003 C10.4577019,71.4467034 10.6721997,72.1693961 10.6721997,73.0010003 C10.6721997,73.753404 10.5138013,74.4595969 10.1969997,75.1196002 C9.88019815,75.7796035 9.26640431,76.5319959 8.35559978,77.3768001 L5.16779986,80.3864001 L11.1275997,80.3864001 Z M18.3545995,83.2376 C17.2061938,83.2376 16.1832041,82.9538028 15.2855996,82.3862 C14.3879951,81.8185972 13.6851022,80.9969054 13.1768997,79.9211001 C12.6686971,78.8452947 12.4145997,77.5616076 12.4145997,76.0700002 C12.4145997,74.5783928 12.6686971,73.2947056 13.1768997,72.2189003 C13.6851022,71.1430949 14.3879951,70.3214032 15.2855996,69.7538004 C16.1832041,69.1861975 17.2061938,68.9024004 18.3545995,68.9024004 C19.5030052,68.9024004 20.525995,69.1861975 21.4235994,69.7538004 C22.3212039,70.3214032 23.0240968,71.1430949 23.5322994,72.2189003 C24.0405019,73.2947056 24.2945994,74.5783928 24.2945994,76.0700002 C24.2945994,77.5616076 24.0405019,78.8452947 23.5322994,79.9211001 C23.0240968,80.9969054 22.3212039,81.8185972 21.4235994,82.3862 C20.525995,82.9538028 19.5030052,83.2376 18.3545995,83.2376 Z M18.3545995,80.5250001 C19.1994037,80.5250001 19.8626971,80.1620037 20.3444995,79.4360001 C20.8263019,78.7099965 21.0671994,77.5880077 21.0671994,76.0700002 C21.0671994,74.5519926 20.8263019,73.4300039 20.3444995,72.7040003 C19.8626971,71.9779967 19.1994037,71.6150003 18.3545995,71.6150003 C17.5229954,71.6150003 16.866302,71.9779967 16.3844996,72.7040003 C15.9026972,73.4300039 15.6617996,74.5519926 15.6617996,76.0700002 C15.6617996,77.5880077 15.9026972,78.7099965 16.3844996,79.4360001 C16.866302,80.1620037 17.5229954,80.5250001 18.3545995,80.5250001 Z M31.0859992,69.1400004 L31.0859992,83 L27.8783993,83 L27.8783993,71.7140003 L25.1063993,71.7140003 L25.1063993,69.1400004 L31.0859992,69.1400004 Z M44.3519988,69.1400004 L44.3519988,71.2190003 L39.203999,83 L35.7191991,83 L40.6889989,71.7536003 L36.095399,71.7536003 L36.095399,74.0108002 L33.2441991,74.0108002 L33.2441991,69.1400004 L44.3519988,69.1400004 Z" id="2017" fill="#4C3092"></path>
            <path d="M896.1276,80.3864001 L896.1276,83 L885.6534,83 L885.6534,80.9210001 L890.9994,75.8720002 C891.567003,75.3307975 891.949799,74.8655022 892.1478,74.4761002 C892.345801,74.0866983 892.4448,73.7006022 892.4448,73.3178003 C892.4448,72.7633975 892.256702,72.3377018 891.8805,72.0407003 C891.504298,71.7436988 890.953203,71.5952003 890.2272,71.5952003 C889.619997,71.5952003 889.072202,71.7106991 888.5838,71.9417003 C888.095397,72.1727014 887.686202,72.519198 887.3562,72.9812003 L885.0198,71.4764003 C885.561003,70.6711963 886.306795,70.0409026 887.2572,69.5855004 C888.207605,69.1300981 889.296594,68.9024004 890.5242,68.9024004 C891.553805,68.9024004 892.454696,69.0706987 893.2269,69.4073004 C893.999104,69.743902 894.599698,70.2190973 895.0287,70.8329003 C895.457702,71.4467034 895.6722,72.1693961 895.6722,73.0010003 C895.6722,73.753404 895.513801,74.4595969 895.197,75.1196002 C894.880198,75.7796035 894.266404,76.5319959 893.3556,77.3768001 L890.1678,80.3864001 L896.1276,80.3864001 Z M903.3546,83.2376 C902.206194,83.2376 901.183204,82.9538028 900.2856,82.3862 C899.387995,81.8185972 898.685102,80.9969054 898.1769,79.9211001 C897.668697,78.8452947 897.4146,77.5616076 897.4146,76.0700002 C897.4146,74.5783928 897.668697,73.2947056 898.1769,72.2189003 C898.685102,71.1430949 899.387995,70.3214032 900.2856,69.7538004 C901.183204,69.1861975 902.206194,68.9024004 903.3546,68.9024004 C904.503005,68.9024004 905.525995,69.1861975 906.423599,69.7538004 C907.321204,70.3214032 908.024097,71.1430949 908.532299,72.2189003 C909.040502,73.2947056 909.294599,74.5783928 909.294599,76.0700002 C909.294599,77.5616076 909.040502,78.8452947 908.532299,79.9211001 C908.024097,80.9969054 907.321204,81.8185972 906.423599,82.3862 C905.525995,82.9538028 904.503005,83.2376 903.3546,83.2376 Z M903.3546,80.5250001 C904.199404,80.5250001 904.862697,80.1620037 905.344499,79.4360001 C905.826302,78.7099965 906.067199,77.5880077 906.067199,76.0700002 C906.067199,74.5519926 905.826302,73.4300039 905.344499,72.7040003 C904.862697,71.9779967 904.199404,71.6150003 903.3546,71.6150003 C902.522995,71.6150003 901.866302,71.9779967 901.3845,72.7040003 C900.902697,73.4300039 900.6618,74.5519926 900.6618,76.0700002 C900.6618,77.5880077 900.902697,78.7099965 901.3845,79.4360001 C901.866302,80.1620037 902.522995,80.5250001 903.3546,80.5250001 Z M916.085999,69.1400004 L916.085999,83 L912.878399,83 L912.878399,71.7140003 L910.106399,71.7140003 L910.106399,69.1400004 L916.085999,69.1400004 Z M927.985799,75.7136002 C928.672202,76.0568019 929.196897,76.5055974 929.559899,77.0600002 C929.922901,77.6144029 930.104399,78.2545965 930.104399,78.9806001 C930.104399,79.8386044 929.860201,80.5876969 929.371799,81.2279 C928.883396,81.8681032 928.197003,82.3630983 927.312599,82.7129 C926.428194,83.0627017 925.405205,83.2376 924.243599,83.2376 C923.081993,83.2376 922.062303,83.0627017 921.184499,82.7129 C920.306695,82.3630983 919.626901,81.8681032 919.145099,81.2279 C918.663297,80.5876969 918.422399,79.8386044 918.422399,78.9806001 C918.422399,78.2545965 918.603897,77.6144029 918.966899,77.0600002 C919.329901,76.5055974 919.847996,76.0568019 920.521199,75.7136002 C920.006396,75.3967986 919.6104,74.9975026 919.333199,74.5157002 C919.055998,74.0338978 918.917399,73.4828034 918.917399,72.8624003 C918.917399,72.0571963 919.141797,71.3576033 919.590599,70.7636003 C920.039401,70.1695974 920.666395,69.710902 921.471599,69.3875004 C922.276803,69.0640988 923.200794,68.9024004 924.243599,68.9024004 C925.299604,68.9024004 926.233495,69.0640988 927.045299,69.3875004 C927.857103,69.710902 928.487397,70.1695974 928.936199,70.7636003 C929.385001,71.3576033 929.609399,72.0571963 929.609399,72.8624003 C929.609399,73.4828034 929.4708,74.0338978 929.193599,74.5157002 C928.916397,74.9975026 928.513801,75.3967986 927.985799,75.7136002 Z M924.243599,71.2586003 C923.596796,71.2586003 923.078701,71.4136988 922.689299,71.7239003 C922.299897,72.0341018 922.105199,72.4597976 922.105199,73.0010003 C922.105199,73.5290029 922.296597,73.9447987 922.679399,74.2484002 C923.062201,74.5520017 923.583596,74.7038002 924.243599,74.7038002 C924.903602,74.7038002 925.431597,74.5520017 925.827599,74.2484002 C926.223601,73.9447987 926.421599,73.5290029 926.421599,73.0010003 C926.421599,72.4597976 926.223601,72.0341018 925.827599,71.7239003 C925.431597,71.4136988 924.903602,71.2586003 924.243599,71.2586003 Z M924.243599,80.8814001 C925.048803,80.8814001 925.685697,80.6999019 926.154299,80.3369001 C926.622901,79.9738983 926.857199,79.4888031 926.857199,78.8816001 C926.857199,78.2743971 926.622901,77.7926019 926.154299,77.4362001 C925.685697,77.0797984 925.048803,76.9016002 924.243599,76.9016002 C923.451595,76.9016002 922.824601,77.0797984 922.362599,77.4362001 C921.900597,77.7926019 921.669599,78.2743971 921.669599,78.8816001 C921.669599,79.5020032 921.900597,79.9903983 922.362599,80.3468001 C922.824601,80.7032018 923.451595,80.8814001 924.243599,80.8814001 Z" id="2018-copy" fill="#4C3092"></path>
            <path d="M903.464,26 L903.4514,20.7080001 L900.8558,25.0676 L899.936,25.0676 L897.353,20.8214001 L897.353,26 L895.4378,26 L895.4378,17.1800002 L897.1262,17.1800002 L900.4274,22.6610001 L903.6782,17.1800002 L905.354,17.1800002 L905.3792,26 L903.464,26 Z M910.0664,19.1204002 C911.116405,19.1204002 911.922797,19.3702977 912.4856,19.8701002 C913.048403,20.3699026 913.3298,21.1237951 913.3298,22.1318001 L913.3298,26 L911.4902,26 L911.4902,25.1558 C911.120598,25.7858032 910.431805,26.1008 909.4238,26.1008 C908.902997,26.1008 908.451502,26.0126009 908.0693,25.8362 C907.687098,25.6597991 907.395201,25.4162016 907.1936,25.1054 C906.991999,24.7945985 906.8912,24.441802 906.8912,24.0470001 C906.8912,23.4169969 907.128498,22.9214019 907.6031,22.5602001 C908.077702,22.1989983 908.810595,22.0184001 909.8018,22.0184001 L911.3642,22.0184001 C911.3642,21.589998 911.234001,21.2603013 910.9736,21.0293001 C910.713199,20.798299 910.322603,20.6828001 909.8018,20.6828001 C909.440598,20.6828001 909.085702,20.7394996 908.7371,20.8529001 C908.388498,20.9663007 908.092401,21.1195992 907.8488,21.3128001 L907.1432,19.9394002 C907.512802,19.6789989 907.955897,19.4774009 908.4725,19.3346002 C908.989103,19.1917995 909.520397,19.1204002 910.0664,19.1204002 Z M909.9152,24.7778 C910.251202,24.7778 910.549399,24.7001008 910.8098,24.5447 C911.070201,24.3892993 911.254999,24.1604016 911.3642,23.8580001 L911.3642,23.1650001 L910.016,23.1650001 C909.209596,23.1650001 908.8064,23.4295974 908.8064,23.9588001 C908.8064,24.2108013 908.905099,24.4102993 909.1025,24.5573 C909.299901,24.7043008 909.570798,24.7778 909.9152,24.7778 Z M921.7088,19.2212002 L918.647,26.4158 C918.336198,27.1970039 917.951902,27.7471984 917.4941,28.0663999 C917.036297,28.3856015 916.484003,28.5451999 915.8372,28.5451999 C915.484398,28.5451999 915.135802,28.4906005 914.7914,28.3813999 C914.446998,28.2721994 914.165601,28.1210009 913.9472,27.9277999 L914.6654,26.5292 C914.816601,26.6636007 914.990899,26.7685996 915.1883,26.8442 C915.385701,26.9198004 915.580999,26.9576 915.7742,26.9576 C916.043001,26.9576 916.261399,26.8925006 916.4294,26.7623 C916.597401,26.6320993 916.748599,26.4158015 916.883,26.1134 L916.9082,26.0504 L913.9724,19.2212002 L916.001,19.2212002 L917.9036,23.8202001 L919.8188,19.2212002 L921.7088,19.2212002 Z" id="May" fill="#4C3092"></path>
            <path d="M402.264002,18.8340001 C402.264002,20.211607 401.760007,21.3917952 400.752002,22.3746 C399.743997,23.3574049 398.290811,23.9663988 396.392402,24.2016 L396.392402,27.0239999 L393.872402,27.0239999 L393.872402,24.2772 C392.629196,24.2099997 391.444808,23.9916018 390.319202,23.622 C389.193596,23.2523982 388.286405,22.7988027 387.597602,22.2612 L388.983602,19.1868001 C389.622005,19.6572025 390.369598,20.0519985 391.226402,20.3712001 C392.083206,20.6904017 392.965197,20.8919997 393.872402,20.9760001 L393.872402,16.7676002 C392.679596,16.4819988 391.671606,16.162802 390.848402,15.8100002 C390.025198,15.4571985 389.336405,14.9406036 388.782002,14.2602003 C388.227599,13.5797969 387.950402,12.6768059 387.950402,11.5512003 C387.950402,10.1567934 388.458597,8.9598054 389.475002,7.96020042 C390.491407,6.96059545 391.957192,6.35160156 393.872402,6.13320047 L393.872402,3.33600055 L396.392402,3.33600055 L396.392402,6.08280047 C398.458812,6.25080131 400.163995,6.76319617 401.508002,7.62000043 L400.248002,10.7196004 C398.987995,9.99719676 397.702808,9.56040114 396.392402,9.40920039 L396.392402,13.6932003 C397.568408,13.9620016 398.563798,14.2685985 399.378602,14.6130002 C400.193406,14.957402 400.877999,15.4697968 401.432402,16.1502002 C401.986804,16.8306036 402.264002,17.7251946 402.264002,18.8340001 Z M392.007602,11.3496003 C392.007602,11.7696024 392.1672,12.113999 392.486402,12.3828003 C392.805603,12.6516016 393.267599,12.8783994 393.872402,13.0632003 L393.872402,9.48480038 C393.233999,9.63600114 392.763603,9.87539874 392.461202,10.2030004 C392.1588,10.530602 392.007602,10.9127982 392.007602,11.3496003 Z M396.392402,20.8752001 C396.997205,20.7407994 397.4508,20.5224016 397.753202,20.2200001 C398.055603,19.9175986 398.206802,19.5564022 398.206802,19.1364001 C398.206802,18.716398 398.051403,18.3720015 397.740602,18.1032002 C397.4298,17.8343988 396.980405,17.5992012 396.392402,17.3976002 L396.392402,20.8752001 Z M424.263601,20.6736001 L424.263601,24 L410.932801,24 L410.932801,21.3540001 L417.736801,14.9280002 C418.459205,14.2391968 418.9464,13.6470028 419.198401,13.1514003 C419.450402,12.6557978 419.576401,12.1644027 419.576401,11.6772003 C419.576401,10.9715968 419.337004,10.4298022 418.858201,10.0518004 C418.379399,9.67379849 417.678006,9.48480038 416.754001,9.48480038 C415.981197,9.48480038 415.284004,9.63179891 414.662401,9.92580037 C414.040798,10.2198018 413.520003,10.6607974 413.100001,11.2488003 L410.126401,9.33360039 C410.815205,8.30879529 411.764395,7.50660333 412.974001,6.92700045 C414.183607,6.34739757 415.569593,6.05760048 417.132001,6.05760048 C418.442408,6.05760048 419.588996,6.27179833 420.571801,6.70020046 C421.554606,7.12860259 422.318998,7.73339652 422.865001,8.51460041 C423.411004,9.2958043 423.684001,10.2155951 423.684001,11.2740003 C423.684001,12.2316051 423.482403,13.1303961 423.079201,13.9704003 C422.675999,14.8104044 421.894807,15.7679948 420.735601,16.8432002 L416.678401,20.6736001 L424.263601,20.6736001 Z M428.522401,24.2016 C427.833598,24.2016 427.254003,23.9664024 426.783601,23.496 C426.313199,23.0255977 426.078001,22.4376036 426.078001,21.7320001 C426.078001,21.0095965 426.313199,20.4258023 426.783601,19.9806001 C427.254003,19.5353979 427.833598,19.3128001 428.522401,19.3128001 C429.211204,19.3128001 429.790799,19.5353979 430.261201,19.9806001 C430.731603,20.4258023 430.966801,21.0095965 430.966801,21.7320001 C430.966801,22.4376036 430.731603,23.0255977 430.261201,23.496 C429.790799,23.9664024 429.211204,24.2016 428.522401,24.2016 Z M440.038801,24.3024 C438.577193,24.3024 437.275206,23.9412036 436.132801,23.2188 C434.990395,22.4963964 434.095804,21.4506069 433.449001,20.0814001 C432.802198,18.7121933 432.478801,17.0784097 432.478801,15.1800002 C432.478801,13.2815908 432.802198,11.6478072 433.449001,10.2786004 C434.095804,8.90939355 434.990395,7.86360404 436.132801,7.14120045 C437.275206,6.41879685 438.577193,6.05760048 440.038801,6.05760048 C441.500408,6.05760048 442.802395,6.41879685 443.944801,7.14120045 C445.087206,7.86360404 445.981797,8.90939355 446.6286,10.2786004 C447.275404,11.6478072 447.5988,13.2815908 447.5988,15.1800002 C447.5988,17.0784097 447.275404,18.7121933 446.6286,20.0814001 C445.981797,21.4506069 445.087206,22.4963964 443.944801,23.2188 C442.802395,23.9412036 441.500408,24.3024 440.038801,24.3024 Z M440.038801,20.8500001 C441.114006,20.8500001 441.958198,20.3880047 442.571401,19.4640001 C443.184604,18.5399955 443.491201,17.1120098 443.491201,15.1800002 C443.491201,13.2479906 443.184604,11.8200049 442.571401,10.8960003 C441.958198,9.97199575 441.114006,9.51000038 440.038801,9.51000038 C438.980395,9.51000038 438.144604,9.97199575 437.531401,10.8960003 C436.918198,11.8200049 436.611601,13.2479906 436.611601,15.1800002 C436.611601,17.1120098 436.918198,18.5399955 437.531401,19.4640001 C438.144604,20.3880047 438.980395,20.8500001 440.038801,20.8500001 Z M457.1496,24.3024 C455.687993,24.3024 454.386006,23.9412036 453.2436,23.2188 C452.101195,22.4963964 451.206604,21.4506069 450.5598,20.0814001 C449.912997,18.7121933 449.5896,17.0784097 449.5896,15.1800002 C449.5896,13.2815908 449.912997,11.6478072 450.5598,10.2786004 C451.206604,8.90939355 452.101195,7.86360404 453.2436,7.14120045 C454.386006,6.41879685 455.687993,6.05760048 457.1496,6.05760048 C458.611207,6.05760048 459.913194,6.41879685 461.0556,7.14120045 C462.198006,7.86360404 463.092597,8.90939355 463.7394,10.2786004 C464.386203,11.6478072 464.7096,13.2815908 464.7096,15.1800002 C464.7096,17.0784097 464.386203,18.7121933 463.7394,20.0814001 C463.092597,21.4506069 462.198006,22.4963964 461.0556,23.2188 C459.913194,23.9412036 458.611207,24.3024 457.1496,24.3024 Z M457.1496,20.8500001 C458.224806,20.8500001 459.068997,20.3880047 459.6822,19.4640001 C460.295403,18.5399955 460.602,17.1120098 460.602,15.1800002 C460.602,13.2479906 460.295403,11.8200049 459.6822,10.8960003 C459.068997,9.97199575 458.224806,9.51000038 457.1496,9.51000038 C456.091195,9.51000038 455.255403,9.97199575 454.6422,10.8960003 C454.028997,11.8200049 453.7224,13.2479906 453.7224,15.1800002 C453.7224,17.1120098 454.028997,18.5399955 454.6422,19.4640001 C455.255403,20.3880047 456.091195,20.8500001 457.1496,20.8500001 Z M474.2604,24.3024 C472.798792,24.3024 471.496806,23.9412036 470.3544,23.2188 C469.211994,22.4963964 468.317403,21.4506069 467.6706,20.0814001 C467.023797,18.7121933 466.7004,17.0784097 466.7004,15.1800002 C466.7004,13.2815908 467.023797,11.6478072 467.6706,10.2786004 C468.317403,8.90939355 469.211994,7.86360404 470.3544,7.14120045 C471.496806,6.41879685 472.798792,6.05760048 474.2604,6.05760048 C475.722007,6.05760048 477.023994,6.41879685 478.1664,7.14120045 C479.308805,7.86360404 480.203396,8.90939355 480.8502,10.2786004 C481.497003,11.6478072 481.8204,13.2815908 481.8204,15.1800002 C481.8204,17.0784097 481.497003,18.7121933 480.8502,20.0814001 C480.203396,21.4506069 479.308805,22.4963964 478.1664,23.2188 C477.023994,23.9412036 475.722007,24.3024 474.2604,24.3024 Z M474.2604,20.8500001 C475.335605,20.8500001 476.179797,20.3880047 476.793,19.4640001 C477.406203,18.5399955 477.7128,17.1120098 477.7128,15.1800002 C477.7128,13.2479906 477.406203,11.8200049 476.793,10.8960003 C476.179797,9.97199575 475.335605,9.51000038 474.2604,9.51000038 C473.201994,9.51000038 472.366203,9.97199575 471.753,10.8960003 C471.139797,11.8200049 470.8332,13.2479906 470.8332,15.1800002 C470.8332,17.1120098 471.139797,18.5399955 471.753,19.4640001 C472.366203,20.3880047 473.201994,20.8500001 474.2604,20.8500001 Z M485.801999,24.2016 C485.113196,24.2016 484.533602,23.9664024 484.063199,23.496 C483.592797,23.0255977 483.357599,22.4376036 483.357599,21.7320001 C483.357599,21.0095965 483.592797,20.4258023 484.063199,19.9806001 C484.533602,19.5353979 485.113196,19.3128001 485.801999,19.3128001 C486.490803,19.3128001 487.070397,19.5353979 487.540799,19.9806001 C488.011202,20.4258023 488.246399,21.0095965 488.246399,21.7320001 C488.246399,22.4376036 488.011202,23.0255977 487.540799,23.496 C487.070397,23.9664024 486.490803,24.2016 485.801999,24.2016 Z M497.318399,24.3024 C495.856792,24.3024 494.554805,23.9412036 493.412399,23.2188 C492.269994,22.4963964 491.375402,21.4506069 490.728599,20.0814001 C490.081796,18.7121933 489.758399,17.0784097 489.758399,15.1800002 C489.758399,13.2815908 490.081796,11.6478072 490.728599,10.2786004 C491.375402,8.90939355 492.269994,7.86360404 493.412399,7.14120045 C494.554805,6.41879685 495.856792,6.05760048 497.318399,6.05760048 C498.780006,6.05760048 500.081993,6.41879685 501.224399,7.14120045 C502.366805,7.86360404 503.261396,8.90939355 503.908199,10.2786004 C504.555002,11.6478072 504.878399,13.2815908 504.878399,15.1800002 C504.878399,17.0784097 504.555002,18.7121933 503.908199,20.0814001 C503.261396,21.4506069 502.366805,22.4963964 501.224399,23.2188 C500.081993,23.9412036 498.780006,24.3024 497.318399,24.3024 Z M497.318399,20.8500001 C498.393604,20.8500001 499.237796,20.3880047 499.850999,19.4640001 C500.464202,18.5399955 500.770799,17.1120098 500.770799,15.1800002 C500.770799,13.2479906 500.464202,11.8200049 499.850999,10.8960003 C499.237796,9.97199575 498.393604,9.51000038 497.318399,9.51000038 C496.259994,9.51000038 495.424202,9.97199575 494.810999,10.8960003 C494.197796,11.8200049 493.891199,13.2479906 493.891199,15.1800002 C493.891199,17.1120098 494.197796,18.5399955 494.810999,19.4640001 C495.424202,20.3880047 496.259994,20.8500001 497.318399,20.8500001 Z M514.429199,24.3024 C512.967591,24.3024 511.665604,23.9412036 510.523199,23.2188 C509.380793,22.4963964 508.486202,21.4506069 507.839399,20.0814001 C507.192596,18.7121933 506.869199,17.0784097 506.869199,15.1800002 C506.869199,13.2815908 507.192596,11.6478072 507.839399,10.2786004 C508.486202,8.90939355 509.380793,7.86360404 510.523199,7.14120045 C511.665604,6.41879685 512.967591,6.05760048 514.429199,6.05760048 C515.890806,6.05760048 517.192793,6.41879685 518.335199,7.14120045 C519.477604,7.86360404 520.372195,8.90939355 521.018998,10.2786004 C521.665802,11.6478072 521.989198,13.2815908 521.989198,15.1800002 C521.989198,17.0784097 521.665802,18.7121933 521.018998,20.0814001 C520.372195,21.4506069 519.477604,22.4963964 518.335199,23.2188 C517.192793,23.9412036 515.890806,24.3024 514.429199,24.3024 Z M514.429199,20.8500001 C515.504404,20.8500001 516.348596,20.3880047 516.961799,19.4640001 C517.575002,18.5399955 517.881599,17.1120098 517.881599,15.1800002 C517.881599,13.2479906 517.575002,11.8200049 516.961799,10.8960003 C516.348596,9.97199575 515.504404,9.51000038 514.429199,9.51000038 C513.370793,9.51000038 512.535002,9.97199575 511.921799,10.8960003 C511.308596,11.8200049 511.001999,13.2479906 511.001999,15.1800002 C511.001999,17.1120098 511.308596,18.5399955 511.921799,19.4640001 C512.535002,20.3880047 513.370793,20.8500001 514.429199,20.8500001 Z M531.539998,24.3024 C530.078391,24.3024 528.776404,23.9412036 527.633998,23.2188 C526.491593,22.4963964 525.597002,21.4506069 524.950198,20.0814001 C524.303395,18.7121933 523.979998,17.0784097 523.979998,15.1800002 C523.979998,13.2815908 524.303395,11.6478072 524.950198,10.2786004 C525.597002,8.90939355 526.491593,7.86360404 527.633998,7.14120045 C528.776404,6.41879685 530.078391,6.05760048 531.539998,6.05760048 C533.001605,6.05760048 534.303592,6.41879685 535.445998,7.14120045 C536.588404,7.86360404 537.482995,8.90939355 538.129798,10.2786004 C538.776601,11.6478072 539.099998,13.2815908 539.099998,15.1800002 C539.099998,17.0784097 538.776601,18.7121933 538.129798,20.0814001 C537.482995,21.4506069 536.588404,22.4963964 535.445998,23.2188 C534.303592,23.9412036 533.001605,24.3024 531.539998,24.3024 Z M531.539998,20.8500001 C532.615204,20.8500001 533.459395,20.3880047 534.072598,19.4640001 C534.685801,18.5399955 534.992398,17.1120098 534.992398,15.1800002 C534.992398,13.2479906 534.685801,11.8200049 534.072598,10.8960003 C533.459395,9.97199575 532.615204,9.51000038 531.539998,9.51000038 C530.481593,9.51000038 529.645801,9.97199575 529.032598,10.8960003 C528.419395,11.8200049 528.112798,13.2479906 528.112798,15.1800002 C528.112798,17.1120098 528.419395,18.5399955 529.032598,19.4640001 C529.645801,20.3880047 530.481593,20.8500001 531.539998,20.8500001 Z" id="$-2.000.000" fill="#4C3092"></path>
        </g>
    </g>
</svg>