<svg xmlns="http://www.w3.org/2000/svg" xmlns:xlink="http://www.w3.org/1999/xlink" width="22" height="21" viewBox="0 0 22 21"><defs><path id="2qima" d="M479.67 1519.88a2.36 2.36 0 0 1 2.33-2.38 2.36 2.36 0 0 1 2.34 2.38 2.36 2.36 0 0 1-2.33 2.37 2.36 2.36 0 0 1-2.34-2.38z"/><path id="2qimb" d="M482 1522.25a4.07 4.07 0 0 0-4 4.07v.68h8v-.68a4.07 4.07 0 0 0-4-4.07z"/><path id="2qimc" d="M486.67 1510.04c0-1.13.9-2.04 2-2.04s2 .91 2 2.04c0 1.12-.9 2.03-2 2.03s-2-.91-2-2.03z"/><path id="2qimd" d="M492 1516.14c0-2.54-1.5-4.07-3.34-4.07-1.83 0-3.33 1.53-3.33 4.07z"/><path id="2qime" d="M473.33 1510.04c0-1.13.9-2.04 2-2.04s2 .91 2 2.04c0 1.12-.9 2.03-2 2.03s-2-.91-2-2.03z"/><path id="2qimf" d="M478.67 1516.14c0-2.54-1.5-4.07-3.34-4.07-1.83 0-3.33 1.53-3.33 4.07z"/></defs><g><g transform="translate(-471 -1507)"><use fill="#fff" fill-opacity="0" stroke="#4c3092" stroke-linecap="round" stroke-miterlimit="50" stroke-width=".9" xlink:href="#2qima"/></g><g transform="translate(-471 -1507)"><use fill="#fff" fill-opacity="0" stroke="#4c3092" stroke-linecap="round" stroke-miterlimit="50" stroke-width=".9" xlink:href="#2qimb"/></g><g transform="translate(-471 -1507)"><use fill="#fff" fill-opacity="0" stroke="#4c3092" stroke-linecap="round" stroke-miterlimit="50" stroke-width=".9" xlink:href="#2qimc"/></g><g transform="translate(-471 -1507)"><use fill="#fff" fill-opacity="0" stroke="#4c3092" stroke-linecap="round" stroke-miterlimit="50" stroke-width=".9" xlink:href="#2qimd"/></g><g transform="translate(-471 -1507)"><use fill="#fff" fill-opacity="0" stroke="#4c3092" stroke-linecap="round" stroke-miterlimit="50" stroke-width=".9" xlink:href="#2qime"/></g><g transform="translate(-471 -1507)"><use fill="#fff" fill-opacity="0" stroke="#4c3092" stroke-linecap="round" stroke-miterlimit="50" stroke-width=".9" xlink:href="#2qimf"/></g><g transform="translate(-471 -1507)"><use fill="#fff" fill-opacity="0" stroke="#4c3092" stroke-linecap="round" stroke-miterlimit="50" stroke-width=".9" xlink:href="#2qimg"/></g></g></svg>