<svg xmlns="http://www.w3.org/2000/svg" xmlns:xlink="http://www.w3.org/1999/xlink" width="19" height="19" viewBox="0 0 19 19"><defs><path id="2bg0a" d="M153.82 1527.5l-6.82-6.81 10.69-10.69 6.4.42.42 6.4z"/><path id="2bg0b" d="M150.74 1520.84l.8-.8 2.81 2.82-.8.8zm4.04-4.04l2.81 2.82-.65.65-2.74-.26 1.5 1.5-.78.78-2.82-2.81.66-.66 2.74.26-1.5-1.5zm4.42 1.32c-.23.23-.48.42-.75.58a2.3 2.3 0 0 1-.74.3l-.33-.85a2.4 2.4 0 0 0 1.2-.65c.31-.3.39-.54.24-.69-.09-.08-.19-.1-.31-.05-.13.05-.31.15-.55.3-.25.17-.48.3-.67.38-.2.1-.4.13-.62.12a.96.96 0 0 1-.62-.32 1.14 1.14 0 0 1-.32-.6c-.05-.23-.02-.48.09-.75.1-.26.3-.53.56-.8.19-.19.4-.35.61-.49.22-.14.44-.23.66-.29l.35.84c-.42.12-.75.3-1 .56a.92.92 0 0 0-.28.42c-.02.11 0 .21.08.29.07.07.17.08.3.04.12-.05.3-.15.53-.3.26-.17.48-.3.67-.39.2-.09.4-.12.62-.11.22 0 .42.11.62.3.17.18.27.37.32.6.04.24 0 .49-.1.75-.1.27-.3.54-.56.81zm.03-5.77c.25-.25.52-.43.79-.53.27-.1.54-.13.8-.08.25.06.49.2.7.4.21.22.34.45.4.7.05.26.03.53-.08.8-.1.27-.28.54-.53.8l-.5.48.74.74-.8.8-2.8-2.82zm1.4 1.5c.17-.16.25-.32.27-.47a.53.53 0 0 0-.18-.43.54.54 0 0 0-.43-.18c-.16 0-.32.1-.48.26l-.44.44.82.82z"/></defs><g><g transform="translate(-146 -1509)"><use fill="#fff" fill-opacity="0" stroke="#4c3092" stroke-linecap="round" stroke-miterlimit="50" stroke-width=".88" xlink:href="#2bg0a"/></g><g transform="translate(-146 -1509)"><use fill="#4c3092" xlink:href="#2bg0b"/></g></g></svg>