<svg xmlns="http://www.w3.org/2000/svg" xmlns:xlink="http://www.w3.org/1999/xlink" width="10" height="14" viewBox="0 0 10 14"><defs><path id="jna1a" d="M312.11 531.93c0-3.44-5.25-2.54-5.25-4.12 0-.43.41-.65 1.04-.65a8 8 0 0 1 3.21 1.02l.99-1.98a7.58 7.58 0 0 0-3.12-1.02v-1.99h-1.9v2c-1.82.29-2.95 1.34-2.95 2.85 0 3.38 5.25 2.4 5.25 4.02 0 .5-.49.78-1.25.78-1.04 0-2.6-.6-3.62-1.44l-1.01 1.95a7.52 7.52 0 0 0 3.59 1.46v2.1h1.89v-2.1c1.8-.22 3.13-1.2 3.13-2.88z"/></defs><g><g transform="translate(-303 -523)"><use fill="#4c3092" xlink:href="#jna1a"/></g></g></svg>